<?xml version="1.0" encoding="UTF-8"?>
<svg xmlns="http://www.w3.org/2000/svg" xmlns:xlink="http://www.w3.org/1999/xlink" width="169.074219" height="244.640625" viewBox="0 0 169.074219 244.640625">
<path fill-rule="nonzero" fill="rgb(100%, 100%, 100%)" fill-opacity="1" stroke-width="2.5" stroke-linecap="butt" stroke-linejoin="miter" stroke="rgb(0%, 0%, 0%)" stroke-opacity="1" stroke-miterlimit="4" d="M 0 -0.000473022 C 0 3.780777 3.089844 6.870621 6.871094 6.870621 L 159.714844 6.870621 C 163.484375 6.870621 166.574219 3.780777 166.574219 -0.000473022 L 166.574219 -228.398911 C 166.574219 -232.180161 163.484375 -235.270004 159.714844 -235.270004 L 6.871094 -235.270004 C 3.089844 -235.270004 0 -232.180161 0 -228.398911 Z M 0 -0.000473022 " transform="matrix(1, 0, 0, 1, 1.25, 236.520004)"/>
<path fill-rule="nonzero" fill="rgb(0%, 0%, 0%)" fill-opacity="1" d="M 16.53125 19.757812 C 17.9375 20.1875 19.003906 21.15625 19.734375 22.664062 C 20.46875 24.175781 20.835938 26.152344 20.835938 28.597656 C 20.835938 31.636719 20.222656 33.976562 18.992188 35.601562 C 17.761719 37.234375 15.988281 38.046875 13.675781 38.046875 C 11.363281 38.046875 9.589844 37.234375 8.355469 35.601562 C 7.121094 33.976562 6.503906 31.636719 6.503906 28.597656 C 6.503906 26.152344 6.867188 24.175781 7.605469 22.664062 C 8.339844 21.15625 9.40625 20.1875 10.808594 19.757812 C 9.566406 19.21875 8.636719 18.328125 8.019531 17.082031 C 7.40625 15.824219 7.101562 14.238281 7.101562 12.324219 C 7.101562 9.503906 7.660156 7.359375 8.777344 5.878906 C 9.902344 4.390625 11.53125 3.648438 13.675781 3.648438 C 15.808594 3.648438 17.4375 4.390625 18.5625 5.878906 C 19.691406 7.359375 20.253906 9.503906 20.253906 12.324219 C 20.253906 14.238281 19.941406 15.824219 19.320312 17.082031 C 18.703125 18.328125 17.769531 19.21875 16.53125 19.757812 Z M 15.667969 12.40625 C 15.667969 10.070312 15.515625 8.464844 15.21875 7.582031 C 14.917969 6.699219 14.402344 6.257812 13.675781 6.257812 C 12.9375 6.257812 12.421875 6.699219 12.128906 7.582031 C 11.835938 8.464844 11.6875 10.070312 11.6875 12.40625 C 11.6875 14.730469 11.835938 16.328125 12.128906 17.195312 C 12.421875 18.054688 12.9375 18.484375 13.675781 18.484375 C 14.40625 18.484375 14.921875 18.054688 15.21875 17.195312 C 15.515625 16.328125 15.667969 14.730469 15.667969 12.40625 Z M 16.136719 28.214844 C 16.136719 25.507812 15.949219 23.640625 15.578125 22.617188 C 15.214844 21.589844 14.578125 21.078125 13.675781 21.078125 C 12.765625 21.078125 12.132812 21.589844 11.769531 22.617188 C 11.402344 23.640625 11.222656 25.507812 11.222656 28.214844 C 11.222656 30.949219 11.402344 32.839844 11.769531 33.882812 C 12.140625 34.933594 12.773438 35.453125 13.675781 35.453125 C 14.566406 35.453125 15.199219 34.933594 15.570312 33.882812 C 15.945312 32.839844 16.136719 30.949219 16.136719 28.214844 Z M 5.25 -5.289062 "/>
<path fill-rule="nonzero" fill="rgb(0%, 0%, 0%)" fill-opacity="1" d="M 153.546875 223.886719 C 152.144531 223.457031 151.074219 222.484375 150.347656 220.976562 C 149.613281 219.464844 149.242188 217.492188 149.242188 215.046875 C 149.242188 212.007812 149.859375 209.667969 151.085938 208.039062 C 152.316406 206.410156 154.089844 205.59375 156.40625 205.59375 C 158.71875 205.59375 160.488281 206.410156 161.726562 208.039062 C 162.960938 209.667969 163.578125 212.007812 163.578125 215.046875 C 163.578125 217.492188 163.210938 219.464844 162.476562 220.976562 C 161.742188 222.484375 160.671875 223.457031 159.273438 223.886719 C 160.515625 224.421875 161.441406 225.316406 162.058594 226.5625 C 162.671875 227.816406 162.976562 229.402344 162.976562 231.320312 C 162.976562 234.136719 162.417969 236.285156 161.300781 237.765625 C 160.179688 239.25 158.546875 239.996094 156.40625 239.996094 C 154.269531 239.996094 152.644531 239.25 151.519531 237.765625 C 150.390625 236.285156 149.824219 234.136719 149.824219 231.320312 C 149.824219 229.402344 150.140625 227.816406 150.761719 226.5625 C 151.378906 225.316406 152.308594 224.421875 153.546875 223.886719 Z M 154.414062 231.238281 C 154.414062 233.570312 154.5625 235.179688 154.863281 236.0625 C 155.164062 236.941406 155.679688 237.382812 156.40625 237.382812 C 157.144531 237.382812 157.65625 236.941406 157.949219 236.0625 C 158.246094 235.179688 158.390625 233.570312 158.390625 231.238281 C 158.390625 228.914062 158.246094 227.3125 157.949219 226.445312 C 157.65625 225.585938 157.144531 225.15625 156.40625 225.15625 C 155.671875 225.15625 155.15625 225.585938 154.863281 226.445312 C 154.5625 227.3125 154.414062 228.914062 154.414062 231.238281 Z M 153.945312 215.425781 C 153.945312 218.136719 154.128906 220.003906 154.5 221.027344 C 154.867188 222.050781 155.503906 222.5625 156.40625 222.5625 C 157.3125 222.5625 157.949219 222.050781 158.3125 221.027344 C 158.675781 220.003906 158.859375 218.136719 158.859375 215.425781 C 158.859375 212.691406 158.675781 210.804688 158.3125 209.757812 C 157.941406 208.710938 157.304688 208.191406 156.40625 208.191406 C 155.511719 208.191406 154.878906 208.710938 154.507812 209.757812 C 154.132812 210.804688 153.945312 212.691406 153.945312 215.425781 Z M 164.828125 248.933594 "/>
<path fill-rule="nonzero" fill="rgb(0%, 0%, 0%)" fill-opacity="1" d="M 11.550781 46.742188 C 11.550781 48.554688 13.058594 50.023438 14.929688 50.023438 C 16.800781 50.023438 18.308594 48.554688 18.308594 46.742188 C 18.308594 44.933594 16.800781 43.464844 14.929688 43.464844 C 13.058594 43.464844 11.550781 44.933594 11.550781 46.742188 Z M 11.550781 46.742188 "/>
<path fill-rule="nonzero" fill="rgb(0%, 0%, 0%)" fill-opacity="1" d="M 7.191406 52.953125 C 7.191406 54.761719 8.699219 56.234375 10.570312 56.234375 C 12.441406 56.234375 13.949219 54.761719 13.949219 52.953125 C 13.949219 51.144531 12.441406 49.671875 10.570312 49.671875 C 8.699219 49.671875 7.191406 51.144531 7.191406 52.953125 Z M 7.191406 52.953125 "/>
<path fill-rule="nonzero" fill="rgb(0%, 0%, 0%)" fill-opacity="1" d="M 15.851562 52.972656 C 15.851562 53.632812 16.050781 54.253906 16.398438 54.773438 C 17 55.664062 18.050781 56.253906 19.230469 56.253906 C 21.101562 56.253906 22.609375 54.78125 22.609375 52.972656 C 22.609375 51.164062 21.101562 49.691406 19.230469 49.691406 C 17.359375 49.691406 15.851562 51.164062 15.851562 52.972656 Z M 15.851562 52.972656 "/>
<path fill-rule="nonzero" fill="rgb(0%, 0%, 0%)" fill-opacity="1" d="M 10.960938 59.34375 C 12.628906 59.34375 13.511719 57.984375 13.96875 56.621094 C 14.429688 55.261719 14.46875 53.902344 14.46875 53.902344 L 15.328125 53.902344 C 15.328125 53.902344 15.488281 59.332031 18.828125 59.34375 Z M 10.960938 59.34375 "/>
<path fill-rule="nonzero" fill="rgb(0%, 0%, 0%)" fill-opacity="1" d="M 17.21875 49.152344 C 15.320312 51.054688 15.320312 53.902344 15.320312 53.902344 L 14.46875 53.914062 C 14.46875 53.914062 14.46875 51.003906 12.621094 49.152344 "/>
<path fill-rule="nonzero" fill="rgb(0%, 0%, 0%)" fill-opacity="1" d="M 16.839844 55.253906 C 14.941406 53.351562 12.089844 53.351562 12.089844 53.351562 L 12.089844 52.503906 C 12.089844 52.503906 15 52.503906 16.851562 50.652344 "/>
<path fill-rule="nonzero" fill="rgb(0%, 0%, 0%)" fill-opacity="1" d="M 13.03125 55.261719 C 14.929688 53.363281 17.78125 53.363281 17.78125 53.363281 L 17.78125 52.511719 C 17.78125 52.511719 14.871094 52.511719 13.019531 50.664062 "/>
<path fill-rule="nonzero" fill="rgb(0%, 0%, 0%)" fill-opacity="1" d="M 158.53125 196.898438 C 158.53125 195.089844 157.019531 193.621094 155.148438 193.621094 C 153.28125 193.621094 151.769531 195.089844 151.769531 196.898438 C 151.769531 198.710938 153.28125 200.179688 155.148438 200.179688 C 157.019531 200.179688 158.53125 198.710938 158.53125 196.898438 Z M 158.53125 196.898438 "/>
<path fill-rule="nonzero" fill="rgb(0%, 0%, 0%)" fill-opacity="1" d="M 162.890625 190.691406 C 162.890625 188.878906 161.378906 187.410156 159.511719 187.410156 C 157.640625 187.410156 156.128906 188.878906 156.128906 190.691406 C 156.128906 192.5 157.640625 193.96875 159.511719 193.96875 C 161.378906 193.96875 162.890625 192.5 162.890625 190.691406 Z M 162.890625 190.691406 "/>
<path fill-rule="nonzero" fill="rgb(0%, 0%, 0%)" fill-opacity="1" d="M 154.230469 190.671875 C 154.230469 190.011719 154.03125 189.390625 153.679688 188.871094 C 153.078125 187.980469 152.03125 187.390625 150.851562 187.390625 C 148.980469 187.390625 147.46875 188.859375 147.46875 190.671875 C 147.46875 192.480469 148.980469 193.949219 150.851562 193.949219 C 152.71875 193.949219 154.230469 192.480469 154.230469 190.671875 Z M 154.230469 190.671875 "/>
<path fill-rule="nonzero" fill="rgb(0%, 0%, 0%)" fill-opacity="1" d="M 159.121094 184.300781 C 157.449219 184.300781 156.570312 185.660156 156.109375 187.019531 C 155.648438 188.378906 155.609375 189.738281 155.609375 189.738281 L 154.75 189.738281 C 154.75 189.738281 154.589844 184.308594 151.25 184.300781 Z M 159.121094 184.300781 "/>
<path fill-rule="nonzero" fill="rgb(0%, 0%, 0%)" fill-opacity="1" d="M 152.859375 194.488281 C 154.761719 192.589844 154.761719 189.738281 154.761719 189.738281 L 155.609375 189.730469 C 155.609375 189.730469 155.609375 192.640625 157.460938 194.488281 "/>
<path fill-rule="nonzero" fill="rgb(0%, 0%, 0%)" fill-opacity="1" d="M 153.238281 188.390625 C 155.140625 190.289062 157.988281 190.289062 157.988281 190.289062 L 157.988281 191.140625 C 157.988281 191.140625 155.078125 191.140625 153.230469 192.988281 "/>
<path fill-rule="nonzero" fill="rgb(0%, 0%, 0%)" fill-opacity="1" d="M 157.050781 188.378906 C 155.148438 190.28125 152.300781 190.28125 152.300781 190.28125 L 152.300781 191.128906 C 152.300781 191.128906 155.210938 191.128906 157.058594 192.980469 "/>
<path fill-rule="nonzero" fill="rgb(0%, 0%, 0%)" fill-opacity="1" d="M 37.074219 26.824219 C 37.074219 31.171875 40.699219 34.699219 45.1875 34.699219 C 49.675781 34.699219 53.296875 31.171875 53.296875 26.824219 C 53.296875 22.480469 49.675781 18.953125 45.1875 18.953125 C 40.699219 18.953125 37.074219 22.480469 37.074219 26.824219 Z M 37.074219 26.824219 "/>
<path fill-rule="nonzero" fill="rgb(0%, 0%, 0%)" fill-opacity="1" d="M 26.609375 41.730469 C 26.609375 46.074219 30.234375 49.601562 34.722656 49.601562 C 39.210938 49.601562 42.835938 46.074219 42.835938 41.730469 C 42.835938 37.386719 39.210938 33.859375 34.722656 33.859375 C 30.234375 33.859375 26.609375 37.386719 26.609375 41.730469 Z M 26.609375 41.730469 "/>
<path fill-rule="nonzero" fill="rgb(0%, 0%, 0%)" fill-opacity="1" d="M 47.394531 41.777344 C 47.394531 43.363281 47.875 44.851562 48.714844 46.097656 C 50.152344 48.234375 52.675781 49.648438 55.507812 49.648438 C 59.992188 49.648438 63.617188 46.121094 63.617188 41.777344 C 63.617188 37.433594 59.992188 33.90625 55.507812 33.90625 C 51.019531 33.90625 47.394531 37.433594 47.394531 41.777344 Z M 47.394531 41.777344 "/>
<path fill-rule="nonzero" fill="rgb(0%, 0%, 0%)" fill-opacity="1" d="M 35.65625 57.066406 C 39.664062 57.066406 41.777344 53.800781 42.882812 50.539062 C 43.984375 47.273438 44.082031 44.011719 44.082031 44.011719 L 46.144531 44.011719 C 46.144531 44.011719 46.53125 57.042969 54.546875 57.066406 Z M 35.65625 57.066406 "/>
<path fill-rule="nonzero" fill="rgb(0%, 0%, 0%)" fill-opacity="1" d="M 50.683594 32.609375 C 46.121094 37.171875 46.121094 44.011719 46.121094 44.011719 L 44.082031 44.035156 C 44.082031 44.035156 44.082031 37.050781 39.640625 32.609375 "/>
<path fill-rule="nonzero" fill="rgb(0%, 0%, 0%)" fill-opacity="1" d="M 49.769531 47.25 C 45.210938 42.691406 38.371094 42.691406 38.371094 42.691406 L 38.371094 40.648438 C 38.371094 40.648438 45.355469 40.648438 49.792969 36.210938 "/>
<path fill-rule="nonzero" fill="rgb(0%, 0%, 0%)" fill-opacity="1" d="M 40.625 47.273438 C 45.1875 42.714844 52.027344 42.714844 52.027344 42.714844 L 52.027344 40.675781 C 52.027344 40.675781 45.042969 40.675781 40.601562 36.234375 "/>
<path fill-rule="nonzero" fill="rgb(0%, 0%, 0%)" fill-opacity="1" d="M 37.074219 80.980469 C 37.074219 85.328125 40.699219 88.855469 45.1875 88.855469 C 49.675781 88.855469 53.296875 85.328125 53.296875 80.980469 C 53.296875 76.636719 49.675781 73.109375 45.1875 73.109375 C 40.699219 73.109375 37.074219 76.636719 37.074219 80.980469 Z M 37.074219 80.980469 "/>
<path fill-rule="nonzero" fill="rgb(0%, 0%, 0%)" fill-opacity="1" d="M 26.609375 95.886719 C 26.609375 100.230469 30.234375 103.757812 34.722656 103.757812 C 39.210938 103.757812 42.835938 100.230469 42.835938 95.886719 C 42.835938 91.542969 39.210938 88.015625 34.722656 88.015625 C 30.234375 88.015625 26.609375 91.542969 26.609375 95.886719 Z M 26.609375 95.886719 "/>
<path fill-rule="nonzero" fill="rgb(0%, 0%, 0%)" fill-opacity="1" d="M 47.394531 95.933594 C 47.394531 97.519531 47.875 99.007812 48.714844 100.253906 C 50.152344 102.390625 52.675781 103.804688 55.507812 103.804688 C 59.992188 103.804688 63.617188 100.277344 63.617188 95.933594 C 63.617188 91.589844 59.992188 88.0625 55.507812 88.0625 C 51.019531 88.0625 47.394531 91.589844 47.394531 95.933594 Z M 47.394531 95.933594 "/>
<path fill-rule="nonzero" fill="rgb(0%, 0%, 0%)" fill-opacity="1" d="M 35.65625 111.222656 C 39.664062 111.222656 41.777344 107.957031 42.882812 104.695312 C 43.984375 101.429688 44.082031 98.167969 44.082031 98.167969 L 46.144531 98.167969 C 46.144531 98.167969 46.53125 111.199219 54.546875 111.222656 Z M 35.65625 111.222656 "/>
<path fill-rule="nonzero" fill="rgb(0%, 0%, 0%)" fill-opacity="1" d="M 50.683594 86.765625 C 46.121094 91.328125 46.121094 98.167969 46.121094 98.167969 L 44.082031 98.191406 C 44.082031 98.191406 44.082031 91.207031 39.640625 86.765625 "/>
<path fill-rule="nonzero" fill="rgb(0%, 0%, 0%)" fill-opacity="1" d="M 49.769531 101.40625 C 45.210938 96.847656 38.371094 96.847656 38.371094 96.847656 L 38.371094 94.804688 C 38.371094 94.804688 45.355469 94.804688 49.792969 90.367188 "/>
<path fill-rule="nonzero" fill="rgb(0%, 0%, 0%)" fill-opacity="1" d="M 40.625 101.429688 C 45.1875 96.871094 52.027344 96.871094 52.027344 96.871094 L 52.027344 94.832031 C 52.027344 94.832031 45.042969 94.832031 40.601562 90.390625 "/>
<path fill-rule="nonzero" fill="rgb(0%, 0%, 0%)" fill-opacity="1" d="M 53.152344 158.511719 C 53.152344 154.167969 49.53125 150.636719 45.042969 150.636719 C 40.554688 150.636719 36.929688 154.167969 36.929688 158.511719 C 36.929688 162.855469 40.554688 166.382812 45.042969 166.382812 C 49.53125 166.382812 53.152344 162.855469 53.152344 158.511719 Z M 53.152344 158.511719 "/>
<path fill-rule="nonzero" fill="rgb(0%, 0%, 0%)" fill-opacity="1" d="M 63.617188 143.605469 C 63.617188 139.261719 59.992188 135.734375 55.507812 135.734375 C 51.019531 135.734375 47.394531 139.261719 47.394531 143.605469 C 47.394531 147.949219 51.019531 151.476562 55.507812 151.476562 C 59.992188 151.476562 63.617188 147.949219 63.617188 143.605469 Z M 63.617188 143.605469 "/>
<path fill-rule="nonzero" fill="rgb(0%, 0%, 0%)" fill-opacity="1" d="M 42.835938 143.558594 C 42.835938 141.972656 42.355469 140.484375 41.515625 139.238281 C 40.074219 137.101562 37.554688 135.6875 34.722656 135.6875 C 30.234375 135.6875 26.609375 139.214844 26.609375 143.558594 C 26.609375 147.902344 30.234375 151.429688 34.722656 151.429688 C 39.210938 151.429688 42.835938 147.902344 42.835938 143.558594 Z M 42.835938 143.558594 "/>
<path fill-rule="nonzero" fill="rgb(0%, 0%, 0%)" fill-opacity="1" d="M 54.570312 128.269531 C 50.5625 128.269531 48.449219 131.535156 47.347656 134.796875 C 46.242188 138.0625 46.144531 141.324219 46.144531 141.324219 L 44.082031 141.324219 C 44.082031 141.324219 43.699219 128.292969 35.683594 128.269531 Z M 54.570312 128.269531 "/>
<path fill-rule="nonzero" fill="rgb(0%, 0%, 0%)" fill-opacity="1" d="M 39.546875 152.726562 C 44.105469 148.167969 44.105469 141.324219 44.105469 141.324219 L 46.144531 141.300781 C 46.144531 141.300781 46.144531 148.285156 50.585938 152.726562 "/>
<path fill-rule="nonzero" fill="rgb(0%, 0%, 0%)" fill-opacity="1" d="M 40.457031 138.085938 C 45.019531 142.644531 51.859375 142.644531 51.859375 142.644531 L 51.859375 144.6875 C 51.859375 144.6875 44.875 144.6875 40.433594 149.125 "/>
<path fill-rule="nonzero" fill="rgb(0%, 0%, 0%)" fill-opacity="1" d="M 49.601562 138.0625 C 45.042969 142.621094 38.203125 142.621094 38.203125 142.621094 L 38.203125 144.664062 C 38.203125 144.664062 45.1875 144.664062 49.625 149.101562 "/>
<path fill-rule="nonzero" fill="rgb(0%, 0%, 0%)" fill-opacity="1" d="M 53.152344 212.667969 C 53.152344 208.324219 49.53125 204.792969 45.042969 204.792969 C 40.554688 204.792969 36.929688 208.324219 36.929688 212.667969 C 36.929688 217.011719 40.554688 220.539062 45.042969 220.539062 C 49.53125 220.539062 53.152344 217.011719 53.152344 212.667969 Z M 53.152344 212.667969 "/>
<path fill-rule="nonzero" fill="rgb(0%, 0%, 0%)" fill-opacity="1" d="M 63.617188 197.761719 C 63.617188 193.417969 59.992188 189.890625 55.507812 189.890625 C 51.019531 189.890625 47.394531 193.417969 47.394531 197.761719 C 47.394531 202.105469 51.019531 205.632812 55.507812 205.632812 C 59.992188 205.632812 63.617188 202.105469 63.617188 197.761719 Z M 63.617188 197.761719 "/>
<path fill-rule="nonzero" fill="rgb(0%, 0%, 0%)" fill-opacity="1" d="M 42.835938 197.714844 C 42.835938 196.128906 42.355469 194.640625 41.515625 193.394531 C 40.074219 191.257812 37.554688 189.84375 34.722656 189.84375 C 30.234375 189.84375 26.609375 193.371094 26.609375 197.714844 C 26.609375 202.058594 30.234375 205.585938 34.722656 205.585938 C 39.210938 205.585938 42.835938 202.058594 42.835938 197.714844 Z M 42.835938 197.714844 "/>
<path fill-rule="nonzero" fill="rgb(0%, 0%, 0%)" fill-opacity="1" d="M 54.570312 182.425781 C 50.5625 182.425781 48.449219 185.691406 47.347656 188.953125 C 46.242188 192.21875 46.144531 195.480469 46.144531 195.480469 L 44.082031 195.480469 C 44.082031 195.480469 43.699219 182.449219 35.683594 182.425781 Z M 54.570312 182.425781 "/>
<path fill-rule="nonzero" fill="rgb(0%, 0%, 0%)" fill-opacity="1" d="M 39.546875 206.882812 C 44.105469 202.324219 44.105469 195.480469 44.105469 195.480469 L 46.144531 195.457031 C 46.144531 195.457031 46.144531 202.441406 50.585938 206.882812 "/>
<path fill-rule="nonzero" fill="rgb(0%, 0%, 0%)" fill-opacity="1" d="M 40.457031 192.242188 C 45.019531 196.800781 51.859375 196.800781 51.859375 196.800781 L 51.859375 198.84375 C 51.859375 198.84375 44.875 198.84375 40.433594 203.28125 "/>
<path fill-rule="nonzero" fill="rgb(0%, 0%, 0%)" fill-opacity="1" d="M 49.601562 192.21875 C 45.042969 196.777344 38.203125 196.777344 38.203125 196.777344 L 38.203125 198.820312 C 38.203125 198.820312 45.1875 198.820312 49.625 203.257812 "/>
<path fill-rule="nonzero" fill="rgb(0%, 0%, 0%)" fill-opacity="1" d="M 116.929688 26.824219 C 116.929688 31.171875 120.554688 34.699219 125.042969 34.699219 C 129.53125 34.699219 133.15625 31.171875 133.15625 26.824219 C 133.15625 22.480469 129.53125 18.953125 125.042969 18.953125 C 120.554688 18.953125 116.929688 22.480469 116.929688 26.824219 Z M 116.929688 26.824219 "/>
<path fill-rule="nonzero" fill="rgb(0%, 0%, 0%)" fill-opacity="1" d="M 106.46875 41.730469 C 106.46875 46.074219 110.089844 49.601562 114.578125 49.601562 C 119.066406 49.601562 122.691406 46.074219 122.691406 41.730469 C 122.691406 37.386719 119.066406 33.859375 114.578125 33.859375 C 110.089844 33.859375 106.46875 37.386719 106.46875 41.730469 Z M 106.46875 41.730469 "/>
<path fill-rule="nonzero" fill="rgb(0%, 0%, 0%)" fill-opacity="1" d="M 127.25 41.777344 C 127.25 43.363281 127.730469 44.851562 128.570312 46.097656 C 130.011719 48.234375 132.53125 49.648438 135.363281 49.648438 C 139.851562 49.648438 143.476562 46.121094 143.476562 41.777344 C 143.476562 37.433594 139.851562 33.90625 135.363281 33.90625 C 130.875 33.90625 127.25 37.433594 127.25 41.777344 Z M 127.25 41.777344 "/>
<path fill-rule="nonzero" fill="rgb(0%, 0%, 0%)" fill-opacity="1" d="M 115.515625 57.066406 C 119.523438 57.066406 121.636719 53.800781 122.738281 50.539062 C 123.84375 47.273438 123.9375 44.011719 123.9375 44.011719 L 126.003906 44.011719 C 126.003906 44.011719 126.386719 57.042969 134.402344 57.066406 Z M 115.515625 57.066406 "/>
<path fill-rule="nonzero" fill="rgb(0%, 0%, 0%)" fill-opacity="1" d="M 130.539062 32.609375 C 125.980469 37.171875 125.980469 44.011719 125.980469 44.011719 L 123.9375 44.035156 C 123.9375 44.035156 123.9375 37.050781 119.5 32.609375 "/>
<path fill-rule="nonzero" fill="rgb(0%, 0%, 0%)" fill-opacity="1" d="M 129.628906 47.25 C 125.066406 42.691406 118.226562 42.691406 118.226562 42.691406 L 118.226562 40.648438 C 118.226562 40.648438 125.210938 40.648438 129.652344 36.210938 "/>
<path fill-rule="nonzero" fill="rgb(0%, 0%, 0%)" fill-opacity="1" d="M 120.484375 47.273438 C 125.042969 42.714844 131.882812 42.714844 131.882812 42.714844 L 131.882812 40.675781 C 131.882812 40.675781 124.898438 40.675781 120.460938 36.234375 "/>
<path fill-rule="nonzero" fill="rgb(0%, 0%, 0%)" fill-opacity="1" d="M 116.929688 80.980469 C 116.929688 85.328125 120.554688 88.855469 125.042969 88.855469 C 129.53125 88.855469 133.15625 85.328125 133.15625 80.980469 C 133.15625 76.636719 129.53125 73.109375 125.042969 73.109375 C 120.554688 73.109375 116.929688 76.636719 116.929688 80.980469 Z M 116.929688 80.980469 "/>
<path fill-rule="nonzero" fill="rgb(0%, 0%, 0%)" fill-opacity="1" d="M 106.46875 95.886719 C 106.46875 100.230469 110.089844 103.757812 114.578125 103.757812 C 119.066406 103.757812 122.691406 100.230469 122.691406 95.886719 C 122.691406 91.542969 119.066406 88.015625 114.578125 88.015625 C 110.089844 88.015625 106.46875 91.542969 106.46875 95.886719 Z M 106.46875 95.886719 "/>
<path fill-rule="nonzero" fill="rgb(0%, 0%, 0%)" fill-opacity="1" d="M 127.25 95.933594 C 127.25 97.519531 127.730469 99.007812 128.570312 100.253906 C 130.011719 102.390625 132.53125 103.804688 135.363281 103.804688 C 139.851562 103.804688 143.476562 100.277344 143.476562 95.933594 C 143.476562 91.589844 139.851562 88.0625 135.363281 88.0625 C 130.875 88.0625 127.25 91.589844 127.25 95.933594 Z M 127.25 95.933594 "/>
<path fill-rule="nonzero" fill="rgb(0%, 0%, 0%)" fill-opacity="1" d="M 115.515625 111.222656 C 119.523438 111.222656 121.636719 107.957031 122.738281 104.695312 C 123.84375 101.429688 123.9375 98.167969 123.9375 98.167969 L 126.003906 98.167969 C 126.003906 98.167969 126.386719 111.199219 134.402344 111.222656 Z M 115.515625 111.222656 "/>
<path fill-rule="nonzero" fill="rgb(0%, 0%, 0%)" fill-opacity="1" d="M 130.539062 86.765625 C 125.980469 91.328125 125.980469 98.167969 125.980469 98.167969 L 123.9375 98.191406 C 123.9375 98.191406 123.9375 91.207031 119.5 86.765625 "/>
<path fill-rule="nonzero" fill="rgb(0%, 0%, 0%)" fill-opacity="1" d="M 129.628906 101.40625 C 125.066406 96.847656 118.226562 96.847656 118.226562 96.847656 L 118.226562 94.804688 C 118.226562 94.804688 125.210938 94.804688 129.652344 90.367188 "/>
<path fill-rule="nonzero" fill="rgb(0%, 0%, 0%)" fill-opacity="1" d="M 120.484375 101.429688 C 125.042969 96.871094 131.882812 96.871094 131.882812 96.871094 L 131.882812 94.832031 C 131.882812 94.832031 124.898438 94.832031 120.460938 90.390625 "/>
<path fill-rule="nonzero" fill="rgb(0%, 0%, 0%)" fill-opacity="1" d="M 133.011719 158.511719 C 133.011719 154.167969 129.386719 150.636719 124.898438 150.636719 C 120.410156 150.636719 116.789062 154.167969 116.789062 158.511719 C 116.789062 162.855469 120.410156 166.382812 124.898438 166.382812 C 129.386719 166.382812 133.011719 162.855469 133.011719 158.511719 Z M 133.011719 158.511719 "/>
<path fill-rule="nonzero" fill="rgb(0%, 0%, 0%)" fill-opacity="1" d="M 143.476562 143.605469 C 143.476562 139.261719 139.851562 135.734375 135.363281 135.734375 C 130.875 135.734375 127.25 139.261719 127.25 143.605469 C 127.25 147.949219 130.875 151.476562 135.363281 151.476562 C 139.851562 151.476562 143.476562 147.949219 143.476562 143.605469 Z M 143.476562 143.605469 "/>
<path fill-rule="nonzero" fill="rgb(0%, 0%, 0%)" fill-opacity="1" d="M 122.691406 143.558594 C 122.691406 141.972656 122.210938 140.484375 121.371094 139.238281 C 119.933594 137.101562 117.410156 135.6875 114.578125 135.6875 C 110.089844 135.6875 106.46875 139.214844 106.46875 143.558594 C 106.46875 147.902344 110.089844 151.429688 114.578125 151.429688 C 119.066406 151.429688 122.691406 147.902344 122.691406 143.558594 Z M 122.691406 143.558594 "/>
<path fill-rule="nonzero" fill="rgb(0%, 0%, 0%)" fill-opacity="1" d="M 134.425781 128.269531 C 130.417969 128.269531 128.308594 131.535156 127.203125 134.796875 C 126.101562 138.0625 126.003906 141.324219 126.003906 141.324219 L 123.941406 141.324219 C 123.941406 141.324219 123.554688 128.292969 115.539062 128.269531 Z M 134.425781 128.269531 "/>
<path fill-rule="nonzero" fill="rgb(0%, 0%, 0%)" fill-opacity="1" d="M 119.402344 152.726562 C 123.964844 148.167969 123.964844 141.324219 123.964844 141.324219 L 126.003906 141.300781 C 126.003906 141.300781 126.003906 148.285156 130.445312 152.726562 "/>
<path fill-rule="nonzero" fill="rgb(0%, 0%, 0%)" fill-opacity="1" d="M 120.316406 138.085938 C 124.875 142.644531 131.714844 142.644531 131.714844 142.644531 L 131.714844 144.6875 C 131.714844 144.6875 124.730469 144.6875 120.292969 149.125 "/>
<path fill-rule="nonzero" fill="rgb(0%, 0%, 0%)" fill-opacity="1" d="M 129.460938 138.0625 C 124.898438 142.621094 118.058594 142.621094 118.058594 142.621094 L 118.058594 144.664062 C 118.058594 144.664062 125.042969 144.664062 129.484375 149.101562 "/>
<path fill-rule="nonzero" fill="rgb(0%, 0%, 0%)" fill-opacity="1" d="M 133.011719 212.667969 C 133.011719 208.324219 129.386719 204.792969 124.898438 204.792969 C 120.410156 204.792969 116.789062 208.324219 116.789062 212.667969 C 116.789062 217.011719 120.410156 220.539062 124.898438 220.539062 C 129.386719 220.539062 133.011719 217.011719 133.011719 212.667969 Z M 133.011719 212.667969 "/>
<path fill-rule="nonzero" fill="rgb(0%, 0%, 0%)" fill-opacity="1" d="M 143.476562 197.761719 C 143.476562 193.417969 139.851562 189.890625 135.363281 189.890625 C 130.875 189.890625 127.25 193.417969 127.25 197.761719 C 127.25 202.105469 130.875 205.632812 135.363281 205.632812 C 139.851562 205.632812 143.476562 202.105469 143.476562 197.761719 Z M 143.476562 197.761719 "/>
<path fill-rule="nonzero" fill="rgb(0%, 0%, 0%)" fill-opacity="1" d="M 122.691406 197.714844 C 122.691406 196.128906 122.210938 194.640625 121.371094 193.394531 C 119.933594 191.257812 117.410156 189.84375 114.578125 189.84375 C 110.089844 189.84375 106.46875 193.371094 106.46875 197.714844 C 106.46875 202.058594 110.089844 205.585938 114.578125 205.585938 C 119.066406 205.585938 122.691406 202.058594 122.691406 197.714844 Z M 122.691406 197.714844 "/>
<path fill-rule="nonzero" fill="rgb(0%, 0%, 0%)" fill-opacity="1" d="M 134.425781 182.425781 C 130.417969 182.425781 128.308594 185.691406 127.203125 188.953125 C 126.101562 192.21875 126.003906 195.480469 126.003906 195.480469 L 123.941406 195.480469 C 123.941406 195.480469 123.554688 182.449219 115.539062 182.425781 Z M 134.425781 182.425781 "/>
<path fill-rule="nonzero" fill="rgb(0%, 0%, 0%)" fill-opacity="1" d="M 119.402344 206.882812 C 123.964844 202.324219 123.964844 195.480469 123.964844 195.480469 L 126.003906 195.457031 C 126.003906 195.457031 126.003906 202.441406 130.445312 206.882812 "/>
<path fill-rule="nonzero" fill="rgb(0%, 0%, 0%)" fill-opacity="1" d="M 120.316406 192.242188 C 124.875 196.800781 131.714844 196.800781 131.714844 196.800781 L 131.714844 198.84375 C 131.714844 198.84375 124.730469 198.84375 120.292969 203.28125 "/>
<path fill-rule="nonzero" fill="rgb(0%, 0%, 0%)" fill-opacity="1" d="M 129.460938 192.21875 C 124.898438 196.777344 118.058594 196.777344 118.058594 196.777344 L 118.058594 198.820312 C 118.058594 198.820312 125.042969 198.820312 129.484375 203.257812 "/>
</svg>
