<?xml version="1.0" encoding="UTF-8"?>
<svg xmlns="http://www.w3.org/2000/svg" xmlns:xlink="http://www.w3.org/1999/xlink" width="169.074219" height="244.640625" viewBox="0 0 169.074219 244.640625">
<path fill-rule="nonzero" fill="rgb(100%, 100%, 100%)" fill-opacity="1" stroke-width="2.5" stroke-linecap="butt" stroke-linejoin="miter" stroke="rgb(0%, 0%, 0%)" stroke-opacity="1" stroke-miterlimit="4" d="M 0 -0.000473022 C 0 3.780777 3.089844 6.870621 6.871094 6.870621 L 159.714844 6.870621 C 163.484375 6.870621 166.574219 3.780777 166.574219 -0.000473022 L 166.574219 -228.398911 C 166.574219 -232.180161 163.484375 -235.270004 159.714844 -235.270004 L 6.871094 -235.270004 C 3.089844 -235.270004 0 -232.180161 0 -228.398911 Z M 0 -0.000473022 " transform="matrix(1, 0, 0, 1, 1.25, 236.520004)"/>
<path fill-rule="nonzero" fill="rgb(0%, 0%, 0%)" fill-opacity="1" d="M 20.738281 37.402344 L 11 37.402344 L 11 34.710938 L 13.628906 34.710938 L 13.628906 28.679688 L 6.246094 28.679688 L 6.246094 26.117188 L 13.65625 3.648438 L 18.109375 3.648438 L 18.109375 25.820312 L 21.144531 25.820312 L 21.144531 28.679688 L 18.109375 28.679688 L 18.109375 34.710938 L 20.738281 34.710938 Z M 13.628906 25.820312 L 13.628906 9.710938 L 8.355469 25.820312 Z M 5.25 -5.289062 "/>
<path fill-rule="nonzero" fill="rgb(0%, 0%, 0%)" fill-opacity="1" d="M 149.335938 206.238281 L 159.074219 206.238281 L 159.074219 208.933594 L 156.445312 208.933594 L 156.445312 214.964844 L 163.828125 214.964844 L 163.828125 217.523438 L 156.417969 239.996094 L 151.964844 239.996094 L 151.964844 217.820312 L 148.929688 217.820312 L 148.929688 214.964844 L 151.964844 214.964844 L 151.964844 208.933594 L 149.335938 208.933594 Z M 156.445312 217.820312 L 156.445312 233.929688 L 161.71875 217.820312 Z M 164.824219 248.933594 "/>
<path fill-rule="nonzero" fill="rgb(0%, 0%, 0%)" fill-opacity="1" d="M 11.550781 46.742188 C 11.550781 48.554688 13.058594 50.023438 14.929688 50.023438 C 16.800781 50.023438 18.308594 48.554688 18.308594 46.742188 C 18.308594 44.933594 16.800781 43.464844 14.929688 43.464844 C 13.058594 43.464844 11.550781 44.933594 11.550781 46.742188 Z M 11.550781 46.742188 "/>
<path fill-rule="nonzero" fill="rgb(0%, 0%, 0%)" fill-opacity="1" d="M 7.191406 52.953125 C 7.191406 54.761719 8.699219 56.234375 10.570312 56.234375 C 12.441406 56.234375 13.949219 54.761719 13.949219 52.953125 C 13.949219 51.144531 12.441406 49.671875 10.570312 49.671875 C 8.699219 49.671875 7.191406 51.144531 7.191406 52.953125 Z M 7.191406 52.953125 "/>
<path fill-rule="nonzero" fill="rgb(0%, 0%, 0%)" fill-opacity="1" d="M 15.851562 52.972656 C 15.851562 53.632812 16.050781 54.253906 16.398438 54.773438 C 17 55.664062 18.050781 56.253906 19.230469 56.253906 C 21.101562 56.253906 22.609375 54.78125 22.609375 52.972656 C 22.609375 51.164062 21.101562 49.691406 19.230469 49.691406 C 17.359375 49.691406 15.851562 51.164062 15.851562 52.972656 Z M 15.851562 52.972656 "/>
<path fill-rule="nonzero" fill="rgb(0%, 0%, 0%)" fill-opacity="1" d="M 10.960938 59.34375 C 12.628906 59.34375 13.511719 57.984375 13.96875 56.621094 C 14.429688 55.261719 14.46875 53.902344 14.46875 53.902344 L 15.328125 53.902344 C 15.328125 53.902344 15.488281 59.332031 18.828125 59.34375 Z M 10.960938 59.34375 "/>
<path fill-rule="nonzero" fill="rgb(0%, 0%, 0%)" fill-opacity="1" d="M 17.21875 49.152344 C 15.320312 51.054688 15.320312 53.902344 15.320312 53.902344 L 14.46875 53.914062 C 14.46875 53.914062 14.46875 51.003906 12.621094 49.152344 "/>
<path fill-rule="nonzero" fill="rgb(0%, 0%, 0%)" fill-opacity="1" d="M 16.839844 55.253906 C 14.941406 53.351562 12.089844 53.351562 12.089844 53.351562 L 12.089844 52.503906 C 12.089844 52.503906 15 52.503906 16.851562 50.652344 "/>
<path fill-rule="nonzero" fill="rgb(0%, 0%, 0%)" fill-opacity="1" d="M 13.03125 55.261719 C 14.929688 53.363281 17.78125 53.363281 17.78125 53.363281 L 17.78125 52.511719 C 17.78125 52.511719 14.871094 52.511719 13.019531 50.664062 "/>
<path fill-rule="nonzero" fill="rgb(0%, 0%, 0%)" fill-opacity="1" d="M 158.523438 196.898438 C 158.523438 195.089844 157.015625 193.621094 155.144531 193.621094 C 153.273438 193.621094 151.765625 195.089844 151.765625 196.898438 C 151.765625 198.710938 153.273438 200.179688 155.144531 200.179688 C 157.015625 200.179688 158.523438 198.710938 158.523438 196.898438 Z M 158.523438 196.898438 "/>
<path fill-rule="nonzero" fill="rgb(0%, 0%, 0%)" fill-opacity="1" d="M 162.886719 190.691406 C 162.886719 188.878906 161.375 187.410156 159.503906 187.410156 C 157.636719 187.410156 156.125 188.878906 156.125 190.691406 C 156.125 192.5 157.636719 193.96875 159.503906 193.96875 C 161.375 193.96875 162.886719 192.5 162.886719 190.691406 Z M 162.886719 190.691406 "/>
<path fill-rule="nonzero" fill="rgb(0%, 0%, 0%)" fill-opacity="1" d="M 154.226562 190.671875 C 154.226562 190.011719 154.023438 189.390625 153.675781 188.871094 C 153.074219 187.980469 152.023438 187.390625 150.84375 187.390625 C 148.976562 187.390625 147.464844 188.859375 147.464844 190.671875 C 147.464844 192.480469 148.976562 193.949219 150.84375 193.949219 C 152.714844 193.949219 154.226562 192.480469 154.226562 190.671875 Z M 154.226562 190.671875 "/>
<path fill-rule="nonzero" fill="rgb(0%, 0%, 0%)" fill-opacity="1" d="M 159.113281 184.300781 C 157.445312 184.300781 156.566406 185.660156 156.105469 187.019531 C 155.644531 188.378906 155.605469 189.738281 155.605469 189.738281 L 154.746094 189.738281 C 154.746094 189.738281 154.585938 184.308594 151.246094 184.300781 Z M 159.113281 184.300781 "/>
<path fill-rule="nonzero" fill="rgb(0%, 0%, 0%)" fill-opacity="1" d="M 152.855469 194.488281 C 154.753906 192.589844 154.753906 189.738281 154.753906 189.738281 L 155.605469 189.730469 C 155.605469 189.730469 155.605469 192.640625 157.453125 194.488281 "/>
<path fill-rule="nonzero" fill="rgb(0%, 0%, 0%)" fill-opacity="1" d="M 153.234375 188.390625 C 155.136719 190.289062 157.984375 190.289062 157.984375 190.289062 L 157.984375 191.140625 C 157.984375 191.140625 155.074219 191.140625 153.226562 192.988281 "/>
<path fill-rule="nonzero" fill="rgb(0%, 0%, 0%)" fill-opacity="1" d="M 157.046875 188.378906 C 155.144531 190.28125 152.296875 190.28125 152.296875 190.28125 L 152.296875 191.128906 C 152.296875 191.128906 155.203125 191.128906 157.054688 192.980469 "/>
<path fill-rule="nonzero" fill="rgb(0%, 0%, 0%)" fill-opacity="1" d="M 37.066406 26.824219 C 37.066406 31.171875 40.691406 34.699219 45.179688 34.699219 C 49.667969 34.699219 53.292969 31.171875 53.292969 26.824219 C 53.292969 22.480469 49.667969 18.953125 45.179688 18.953125 C 40.691406 18.953125 37.066406 22.480469 37.066406 26.824219 Z M 37.066406 26.824219 "/>
<path fill-rule="nonzero" fill="rgb(0%, 0%, 0%)" fill-opacity="1" d="M 26.605469 41.730469 C 26.605469 46.074219 30.226562 49.601562 34.714844 49.601562 C 39.203125 49.601562 42.828125 46.074219 42.828125 41.730469 C 42.828125 37.386719 39.203125 33.859375 34.714844 33.859375 C 30.226562 33.859375 26.605469 37.386719 26.605469 41.730469 Z M 26.605469 41.730469 "/>
<path fill-rule="nonzero" fill="rgb(0%, 0%, 0%)" fill-opacity="1" d="M 47.386719 41.777344 C 47.386719 43.363281 47.867188 44.851562 48.707031 46.097656 C 50.148438 48.234375 52.667969 49.648438 55.5 49.648438 C 59.988281 49.648438 63.613281 46.121094 63.613281 41.777344 C 63.613281 37.433594 59.988281 33.90625 55.5 33.90625 C 51.011719 33.90625 47.386719 37.433594 47.386719 41.777344 Z M 47.386719 41.777344 "/>
<path fill-rule="nonzero" fill="rgb(0%, 0%, 0%)" fill-opacity="1" d="M 35.652344 57.066406 C 39.660156 57.066406 41.773438 53.800781 42.875 50.539062 C 43.980469 47.273438 44.074219 44.011719 44.074219 44.011719 L 46.140625 44.011719 C 46.140625 44.011719 46.523438 57.042969 54.539062 57.066406 Z M 35.652344 57.066406 "/>
<path fill-rule="nonzero" fill="rgb(0%, 0%, 0%)" fill-opacity="1" d="M 50.675781 32.609375 C 46.117188 37.171875 46.117188 44.011719 46.117188 44.011719 L 44.074219 44.035156 C 44.074219 44.035156 44.074219 37.050781 39.636719 32.609375 "/>
<path fill-rule="nonzero" fill="rgb(0%, 0%, 0%)" fill-opacity="1" d="M 49.765625 47.25 C 45.203125 42.691406 38.363281 42.691406 38.363281 42.691406 L 38.363281 40.648438 C 38.363281 40.648438 45.347656 40.648438 49.789062 36.210938 "/>
<path fill-rule="nonzero" fill="rgb(0%, 0%, 0%)" fill-opacity="1" d="M 40.621094 47.273438 C 45.179688 42.714844 52.019531 42.714844 52.019531 42.714844 L 52.019531 40.675781 C 52.019531 40.675781 45.035156 40.675781 40.597656 36.234375 "/>
<path fill-rule="nonzero" fill="rgb(0%, 0%, 0%)" fill-opacity="1" d="M 53.148438 212.667969 C 53.148438 208.324219 49.523438 204.792969 45.035156 204.792969 C 40.546875 204.792969 36.925781 208.324219 36.925781 212.667969 C 36.925781 217.011719 40.546875 220.539062 45.035156 220.539062 C 49.523438 220.539062 53.148438 217.011719 53.148438 212.667969 Z M 53.148438 212.667969 "/>
<path fill-rule="nonzero" fill="rgb(0%, 0%, 0%)" fill-opacity="1" d="M 63.613281 197.761719 C 63.613281 193.417969 59.988281 189.890625 55.5 189.890625 C 51.011719 189.890625 47.386719 193.417969 47.386719 197.761719 C 47.386719 202.105469 51.011719 205.632812 55.5 205.632812 C 59.988281 205.632812 63.613281 202.105469 63.613281 197.761719 Z M 63.613281 197.761719 "/>
<path fill-rule="nonzero" fill="rgb(0%, 0%, 0%)" fill-opacity="1" d="M 42.828125 197.714844 C 42.828125 196.128906 42.347656 194.640625 41.507812 193.394531 C 40.066406 191.257812 37.546875 189.84375 34.714844 189.84375 C 30.226562 189.84375 26.605469 193.371094 26.605469 197.714844 C 26.605469 202.058594 30.226562 205.585938 34.714844 205.585938 C 39.203125 205.585938 42.828125 202.058594 42.828125 197.714844 Z M 42.828125 197.714844 "/>
<path fill-rule="nonzero" fill="rgb(0%, 0%, 0%)" fill-opacity="1" d="M 54.5625 182.425781 C 50.554688 182.425781 48.445312 185.691406 47.339844 188.953125 C 46.234375 192.21875 46.140625 195.480469 46.140625 195.480469 L 44.078125 195.480469 C 44.078125 195.480469 43.691406 182.449219 35.675781 182.425781 Z M 54.5625 182.425781 "/>
<path fill-rule="nonzero" fill="rgb(0%, 0%, 0%)" fill-opacity="1" d="M 39.539062 206.882812 C 44.101562 202.324219 44.101562 195.480469 44.101562 195.480469 L 46.140625 195.457031 C 46.140625 195.457031 46.140625 202.441406 50.582031 206.882812 "/>
<path fill-rule="nonzero" fill="rgb(0%, 0%, 0%)" fill-opacity="1" d="M 40.453125 192.242188 C 45.011719 196.800781 51.851562 196.800781 51.851562 196.800781 L 51.851562 198.84375 C 51.851562 198.84375 44.867188 198.84375 40.429688 203.28125 "/>
<path fill-rule="nonzero" fill="rgb(0%, 0%, 0%)" fill-opacity="1" d="M 49.597656 192.21875 C 45.035156 196.777344 38.195312 196.777344 38.195312 196.777344 L 38.195312 198.820312 C 38.195312 198.820312 45.179688 198.820312 49.621094 203.257812 "/>
<path fill-rule="nonzero" fill="rgb(0%, 0%, 0%)" fill-opacity="1" d="M 116.925781 26.824219 C 116.925781 31.171875 120.550781 34.699219 125.039062 34.699219 C 129.527344 34.699219 133.148438 31.171875 133.148438 26.824219 C 133.148438 22.480469 129.527344 18.953125 125.039062 18.953125 C 120.550781 18.953125 116.925781 22.480469 116.925781 26.824219 Z M 116.925781 26.824219 "/>
<path fill-rule="nonzero" fill="rgb(0%, 0%, 0%)" fill-opacity="1" d="M 106.460938 41.730469 C 106.460938 46.074219 110.085938 49.601562 114.574219 49.601562 C 119.0625 49.601562 122.6875 46.074219 122.6875 41.730469 C 122.6875 37.386719 119.0625 33.859375 114.574219 33.859375 C 110.085938 33.859375 106.460938 37.386719 106.460938 41.730469 Z M 106.460938 41.730469 "/>
<path fill-rule="nonzero" fill="rgb(0%, 0%, 0%)" fill-opacity="1" d="M 127.246094 41.777344 C 127.246094 43.363281 127.726562 44.851562 128.566406 46.097656 C 130.003906 48.234375 132.527344 49.648438 135.359375 49.648438 C 139.847656 49.648438 143.46875 46.121094 143.46875 41.777344 C 143.46875 37.433594 139.847656 33.90625 135.359375 33.90625 C 130.871094 33.90625 127.246094 37.433594 127.246094 41.777344 Z M 127.246094 41.777344 "/>
<path fill-rule="nonzero" fill="rgb(0%, 0%, 0%)" fill-opacity="1" d="M 115.507812 57.066406 C 119.519531 57.066406 121.628906 53.800781 122.734375 50.539062 C 123.835938 47.273438 123.933594 44.011719 123.933594 44.011719 L 125.996094 44.011719 C 125.996094 44.011719 126.382812 57.042969 134.398438 57.066406 Z M 115.507812 57.066406 "/>
<path fill-rule="nonzero" fill="rgb(0%, 0%, 0%)" fill-opacity="1" d="M 130.535156 32.609375 C 125.972656 37.171875 125.972656 44.011719 125.972656 44.011719 L 123.933594 44.035156 C 123.933594 44.035156 123.933594 37.050781 119.492188 32.609375 "/>
<path fill-rule="nonzero" fill="rgb(0%, 0%, 0%)" fill-opacity="1" d="M 129.621094 47.25 C 125.0625 42.691406 118.222656 42.691406 118.222656 42.691406 L 118.222656 40.648438 C 118.222656 40.648438 125.207031 40.648438 129.644531 36.210938 "/>
<path fill-rule="nonzero" fill="rgb(0%, 0%, 0%)" fill-opacity="1" d="M 120.476562 47.273438 C 125.039062 42.714844 131.878906 42.714844 131.878906 42.714844 L 131.878906 40.675781 C 131.878906 40.675781 124.894531 40.675781 120.453125 36.234375 "/>
<path fill-rule="nonzero" fill="rgb(0%, 0%, 0%)" fill-opacity="1" d="M 133.003906 212.667969 C 133.003906 208.324219 129.382812 204.792969 124.894531 204.792969 C 120.40625 204.792969 116.78125 208.324219 116.78125 212.667969 C 116.78125 217.011719 120.40625 220.539062 124.894531 220.539062 C 129.382812 220.539062 133.003906 217.011719 133.003906 212.667969 Z M 133.003906 212.667969 "/>
<path fill-rule="nonzero" fill="rgb(0%, 0%, 0%)" fill-opacity="1" d="M 143.46875 197.761719 C 143.46875 193.417969 139.847656 189.890625 135.359375 189.890625 C 130.871094 189.890625 127.246094 193.417969 127.246094 197.761719 C 127.246094 202.105469 130.871094 205.632812 135.359375 205.632812 C 139.847656 205.632812 143.46875 202.105469 143.46875 197.761719 Z M 143.46875 197.761719 "/>
<path fill-rule="nonzero" fill="rgb(0%, 0%, 0%)" fill-opacity="1" d="M 122.6875 197.714844 C 122.6875 196.128906 122.207031 194.640625 121.367188 193.394531 C 119.925781 191.257812 117.40625 189.84375 114.574219 189.84375 C 110.085938 189.84375 106.460938 193.371094 106.460938 197.714844 C 106.460938 202.058594 110.085938 205.585938 114.574219 205.585938 C 119.0625 205.585938 122.6875 202.058594 122.6875 197.714844 Z M 122.6875 197.714844 "/>
<path fill-rule="nonzero" fill="rgb(0%, 0%, 0%)" fill-opacity="1" d="M 134.421875 182.425781 C 130.414062 182.425781 128.300781 185.691406 127.199219 188.953125 C 126.09375 192.21875 125.996094 195.480469 125.996094 195.480469 L 123.933594 195.480469 C 123.933594 195.480469 123.550781 182.449219 115.535156 182.425781 Z M 134.421875 182.425781 "/>
<path fill-rule="nonzero" fill="rgb(0%, 0%, 0%)" fill-opacity="1" d="M 119.398438 206.882812 C 123.957031 202.324219 123.957031 195.480469 123.957031 195.480469 L 125.996094 195.457031 C 125.996094 195.457031 125.996094 202.441406 130.4375 206.882812 "/>
<path fill-rule="nonzero" fill="rgb(0%, 0%, 0%)" fill-opacity="1" d="M 120.308594 192.242188 C 124.871094 196.800781 131.710938 196.800781 131.710938 196.800781 L 131.710938 198.84375 C 131.710938 198.84375 124.726562 198.84375 120.285156 203.28125 "/>
<path fill-rule="nonzero" fill="rgb(0%, 0%, 0%)" fill-opacity="1" d="M 129.453125 192.21875 C 124.894531 196.777344 118.054688 196.777344 118.054688 196.777344 L 118.054688 198.820312 C 118.054688 198.820312 125.039062 198.820312 129.476562 203.257812 "/>
</svg>
