<?xml version="1.0" encoding="UTF-8"?>
<svg xmlns="http://www.w3.org/2000/svg" xmlns:xlink="http://www.w3.org/1999/xlink" width="169.074219" height="244.640625" viewBox="0 0 169.074219 244.640625">
<path fill-rule="nonzero" fill="rgb(100%, 100%, 100%)" fill-opacity="1" stroke-width="2.5" stroke-linecap="butt" stroke-linejoin="miter" stroke="rgb(0%, 0%, 0%)" stroke-opacity="1" stroke-miterlimit="4" d="M 0 -0.000473022 C 0 3.780777 3.089844 6.870621 6.871094 6.870621 L 159.714844 6.870621 C 163.484375 6.870621 166.574219 3.780777 166.574219 -0.000473022 L 166.574219 -228.398911 C 166.574219 -232.180161 163.484375 -235.270004 159.714844 -235.270004 L 6.871094 -235.270004 C 3.089844 -235.270004 0 -232.180161 0 -228.398911 Z M 0 -0.000473022 " transform="matrix(1, 0, 0, 1, 1.25, 236.520004)"/>
<path fill-rule="nonzero" fill="rgb(0%, 0%, 0%)" fill-opacity="1" d="M 13.523438 6.257812 C 12.710938 6.257812 12.132812 6.910156 11.785156 8.207031 C 11.445312 9.496094 11.273438 11.738281 11.273438 14.933594 C 11.273438 18.128906 11.445312 20.378906 11.785156 21.675781 C 12.132812 22.976562 12.710938 23.625 13.523438 23.625 C 14.335938 23.625 14.914062 22.976562 15.261719 21.675781 C 15.613281 20.378906 15.789062 18.128906 15.789062 14.933594 C 15.789062 11.738281 15.613281 9.496094 15.261719 8.207031 C 14.914062 6.910156 14.335938 6.257812 13.523438 6.257812 Z M 16.171875 23.90625 C 15.644531 24.6875 15.066406 25.277344 14.433594 25.671875 C 13.796875 26.0625 13.105469 26.25 12.359375 26.25 C 10.558594 26.25 9.140625 25.265625 8.109375 23.292969 C 7.078125 21.324219 6.5625 18.597656 6.5625 15.113281 C 6.5625 11.445312 7.140625 8.621094 8.292969 6.640625 C 9.449219 4.648438 11.101562 3.648438 13.242188 3.648438 C 15.660156 3.648438 17.488281 5.019531 18.738281 7.761719 C 19.988281 10.503906 20.617188 14.515625 20.617188 19.789062 C 20.617188 25.816406 19.921875 30.363281 18.535156 33.4375 C 17.152344 36.511719 15.101562 38.046875 12.386719 38.046875 C 11.671875 38.046875 10.910156 37.9375 10.09375 37.71875 C 9.28125 37.492188 8.410156 37.164062 7.480469 36.710938 L 7.480469 30.859375 L 8.910156 30.859375 C 9.109375 32.371094 9.484375 33.515625 10.03125 34.296875 C 10.582031 35.070312 11.296875 35.453125 12.175781 35.453125 C 13.5625 35.453125 14.570312 34.554688 15.199219 32.742188 C 15.835938 30.925781 16.15625 27.980469 16.171875 23.90625 Z M 5.25 -5.289062 "/>
<path fill-rule="nonzero" fill="rgb(0%, 0%, 0%)" fill-opacity="1" d="M 156.546875 237.382812 C 157.359375 237.382812 157.9375 236.730469 158.285156 235.433594 C 158.625 234.144531 158.796875 231.902344 158.796875 228.710938 C 158.796875 225.511719 158.625 223.265625 158.285156 221.96875 C 157.9375 220.667969 157.359375 220.019531 156.546875 220.019531 C 155.734375 220.019531 155.15625 220.667969 154.808594 221.96875 C 154.457031 223.265625 154.277344 225.511719 154.277344 228.710938 C 154.277344 231.902344 154.457031 234.144531 154.808594 235.433594 C 155.15625 236.730469 155.734375 237.382812 156.546875 237.382812 Z M 153.898438 219.738281 C 154.425781 218.953125 155.003906 218.367188 155.636719 217.96875 C 156.273438 217.582031 156.964844 217.390625 157.710938 217.390625 C 159.511719 217.390625 160.929688 218.375 161.960938 220.351562 C 162.992188 222.320312 163.503906 225.046875 163.503906 228.527344 C 163.503906 232.195312 162.929688 235.019531 161.777344 237.003906 C 160.621094 238.996094 158.96875 239.996094 156.828125 239.996094 C 154.410156 239.996094 152.582031 238.625 151.332031 235.878906 C 150.082031 233.136719 149.453125 229.128906 149.453125 223.851562 C 149.453125 217.824219 150.148438 213.277344 151.535156 210.207031 C 152.917969 207.132812 154.96875 205.59375 157.683594 205.59375 C 158.394531 205.59375 159.160156 205.707031 159.976562 205.925781 C 160.789062 206.148438 161.660156 206.480469 162.589844 206.933594 L 162.589844 212.78125 L 161.160156 212.78125 C 160.960938 211.269531 160.585938 210.125 160.039062 209.347656 C 159.488281 208.574219 158.773438 208.191406 157.894531 208.191406 C 156.507812 208.191406 155.5 209.089844 154.871094 210.898438 C 154.234375 212.714844 153.914062 215.660156 153.898438 219.738281 Z M 164.820312 248.933594 "/>
<path fill-rule="nonzero" fill="rgb(0%, 0%, 0%)" fill-opacity="1" d="M 11.550781 46.742188 C 11.550781 48.554688 13.058594 50.023438 14.929688 50.023438 C 16.800781 50.023438 18.308594 48.554688 18.308594 46.742188 C 18.308594 44.933594 16.800781 43.464844 14.929688 43.464844 C 13.058594 43.464844 11.550781 44.933594 11.550781 46.742188 Z M 11.550781 46.742188 "/>
<path fill-rule="nonzero" fill="rgb(0%, 0%, 0%)" fill-opacity="1" d="M 7.191406 52.953125 C 7.191406 54.761719 8.699219 56.234375 10.570312 56.234375 C 12.441406 56.234375 13.949219 54.761719 13.949219 52.953125 C 13.949219 51.144531 12.441406 49.671875 10.570312 49.671875 C 8.699219 49.671875 7.191406 51.144531 7.191406 52.953125 Z M 7.191406 52.953125 "/>
<path fill-rule="nonzero" fill="rgb(0%, 0%, 0%)" fill-opacity="1" d="M 15.851562 52.972656 C 15.851562 53.632812 16.050781 54.253906 16.398438 54.773438 C 17 55.664062 18.050781 56.253906 19.230469 56.253906 C 21.101562 56.253906 22.609375 54.78125 22.609375 52.972656 C 22.609375 51.164062 21.101562 49.691406 19.230469 49.691406 C 17.359375 49.691406 15.851562 51.164062 15.851562 52.972656 Z M 15.851562 52.972656 "/>
<path fill-rule="nonzero" fill="rgb(0%, 0%, 0%)" fill-opacity="1" d="M 10.960938 59.34375 C 12.628906 59.34375 13.511719 57.984375 13.96875 56.621094 C 14.429688 55.261719 14.46875 53.902344 14.46875 53.902344 L 15.328125 53.902344 C 15.328125 53.902344 15.488281 59.332031 18.828125 59.34375 Z M 10.960938 59.34375 "/>
<path fill-rule="nonzero" fill="rgb(0%, 0%, 0%)" fill-opacity="1" d="M 17.21875 49.152344 C 15.320312 51.054688 15.320312 53.902344 15.320312 53.902344 L 14.46875 53.914062 C 14.46875 53.914062 14.46875 51.003906 12.621094 49.152344 "/>
<path fill-rule="nonzero" fill="rgb(0%, 0%, 0%)" fill-opacity="1" d="M 16.839844 55.253906 C 14.941406 53.351562 12.089844 53.351562 12.089844 53.351562 L 12.089844 52.503906 C 12.089844 52.503906 15 52.503906 16.851562 50.652344 "/>
<path fill-rule="nonzero" fill="rgb(0%, 0%, 0%)" fill-opacity="1" d="M 13.03125 55.261719 C 14.929688 53.363281 17.78125 53.363281 17.78125 53.363281 L 17.78125 52.511719 C 17.78125 52.511719 14.871094 52.511719 13.019531 50.664062 "/>
<path fill-rule="nonzero" fill="rgb(0%, 0%, 0%)" fill-opacity="1" d="M 158.519531 196.898438 C 158.519531 195.089844 157.011719 193.621094 155.140625 193.621094 C 153.269531 193.621094 151.761719 195.089844 151.761719 196.898438 C 151.761719 198.710938 153.269531 200.179688 155.140625 200.179688 C 157.011719 200.179688 158.519531 198.710938 158.519531 196.898438 Z M 158.519531 196.898438 "/>
<path fill-rule="nonzero" fill="rgb(0%, 0%, 0%)" fill-opacity="1" d="M 162.878906 190.691406 C 162.878906 188.878906 161.371094 187.410156 159.5 187.410156 C 157.628906 187.410156 156.121094 188.878906 156.121094 190.691406 C 156.121094 192.5 157.628906 193.96875 159.5 193.96875 C 161.371094 193.96875 162.878906 192.5 162.878906 190.691406 Z M 162.878906 190.691406 "/>
<path fill-rule="nonzero" fill="rgb(0%, 0%, 0%)" fill-opacity="1" d="M 154.21875 190.671875 C 154.21875 190.011719 154.019531 189.390625 153.671875 188.871094 C 153.070312 187.980469 152.019531 187.390625 150.839844 187.390625 C 148.96875 187.390625 147.460938 188.859375 147.460938 190.671875 C 147.460938 192.480469 148.96875 193.949219 150.839844 193.949219 C 152.710938 193.949219 154.21875 192.480469 154.21875 190.671875 Z M 154.21875 190.671875 "/>
<path fill-rule="nonzero" fill="rgb(0%, 0%, 0%)" fill-opacity="1" d="M 159.109375 184.300781 C 157.441406 184.300781 156.558594 185.660156 156.101562 187.019531 C 155.640625 188.378906 155.601562 189.738281 155.601562 189.738281 L 154.738281 189.738281 C 154.738281 189.738281 154.578125 184.308594 151.238281 184.300781 Z M 159.109375 184.300781 "/>
<path fill-rule="nonzero" fill="rgb(0%, 0%, 0%)" fill-opacity="1" d="M 152.851562 194.488281 C 154.75 192.589844 154.75 189.738281 154.75 189.738281 L 155.601562 189.730469 C 155.601562 189.730469 155.601562 192.640625 157.449219 194.488281 "/>
<path fill-rule="nonzero" fill="rgb(0%, 0%, 0%)" fill-opacity="1" d="M 153.230469 188.390625 C 155.128906 190.289062 157.980469 190.289062 157.980469 190.289062 L 157.980469 191.140625 C 157.980469 191.140625 155.070312 191.140625 153.21875 192.988281 "/>
<path fill-rule="nonzero" fill="rgb(0%, 0%, 0%)" fill-opacity="1" d="M 157.039062 188.378906 C 155.140625 190.28125 152.289062 190.28125 152.289062 190.28125 L 152.289062 191.128906 C 152.289062 191.128906 155.199219 191.128906 157.050781 192.980469 "/>
<path fill-rule="nonzero" fill="rgb(0%, 0%, 0%)" fill-opacity="1" d="M 37.070312 26.824219 C 37.070312 31.171875 40.691406 34.699219 45.179688 34.699219 C 49.667969 34.699219 53.292969 31.171875 53.292969 26.824219 C 53.292969 22.480469 49.667969 18.953125 45.179688 18.953125 C 40.691406 18.953125 37.070312 22.480469 37.070312 26.824219 Z M 37.070312 26.824219 "/>
<path fill-rule="nonzero" fill="rgb(0%, 0%, 0%)" fill-opacity="1" d="M 26.605469 41.730469 C 26.605469 46.074219 30.230469 49.601562 34.71875 49.601562 C 39.207031 49.601562 42.828125 46.074219 42.828125 41.730469 C 42.828125 37.386719 39.207031 33.859375 34.71875 33.859375 C 30.230469 33.859375 26.605469 37.386719 26.605469 41.730469 Z M 26.605469 41.730469 "/>
<path fill-rule="nonzero" fill="rgb(0%, 0%, 0%)" fill-opacity="1" d="M 47.390625 41.777344 C 47.390625 43.363281 47.871094 44.851562 48.710938 46.097656 C 50.148438 48.234375 52.667969 49.648438 55.5 49.648438 C 59.988281 49.648438 63.613281 46.121094 63.613281 41.777344 C 63.613281 37.433594 59.988281 33.90625 55.5 33.90625 C 51.011719 33.90625 47.390625 37.433594 47.390625 41.777344 Z M 47.390625 41.777344 "/>
<path fill-rule="nonzero" fill="rgb(0%, 0%, 0%)" fill-opacity="1" d="M 35.652344 57.066406 C 39.660156 57.066406 41.773438 53.800781 42.878906 50.539062 C 43.980469 47.273438 44.078125 44.011719 44.078125 44.011719 L 46.140625 44.011719 C 46.140625 44.011719 46.523438 57.042969 54.542969 57.066406 Z M 35.652344 57.066406 "/>
<path fill-rule="nonzero" fill="rgb(0%, 0%, 0%)" fill-opacity="1" d="M 50.675781 32.609375 C 46.117188 37.171875 46.117188 44.011719 46.117188 44.011719 L 44.078125 44.035156 C 44.078125 44.035156 44.078125 37.050781 39.636719 32.609375 "/>
<path fill-rule="nonzero" fill="rgb(0%, 0%, 0%)" fill-opacity="1" d="M 49.765625 47.25 C 45.207031 42.691406 38.367188 42.691406 38.367188 42.691406 L 38.367188 40.648438 C 38.367188 40.648438 45.347656 40.648438 49.789062 36.210938 "/>
<path fill-rule="nonzero" fill="rgb(0%, 0%, 0%)" fill-opacity="1" d="M 40.621094 47.273438 C 45.179688 42.714844 52.019531 42.714844 52.019531 42.714844 L 52.019531 40.675781 C 52.019531 40.675781 45.039062 40.675781 40.597656 36.234375 "/>
<path fill-rule="nonzero" fill="rgb(0%, 0%, 0%)" fill-opacity="1" d="M 37.070312 80.980469 C 37.070312 85.328125 40.691406 88.855469 45.179688 88.855469 C 49.667969 88.855469 53.292969 85.328125 53.292969 80.980469 C 53.292969 76.636719 49.667969 73.109375 45.179688 73.109375 C 40.691406 73.109375 37.070312 76.636719 37.070312 80.980469 Z M 37.070312 80.980469 "/>
<path fill-rule="nonzero" fill="rgb(0%, 0%, 0%)" fill-opacity="1" d="M 26.605469 95.886719 C 26.605469 100.230469 30.230469 103.757812 34.71875 103.757812 C 39.207031 103.757812 42.828125 100.230469 42.828125 95.886719 C 42.828125 91.542969 39.207031 88.015625 34.71875 88.015625 C 30.230469 88.015625 26.605469 91.542969 26.605469 95.886719 Z M 26.605469 95.886719 "/>
<path fill-rule="nonzero" fill="rgb(0%, 0%, 0%)" fill-opacity="1" d="M 47.390625 95.933594 C 47.390625 97.519531 47.871094 99.007812 48.710938 100.253906 C 50.148438 102.390625 52.667969 103.804688 55.5 103.804688 C 59.988281 103.804688 63.613281 100.277344 63.613281 95.933594 C 63.613281 91.589844 59.988281 88.0625 55.5 88.0625 C 51.011719 88.0625 47.390625 91.589844 47.390625 95.933594 Z M 47.390625 95.933594 "/>
<path fill-rule="nonzero" fill="rgb(0%, 0%, 0%)" fill-opacity="1" d="M 35.652344 111.222656 C 39.660156 111.222656 41.773438 107.957031 42.878906 104.695312 C 43.980469 101.429688 44.078125 98.167969 44.078125 98.167969 L 46.140625 98.167969 C 46.140625 98.167969 46.523438 111.199219 54.542969 111.222656 Z M 35.652344 111.222656 "/>
<path fill-rule="nonzero" fill="rgb(0%, 0%, 0%)" fill-opacity="1" d="M 50.675781 86.765625 C 46.117188 91.328125 46.117188 98.167969 46.117188 98.167969 L 44.078125 98.191406 C 44.078125 98.191406 44.078125 91.207031 39.636719 86.765625 "/>
<path fill-rule="nonzero" fill="rgb(0%, 0%, 0%)" fill-opacity="1" d="M 49.765625 101.40625 C 45.207031 96.847656 38.367188 96.847656 38.367188 96.847656 L 38.367188 94.804688 C 38.367188 94.804688 45.347656 94.804688 49.789062 90.367188 "/>
<path fill-rule="nonzero" fill="rgb(0%, 0%, 0%)" fill-opacity="1" d="M 40.621094 101.429688 C 45.179688 96.871094 52.019531 96.871094 52.019531 96.871094 L 52.019531 94.832031 C 52.019531 94.832031 45.039062 94.832031 40.597656 90.390625 "/>
<path fill-rule="nonzero" fill="rgb(0%, 0%, 0%)" fill-opacity="1" d="M 53.148438 158.511719 C 53.148438 154.167969 49.523438 150.636719 45.039062 150.636719 C 40.550781 150.636719 36.925781 154.167969 36.925781 158.511719 C 36.925781 162.855469 40.550781 166.382812 45.039062 166.382812 C 49.523438 166.382812 53.148438 162.855469 53.148438 158.511719 Z M 53.148438 158.511719 "/>
<path fill-rule="nonzero" fill="rgb(0%, 0%, 0%)" fill-opacity="1" d="M 63.613281 143.605469 C 63.613281 139.261719 59.988281 135.734375 55.5 135.734375 C 51.011719 135.734375 47.390625 139.261719 47.390625 143.605469 C 47.390625 147.949219 51.011719 151.476562 55.5 151.476562 C 59.988281 151.476562 63.613281 147.949219 63.613281 143.605469 Z M 63.613281 143.605469 "/>
<path fill-rule="nonzero" fill="rgb(0%, 0%, 0%)" fill-opacity="1" d="M 42.828125 143.558594 C 42.828125 141.972656 42.347656 140.484375 41.507812 139.238281 C 40.070312 137.101562 37.550781 135.6875 34.71875 135.6875 C 30.230469 135.6875 26.605469 139.214844 26.605469 143.558594 C 26.605469 147.902344 30.230469 151.429688 34.71875 151.429688 C 39.207031 151.429688 42.828125 147.902344 42.828125 143.558594 Z M 42.828125 143.558594 "/>
<path fill-rule="nonzero" fill="rgb(0%, 0%, 0%)" fill-opacity="1" d="M 54.566406 128.269531 C 50.558594 128.269531 48.445312 131.535156 47.339844 134.796875 C 46.238281 138.0625 46.140625 141.324219 46.140625 141.324219 L 44.078125 141.324219 C 44.078125 141.324219 43.691406 128.292969 35.675781 128.269531 Z M 54.566406 128.269531 "/>
<path fill-rule="nonzero" fill="rgb(0%, 0%, 0%)" fill-opacity="1" d="M 39.542969 152.726562 C 44.101562 148.167969 44.101562 141.324219 44.101562 141.324219 L 46.140625 141.300781 C 46.140625 141.300781 46.140625 148.285156 50.582031 152.726562 "/>
<path fill-rule="nonzero" fill="rgb(0%, 0%, 0%)" fill-opacity="1" d="M 40.453125 138.085938 C 45.011719 142.644531 51.851562 142.644531 51.851562 142.644531 L 51.851562 144.6875 C 51.851562 144.6875 44.871094 144.6875 40.429688 149.125 "/>
<path fill-rule="nonzero" fill="rgb(0%, 0%, 0%)" fill-opacity="1" d="M 49.597656 138.0625 C 45.039062 142.621094 38.195312 142.621094 38.195312 142.621094 L 38.195312 144.664062 C 38.195312 144.664062 45.179688 144.664062 49.621094 149.101562 "/>
<path fill-rule="nonzero" fill="rgb(0%, 0%, 0%)" fill-opacity="1" d="M 53.148438 212.667969 C 53.148438 208.324219 49.523438 204.792969 45.039062 204.792969 C 40.550781 204.792969 36.925781 208.324219 36.925781 212.667969 C 36.925781 217.011719 40.550781 220.539062 45.039062 220.539062 C 49.523438 220.539062 53.148438 217.011719 53.148438 212.667969 Z M 53.148438 212.667969 "/>
<path fill-rule="nonzero" fill="rgb(0%, 0%, 0%)" fill-opacity="1" d="M 63.613281 197.761719 C 63.613281 193.417969 59.988281 189.890625 55.5 189.890625 C 51.011719 189.890625 47.390625 193.417969 47.390625 197.761719 C 47.390625 202.105469 51.011719 205.632812 55.5 205.632812 C 59.988281 205.632812 63.613281 202.105469 63.613281 197.761719 Z M 63.613281 197.761719 "/>
<path fill-rule="nonzero" fill="rgb(0%, 0%, 0%)" fill-opacity="1" d="M 42.828125 197.714844 C 42.828125 196.128906 42.347656 194.640625 41.507812 193.394531 C 40.070312 191.257812 37.550781 189.84375 34.71875 189.84375 C 30.230469 189.84375 26.605469 193.371094 26.605469 197.714844 C 26.605469 202.058594 30.230469 205.585938 34.71875 205.585938 C 39.207031 205.585938 42.828125 202.058594 42.828125 197.714844 Z M 42.828125 197.714844 "/>
<path fill-rule="nonzero" fill="rgb(0%, 0%, 0%)" fill-opacity="1" d="M 54.566406 182.425781 C 50.558594 182.425781 48.445312 185.691406 47.339844 188.953125 C 46.238281 192.21875 46.140625 195.480469 46.140625 195.480469 L 44.078125 195.480469 C 44.078125 195.480469 43.691406 182.449219 35.675781 182.425781 Z M 54.566406 182.425781 "/>
<path fill-rule="nonzero" fill="rgb(0%, 0%, 0%)" fill-opacity="1" d="M 39.542969 206.882812 C 44.101562 202.324219 44.101562 195.480469 44.101562 195.480469 L 46.140625 195.457031 C 46.140625 195.457031 46.140625 202.441406 50.582031 206.882812 "/>
<path fill-rule="nonzero" fill="rgb(0%, 0%, 0%)" fill-opacity="1" d="M 40.453125 192.242188 C 45.011719 196.800781 51.851562 196.800781 51.851562 196.800781 L 51.851562 198.84375 C 51.851562 198.84375 44.871094 198.84375 40.429688 203.28125 "/>
<path fill-rule="nonzero" fill="rgb(0%, 0%, 0%)" fill-opacity="1" d="M 49.597656 192.21875 C 45.039062 196.777344 38.195312 196.777344 38.195312 196.777344 L 38.195312 198.820312 C 38.195312 198.820312 45.179688 198.820312 49.621094 203.257812 "/>
<path fill-rule="nonzero" fill="rgb(0%, 0%, 0%)" fill-opacity="1" d="M 116.925781 26.824219 C 116.925781 31.171875 120.550781 34.699219 125.039062 34.699219 C 129.527344 34.699219 133.152344 31.171875 133.152344 26.824219 C 133.152344 22.480469 129.527344 18.953125 125.039062 18.953125 C 120.550781 18.953125 116.925781 22.480469 116.925781 26.824219 Z M 116.925781 26.824219 "/>
<path fill-rule="nonzero" fill="rgb(0%, 0%, 0%)" fill-opacity="1" d="M 106.460938 41.730469 C 106.460938 46.074219 110.085938 49.601562 114.574219 49.601562 C 119.0625 49.601562 122.6875 46.074219 122.6875 41.730469 C 122.6875 37.386719 119.0625 33.859375 114.574219 33.859375 C 110.085938 33.859375 106.460938 37.386719 106.460938 41.730469 Z M 106.460938 41.730469 "/>
<path fill-rule="nonzero" fill="rgb(0%, 0%, 0%)" fill-opacity="1" d="M 127.246094 41.777344 C 127.246094 43.363281 127.726562 44.851562 128.566406 46.097656 C 130.007812 48.234375 132.527344 49.648438 135.359375 49.648438 C 139.847656 49.648438 143.46875 46.121094 143.46875 41.777344 C 143.46875 37.433594 139.847656 33.90625 135.359375 33.90625 C 130.871094 33.90625 127.246094 37.433594 127.246094 41.777344 Z M 127.246094 41.777344 "/>
<path fill-rule="nonzero" fill="rgb(0%, 0%, 0%)" fill-opacity="1" d="M 115.511719 57.066406 C 119.519531 57.066406 121.628906 53.800781 122.734375 50.539062 C 123.839844 47.273438 123.933594 44.011719 123.933594 44.011719 L 126 44.011719 C 126 44.011719 126.382812 57.042969 134.398438 57.066406 Z M 115.511719 57.066406 "/>
<path fill-rule="nonzero" fill="rgb(0%, 0%, 0%)" fill-opacity="1" d="M 130.535156 32.609375 C 125.976562 37.171875 125.976562 44.011719 125.976562 44.011719 L 123.933594 44.035156 C 123.933594 44.035156 123.933594 37.050781 119.496094 32.609375 "/>
<path fill-rule="nonzero" fill="rgb(0%, 0%, 0%)" fill-opacity="1" d="M 129.621094 47.25 C 125.0625 42.691406 118.222656 42.691406 118.222656 42.691406 L 118.222656 40.648438 C 118.222656 40.648438 125.207031 40.648438 129.648438 36.210938 "/>
<path fill-rule="nonzero" fill="rgb(0%, 0%, 0%)" fill-opacity="1" d="M 120.480469 47.273438 C 125.039062 42.714844 131.878906 42.714844 131.878906 42.714844 L 131.878906 40.675781 C 131.878906 40.675781 124.894531 40.675781 120.453125 36.234375 "/>
<path fill-rule="nonzero" fill="rgb(0%, 0%, 0%)" fill-opacity="1" d="M 116.925781 80.980469 C 116.925781 85.328125 120.550781 88.855469 125.039062 88.855469 C 129.527344 88.855469 133.152344 85.328125 133.152344 80.980469 C 133.152344 76.636719 129.527344 73.109375 125.039062 73.109375 C 120.550781 73.109375 116.925781 76.636719 116.925781 80.980469 Z M 116.925781 80.980469 "/>
<path fill-rule="nonzero" fill="rgb(0%, 0%, 0%)" fill-opacity="1" d="M 106.460938 95.886719 C 106.460938 100.230469 110.085938 103.757812 114.574219 103.757812 C 119.0625 103.757812 122.6875 100.230469 122.6875 95.886719 C 122.6875 91.542969 119.0625 88.015625 114.574219 88.015625 C 110.085938 88.015625 106.460938 91.542969 106.460938 95.886719 Z M 106.460938 95.886719 "/>
<path fill-rule="nonzero" fill="rgb(0%, 0%, 0%)" fill-opacity="1" d="M 127.246094 95.933594 C 127.246094 97.519531 127.726562 99.007812 128.566406 100.253906 C 130.007812 102.390625 132.527344 103.804688 135.359375 103.804688 C 139.847656 103.804688 143.46875 100.277344 143.46875 95.933594 C 143.46875 91.589844 139.847656 88.0625 135.359375 88.0625 C 130.871094 88.0625 127.246094 91.589844 127.246094 95.933594 Z M 127.246094 95.933594 "/>
<path fill-rule="nonzero" fill="rgb(0%, 0%, 0%)" fill-opacity="1" d="M 115.511719 111.222656 C 119.519531 111.222656 121.628906 107.957031 122.734375 104.695312 C 123.839844 101.429688 123.933594 98.167969 123.933594 98.167969 L 126 98.167969 C 126 98.167969 126.382812 111.199219 134.398438 111.222656 Z M 115.511719 111.222656 "/>
<path fill-rule="nonzero" fill="rgb(0%, 0%, 0%)" fill-opacity="1" d="M 130.535156 86.765625 C 125.976562 91.328125 125.976562 98.167969 125.976562 98.167969 L 123.933594 98.191406 C 123.933594 98.191406 123.933594 91.207031 119.496094 86.765625 "/>
<path fill-rule="nonzero" fill="rgb(0%, 0%, 0%)" fill-opacity="1" d="M 129.621094 101.40625 C 125.0625 96.847656 118.222656 96.847656 118.222656 96.847656 L 118.222656 94.804688 C 118.222656 94.804688 125.207031 94.804688 129.648438 90.367188 "/>
<path fill-rule="nonzero" fill="rgb(0%, 0%, 0%)" fill-opacity="1" d="M 120.480469 101.429688 C 125.039062 96.871094 131.878906 96.871094 131.878906 96.871094 L 131.878906 94.832031 C 131.878906 94.832031 124.894531 94.832031 120.453125 90.390625 "/>
<path fill-rule="nonzero" fill="rgb(0%, 0%, 0%)" fill-opacity="1" d="M 133.007812 158.511719 C 133.007812 154.167969 129.382812 150.636719 124.894531 150.636719 C 120.40625 150.636719 116.78125 154.167969 116.78125 158.511719 C 116.78125 162.855469 120.40625 166.382812 124.894531 166.382812 C 129.382812 166.382812 133.007812 162.855469 133.007812 158.511719 Z M 133.007812 158.511719 "/>
<path fill-rule="nonzero" fill="rgb(0%, 0%, 0%)" fill-opacity="1" d="M 143.472656 143.605469 C 143.472656 139.261719 139.847656 135.734375 135.359375 135.734375 C 130.871094 135.734375 127.246094 139.261719 127.246094 143.605469 C 127.246094 147.949219 130.871094 151.476562 135.359375 151.476562 C 139.847656 151.476562 143.472656 147.949219 143.472656 143.605469 Z M 143.472656 143.605469 "/>
<path fill-rule="nonzero" fill="rgb(0%, 0%, 0%)" fill-opacity="1" d="M 122.6875 143.558594 C 122.6875 141.972656 122.207031 140.484375 121.367188 139.238281 C 119.925781 137.101562 117.40625 135.6875 114.574219 135.6875 C 110.085938 135.6875 106.464844 139.214844 106.464844 143.558594 C 106.464844 147.902344 110.085938 151.429688 114.574219 151.429688 C 119.0625 151.429688 122.6875 147.902344 122.6875 143.558594 Z M 122.6875 143.558594 "/>
<path fill-rule="nonzero" fill="rgb(0%, 0%, 0%)" fill-opacity="1" d="M 134.421875 128.269531 C 130.414062 128.269531 128.304688 131.535156 127.199219 134.796875 C 126.09375 138.0625 126 141.324219 126 141.324219 L 123.933594 141.324219 C 123.933594 141.324219 123.550781 128.292969 115.535156 128.269531 Z M 134.421875 128.269531 "/>
<path fill-rule="nonzero" fill="rgb(0%, 0%, 0%)" fill-opacity="1" d="M 119.398438 152.726562 C 123.957031 148.167969 123.957031 141.324219 123.957031 141.324219 L 126 141.300781 C 126 141.300781 126 148.285156 130.4375 152.726562 "/>
<path fill-rule="nonzero" fill="rgb(0%, 0%, 0%)" fill-opacity="1" d="M 120.3125 138.085938 C 124.871094 142.644531 131.710938 142.644531 131.710938 142.644531 L 131.710938 144.6875 C 131.710938 144.6875 124.726562 144.6875 120.285156 149.125 "/>
<path fill-rule="nonzero" fill="rgb(0%, 0%, 0%)" fill-opacity="1" d="M 129.453125 138.0625 C 124.894531 142.621094 118.054688 142.621094 118.054688 142.621094 L 118.054688 144.664062 C 118.054688 144.664062 125.039062 144.664062 129.480469 149.101562 "/>
<path fill-rule="nonzero" fill="rgb(0%, 0%, 0%)" fill-opacity="1" d="M 133.007812 212.667969 C 133.007812 208.324219 129.382812 204.792969 124.894531 204.792969 C 120.40625 204.792969 116.78125 208.324219 116.78125 212.667969 C 116.78125 217.011719 120.40625 220.539062 124.894531 220.539062 C 129.382812 220.539062 133.007812 217.011719 133.007812 212.667969 Z M 133.007812 212.667969 "/>
<path fill-rule="nonzero" fill="rgb(0%, 0%, 0%)" fill-opacity="1" d="M 143.472656 197.761719 C 143.472656 193.417969 139.847656 189.890625 135.359375 189.890625 C 130.871094 189.890625 127.246094 193.417969 127.246094 197.761719 C 127.246094 202.105469 130.871094 205.632812 135.359375 205.632812 C 139.847656 205.632812 143.472656 202.105469 143.472656 197.761719 Z M 143.472656 197.761719 "/>
<path fill-rule="nonzero" fill="rgb(0%, 0%, 0%)" fill-opacity="1" d="M 122.6875 197.714844 C 122.6875 196.128906 122.207031 194.640625 121.367188 193.394531 C 119.925781 191.257812 117.40625 189.84375 114.574219 189.84375 C 110.085938 189.84375 106.464844 193.371094 106.464844 197.714844 C 106.464844 202.058594 110.085938 205.585938 114.574219 205.585938 C 119.0625 205.585938 122.6875 202.058594 122.6875 197.714844 Z M 122.6875 197.714844 "/>
<path fill-rule="nonzero" fill="rgb(0%, 0%, 0%)" fill-opacity="1" d="M 134.421875 182.425781 C 130.414062 182.425781 128.304688 185.691406 127.199219 188.953125 C 126.09375 192.21875 126 195.480469 126 195.480469 L 123.933594 195.480469 C 123.933594 195.480469 123.550781 182.449219 115.535156 182.425781 Z M 134.421875 182.425781 "/>
<path fill-rule="nonzero" fill="rgb(0%, 0%, 0%)" fill-opacity="1" d="M 119.398438 206.882812 C 123.957031 202.324219 123.957031 195.480469 123.957031 195.480469 L 126 195.457031 C 126 195.457031 126 202.441406 130.4375 206.882812 "/>
<path fill-rule="nonzero" fill="rgb(0%, 0%, 0%)" fill-opacity="1" d="M 120.3125 192.242188 C 124.871094 196.800781 131.710938 196.800781 131.710938 196.800781 L 131.710938 198.84375 C 131.710938 198.84375 124.726562 198.84375 120.285156 203.28125 "/>
<path fill-rule="nonzero" fill="rgb(0%, 0%, 0%)" fill-opacity="1" d="M 129.453125 192.21875 C 124.894531 196.777344 118.054688 196.777344 118.054688 196.777344 L 118.054688 198.820312 C 118.054688 198.820312 125.039062 198.820312 129.480469 203.257812 "/>
<path fill-rule="nonzero" fill="rgb(0%, 0%, 0%)" fill-opacity="1" d="M 76.996094 53.902344 C 76.996094 58.25 80.621094 61.777344 85.109375 61.777344 C 89.597656 61.777344 93.222656 58.25 93.222656 53.902344 C 93.222656 49.558594 89.597656 46.03125 85.109375 46.03125 C 80.621094 46.03125 76.996094 49.558594 76.996094 53.902344 Z M 76.996094 53.902344 "/>
<path fill-rule="nonzero" fill="rgb(0%, 0%, 0%)" fill-opacity="1" d="M 66.535156 68.808594 C 66.535156 73.152344 70.15625 76.679688 74.644531 76.679688 C 79.132812 76.679688 82.757812 73.152344 82.757812 68.808594 C 82.757812 64.464844 79.132812 60.9375 74.644531 60.9375 C 70.15625 60.9375 66.535156 64.464844 66.535156 68.808594 Z M 66.535156 68.808594 "/>
<path fill-rule="nonzero" fill="rgb(0%, 0%, 0%)" fill-opacity="1" d="M 87.316406 68.855469 C 87.316406 70.441406 87.796875 71.929688 88.636719 73.175781 C 90.078125 75.3125 92.597656 76.726562 95.429688 76.726562 C 99.917969 76.726562 103.542969 73.199219 103.542969 68.855469 C 103.542969 64.511719 99.917969 60.984375 95.429688 60.984375 C 90.941406 60.984375 87.316406 64.511719 87.316406 68.855469 Z M 87.316406 68.855469 "/>
<path fill-rule="nonzero" fill="rgb(0%, 0%, 0%)" fill-opacity="1" d="M 75.582031 84.144531 C 79.589844 84.144531 81.703125 80.878906 82.804688 77.617188 C 83.910156 74.351562 84.003906 71.089844 84.003906 71.089844 L 86.070312 71.089844 C 86.070312 71.089844 86.453125 84.121094 94.46875 84.144531 Z M 75.582031 84.144531 "/>
<path fill-rule="nonzero" fill="rgb(0%, 0%, 0%)" fill-opacity="1" d="M 90.605469 59.6875 C 86.046875 64.25 86.046875 71.089844 86.046875 71.089844 L 84.003906 71.113281 C 84.003906 71.113281 84.003906 64.128906 79.566406 59.6875 "/>
<path fill-rule="nonzero" fill="rgb(0%, 0%, 0%)" fill-opacity="1" d="M 89.695312 74.328125 C 85.132812 69.769531 78.292969 69.769531 78.292969 69.769531 L 78.292969 67.726562 C 78.292969 67.726562 85.277344 67.726562 89.71875 63.289062 "/>
<path fill-rule="nonzero" fill="rgb(0%, 0%, 0%)" fill-opacity="1" d="M 80.550781 74.351562 C 85.109375 69.792969 91.949219 69.792969 91.949219 69.792969 L 91.949219 67.753906 C 91.949219 67.753906 84.964844 67.753906 80.527344 63.3125 "/>
</svg>
