<?xml version="1.0" encoding="UTF-8"?>
<svg xmlns="http://www.w3.org/2000/svg" xmlns:xlink="http://www.w3.org/1999/xlink" width="169.074219" height="244.640625" viewBox="0 0 169.074219 244.640625">
<path fill-rule="nonzero" fill="rgb(100%, 100%, 100%)" fill-opacity="1" stroke-width="2.5" stroke-linecap="butt" stroke-linejoin="miter" stroke="rgb(0%, 0%, 0%)" stroke-opacity="1" stroke-miterlimit="4" d="M 0 -0.000473022 C 0 3.780777 3.089844 6.870621 6.871094 6.870621 L 159.714844 6.870621 C 163.484375 6.870621 166.574219 3.780777 166.574219 -0.000473022 L 166.574219 -228.398911 C 166.574219 -232.180161 163.484375 -235.270004 159.714844 -235.270004 L 6.871094 -235.270004 C 3.089844 -235.270004 0 -232.180161 0 -228.398911 Z M 0 -0.000473022 " transform="matrix(1, 0, 0, 1, 1.25, 236.520004)"/>
<path fill-rule="nonzero" fill="rgb(0%, 0%, 0%)" fill-opacity="1" d="M 8.453125 12.453125 L 7.03125 12.453125 L 7.03125 5.300781 C 7.996094 4.75 8.949219 4.339844 9.890625 4.0625 C 10.835938 3.789062 11.789062 3.648438 12.757812 3.648438 C 15.007812 3.648438 16.761719 4.515625 18.023438 6.242188 C 19.28125 7.972656 19.910156 10.371094 19.910156 13.445312 C 19.910156 15.640625 19.5625 17.605469 18.871094 19.34375 C 18.175781 21.085938 16.84375 23.144531 14.882812 25.523438 L 9.953125 31.585938 L 18.339844 31.585938 L 18.339844 27.671875 L 19.964844 27.671875 L 19.964844 37.402344 L 6.871094 37.402344 L 6.871094 31.984375 L 9.492188 28.597656 C 11.726562 25.703125 13.214844 23.238281 13.957031 21.210938 C 14.703125 19.1875 15.078125 16.816406 15.078125 14.105469 C 15.078125 11.554688 14.792969 9.609375 14.230469 8.273438 C 13.664062 6.933594 12.839844 6.257812 11.757812 6.257812 C 10.824219 6.257812 10.074219 6.789062 9.511719 7.84375 C 8.949219 8.902344 8.597656 10.4375 8.453125 12.453125 Z M 5.25 -5.289062 "/>
<path fill-rule="nonzero" fill="rgb(0%, 0%, 0%)" fill-opacity="1" d="M 161.625 231.1875 L 163.042969 231.1875 L 163.042969 238.34375 C 162.078125 238.890625 161.125 239.304688 160.183594 239.582031 C 159.238281 239.855469 158.285156 239.996094 157.320312 239.996094 C 155.066406 239.996094 153.3125 239.128906 152.050781 237.402344 C 150.796875 235.667969 150.164062 233.269531 150.164062 230.195312 C 150.164062 228.003906 150.511719 226.039062 151.207031 224.296875 C 151.898438 222.554688 153.230469 220.5 155.191406 218.121094 L 160.125 212.054688 L 151.734375 212.054688 L 151.734375 215.972656 L 150.113281 215.972656 L 150.113281 206.238281 L 163.203125 206.238281 L 163.203125 211.660156 L 160.582031 215.046875 C 158.347656 217.941406 156.859375 220.402344 156.117188 222.429688 C 155.375 224.457031 155 226.828125 155 229.535156 C 155 232.089844 155.28125 234.035156 155.84375 235.367188 C 156.410156 236.710938 157.234375 237.382812 158.316406 237.382812 C 159.25 237.382812 160 236.855469 160.566406 235.796875 C 161.125 234.742188 161.476562 233.203125 161.625 231.1875 Z M 164.824219 248.933594 "/>
<path fill-rule="nonzero" fill="rgb(0%, 0%, 0%)" fill-opacity="1" d="M 11.550781 46.742188 C 11.550781 48.554688 13.058594 50.023438 14.929688 50.023438 C 16.800781 50.023438 18.308594 48.554688 18.308594 46.742188 C 18.308594 44.933594 16.800781 43.464844 14.929688 43.464844 C 13.058594 43.464844 11.550781 44.933594 11.550781 46.742188 Z M 11.550781 46.742188 "/>
<path fill-rule="nonzero" fill="rgb(0%, 0%, 0%)" fill-opacity="1" d="M 7.191406 52.953125 C 7.191406 54.761719 8.699219 56.234375 10.570312 56.234375 C 12.441406 56.234375 13.949219 54.761719 13.949219 52.953125 C 13.949219 51.144531 12.441406 49.671875 10.570312 49.671875 C 8.699219 49.671875 7.191406 51.144531 7.191406 52.953125 Z M 7.191406 52.953125 "/>
<path fill-rule="nonzero" fill="rgb(0%, 0%, 0%)" fill-opacity="1" d="M 15.851562 52.972656 C 15.851562 53.632812 16.050781 54.253906 16.398438 54.773438 C 17 55.664062 18.050781 56.253906 19.230469 56.253906 C 21.101562 56.253906 22.609375 54.78125 22.609375 52.972656 C 22.609375 51.164062 21.101562 49.691406 19.230469 49.691406 C 17.359375 49.691406 15.851562 51.164062 15.851562 52.972656 Z M 15.851562 52.972656 "/>
<path fill-rule="nonzero" fill="rgb(0%, 0%, 0%)" fill-opacity="1" d="M 10.960938 59.34375 C 12.628906 59.34375 13.511719 57.984375 13.96875 56.621094 C 14.429688 55.261719 14.46875 53.902344 14.46875 53.902344 L 15.328125 53.902344 C 15.328125 53.902344 15.488281 59.332031 18.828125 59.34375 Z M 10.960938 59.34375 "/>
<path fill-rule="nonzero" fill="rgb(0%, 0%, 0%)" fill-opacity="1" d="M 17.21875 49.152344 C 15.320312 51.054688 15.320312 53.902344 15.320312 53.902344 L 14.46875 53.914062 C 14.46875 53.914062 14.46875 51.003906 12.621094 49.152344 "/>
<path fill-rule="nonzero" fill="rgb(0%, 0%, 0%)" fill-opacity="1" d="M 16.839844 55.253906 C 14.941406 53.351562 12.089844 53.351562 12.089844 53.351562 L 12.089844 52.503906 C 12.089844 52.503906 15 52.503906 16.851562 50.652344 "/>
<path fill-rule="nonzero" fill="rgb(0%, 0%, 0%)" fill-opacity="1" d="M 13.03125 55.261719 C 14.929688 53.363281 17.78125 53.363281 17.78125 53.363281 L 17.78125 52.511719 C 17.78125 52.511719 14.871094 52.511719 13.019531 50.664062 "/>
<path fill-rule="nonzero" fill="rgb(0%, 0%, 0%)" fill-opacity="1" d="M 158.523438 196.898438 C 158.523438 195.089844 157.015625 193.621094 155.144531 193.621094 C 153.273438 193.621094 151.765625 195.089844 151.765625 196.898438 C 151.765625 198.710938 153.273438 200.179688 155.144531 200.179688 C 157.015625 200.179688 158.523438 198.710938 158.523438 196.898438 Z M 158.523438 196.898438 "/>
<path fill-rule="nonzero" fill="rgb(0%, 0%, 0%)" fill-opacity="1" d="M 162.886719 190.691406 C 162.886719 188.878906 161.375 187.410156 159.503906 187.410156 C 157.636719 187.410156 156.125 188.878906 156.125 190.691406 C 156.125 192.5 157.636719 193.96875 159.503906 193.96875 C 161.375 193.96875 162.886719 192.5 162.886719 190.691406 Z M 162.886719 190.691406 "/>
<path fill-rule="nonzero" fill="rgb(0%, 0%, 0%)" fill-opacity="1" d="M 154.226562 190.671875 C 154.226562 190.011719 154.023438 189.390625 153.675781 188.871094 C 153.074219 187.980469 152.023438 187.390625 150.84375 187.390625 C 148.976562 187.390625 147.464844 188.859375 147.464844 190.671875 C 147.464844 192.480469 148.976562 193.949219 150.84375 193.949219 C 152.714844 193.949219 154.226562 192.480469 154.226562 190.671875 Z M 154.226562 190.671875 "/>
<path fill-rule="nonzero" fill="rgb(0%, 0%, 0%)" fill-opacity="1" d="M 159.113281 184.300781 C 157.445312 184.300781 156.566406 185.660156 156.105469 187.019531 C 155.644531 188.378906 155.605469 189.738281 155.605469 189.738281 L 154.746094 189.738281 C 154.746094 189.738281 154.585938 184.308594 151.246094 184.300781 Z M 159.113281 184.300781 "/>
<path fill-rule="nonzero" fill="rgb(0%, 0%, 0%)" fill-opacity="1" d="M 152.855469 194.488281 C 154.753906 192.589844 154.753906 189.738281 154.753906 189.738281 L 155.605469 189.730469 C 155.605469 189.730469 155.605469 192.640625 157.453125 194.488281 "/>
<path fill-rule="nonzero" fill="rgb(0%, 0%, 0%)" fill-opacity="1" d="M 153.234375 188.390625 C 155.136719 190.289062 157.984375 190.289062 157.984375 190.289062 L 157.984375 191.140625 C 157.984375 191.140625 155.074219 191.140625 153.226562 192.988281 "/>
<path fill-rule="nonzero" fill="rgb(0%, 0%, 0%)" fill-opacity="1" d="M 157.046875 188.378906 C 155.144531 190.28125 152.296875 190.28125 152.296875 190.28125 L 152.296875 191.128906 C 152.296875 191.128906 155.203125 191.128906 157.054688 192.980469 "/>
<path fill-rule="nonzero" fill="rgb(0%, 0%, 0%)" fill-opacity="1" d="M 93.078125 212.667969 C 93.078125 208.324219 89.453125 204.792969 84.964844 204.792969 C 80.476562 204.792969 76.851562 208.324219 76.851562 212.667969 C 76.851562 217.011719 80.476562 220.539062 84.964844 220.539062 C 89.453125 220.539062 93.078125 217.011719 93.078125 212.667969 Z M 93.078125 212.667969 "/>
<path fill-rule="nonzero" fill="rgb(0%, 0%, 0%)" fill-opacity="1" d="M 103.539062 197.761719 C 103.539062 193.417969 99.917969 189.890625 95.429688 189.890625 C 90.941406 189.890625 87.316406 193.417969 87.316406 197.761719 C 87.316406 202.105469 90.941406 205.632812 95.429688 205.632812 C 99.917969 205.632812 103.539062 202.105469 103.539062 197.761719 Z M 103.539062 197.761719 "/>
<path fill-rule="nonzero" fill="rgb(0%, 0%, 0%)" fill-opacity="1" d="M 82.757812 197.714844 C 82.757812 196.128906 82.277344 194.640625 81.4375 193.394531 C 79.996094 191.257812 77.476562 189.84375 74.644531 189.84375 C 70.15625 189.84375 66.53125 193.371094 66.53125 197.714844 C 66.53125 202.058594 70.15625 205.585938 74.644531 205.585938 C 79.132812 205.585938 82.757812 202.058594 82.757812 197.714844 Z M 82.757812 197.714844 "/>
<path fill-rule="nonzero" fill="rgb(0%, 0%, 0%)" fill-opacity="1" d="M 94.492188 182.425781 C 90.484375 182.425781 88.371094 185.691406 87.269531 188.953125 C 86.164062 192.21875 86.070312 195.480469 86.070312 195.480469 L 84.003906 195.480469 C 84.003906 195.480469 83.621094 182.449219 75.605469 182.425781 Z M 94.492188 182.425781 "/>
<path fill-rule="nonzero" fill="rgb(0%, 0%, 0%)" fill-opacity="1" d="M 79.46875 206.882812 C 84.027344 202.324219 84.027344 195.480469 84.027344 195.480469 L 86.070312 195.457031 C 86.070312 195.457031 86.070312 202.441406 90.507812 206.882812 "/>
<path fill-rule="nonzero" fill="rgb(0%, 0%, 0%)" fill-opacity="1" d="M 80.378906 192.242188 C 84.941406 196.800781 91.78125 196.800781 91.78125 196.800781 L 91.78125 198.84375 C 91.78125 198.84375 84.796875 198.84375 80.355469 203.28125 "/>
<path fill-rule="nonzero" fill="rgb(0%, 0%, 0%)" fill-opacity="1" d="M 89.523438 192.21875 C 84.964844 196.777344 78.125 196.777344 78.125 196.777344 L 78.125 198.820312 C 78.125 198.820312 85.109375 198.820312 89.546875 203.257812 "/>
<path fill-rule="nonzero" fill="rgb(0%, 0%, 0%)" fill-opacity="1" d="M 76.996094 26.824219 C 76.996094 31.171875 80.621094 34.699219 85.109375 34.699219 C 89.597656 34.699219 93.21875 31.171875 93.21875 26.824219 C 93.21875 22.480469 89.597656 18.953125 85.109375 18.953125 C 80.621094 18.953125 76.996094 22.480469 76.996094 26.824219 Z M 76.996094 26.824219 "/>
<path fill-rule="nonzero" fill="rgb(0%, 0%, 0%)" fill-opacity="1" d="M 66.53125 41.730469 C 66.53125 46.074219 70.15625 49.601562 74.644531 49.601562 C 79.132812 49.601562 82.757812 46.074219 82.757812 41.730469 C 82.757812 37.386719 79.132812 33.859375 74.644531 33.859375 C 70.15625 33.859375 66.53125 37.386719 66.53125 41.730469 Z M 66.53125 41.730469 "/>
<path fill-rule="nonzero" fill="rgb(0%, 0%, 0%)" fill-opacity="1" d="M 87.316406 41.777344 C 87.316406 43.363281 87.796875 44.851562 88.636719 46.097656 C 90.078125 48.234375 92.597656 49.648438 95.429688 49.648438 C 99.917969 49.648438 103.539062 46.121094 103.539062 41.777344 C 103.539062 37.433594 99.917969 33.90625 95.429688 33.90625 C 90.941406 33.90625 87.316406 37.433594 87.316406 41.777344 Z M 87.316406 41.777344 "/>
<path fill-rule="nonzero" fill="rgb(0%, 0%, 0%)" fill-opacity="1" d="M 75.582031 57.066406 C 79.589844 57.066406 81.699219 53.800781 82.804688 50.539062 C 83.910156 47.273438 84.003906 44.011719 84.003906 44.011719 L 86.070312 44.011719 C 86.070312 44.011719 86.453125 57.042969 94.46875 57.066406 Z M 75.582031 57.066406 "/>
<path fill-rule="nonzero" fill="rgb(0%, 0%, 0%)" fill-opacity="1" d="M 90.605469 32.609375 C 86.042969 37.171875 86.042969 44.011719 86.042969 44.011719 L 84.003906 44.035156 C 84.003906 44.035156 84.003906 37.050781 79.566406 32.609375 "/>
<path fill-rule="nonzero" fill="rgb(0%, 0%, 0%)" fill-opacity="1" d="M 89.691406 47.25 C 85.132812 42.691406 78.292969 42.691406 78.292969 42.691406 L 78.292969 40.648438 C 78.292969 40.648438 85.277344 40.648438 89.714844 36.210938 "/>
<path fill-rule="nonzero" fill="rgb(0%, 0%, 0%)" fill-opacity="1" d="M 80.546875 47.273438 C 85.109375 42.714844 91.949219 42.714844 91.949219 42.714844 L 91.949219 40.675781 C 91.949219 40.675781 84.964844 40.675781 80.523438 36.234375 "/>
</svg>
