<?xml version="1.0" encoding="UTF-8"?>
<svg xmlns="http://www.w3.org/2000/svg" xmlns:xlink="http://www.w3.org/1999/xlink" width="169.074219" height="244.640625" viewBox="0 0 169.074219 244.640625">
<path fill-rule="nonzero" fill="rgb(100%, 100%, 100%)" fill-opacity="1" stroke-width="2.5" stroke-linecap="butt" stroke-linejoin="miter" stroke="rgb(0%, 0%, 0%)" stroke-opacity="1" stroke-miterlimit="4" d="M 0 -0.000468254 C 0 3.780782 3.089844 6.870625 6.871094 6.870625 L 159.714844 6.870625 C 163.484375 6.870625 166.574219 3.780782 166.574219 -0.000468254 L 166.574219 -228.398906 C 166.574219 -232.180156 163.484375 -235.27 159.714844 -235.27 L 6.871094 -235.27 C 3.089844 -235.27 0 -232.180156 0 -228.398906 Z M 0 -0.000468254 " transform="matrix(1, 0, 0, 1, 1.25, 236.52)"/>
<path fill-rule="nonzero" fill="rgb(90.196078%, 9.411765%, 3.921569%)" fill-opacity="1" d="M 7.15625 37.402344 L 7.15625 34.710938 L 9.050781 34.710938 L 9.050781 7.894531 L 6.945312 11.976562 L 6.945312 8.671875 L 9.484375 3.648438 L 11.617188 3.648438 L 11.617188 34.710938 L 13.519531 34.710938 L 13.519531 37.402344 Z M 19.730469 35.453125 C 20.269531 35.453125 20.644531 34.652344 20.84375 33.042969 C 21.046875 31.421875 21.148438 27.367188 21.148438 20.863281 C 21.148438 14.414062 21.046875 10.363281 20.84375 8.722656 C 20.644531 7.082031 20.269531 6.257812 19.730469 6.257812 C 19.1875 6.257812 18.820312 7.070312 18.617188 8.6875 C 18.414062 10.296875 18.316406 14.355469 18.316406 20.863281 C 18.316406 27.367188 18.414062 31.421875 18.617188 33.042969 C 18.820312 34.652344 19.1875 35.453125 19.730469 35.453125 Z M 19.730469 38.046875 C 18.378906 38.046875 17.34375 36.574219 16.625 33.621094 C 15.910156 30.671875 15.550781 26.414062 15.550781 20.863281 C 15.550781 15.3125 15.910156 11.058594 16.625 8.09375 C 17.34375 5.132812 18.378906 3.648438 19.730469 3.648438 C 21.078125 3.648438 22.109375 5.132812 22.824219 8.09375 C 23.542969 11.058594 23.902344 15.3125 23.902344 20.863281 C 23.902344 26.414062 23.542969 30.671875 22.824219 33.621094 C 22.109375 36.574219 21.078125 38.046875 19.730469 38.046875 Z M 5.25 -5.289062 "/>
<path fill-rule="nonzero" fill="rgb(90.196078%, 9.411765%, 3.921569%)" fill-opacity="1" d="M 162.925781 206.238281 L 162.925781 208.933594 L 161.03125 208.933594 L 161.03125 235.75 L 163.136719 231.667969 L 163.136719 234.972656 L 160.597656 239.996094 L 158.464844 239.996094 L 158.464844 208.933594 L 156.558594 208.933594 L 156.558594 206.238281 Z M 150.347656 208.191406 C 149.808594 208.191406 149.4375 208.992188 149.234375 210.601562 C 149.035156 212.222656 148.933594 216.277344 148.933594 222.777344 C 148.933594 229.230469 149.035156 233.277344 149.234375 234.921875 C 149.4375 236.5625 149.808594 237.382812 150.347656 237.382812 C 150.890625 237.382812 151.261719 236.574219 151.464844 234.957031 C 151.664062 233.34375 151.765625 229.289062 151.765625 222.777344 C 151.765625 216.277344 151.664062 212.222656 151.464844 210.601562 C 151.261719 208.992188 150.890625 208.191406 150.347656 208.191406 Z M 150.347656 205.59375 C 151.699219 205.59375 152.734375 207.070312 153.453125 210.023438 C 154.167969 212.972656 154.527344 217.226562 154.527344 222.777344 C 154.527344 228.328125 154.167969 232.585938 153.453125 235.550781 C 152.734375 238.511719 151.699219 239.996094 150.347656 239.996094 C 149.003906 239.996094 147.96875 238.511719 147.253906 235.550781 C 146.535156 232.585938 146.175781 228.328125 146.175781 222.777344 C 146.175781 217.226562 146.535156 212.972656 147.253906 210.023438 C 147.96875 207.070312 149.003906 205.59375 150.347656 205.59375 Z M 164.828125 248.933594 "/>
<path fill-rule="nonzero" fill="rgb(90.196078%, 9.411765%, 3.921569%)" fill-opacity="1" d="M 14.910156 51.402344 C 17.46875 51.402344 20.03125 51.402344 22.589844 51.402344 C 21.714844 51.363281 20.972656 50.796875 20.269531 50.332031 C 18.6875 49.140625 17.210938 47.773438 16.042969 46.175781 C 15.496094 45.371094 14.925781 44.46875 14.910156 43.464844 M 22.589844 51.402344 C 21.480469 51.4375 20.53125 52.144531 19.6875 52.796875 C 18.191406 54.050781 16.898438 55.542969 15.804688 57.160156 C 15.402344 57.828125 14.933594 58.539062 14.910156 59.34375 C 14.910156 56.695312 14.910156 54.050781 14.910156 51.402344 M 14.910156 59.34375 C 14.871094 58.160156 14.152344 57.136719 13.472656 56.222656 C 12.261719 54.714844 10.824219 53.378906 9.242188 52.261719 C 8.628906 51.878906 7.976562 51.421875 7.230469 51.402344 C 9.789062 51.402344 12.351562 51.402344 14.910156 51.402344 M 7.230469 51.402344 C 8.339844 51.367188 9.289062 50.660156 10.132812 50.011719 C 11.628906 48.753906 12.921875 47.261719 14.015625 45.644531 C 14.414062 44.976562 14.886719 44.269531 14.910156 43.464844 C 14.910156 46.109375 14.910156 48.757812 14.910156 51.402344 "/>
<path fill-rule="nonzero" fill="rgb(90.196078%, 9.411765%, 3.921569%)" fill-opacity="1" d="M 155.179688 192.238281 C 152.621094 192.238281 150.058594 192.238281 147.5 192.238281 C 148.375 192.277344 149.117188 192.84375 149.820312 193.3125 C 151.402344 194.503906 152.878906 195.871094 154.046875 197.46875 C 154.59375 198.273438 155.164062 199.175781 155.179688 200.179688 M 147.5 192.238281 C 148.609375 192.203125 149.558594 191.5 150.402344 190.847656 C 151.898438 189.59375 153.191406 188.097656 154.285156 186.484375 C 154.6875 185.8125 155.15625 185.105469 155.179688 184.300781 C 155.179688 186.945312 155.179688 189.59375 155.179688 192.238281 M 155.179688 184.300781 C 155.21875 185.480469 155.9375 186.507812 156.617188 187.421875 C 157.828125 188.929688 159.265625 190.265625 160.847656 191.382812 C 161.460938 191.765625 162.113281 192.222656 162.859375 192.238281 C 160.300781 192.238281 157.738281 192.238281 155.179688 192.238281 M 162.859375 192.238281 C 161.75 192.273438 160.800781 192.980469 159.957031 193.632812 C 158.460938 194.886719 157.167969 196.382812 156.074219 197.996094 C 155.675781 198.664062 155.203125 199.375 155.179688 200.179688 C 155.179688 197.53125 155.179688 194.886719 155.179688 192.238281 "/>
<path fill-rule="nonzero" fill="rgb(90.196078%, 9.411765%, 3.921569%)" fill-opacity="1" d="M 45.113281 38.011719 C 51.257812 38.011719 57.402344 38.011719 63.546875 38.011719 C 61.445312 37.917969 59.660156 36.558594 57.972656 35.4375 C 54.183594 32.578125 50.632812 29.296875 47.832031 25.464844 C 46.523438 23.535156 45.148438 21.363281 45.113281 18.953125 M 63.546875 38.011719 C 60.882812 38.09375 58.605469 39.789062 56.578125 41.355469 C 52.988281 44.367188 49.882812 47.949219 47.261719 51.828125 C 46.300781 53.433594 45.167969 55.132812 45.113281 57.066406 C 45.113281 50.714844 45.113281 44.363281 45.113281 38.011719 M 45.113281 57.066406 C 45.023438 54.230469 43.296875 51.773438 41.664062 49.578125 C 38.753906 45.953125 35.308594 42.75 31.515625 40.066406 C 30.042969 39.148438 28.476562 38.054688 26.683594 38.011719 C 32.828125 38.011719 38.96875 38.011719 45.113281 38.011719 M 26.683594 38.011719 C 29.347656 37.925781 31.621094 36.230469 33.652344 34.667969 C 37.238281 31.65625 40.34375 28.070312 42.964844 24.195312 C 43.929688 22.589844 45.058594 20.886719 45.113281 18.953125 C 45.113281 25.308594 45.113281 31.65625 45.113281 38.011719 "/>
<path fill-rule="nonzero" fill="rgb(90.196078%, 9.411765%, 3.921569%)" fill-opacity="1" d="M 45.113281 92.167969 C 51.257812 92.167969 57.402344 92.167969 63.546875 92.167969 C 61.445312 92.074219 59.660156 90.714844 57.972656 89.59375 C 54.183594 86.734375 50.632812 83.453125 47.832031 79.621094 C 46.523438 77.691406 45.148438 75.519531 45.113281 73.109375 M 63.546875 92.167969 C 60.882812 92.25 58.605469 93.945312 56.578125 95.511719 C 52.988281 98.523438 49.882812 102.105469 47.261719 105.984375 C 46.300781 107.589844 45.167969 109.289062 45.113281 111.222656 C 45.113281 104.871094 45.113281 98.519531 45.113281 92.167969 M 45.113281 111.222656 C 45.023438 108.386719 43.296875 105.929688 41.664062 103.734375 C 38.753906 100.109375 35.308594 96.90625 31.515625 94.222656 C 30.042969 93.304688 28.476562 92.210938 26.683594 92.167969 C 32.828125 92.167969 38.96875 92.167969 45.113281 92.167969 M 26.683594 92.167969 C 29.347656 92.082031 31.621094 90.386719 33.652344 88.824219 C 37.238281 85.8125 40.34375 82.226562 42.964844 78.351562 C 43.929688 76.746094 45.058594 75.042969 45.113281 73.109375 C 45.113281 79.464844 45.113281 85.8125 45.113281 92.167969 "/>
<path fill-rule="nonzero" fill="rgb(90.196078%, 9.411765%, 3.921569%)" fill-opacity="1" d="M 45.113281 147.328125 C 38.96875 147.328125 32.828125 147.328125 26.683594 147.328125 C 28.78125 147.421875 30.566406 148.777344 32.253906 149.902344 C 36.042969 152.761719 39.59375 156.039062 42.398438 159.875 C 43.707031 161.804688 45.078125 163.972656 45.113281 166.382812 M 26.683594 147.328125 C 29.347656 147.242188 31.621094 145.546875 33.652344 143.984375 C 37.238281 140.972656 40.34375 137.386719 42.964844 133.511719 C 43.929688 131.90625 45.0625 130.203125 45.113281 128.269531 C 45.113281 134.625 45.113281 140.972656 45.113281 147.328125 M 45.113281 128.269531 C 45.207031 131.109375 46.933594 133.566406 48.566406 135.757812 C 51.472656 139.382812 54.921875 142.589844 58.714844 145.269531 C 60.1875 146.1875 61.75 147.28125 63.546875 147.328125 C 57.402344 147.328125 51.257812 147.328125 45.113281 147.328125 M 63.546875 147.328125 C 60.882812 147.410156 58.605469 149.105469 56.578125 150.667969 C 52.988281 153.683594 49.882812 157.265625 47.261719 161.144531 C 46.300781 162.75 45.167969 164.449219 45.113281 166.382812 C 45.113281 160.03125 45.113281 153.679688 45.113281 147.328125 "/>
<path fill-rule="nonzero" fill="rgb(90.196078%, 9.411765%, 3.921569%)" fill-opacity="1" d="M 45.113281 201.484375 C 38.96875 201.484375 32.828125 201.484375 26.683594 201.484375 C 28.78125 201.578125 30.566406 202.933594 32.253906 204.058594 C 36.042969 206.917969 39.59375 210.195312 42.398438 214.03125 C 43.707031 215.960938 45.078125 218.128906 45.113281 220.539062 M 26.683594 201.484375 C 29.347656 201.398438 31.621094 199.703125 33.652344 198.140625 C 37.238281 195.128906 40.34375 191.542969 42.964844 187.667969 C 43.929688 186.058594 45.0625 184.359375 45.113281 182.425781 C 45.113281 188.78125 45.113281 195.128906 45.113281 201.484375 M 45.113281 182.425781 C 45.207031 185.265625 46.933594 187.722656 48.566406 189.914062 C 51.472656 193.539062 54.921875 196.746094 58.714844 199.425781 C 60.1875 200.34375 61.75 201.4375 63.546875 201.484375 C 57.402344 201.484375 51.257812 201.484375 45.113281 201.484375 M 63.546875 201.484375 C 60.882812 201.566406 58.605469 203.261719 56.578125 204.824219 C 52.988281 207.839844 49.882812 211.421875 47.261719 215.300781 C 46.300781 216.90625 45.167969 218.605469 45.113281 220.539062 C 45.113281 214.1875 45.113281 207.835938 45.113281 201.484375 "/>
<path fill-rule="nonzero" fill="rgb(90.196078%, 9.411765%, 3.921569%)" fill-opacity="1" d="M 124.972656 38.011719 C 131.117188 38.011719 137.261719 38.011719 143.402344 38.011719 C 141.304688 37.917969 139.519531 36.558594 137.832031 35.4375 C 134.042969 32.578125 130.492188 29.296875 127.6875 25.464844 C 126.378906 23.535156 125.007812 21.363281 124.972656 18.953125 M 143.402344 38.011719 C 140.738281 38.09375 138.464844 39.789062 136.433594 41.355469 C 132.847656 44.367188 129.742188 47.949219 127.121094 51.828125 C 126.15625 53.433594 125.023438 55.132812 124.972656 57.066406 C 124.972656 50.714844 124.972656 44.363281 124.972656 38.011719 M 124.972656 57.066406 C 124.878906 54.230469 123.152344 51.773438 121.519531 49.578125 C 118.613281 45.953125 115.164062 42.75 111.375 40.066406 C 109.898438 39.148438 108.335938 38.054688 106.539062 38.011719 C 112.683594 38.011719 118.828125 38.011719 124.972656 38.011719 M 106.539062 38.011719 C 109.203125 37.925781 111.480469 36.230469 113.507812 34.667969 C 117.097656 31.65625 120.203125 28.070312 122.824219 24.195312 C 123.785156 22.589844 124.917969 20.886719 124.972656 18.953125 C 124.972656 25.308594 124.972656 31.65625 124.972656 38.011719 "/>
<path fill-rule="nonzero" fill="rgb(90.196078%, 9.411765%, 3.921569%)" fill-opacity="1" d="M 124.972656 92.167969 C 131.117188 92.167969 137.261719 92.167969 143.402344 92.167969 C 141.304688 92.074219 139.519531 90.714844 137.832031 89.59375 C 134.042969 86.734375 130.492188 83.453125 127.6875 79.621094 C 126.378906 77.691406 125.007812 75.519531 124.972656 73.109375 M 143.402344 92.167969 C 140.738281 92.25 138.464844 93.945312 136.433594 95.511719 C 132.847656 98.523438 129.742188 102.105469 127.121094 105.984375 C 126.15625 107.589844 125.023438 109.289062 124.972656 111.222656 C 124.972656 104.871094 124.972656 98.519531 124.972656 92.167969 M 124.972656 111.222656 C 124.878906 108.386719 123.152344 105.929688 121.519531 103.734375 C 118.613281 100.109375 115.164062 96.90625 111.375 94.222656 C 109.898438 93.304688 108.335938 92.210938 106.539062 92.167969 C 112.683594 92.167969 118.828125 92.167969 124.972656 92.167969 M 106.539062 92.167969 C 109.203125 92.082031 111.480469 90.386719 113.507812 88.824219 C 117.097656 85.8125 120.203125 82.226562 122.824219 78.351562 C 123.785156 76.746094 124.917969 75.042969 124.972656 73.109375 C 124.972656 79.464844 124.972656 85.8125 124.972656 92.167969 "/>
<path fill-rule="nonzero" fill="rgb(90.196078%, 9.411765%, 3.921569%)" fill-opacity="1" d="M 124.972656 147.328125 C 118.828125 147.328125 112.683594 147.328125 106.539062 147.328125 C 108.640625 147.421875 110.425781 148.777344 112.113281 149.902344 C 115.902344 152.761719 119.453125 156.039062 122.253906 159.875 C 123.5625 161.804688 124.9375 163.972656 124.972656 166.382812 M 106.539062 147.328125 C 109.203125 147.242188 111.480469 145.546875 113.507812 143.984375 C 117.097656 140.972656 120.203125 137.386719 122.824219 133.511719 C 123.785156 131.90625 124.917969 130.203125 124.972656 128.269531 C 124.972656 134.625 124.972656 140.972656 124.972656 147.328125 M 124.972656 128.269531 C 125.0625 131.109375 126.792969 133.566406 128.421875 135.757812 C 131.332031 139.382812 134.777344 142.589844 138.570312 145.269531 C 140.042969 146.1875 141.609375 147.28125 143.402344 147.328125 C 137.261719 147.328125 131.117188 147.328125 124.972656 147.328125 M 143.402344 147.328125 C 140.738281 147.410156 138.464844 149.105469 136.433594 150.667969 C 132.847656 153.683594 129.742188 157.265625 127.121094 161.144531 C 126.15625 162.75 125.027344 164.449219 124.972656 166.382812 C 124.972656 160.03125 124.972656 153.679688 124.972656 147.328125 "/>
<path fill-rule="nonzero" fill="rgb(90.196078%, 9.411765%, 3.921569%)" fill-opacity="1" d="M 124.972656 201.484375 C 118.828125 201.484375 112.683594 201.484375 106.539062 201.484375 C 108.640625 201.578125 110.425781 202.933594 112.113281 204.058594 C 115.902344 206.917969 119.453125 210.195312 122.253906 214.03125 C 123.5625 215.960938 124.9375 218.128906 124.972656 220.539062 M 106.539062 201.484375 C 109.203125 201.398438 111.480469 199.703125 113.507812 198.140625 C 117.097656 195.128906 120.203125 191.542969 122.824219 187.667969 C 123.785156 186.058594 124.917969 184.359375 124.972656 182.425781 C 124.972656 188.78125 124.972656 195.128906 124.972656 201.484375 M 124.972656 182.425781 C 125.0625 185.265625 126.792969 187.722656 128.421875 189.914062 C 131.332031 193.539062 134.777344 196.746094 138.570312 199.425781 C 140.042969 200.34375 141.609375 201.4375 143.402344 201.484375 C 137.261719 201.484375 131.117188 201.484375 124.972656 201.484375 M 143.402344 201.484375 C 140.738281 201.566406 138.464844 203.261719 136.433594 204.824219 C 132.847656 207.839844 129.742188 211.421875 127.121094 215.300781 C 126.15625 216.90625 125.027344 218.605469 124.972656 220.539062 C 124.972656 214.1875 124.972656 207.835938 124.972656 201.484375 "/>
<path fill-rule="nonzero" fill="rgb(90.196078%, 9.411765%, 3.921569%)" fill-opacity="1" d="M 85.042969 65.089844 C 91.1875 65.089844 97.332031 65.089844 103.476562 65.089844 C 101.375 64.996094 99.589844 63.636719 97.902344 62.515625 C 94.113281 59.65625 90.5625 56.375 87.761719 52.542969 C 86.453125 50.613281 85.078125 48.441406 85.042969 46.03125 M 103.476562 65.089844 C 100.8125 65.171875 98.535156 66.867188 96.503906 68.433594 C 92.917969 71.445312 89.8125 75.027344 87.191406 78.90625 C 86.230469 80.511719 85.097656 82.210938 85.042969 84.144531 C 85.042969 77.792969 85.042969 71.441406 85.042969 65.089844 M 85.042969 84.144531 C 84.953125 81.308594 83.222656 78.851562 81.59375 76.65625 C 78.683594 73.03125 75.238281 69.824219 71.445312 67.144531 C 69.972656 66.226562 68.40625 65.132812 66.609375 65.089844 C 72.753906 65.089844 78.898438 65.089844 85.042969 65.089844 M 66.609375 65.089844 C 69.273438 65.003906 71.550781 63.308594 73.582031 61.746094 C 77.167969 58.734375 80.273438 55.148438 82.894531 51.273438 C 83.859375 49.667969 84.988281 47.964844 85.042969 46.03125 C 85.042969 52.386719 85.042969 58.734375 85.042969 65.089844 "/>
<path fill-rule="nonzero" fill="rgb(90.196078%, 9.411765%, 3.921569%)" fill-opacity="1" d="M 85.042969 174.40625 C 78.898438 174.40625 72.753906 174.40625 66.609375 174.40625 C 68.710938 174.5 70.496094 175.855469 72.183594 176.980469 C 75.972656 179.839844 79.523438 183.117188 82.328125 186.953125 C 83.632812 188.882812 85.007812 191.050781 85.042969 193.460938 M 66.609375 174.40625 C 69.273438 174.320312 71.550781 172.625 73.582031 171.0625 C 77.167969 168.050781 80.273438 164.464844 82.894531 160.589844 C 83.859375 158.984375 84.992188 157.28125 85.042969 155.347656 C 85.042969 161.703125 85.042969 168.050781 85.042969 174.40625 M 85.042969 155.347656 C 85.132812 158.1875 86.863281 160.644531 88.496094 162.835938 C 91.402344 166.460938 94.847656 169.667969 98.640625 172.347656 C 100.113281 173.265625 101.679688 174.359375 103.476562 174.40625 C 97.332031 174.40625 91.1875 174.40625 85.042969 174.40625 M 103.476562 174.40625 C 100.8125 174.488281 98.535156 176.183594 96.503906 177.746094 C 92.917969 180.761719 89.8125 184.34375 87.191406 188.222656 C 86.230469 189.828125 85.097656 191.527344 85.042969 193.460938 C 85.042969 187.109375 85.042969 180.757812 85.042969 174.40625 "/>
</svg>
