<?xml version="1.0" encoding="UTF-8"?>
<svg xmlns="http://www.w3.org/2000/svg" xmlns:xlink="http://www.w3.org/1999/xlink" width="169.074219" height="244.640625" viewBox="0 0 169.074219 244.640625">
<path fill-rule="nonzero" fill="rgb(100%, 100%, 100%)" fill-opacity="1" stroke-width="2.5" stroke-linecap="butt" stroke-linejoin="miter" stroke="rgb(0%, 0%, 0%)" stroke-opacity="1" stroke-miterlimit="4" d="M 0 -0.000468254 C 0 3.780782 3.089844 6.870625 6.871094 6.870625 L 159.714844 6.870625 C 163.484375 6.870625 166.574219 3.780782 166.574219 -0.000468254 L 166.574219 -228.398906 C 166.574219 -232.180156 163.484375 -235.27 159.714844 -235.27 L 6.871094 -235.27 C 3.089844 -235.27 0 -232.180156 0 -228.398906 Z M 0 -0.000468254 " transform="matrix(1, 0, 0, 1, 1.25, 236.52)"/>
<path fill-rule="nonzero" fill="rgb(90.196078%, 9.411765%, 3.921569%)" fill-opacity="1" d="M 13.523438 6.257812 C 12.710938 6.257812 12.132812 6.910156 11.785156 8.207031 C 11.445312 9.496094 11.273438 11.738281 11.273438 14.933594 C 11.273438 18.128906 11.445312 20.378906 11.785156 21.675781 C 12.132812 22.976562 12.710938 23.625 13.523438 23.625 C 14.335938 23.625 14.914062 22.976562 15.261719 21.675781 C 15.613281 20.378906 15.789062 18.128906 15.789062 14.933594 C 15.789062 11.738281 15.613281 9.496094 15.261719 8.207031 C 14.914062 6.910156 14.335938 6.257812 13.523438 6.257812 Z M 16.171875 23.90625 C 15.644531 24.6875 15.066406 25.277344 14.433594 25.671875 C 13.796875 26.0625 13.105469 26.25 12.359375 26.25 C 10.558594 26.25 9.140625 25.265625 8.109375 23.292969 C 7.078125 21.324219 6.5625 18.597656 6.5625 15.113281 C 6.5625 11.445312 7.140625 8.621094 8.292969 6.640625 C 9.449219 4.648438 11.101562 3.648438 13.242188 3.648438 C 15.660156 3.648438 17.488281 5.019531 18.738281 7.761719 C 19.988281 10.503906 20.617188 14.515625 20.617188 19.789062 C 20.617188 25.816406 19.921875 30.363281 18.535156 33.4375 C 17.152344 36.511719 15.101562 38.046875 12.386719 38.046875 C 11.671875 38.046875 10.910156 37.9375 10.09375 37.71875 C 9.28125 37.492188 8.410156 37.164062 7.480469 36.710938 L 7.480469 30.859375 L 8.910156 30.859375 C 9.109375 32.371094 9.484375 33.515625 10.03125 34.296875 C 10.582031 35.070312 11.296875 35.453125 12.175781 35.453125 C 13.5625 35.453125 14.570312 34.554688 15.199219 32.742188 C 15.835938 30.925781 16.15625 27.980469 16.171875 23.90625 Z M 5.25 -5.289062 "/>
<path fill-rule="nonzero" fill="rgb(90.196078%, 9.411765%, 3.921569%)" fill-opacity="1" d="M 156.546875 237.382812 C 157.359375 237.382812 157.9375 236.730469 158.285156 235.433594 C 158.625 234.144531 158.796875 231.902344 158.796875 228.710938 C 158.796875 225.511719 158.625 223.265625 158.285156 221.96875 C 157.9375 220.667969 157.359375 220.019531 156.546875 220.019531 C 155.734375 220.019531 155.15625 220.667969 154.808594 221.96875 C 154.457031 223.265625 154.277344 225.511719 154.277344 228.710938 C 154.277344 231.902344 154.457031 234.144531 154.808594 235.433594 C 155.15625 236.730469 155.734375 237.382812 156.546875 237.382812 Z M 153.898438 219.738281 C 154.425781 218.953125 155.003906 218.367188 155.636719 217.96875 C 156.273438 217.582031 156.964844 217.390625 157.710938 217.390625 C 159.511719 217.390625 160.929688 218.375 161.960938 220.351562 C 162.992188 222.320312 163.503906 225.046875 163.503906 228.527344 C 163.503906 232.195312 162.929688 235.019531 161.777344 237.003906 C 160.621094 238.996094 158.96875 239.996094 156.828125 239.996094 C 154.410156 239.996094 152.582031 238.625 151.332031 235.878906 C 150.082031 233.136719 149.453125 229.128906 149.453125 223.851562 C 149.453125 217.824219 150.148438 213.277344 151.535156 210.207031 C 152.917969 207.132812 154.96875 205.59375 157.683594 205.59375 C 158.394531 205.59375 159.160156 205.707031 159.976562 205.925781 C 160.789062 206.148438 161.660156 206.480469 162.589844 206.933594 L 162.589844 212.78125 L 161.160156 212.78125 C 160.960938 211.269531 160.585938 210.125 160.039062 209.347656 C 159.488281 208.574219 158.773438 208.191406 157.894531 208.191406 C 156.507812 208.191406 155.5 209.089844 154.871094 210.898438 C 154.234375 212.714844 153.914062 215.660156 153.898438 219.738281 Z M 164.820312 248.933594 "/>
<path fill-rule="nonzero" fill="rgb(90.196078%, 9.411765%, 3.921569%)" fill-opacity="1" d="M 14.898438 51.402344 C 17.460938 51.402344 20.019531 51.402344 22.578125 51.402344 C 21.707031 51.363281 20.960938 50.796875 20.257812 50.332031 C 18.679688 49.140625 17.199219 47.773438 16.03125 46.175781 C 15.488281 45.371094 14.914062 44.46875 14.898438 43.464844 M 22.578125 51.402344 C 21.46875 51.4375 20.523438 52.144531 19.675781 52.796875 C 18.179688 54.050781 16.886719 55.542969 15.796875 57.160156 C 15.394531 57.828125 14.921875 58.539062 14.898438 59.34375 C 14.898438 56.695312 14.898438 54.050781 14.898438 51.402344 M 14.898438 59.34375 C 14.863281 58.160156 14.140625 57.136719 13.460938 56.222656 C 12.25 54.714844 10.8125 53.378906 9.234375 52.261719 C 8.621094 51.878906 7.96875 51.421875 7.21875 51.402344 C 9.78125 51.402344 12.339844 51.402344 14.898438 51.402344 M 7.21875 51.402344 C 8.328125 51.367188 9.277344 50.660156 10.125 50.011719 C 11.617188 48.753906 12.914062 47.261719 14.003906 45.644531 C 14.40625 44.976562 14.878906 44.269531 14.898438 43.464844 C 14.898438 46.109375 14.898438 48.757812 14.898438 51.402344 "/>
<path fill-rule="nonzero" fill="rgb(90.196078%, 9.411765%, 3.921569%)" fill-opacity="1" d="M 155.171875 192.238281 C 152.609375 192.238281 150.050781 192.238281 147.488281 192.238281 C 148.363281 192.277344 149.109375 192.84375 149.8125 193.3125 C 151.390625 194.503906 152.871094 195.871094 154.039062 197.46875 C 154.582031 198.273438 155.15625 199.175781 155.171875 200.179688 M 147.488281 192.238281 C 148.601562 192.203125 149.546875 191.5 150.394531 190.847656 C 151.890625 189.59375 153.183594 188.097656 154.273438 186.484375 C 154.675781 185.8125 155.148438 185.105469 155.171875 184.300781 C 155.171875 186.945312 155.171875 189.59375 155.171875 192.238281 M 155.171875 184.300781 C 155.207031 185.480469 155.929688 186.507812 156.609375 187.421875 C 157.820312 188.929688 159.257812 190.265625 160.835938 191.382812 C 161.449219 191.765625 162.101562 192.222656 162.851562 192.238281 C 160.289062 192.238281 157.730469 192.238281 155.171875 192.238281 M 162.851562 192.238281 C 161.738281 192.273438 160.792969 192.980469 159.945312 193.632812 C 158.449219 194.886719 157.15625 196.382812 156.066406 197.996094 C 155.664062 198.664062 155.191406 199.375 155.171875 200.179688 C 155.171875 197.53125 155.171875 194.886719 155.171875 192.238281 "/>
<path fill-rule="nonzero" fill="rgb(90.196078%, 9.411765%, 3.921569%)" fill-opacity="1" d="M 45.109375 38.011719 C 51.253906 38.011719 57.398438 38.011719 63.542969 38.011719 C 61.441406 37.917969 59.65625 36.558594 57.96875 35.4375 C 54.179688 32.578125 50.628906 29.296875 47.824219 25.464844 C 46.519531 23.535156 45.144531 21.363281 45.109375 18.953125 M 63.542969 38.011719 C 60.878906 38.09375 58.601562 39.789062 56.570312 41.355469 C 52.984375 44.367188 49.878906 47.949219 47.257812 51.828125 C 46.292969 53.433594 45.160156 55.132812 45.109375 57.066406 C 45.109375 50.714844 45.109375 44.363281 45.109375 38.011719 M 45.109375 57.066406 C 45.019531 54.230469 43.289062 51.773438 41.65625 49.578125 C 38.75 45.953125 35.304688 42.75 31.511719 40.066406 C 30.039062 39.148438 28.472656 38.054688 26.675781 38.011719 C 32.820312 38.011719 38.964844 38.011719 45.109375 38.011719 M 26.675781 38.011719 C 29.339844 37.925781 31.617188 36.230469 33.648438 34.667969 C 37.234375 31.65625 40.339844 28.070312 42.960938 24.195312 C 43.921875 22.589844 45.054688 20.886719 45.109375 18.953125 C 45.109375 25.308594 45.109375 31.65625 45.109375 38.011719 "/>
<path fill-rule="nonzero" fill="rgb(90.196078%, 9.411765%, 3.921569%)" fill-opacity="1" d="M 45.109375 92.167969 C 51.253906 92.167969 57.398438 92.167969 63.542969 92.167969 C 61.441406 92.074219 59.65625 90.714844 57.96875 89.59375 C 54.179688 86.734375 50.628906 83.453125 47.824219 79.621094 C 46.519531 77.691406 45.144531 75.519531 45.109375 73.109375 M 63.542969 92.167969 C 60.878906 92.25 58.601562 93.945312 56.570312 95.511719 C 52.984375 98.523438 49.878906 102.105469 47.257812 105.984375 C 46.292969 107.589844 45.160156 109.289062 45.109375 111.222656 C 45.109375 104.871094 45.109375 98.519531 45.109375 92.167969 M 45.109375 111.222656 C 45.019531 108.386719 43.289062 105.929688 41.65625 103.734375 C 38.75 100.109375 35.304688 96.90625 31.511719 94.222656 C 30.039062 93.304688 28.472656 92.210938 26.675781 92.167969 C 32.820312 92.167969 38.964844 92.167969 45.109375 92.167969 M 26.675781 92.167969 C 29.339844 92.082031 31.617188 90.386719 33.648438 88.824219 C 37.234375 85.8125 40.339844 82.226562 42.960938 78.351562 C 43.921875 76.746094 45.054688 75.042969 45.109375 73.109375 C 45.109375 79.464844 45.109375 85.8125 45.109375 92.167969 "/>
<path fill-rule="nonzero" fill="rgb(90.196078%, 9.411765%, 3.921569%)" fill-opacity="1" d="M 45.109375 147.328125 C 38.964844 147.328125 32.820312 147.328125 26.675781 147.328125 C 28.777344 147.421875 30.5625 148.777344 32.25 149.902344 C 36.039062 152.761719 39.589844 156.039062 42.390625 159.875 C 43.699219 161.804688 45.074219 163.972656 45.109375 166.382812 M 26.675781 147.328125 C 29.339844 147.242188 31.617188 145.546875 33.648438 143.984375 C 37.234375 140.972656 40.339844 137.386719 42.960938 133.511719 C 43.921875 131.90625 45.054688 130.203125 45.109375 128.269531 C 45.109375 134.625 45.109375 140.972656 45.109375 147.328125 M 45.109375 128.269531 C 45.199219 131.109375 46.929688 133.566406 48.558594 135.757812 C 51.46875 139.382812 54.914062 142.589844 58.707031 145.269531 C 60.179688 146.1875 61.746094 147.28125 63.542969 147.328125 C 57.398438 147.328125 51.253906 147.328125 45.109375 147.328125 M 63.542969 147.328125 C 60.878906 147.410156 58.601562 149.105469 56.570312 150.667969 C 52.984375 153.683594 49.878906 157.265625 47.257812 161.144531 C 46.292969 162.75 45.164062 164.449219 45.109375 166.382812 C 45.109375 160.03125 45.109375 153.679688 45.109375 147.328125 "/>
<path fill-rule="nonzero" fill="rgb(90.196078%, 9.411765%, 3.921569%)" fill-opacity="1" d="M 45.109375 201.484375 C 38.964844 201.484375 32.820312 201.484375 26.675781 201.484375 C 28.777344 201.578125 30.5625 202.933594 32.25 204.058594 C 36.039062 206.917969 39.589844 210.195312 42.390625 214.03125 C 43.699219 215.960938 45.074219 218.128906 45.109375 220.539062 M 26.675781 201.484375 C 29.339844 201.398438 31.617188 199.703125 33.648438 198.140625 C 37.234375 195.128906 40.339844 191.542969 42.960938 187.667969 C 43.921875 186.058594 45.054688 184.359375 45.109375 182.425781 C 45.109375 188.78125 45.109375 195.128906 45.109375 201.484375 M 45.109375 182.425781 C 45.199219 185.265625 46.929688 187.722656 48.558594 189.914062 C 51.46875 193.539062 54.914062 196.746094 58.707031 199.425781 C 60.179688 200.34375 61.746094 201.4375 63.542969 201.484375 C 57.398438 201.484375 51.253906 201.484375 45.109375 201.484375 M 63.542969 201.484375 C 60.878906 201.566406 58.601562 203.261719 56.570312 204.824219 C 52.984375 207.839844 49.878906 211.421875 47.257812 215.300781 C 46.292969 216.90625 45.164062 218.605469 45.109375 220.539062 C 45.109375 214.1875 45.109375 207.835938 45.109375 201.484375 "/>
<path fill-rule="nonzero" fill="rgb(90.196078%, 9.411765%, 3.921569%)" fill-opacity="1" d="M 124.964844 38.011719 C 131.109375 38.011719 137.253906 38.011719 143.398438 38.011719 C 141.300781 37.917969 139.511719 36.558594 137.824219 35.4375 C 134.035156 32.578125 130.488281 29.296875 127.683594 25.464844 C 126.375 23.535156 125 21.363281 124.964844 18.953125 M 143.398438 38.011719 C 140.734375 38.09375 138.460938 39.789062 136.429688 41.355469 C 132.839844 44.367188 129.734375 47.949219 127.113281 51.828125 C 126.152344 53.433594 125.019531 55.132812 124.964844 57.066406 C 124.964844 50.714844 124.964844 44.363281 124.964844 38.011719 M 124.964844 57.066406 C 124.875 54.230469 123.148438 51.773438 121.515625 49.578125 C 118.605469 45.953125 115.160156 42.75 111.367188 40.066406 C 109.894531 39.148438 108.328125 38.054688 106.535156 38.011719 C 112.679688 38.011719 118.824219 38.011719 124.964844 38.011719 M 106.535156 38.011719 C 109.199219 37.925781 111.472656 36.230469 113.503906 34.667969 C 117.09375 31.65625 120.199219 28.070312 122.820312 24.195312 C 123.78125 22.589844 124.914062 20.886719 124.964844 18.953125 C 124.964844 25.308594 124.964844 31.65625 124.964844 38.011719 "/>
<path fill-rule="nonzero" fill="rgb(90.196078%, 9.411765%, 3.921569%)" fill-opacity="1" d="M 124.964844 92.167969 C 131.109375 92.167969 137.253906 92.167969 143.398438 92.167969 C 141.300781 92.074219 139.511719 90.714844 137.824219 89.59375 C 134.035156 86.734375 130.488281 83.453125 127.683594 79.621094 C 126.375 77.691406 125 75.519531 124.964844 73.109375 M 143.398438 92.167969 C 140.734375 92.25 138.460938 93.945312 136.429688 95.511719 C 132.839844 98.523438 129.734375 102.105469 127.113281 105.984375 C 126.152344 107.589844 125.019531 109.289062 124.964844 111.222656 C 124.964844 104.871094 124.964844 98.519531 124.964844 92.167969 M 124.964844 111.222656 C 124.875 108.386719 123.148438 105.929688 121.515625 103.734375 C 118.605469 100.109375 115.160156 96.90625 111.367188 94.222656 C 109.894531 93.304688 108.328125 92.210938 106.535156 92.167969 C 112.679688 92.167969 118.824219 92.167969 124.964844 92.167969 M 106.535156 92.167969 C 109.199219 92.082031 111.472656 90.386719 113.503906 88.824219 C 117.09375 85.8125 120.199219 82.226562 122.820312 78.351562 C 123.78125 76.746094 124.914062 75.042969 124.964844 73.109375 C 124.964844 79.464844 124.964844 85.8125 124.964844 92.167969 "/>
<path fill-rule="nonzero" fill="rgb(90.196078%, 9.411765%, 3.921569%)" fill-opacity="1" d="M 124.96875 147.328125 C 118.824219 147.328125 112.679688 147.328125 106.535156 147.328125 C 108.632812 147.421875 110.421875 148.777344 112.109375 149.902344 C 115.898438 152.761719 119.445312 156.039062 122.25 159.875 C 123.558594 161.804688 124.933594 163.972656 124.96875 166.382812 M 106.535156 147.328125 C 109.199219 147.242188 111.472656 145.546875 113.503906 143.984375 C 117.09375 140.972656 120.199219 137.386719 122.820312 133.511719 C 123.78125 131.90625 124.914062 130.203125 124.96875 128.269531 C 124.96875 134.625 124.96875 140.972656 124.96875 147.328125 M 124.96875 128.269531 C 125.058594 131.109375 126.785156 133.566406 128.417969 135.757812 C 131.328125 139.382812 134.773438 142.589844 138.566406 145.269531 C 140.039062 146.1875 141.605469 147.28125 143.398438 147.328125 C 137.253906 147.328125 131.109375 147.328125 124.96875 147.328125 M 143.398438 147.328125 C 140.734375 147.410156 138.460938 149.105469 136.429688 150.667969 C 132.839844 153.683594 129.734375 157.265625 127.113281 161.144531 C 126.152344 162.75 125.019531 164.449219 124.96875 166.382812 C 124.96875 160.03125 124.96875 153.679688 124.96875 147.328125 "/>
<path fill-rule="nonzero" fill="rgb(90.196078%, 9.411765%, 3.921569%)" fill-opacity="1" d="M 124.96875 201.484375 C 118.824219 201.484375 112.679688 201.484375 106.535156 201.484375 C 108.632812 201.578125 110.421875 202.933594 112.109375 204.058594 C 115.898438 206.917969 119.445312 210.195312 122.25 214.03125 C 123.558594 215.960938 124.933594 218.128906 124.96875 220.539062 M 106.535156 201.484375 C 109.199219 201.398438 111.472656 199.703125 113.503906 198.140625 C 117.09375 195.128906 120.199219 191.542969 122.820312 187.667969 C 123.78125 186.058594 124.914062 184.359375 124.96875 182.425781 C 124.96875 188.78125 124.96875 195.128906 124.96875 201.484375 M 124.96875 182.425781 C 125.058594 185.265625 126.785156 187.722656 128.417969 189.914062 C 131.328125 193.539062 134.773438 196.746094 138.566406 199.425781 C 140.039062 200.34375 141.605469 201.4375 143.398438 201.484375 C 137.253906 201.484375 131.109375 201.484375 124.96875 201.484375 M 143.398438 201.484375 C 140.734375 201.566406 138.460938 203.261719 136.429688 204.824219 C 132.839844 207.839844 129.734375 211.421875 127.113281 215.300781 C 126.152344 216.90625 125.019531 218.605469 124.96875 220.539062 C 124.96875 214.1875 124.96875 207.835938 124.96875 201.484375 "/>
<path fill-rule="nonzero" fill="rgb(90.196078%, 9.411765%, 3.921569%)" fill-opacity="1" d="M 85.039062 65.089844 C 91.183594 65.089844 97.324219 65.089844 103.46875 65.089844 C 101.371094 64.996094 99.585938 63.636719 97.898438 62.515625 C 94.109375 59.65625 90.558594 56.375 87.753906 52.542969 C 86.445312 50.613281 85.074219 48.441406 85.039062 46.03125 M 103.46875 65.089844 C 100.804688 65.171875 98.53125 66.867188 96.5 68.433594 C 92.914062 71.445312 89.808594 75.027344 87.1875 78.90625 C 86.222656 80.511719 85.089844 82.210938 85.039062 84.144531 C 85.039062 77.792969 85.039062 71.441406 85.039062 65.089844 M 85.039062 84.144531 C 84.945312 81.308594 83.21875 78.851562 81.585938 76.65625 C 78.679688 73.03125 75.230469 69.824219 71.441406 67.144531 C 69.964844 66.226562 68.402344 65.132812 66.605469 65.089844 C 72.75 65.089844 78.894531 65.089844 85.039062 65.089844 M 66.605469 65.089844 C 69.269531 65.003906 71.546875 63.308594 73.574219 61.746094 C 77.164062 58.734375 80.269531 55.148438 82.890625 51.273438 C 83.851562 49.667969 84.984375 47.964844 85.039062 46.03125 C 85.039062 52.386719 85.039062 58.734375 85.039062 65.089844 "/>
</svg>
