<?xml version="1.0" encoding="UTF-8"?>
<svg xmlns="http://www.w3.org/2000/svg" xmlns:xlink="http://www.w3.org/1999/xlink" width="169.074219" height="244.640625" viewBox="0 0 169.074219 244.640625">
<path fill-rule="nonzero" fill="rgb(100%, 100%, 100%)" fill-opacity="1" stroke-width="2.5" stroke-linecap="butt" stroke-linejoin="miter" stroke="rgb(0%, 0%, 0%)" stroke-opacity="1" stroke-miterlimit="4" d="M 0 -0.000468254 C 0 3.780782 3.089844 6.870625 6.871094 6.870625 L 159.714844 6.870625 C 163.484375 6.870625 166.574219 3.780782 166.574219 -0.000468254 L 166.574219 -228.398906 C 166.574219 -232.180156 163.484375 -235.27 159.714844 -235.27 L 6.871094 -235.27 C 3.089844 -235.27 0 -232.180156 0 -228.398906 Z M 0 -0.000468254 " transform="matrix(1, 0, 0, 1, 1.25, 236.52)"/>
<path fill-rule="nonzero" fill="rgb(90.196078%, 9.411765%, 3.921569%)" fill-opacity="1" d="M 20.738281 37.402344 L 11 37.402344 L 11 34.710938 L 13.628906 34.710938 L 13.628906 28.679688 L 6.246094 28.679688 L 6.246094 26.117188 L 13.65625 3.648438 L 18.109375 3.648438 L 18.109375 25.820312 L 21.144531 25.820312 L 21.144531 28.679688 L 18.109375 28.679688 L 18.109375 34.710938 L 20.738281 34.710938 Z M 13.628906 25.820312 L 13.628906 9.710938 L 8.355469 25.820312 Z M 5.25 -5.289062 "/>
<path fill-rule="nonzero" fill="rgb(90.196078%, 9.411765%, 3.921569%)" fill-opacity="1" d="M 149.335938 206.238281 L 159.074219 206.238281 L 159.074219 208.933594 L 156.445312 208.933594 L 156.445312 214.964844 L 163.828125 214.964844 L 163.828125 217.523438 L 156.417969 239.996094 L 151.964844 239.996094 L 151.964844 217.820312 L 148.929688 217.820312 L 148.929688 214.964844 L 151.964844 214.964844 L 151.964844 208.933594 L 149.335938 208.933594 Z M 156.445312 217.820312 L 156.445312 233.929688 L 161.71875 217.820312 Z M 164.824219 248.933594 "/>
<path fill-rule="nonzero" fill="rgb(90.196078%, 9.411765%, 3.921569%)" fill-opacity="1" d="M 14.898438 51.402344 C 17.460938 51.402344 20.019531 51.402344 22.578125 51.402344 C 21.707031 51.363281 20.960938 50.796875 20.257812 50.332031 C 18.679688 49.140625 17.199219 47.773438 16.03125 46.175781 C 15.488281 45.371094 14.914062 44.46875 14.898438 43.464844 M 22.578125 51.402344 C 21.46875 51.4375 20.523438 52.144531 19.675781 52.796875 C 18.179688 54.050781 16.886719 55.542969 15.796875 57.160156 C 15.394531 57.828125 14.921875 58.539062 14.898438 59.34375 C 14.898438 56.695312 14.898438 54.050781 14.898438 51.402344 M 14.898438 59.34375 C 14.863281 58.160156 14.140625 57.136719 13.460938 56.222656 C 12.25 54.714844 10.8125 53.378906 9.234375 52.261719 C 8.621094 51.878906 7.96875 51.421875 7.21875 51.402344 C 9.78125 51.402344 12.339844 51.402344 14.898438 51.402344 M 7.21875 51.402344 C 8.328125 51.367188 9.277344 50.660156 10.125 50.011719 C 11.617188 48.753906 12.914062 47.261719 14.003906 45.644531 C 14.40625 44.976562 14.878906 44.269531 14.898438 43.464844 C 14.898438 46.109375 14.898438 48.757812 14.898438 51.402344 "/>
<path fill-rule="nonzero" fill="rgb(90.196078%, 9.411765%, 3.921569%)" fill-opacity="1" d="M 155.175781 192.238281 C 152.613281 192.238281 150.054688 192.238281 147.496094 192.238281 C 148.371094 192.277344 149.113281 192.84375 149.816406 193.3125 C 151.394531 194.503906 152.875 195.871094 154.042969 197.46875 C 154.589844 198.273438 155.160156 199.175781 155.175781 200.179688 M 147.496094 192.238281 C 148.605469 192.203125 149.554688 191.5 150.398438 190.847656 C 151.894531 189.59375 153.1875 188.097656 154.28125 186.484375 C 154.679688 185.8125 155.152344 185.105469 155.175781 184.300781 C 155.175781 186.945312 155.175781 189.59375 155.175781 192.238281 M 155.175781 184.300781 C 155.214844 185.480469 155.933594 186.507812 156.613281 187.421875 C 157.824219 188.929688 159.261719 190.265625 160.839844 191.382812 C 161.453125 191.765625 162.105469 192.222656 162.855469 192.238281 C 160.296875 192.238281 157.734375 192.238281 155.175781 192.238281 M 162.855469 192.238281 C 161.746094 192.273438 160.796875 192.980469 159.949219 193.632812 C 158.457031 194.886719 157.160156 196.382812 156.070312 197.996094 C 155.667969 198.664062 155.199219 199.375 155.175781 200.179688 C 155.175781 197.53125 155.175781 194.886719 155.175781 192.238281 "/>
<path fill-rule="nonzero" fill="rgb(90.196078%, 9.411765%, 3.921569%)" fill-opacity="1" d="M 45.109375 38.011719 C 51.253906 38.011719 57.394531 38.011719 63.539062 38.011719 C 61.441406 37.917969 59.65625 36.558594 57.96875 35.4375 C 54.179688 32.578125 50.628906 29.296875 47.824219 25.464844 C 46.515625 23.535156 45.144531 21.363281 45.109375 18.953125 M 63.539062 38.011719 C 60.875 38.09375 58.601562 39.789062 56.570312 41.355469 C 52.984375 44.367188 49.878906 47.949219 47.257812 51.828125 C 46.292969 53.433594 45.160156 55.132812 45.109375 57.066406 C 45.109375 50.714844 45.109375 44.363281 45.109375 38.011719 M 45.109375 57.066406 C 45.015625 54.230469 43.289062 51.773438 41.65625 49.578125 C 38.75 45.953125 35.300781 42.75 31.507812 40.066406 C 30.035156 39.148438 28.472656 38.054688 26.675781 38.011719 C 32.820312 38.011719 38.964844 38.011719 45.109375 38.011719 M 26.675781 38.011719 C 29.339844 37.925781 31.617188 36.230469 33.644531 34.667969 C 37.234375 31.65625 40.339844 28.070312 42.960938 24.195312 C 43.921875 22.589844 45.054688 20.886719 45.109375 18.953125 C 45.109375 25.308594 45.109375 31.65625 45.109375 38.011719 "/>
<path fill-rule="nonzero" fill="rgb(90.196078%, 9.411765%, 3.921569%)" fill-opacity="1" d="M 45.109375 201.484375 C 38.964844 201.484375 32.820312 201.484375 26.675781 201.484375 C 28.777344 201.578125 30.5625 202.933594 32.25 204.058594 C 36.039062 206.917969 39.589844 210.195312 42.390625 214.03125 C 43.699219 215.960938 45.074219 218.128906 45.109375 220.539062 M 26.675781 201.484375 C 29.339844 201.398438 31.617188 199.703125 33.644531 198.140625 C 37.234375 195.128906 40.339844 191.542969 42.960938 187.667969 C 43.921875 186.058594 45.054688 184.359375 45.109375 182.425781 C 45.109375 188.78125 45.109375 195.128906 45.109375 201.484375 M 45.109375 182.425781 C 45.199219 185.265625 46.925781 187.722656 48.558594 189.914062 C 51.46875 193.539062 54.914062 196.746094 58.707031 199.425781 C 60.179688 200.34375 61.746094 201.4375 63.539062 201.484375 C 57.394531 201.484375 51.253906 201.484375 45.109375 201.484375 M 63.539062 201.484375 C 60.875 201.566406 58.601562 203.261719 56.570312 204.824219 C 52.984375 207.839844 49.878906 211.421875 47.257812 215.300781 C 46.292969 216.90625 45.164062 218.605469 45.109375 220.539062 C 45.109375 214.1875 45.109375 207.835938 45.109375 201.484375 "/>
<path fill-rule="nonzero" fill="rgb(90.196078%, 9.411765%, 3.921569%)" fill-opacity="1" d="M 124.964844 38.011719 C 131.109375 38.011719 137.253906 38.011719 143.398438 38.011719 C 141.296875 37.917969 139.511719 36.558594 137.824219 35.4375 C 134.035156 32.578125 130.484375 29.296875 127.683594 25.464844 C 126.375 23.535156 125 21.363281 124.964844 18.953125 M 143.398438 38.011719 C 140.734375 38.09375 138.457031 39.789062 136.429688 41.355469 C 132.839844 44.367188 129.734375 47.949219 127.113281 51.828125 C 126.152344 53.433594 125.019531 55.132812 124.964844 57.066406 C 124.964844 50.714844 124.964844 44.363281 124.964844 38.011719 M 124.964844 57.066406 C 124.875 54.230469 123.148438 51.773438 121.515625 49.578125 C 118.605469 45.953125 115.160156 42.75 111.367188 40.066406 C 109.894531 39.148438 108.328125 38.054688 106.535156 38.011719 C 112.679688 38.011719 118.820312 38.011719 124.964844 38.011719 M 106.535156 38.011719 C 109.199219 37.925781 111.472656 36.230469 113.503906 34.667969 C 117.089844 31.65625 120.195312 28.070312 122.816406 24.195312 C 123.78125 22.589844 124.910156 20.886719 124.964844 18.953125 C 124.964844 25.308594 124.964844 31.65625 124.964844 38.011719 "/>
<path fill-rule="nonzero" fill="rgb(90.196078%, 9.411765%, 3.921569%)" fill-opacity="1" d="M 124.964844 201.484375 C 118.820312 201.484375 112.679688 201.484375 106.535156 201.484375 C 108.632812 201.578125 110.417969 202.933594 112.105469 204.058594 C 115.894531 206.917969 119.445312 210.195312 122.25 214.03125 C 123.558594 215.960938 124.929688 218.128906 124.964844 220.539062 M 106.535156 201.484375 C 109.199219 201.398438 111.472656 199.703125 113.503906 198.140625 C 117.089844 195.128906 120.195312 191.542969 122.816406 187.667969 C 123.78125 186.058594 124.914062 184.359375 124.964844 182.425781 C 124.964844 188.78125 124.964844 195.128906 124.964844 201.484375 M 124.964844 182.425781 C 125.058594 185.265625 126.785156 187.722656 128.417969 189.914062 C 131.324219 193.539062 134.773438 196.746094 138.5625 199.425781 C 140.039062 200.34375 141.601562 201.4375 143.398438 201.484375 C 137.253906 201.484375 131.109375 201.484375 124.964844 201.484375 M 143.398438 201.484375 C 140.734375 201.566406 138.457031 203.261719 136.429688 204.824219 C 132.839844 207.839844 129.734375 211.421875 127.113281 215.300781 C 126.152344 216.90625 125.019531 218.605469 124.964844 220.539062 C 124.964844 214.1875 124.964844 207.835938 124.964844 201.484375 "/>
</svg>
