<?xml version="1.0" encoding="UTF-8"?>
<svg xmlns="http://www.w3.org/2000/svg" xmlns:xlink="http://www.w3.org/1999/xlink" width="169.074219" height="244.640625" viewBox="0 0 169.074219 244.640625">
<path fill-rule="nonzero" fill="rgb(100%, 100%, 100%)" fill-opacity="1" stroke-width="2.5" stroke-linecap="butt" stroke-linejoin="miter" stroke="rgb(0%, 0%, 0%)" stroke-opacity="1" stroke-miterlimit="4" d="M 0 -0.000468254 C 0 3.780782 3.089844 6.870625 6.871094 6.870625 L 159.714844 6.870625 C 163.484375 6.870625 166.574219 3.780782 166.574219 -0.000468254 L 166.574219 -228.398906 C 166.574219 -232.180156 163.484375 -235.27 159.714844 -235.27 L 6.871094 -235.27 C 3.089844 -235.27 0 -232.180156 0 -228.398906 Z M 0 -0.000468254 " transform="matrix(1, 0, 0, 1, 1.25, 236.52)"/>
<path fill-rule="nonzero" fill="rgb(90.196078%, 9.411765%, 3.921569%)" fill-opacity="1" d="M 20.121094 9.894531 L 12.828125 37.402344 L 10.417969 37.402344 L 17.527344 10.539062 L 8.796875 10.539062 L 8.796875 15.015625 L 7.171875 15.015625 L 7.171875 4.261719 L 20.121094 4.261719 Z M 5.25 -5.289062 "/>
<path fill-rule="nonzero" fill="rgb(90.196078%, 9.411765%, 3.921569%)" fill-opacity="1" d="M 149.949219 233.75 L 157.242188 206.238281 L 159.652344 206.238281 L 152.542969 233.105469 L 161.273438 233.105469 L 161.273438 228.628906 L 162.898438 228.628906 L 162.898438 239.382812 L 149.949219 239.382812 Z M 164.820312 248.933594 "/>
<path fill-rule="nonzero" fill="rgb(90.196078%, 9.411765%, 3.921569%)" fill-opacity="1" d="M 14.898438 51.402344 C 17.460938 51.402344 20.019531 51.402344 22.578125 51.402344 C 21.707031 51.363281 20.960938 50.796875 20.257812 50.332031 C 18.679688 49.140625 17.199219 47.773438 16.03125 46.175781 C 15.488281 45.371094 14.914062 44.46875 14.898438 43.464844 M 22.578125 51.402344 C 21.46875 51.4375 20.523438 52.144531 19.675781 52.796875 C 18.179688 54.050781 16.886719 55.542969 15.796875 57.160156 C 15.394531 57.828125 14.921875 58.539062 14.898438 59.34375 C 14.898438 56.695312 14.898438 54.050781 14.898438 51.402344 M 14.898438 59.34375 C 14.863281 58.160156 14.140625 57.136719 13.460938 56.222656 C 12.25 54.714844 10.8125 53.378906 9.234375 52.261719 C 8.621094 51.878906 7.96875 51.421875 7.21875 51.402344 C 9.78125 51.402344 12.339844 51.402344 14.898438 51.402344 M 7.21875 51.402344 C 8.328125 51.367188 9.277344 50.660156 10.125 50.011719 C 11.617188 48.753906 12.914062 47.261719 14.003906 45.644531 C 14.40625 44.976562 14.878906 44.269531 14.898438 43.464844 C 14.898438 46.109375 14.898438 48.757812 14.898438 51.402344 "/>
<path fill-rule="nonzero" fill="rgb(90.196078%, 9.411765%, 3.921569%)" fill-opacity="1" d="M 155.171875 192.238281 C 152.609375 192.238281 150.050781 192.238281 147.488281 192.238281 C 148.363281 192.277344 149.109375 192.84375 149.8125 193.3125 C 151.390625 194.503906 152.871094 195.871094 154.039062 197.46875 C 154.582031 198.273438 155.15625 199.175781 155.171875 200.179688 M 147.488281 192.238281 C 148.601562 192.203125 149.546875 191.5 150.394531 190.847656 C 151.890625 189.59375 153.183594 188.097656 154.273438 186.484375 C 154.675781 185.8125 155.148438 185.105469 155.171875 184.300781 C 155.171875 186.945312 155.171875 189.59375 155.171875 192.238281 M 155.171875 184.300781 C 155.207031 185.480469 155.929688 186.507812 156.609375 187.421875 C 157.820312 188.929688 159.257812 190.265625 160.835938 191.382812 C 161.449219 191.765625 162.101562 192.222656 162.851562 192.238281 C 160.289062 192.238281 157.730469 192.238281 155.171875 192.238281 M 162.851562 192.238281 C 161.738281 192.273438 160.792969 192.980469 159.945312 193.632812 C 158.449219 194.886719 157.15625 196.382812 156.066406 197.996094 C 155.664062 198.664062 155.191406 199.375 155.171875 200.179688 C 155.171875 197.53125 155.171875 194.886719 155.171875 192.238281 "/>
<path fill-rule="nonzero" fill="rgb(90.196078%, 9.411765%, 3.921569%)" fill-opacity="1" d="M 45.109375 38.011719 C 51.253906 38.011719 57.398438 38.011719 63.539062 38.011719 C 61.441406 37.917969 59.65625 36.558594 57.96875 35.4375 C 54.179688 32.578125 50.628906 29.296875 47.824219 25.464844 C 46.519531 23.535156 45.144531 21.363281 45.109375 18.953125 M 63.539062 38.011719 C 60.875 38.09375 58.601562 39.789062 56.570312 41.355469 C 52.984375 44.367188 49.878906 47.949219 47.257812 51.828125 C 46.292969 53.433594 45.160156 55.132812 45.109375 57.066406 C 45.109375 50.714844 45.109375 44.363281 45.109375 38.011719 M 45.109375 57.066406 C 45.019531 54.230469 43.289062 51.773438 41.65625 49.578125 C 38.75 45.953125 35.300781 42.75 31.511719 40.066406 C 30.035156 39.148438 28.472656 38.054688 26.675781 38.011719 C 32.820312 38.011719 38.964844 38.011719 45.109375 38.011719 M 26.675781 38.011719 C 29.339844 37.925781 31.617188 36.230469 33.644531 34.667969 C 37.234375 31.65625 40.339844 28.070312 42.960938 24.195312 C 43.921875 22.589844 45.054688 20.886719 45.109375 18.953125 C 45.109375 25.308594 45.109375 31.65625 45.109375 38.011719 "/>
<path fill-rule="nonzero" fill="rgb(90.196078%, 9.411765%, 3.921569%)" fill-opacity="1" d="M 45.109375 114.953125 C 51.253906 114.953125 57.398438 114.953125 63.539062 114.953125 C 61.441406 114.859375 59.65625 113.5 57.96875 112.375 C 54.179688 109.519531 50.628906 106.238281 47.824219 102.40625 C 46.519531 100.476562 45.144531 98.304688 45.109375 95.894531 M 63.539062 114.953125 C 60.875 115.035156 58.601562 116.730469 56.570312 118.292969 C 52.984375 121.308594 49.878906 124.890625 47.257812 128.769531 C 46.292969 130.375 45.160156 132.074219 45.109375 134.007812 C 45.109375 127.65625 45.109375 121.304688 45.109375 114.953125 M 45.109375 134.007812 C 45.019531 131.171875 43.289062 128.714844 41.65625 126.519531 C 38.75 122.894531 35.300781 119.6875 31.511719 117.007812 C 30.035156 116.089844 28.472656 114.996094 26.675781 114.953125 C 32.820312 114.953125 38.964844 114.953125 45.109375 114.953125 M 26.675781 114.953125 C 29.339844 114.867188 31.617188 113.171875 33.644531 111.609375 C 37.234375 108.597656 40.339844 105.011719 42.960938 101.136719 C 43.921875 99.527344 45.054688 97.828125 45.109375 95.894531 C 45.109375 102.25 45.109375 108.597656 45.109375 114.953125 "/>
<path fill-rule="nonzero" fill="rgb(90.196078%, 9.411765%, 3.921569%)" fill-opacity="1" d="M 45.109375 201.484375 C 38.964844 201.484375 32.820312 201.484375 26.675781 201.484375 C 28.777344 201.578125 30.5625 202.933594 32.25 204.058594 C 36.039062 206.917969 39.589844 210.195312 42.390625 214.03125 C 43.699219 215.960938 45.074219 218.128906 45.109375 220.539062 M 26.675781 201.484375 C 29.339844 201.398438 31.617188 199.703125 33.644531 198.140625 C 37.234375 195.128906 40.339844 191.542969 42.960938 187.667969 C 43.921875 186.058594 45.054688 184.359375 45.109375 182.425781 C 45.109375 188.78125 45.109375 195.128906 45.109375 201.484375 M 45.109375 182.425781 C 45.199219 185.265625 46.929688 187.722656 48.558594 189.914062 C 51.46875 193.539062 54.914062 196.746094 58.707031 199.425781 C 60.179688 200.34375 61.746094 201.4375 63.539062 201.484375 C 57.398438 201.484375 51.253906 201.484375 45.109375 201.484375 M 63.539062 201.484375 C 60.875 201.566406 58.601562 203.261719 56.570312 204.824219 C 52.984375 207.839844 49.878906 211.421875 47.257812 215.300781 C 46.292969 216.90625 45.164062 218.605469 45.109375 220.539062 C 45.109375 214.1875 45.109375 207.835938 45.109375 201.484375 "/>
<path fill-rule="nonzero" fill="rgb(90.196078%, 9.411765%, 3.921569%)" fill-opacity="1" d="M 124.964844 38.011719 C 131.109375 38.011719 137.253906 38.011719 143.398438 38.011719 C 141.300781 37.917969 139.511719 36.558594 137.824219 35.4375 C 134.035156 32.578125 130.484375 29.296875 127.683594 25.464844 C 126.375 23.535156 125 21.363281 124.964844 18.953125 M 143.398438 38.011719 C 140.734375 38.09375 138.460938 39.789062 136.429688 41.355469 C 132.839844 44.367188 129.734375 47.949219 127.113281 51.828125 C 126.152344 53.433594 125.019531 55.132812 124.964844 57.066406 C 124.964844 50.714844 124.964844 44.363281 124.964844 38.011719 M 124.964844 57.066406 C 124.875 54.230469 123.148438 51.773438 121.515625 49.578125 C 118.605469 45.953125 115.160156 42.75 111.367188 40.066406 C 109.894531 39.148438 108.328125 38.054688 106.535156 38.011719 C 112.679688 38.011719 118.824219 38.011719 124.964844 38.011719 M 106.535156 38.011719 C 109.199219 37.925781 111.472656 36.230469 113.503906 34.667969 C 117.09375 31.65625 120.199219 28.070312 122.816406 24.195312 C 123.78125 22.589844 124.914062 20.886719 124.964844 18.953125 C 124.964844 25.308594 124.964844 31.65625 124.964844 38.011719 "/>
<path fill-rule="nonzero" fill="rgb(90.196078%, 9.411765%, 3.921569%)" fill-opacity="1" d="M 124.964844 114.953125 C 131.109375 114.953125 137.253906 114.953125 143.398438 114.953125 C 141.300781 114.859375 139.511719 113.5 137.824219 112.375 C 134.035156 109.519531 130.484375 106.238281 127.683594 102.40625 C 126.375 100.476562 125 98.304688 124.964844 95.894531 M 143.398438 114.953125 C 140.734375 115.035156 138.460938 116.730469 136.429688 118.292969 C 132.839844 121.308594 129.734375 124.890625 127.113281 128.769531 C 126.152344 130.375 125.019531 132.074219 124.964844 134.007812 C 124.964844 127.65625 124.964844 121.304688 124.964844 114.953125 M 124.964844 134.007812 C 124.875 131.171875 123.148438 128.714844 121.515625 126.519531 C 118.605469 122.894531 115.160156 119.6875 111.367188 117.007812 C 109.894531 116.089844 108.328125 114.996094 106.535156 114.953125 C 112.679688 114.953125 118.824219 114.953125 124.964844 114.953125 M 106.535156 114.953125 C 109.199219 114.867188 111.472656 113.171875 113.503906 111.609375 C 117.09375 108.597656 120.199219 105.011719 122.816406 101.136719 C 123.78125 99.527344 124.914062 97.828125 124.964844 95.894531 C 124.964844 102.25 124.964844 108.597656 124.964844 114.953125 "/>
<path fill-rule="nonzero" fill="rgb(90.196078%, 9.411765%, 3.921569%)" fill-opacity="1" d="M 124.964844 201.484375 C 118.824219 201.484375 112.679688 201.484375 106.535156 201.484375 C 108.632812 201.578125 110.421875 202.933594 112.105469 204.058594 C 115.898438 206.917969 119.445312 210.195312 122.25 214.03125 C 123.558594 215.960938 124.933594 218.128906 124.964844 220.539062 M 106.535156 201.484375 C 109.199219 201.398438 111.472656 199.703125 113.503906 198.140625 C 117.09375 195.128906 120.199219 191.542969 122.820312 187.667969 C 123.78125 186.058594 124.914062 184.359375 124.964844 182.425781 C 124.964844 188.78125 124.964844 195.128906 124.964844 201.484375 M 124.964844 182.425781 C 125.058594 185.265625 126.785156 187.722656 128.417969 189.914062 C 131.328125 193.539062 134.773438 196.746094 138.566406 199.425781 C 140.039062 200.34375 141.601562 201.4375 143.398438 201.484375 C 137.253906 201.484375 131.109375 201.484375 124.964844 201.484375 M 143.398438 201.484375 C 140.734375 201.566406 138.460938 203.261719 136.429688 204.824219 C 132.839844 207.839844 129.734375 211.421875 127.113281 215.300781 C 126.152344 216.90625 125.019531 218.605469 124.964844 220.539062 C 124.964844 214.1875 124.964844 207.835938 124.964844 201.484375 "/>
<path fill-rule="nonzero" fill="rgb(90.196078%, 9.411765%, 3.921569%)" fill-opacity="1" d="M 85.039062 92.167969 C 91.179688 92.167969 97.324219 92.167969 103.46875 92.167969 C 101.371094 92.074219 99.582031 90.714844 97.898438 89.59375 C 94.105469 86.734375 90.558594 83.453125 87.753906 79.621094 C 86.445312 77.691406 85.070312 75.519531 85.039062 73.109375 M 103.46875 92.167969 C 100.804688 92.25 98.53125 93.945312 96.5 95.511719 C 92.910156 98.523438 89.804688 102.105469 87.183594 105.984375 C 86.222656 107.589844 85.089844 109.289062 85.039062 111.222656 C 85.039062 104.871094 85.039062 98.519531 85.039062 92.167969 M 85.039062 111.222656 C 84.945312 108.386719 83.21875 105.929688 81.585938 103.734375 C 78.675781 100.109375 75.230469 96.90625 71.4375 94.222656 C 69.964844 93.304688 68.402344 92.210938 66.605469 92.167969 C 72.75 92.167969 78.894531 92.167969 85.039062 92.167969 M 66.605469 92.167969 C 69.269531 92.082031 71.542969 90.386719 73.574219 88.824219 C 77.164062 85.8125 80.269531 82.226562 82.890625 78.351562 C 83.851562 76.746094 84.984375 75.042969 85.039062 73.109375 C 85.039062 79.464844 85.039062 85.8125 85.039062 92.167969 "/>
</svg>
