<?xml version="1.0" encoding="UTF-8"?>
<svg xmlns="http://www.w3.org/2000/svg" xmlns:xlink="http://www.w3.org/1999/xlink" width="169.074219" height="244.640625" viewBox="0 0 169.074219 244.640625">
<path fill-rule="nonzero" fill="rgb(100%, 100%, 100%)" fill-opacity="1" stroke-width="2.5" stroke-linecap="butt" stroke-linejoin="miter" stroke="rgb(0%, 0%, 0%)" stroke-opacity="1" stroke-miterlimit="4" d="M 0 -0.000468254 C 0 3.780782 3.089844 6.870625 6.871094 6.870625 L 159.714844 6.870625 C 163.484375 6.870625 166.574219 3.780782 166.574219 -0.000468254 L 166.574219 -228.398906 C 166.574219 -232.180156 163.484375 -235.27 159.714844 -235.27 L 6.871094 -235.27 C 3.089844 -235.27 0 -232.180156 0 -228.398906 Z M 0 -0.000468254 " transform="matrix(1, 0, 0, 1, 1.25, 236.52)"/>
<path fill-rule="nonzero" fill="rgb(90.196078%, 9.411765%, 3.921569%)" fill-opacity="1" d="M 5.054688 37.402344 L 5.054688 34.710938 L 6.503906 34.710938 L 13.171875 4.261719 L 16.003906 4.261719 L 22.671875 34.710938 L 24.355469 34.710938 L 24.355469 37.402344 L 16.074219 37.402344 L 16.074219 34.710938 L 17.800781 34.710938 L 16.347656 27.953125 L 9.695312 27.953125 L 8.214844 34.710938 L 10.320312 34.710938 L 10.320312 37.402344 Z M 10.277344 25.257812 L 15.765625 25.257812 L 13.039062 12.585938 Z M 5.25 -5.289062 "/>
<path fill-rule="nonzero" fill="rgb(90.196078%, 9.411765%, 3.921569%)" fill-opacity="1" d="M 165.019531 206.238281 L 165.019531 208.933594 L 163.574219 208.933594 L 156.902344 239.382812 L 154.074219 239.382812 L 147.402344 208.933594 L 145.71875 208.933594 L 145.71875 206.238281 L 154 206.238281 L 154 208.933594 L 152.273438 208.933594 L 153.726562 215.691406 L 160.378906 215.691406 L 161.859375 208.933594 L 159.753906 208.933594 L 159.753906 206.238281 Z M 159.796875 218.382812 L 154.3125 218.382812 L 157.035156 231.054688 Z M 164.824219 248.933594 "/>
<path fill-rule="nonzero" fill="rgb(90.196078%, 9.411765%, 3.921569%)" fill-opacity="1" d="M 14.898438 51.402344 C 17.460938 51.402344 20.019531 51.402344 22.578125 51.402344 C 21.707031 51.363281 20.960938 50.796875 20.257812 50.332031 C 18.679688 49.140625 17.199219 47.773438 16.03125 46.175781 C 15.488281 45.371094 14.914062 44.46875 14.898438 43.464844 M 22.578125 51.402344 C 21.46875 51.4375 20.523438 52.144531 19.675781 52.796875 C 18.179688 54.050781 16.886719 55.542969 15.796875 57.160156 C 15.394531 57.828125 14.921875 58.539062 14.898438 59.34375 C 14.898438 56.695312 14.898438 54.050781 14.898438 51.402344 M 14.898438 59.34375 C 14.863281 58.160156 14.140625 57.136719 13.460938 56.222656 C 12.25 54.714844 10.8125 53.378906 9.234375 52.261719 C 8.621094 51.878906 7.96875 51.421875 7.21875 51.402344 C 9.78125 51.402344 12.339844 51.402344 14.898438 51.402344 M 7.21875 51.402344 C 8.328125 51.367188 9.277344 50.660156 10.125 50.011719 C 11.617188 48.753906 12.914062 47.261719 14.003906 45.644531 C 14.40625 44.976562 14.878906 44.269531 14.898438 43.464844 C 14.898438 46.109375 14.898438 48.757812 14.898438 51.402344 "/>
<path fill-rule="nonzero" fill="rgb(90.196078%, 9.411765%, 3.921569%)" fill-opacity="1" d="M 155.175781 192.238281 C 152.613281 192.238281 150.054688 192.238281 147.496094 192.238281 C 148.371094 192.277344 149.113281 192.84375 149.816406 193.3125 C 151.394531 194.503906 152.875 195.871094 154.042969 197.46875 C 154.589844 198.273438 155.160156 199.175781 155.175781 200.179688 M 147.496094 192.238281 C 148.605469 192.203125 149.554688 191.5 150.398438 190.847656 C 151.894531 189.59375 153.1875 188.097656 154.28125 186.484375 C 154.679688 185.8125 155.152344 185.105469 155.175781 184.300781 C 155.175781 186.945312 155.175781 189.59375 155.175781 192.238281 M 155.175781 184.300781 C 155.214844 185.480469 155.933594 186.507812 156.613281 187.421875 C 157.824219 188.929688 159.261719 190.265625 160.839844 191.382812 C 161.453125 191.765625 162.105469 192.222656 162.855469 192.238281 C 160.296875 192.238281 157.734375 192.238281 155.175781 192.238281 M 162.855469 192.238281 C 161.746094 192.273438 160.796875 192.980469 159.949219 193.632812 C 158.457031 194.886719 157.160156 196.382812 156.070312 197.996094 C 155.667969 198.664062 155.199219 199.375 155.175781 200.179688 C 155.175781 197.53125 155.175781 194.886719 155.175781 192.238281 "/>
<path fill-rule="nonzero" fill="rgb(90.196078%, 9.411765%, 3.921569%)" fill-opacity="1" d="M 85.039062 114.953125 C 91.179688 114.953125 97.324219 114.953125 103.46875 114.953125 C 101.371094 114.859375 99.585938 113.5 97.898438 112.375 C 94.105469 109.519531 90.558594 106.238281 87.753906 102.40625 C 86.445312 100.476562 85.070312 98.304688 85.039062 95.894531 M 103.46875 114.953125 C 100.804688 115.035156 98.53125 116.730469 96.5 118.292969 C 92.910156 121.308594 89.804688 124.890625 87.1875 128.769531 C 86.222656 130.375 85.089844 132.074219 85.039062 134.007812 C 85.039062 127.65625 85.039062 121.304688 85.039062 114.953125 M 85.039062 134.007812 C 84.945312 131.171875 83.21875 128.714844 81.585938 126.519531 C 78.675781 122.894531 75.230469 119.6875 71.4375 117.007812 C 69.964844 116.089844 68.402344 114.996094 66.605469 114.953125 C 72.75 114.953125 78.894531 114.953125 85.039062 114.953125 M 66.605469 114.953125 C 69.269531 114.867188 71.542969 113.171875 73.574219 111.609375 C 77.164062 108.597656 80.269531 105.011719 82.890625 101.136719 C 83.851562 99.527344 84.984375 97.828125 85.039062 95.894531 C 85.039062 102.25 85.039062 108.597656 85.039062 114.953125 "/>
</svg>
