<?xml version="1.0" encoding="UTF-8"?>
<svg xmlns="http://www.w3.org/2000/svg" xmlns:xlink="http://www.w3.org/1999/xlink" width="169.074219" height="244.640625" viewBox="0 0 169.074219 244.640625">
<path fill-rule="nonzero" fill="rgb(100%, 100%, 100%)" fill-opacity="1" stroke-width="2.5" stroke-linecap="butt" stroke-linejoin="miter" stroke="rgb(0%, 0%, 0%)" stroke-opacity="1" stroke-miterlimit="4" d="M 0 -0.000468254 C 0 3.780782 3.089844 6.870625 6.871094 6.870625 L 159.714844 6.870625 C 163.484375 6.870625 166.574219 3.780782 166.574219 -0.000468254 L 166.574219 -228.398906 C 166.574219 -232.180156 163.484375 -235.27 159.714844 -235.27 L 6.871094 -235.27 C 3.089844 -235.27 0 -232.180156 0 -228.398906 Z M 0 -0.000468254 " transform="matrix(1, 0, 0, 1, 1.25, 236.52)"/>
<path fill-rule="nonzero" fill="rgb(90.196078%, 9.411765%, 3.921569%)" fill-opacity="1" d="M 16.53125 19.757812 C 17.9375 20.1875 19.003906 21.15625 19.734375 22.664062 C 20.46875 24.175781 20.835938 26.152344 20.835938 28.597656 C 20.835938 31.636719 20.222656 33.976562 18.992188 35.601562 C 17.761719 37.234375 15.988281 38.046875 13.675781 38.046875 C 11.363281 38.046875 9.589844 37.234375 8.355469 35.601562 C 7.121094 33.976562 6.503906 31.636719 6.503906 28.597656 C 6.503906 26.152344 6.867188 24.175781 7.605469 22.664062 C 8.339844 21.15625 9.40625 20.1875 10.808594 19.757812 C 9.566406 19.21875 8.636719 18.328125 8.019531 17.082031 C 7.40625 15.824219 7.101562 14.238281 7.101562 12.324219 C 7.101562 9.503906 7.660156 7.359375 8.777344 5.878906 C 9.902344 4.390625 11.53125 3.648438 13.675781 3.648438 C 15.808594 3.648438 17.4375 4.390625 18.5625 5.878906 C 19.691406 7.359375 20.253906 9.503906 20.253906 12.324219 C 20.253906 14.238281 19.941406 15.824219 19.320312 17.082031 C 18.703125 18.328125 17.769531 19.21875 16.53125 19.757812 Z M 15.667969 12.40625 C 15.667969 10.070312 15.515625 8.464844 15.21875 7.582031 C 14.917969 6.699219 14.402344 6.257812 13.675781 6.257812 C 12.9375 6.257812 12.421875 6.699219 12.128906 7.582031 C 11.835938 8.464844 11.6875 10.070312 11.6875 12.40625 C 11.6875 14.730469 11.835938 16.328125 12.128906 17.195312 C 12.421875 18.054688 12.9375 18.484375 13.675781 18.484375 C 14.40625 18.484375 14.921875 18.054688 15.21875 17.195312 C 15.515625 16.328125 15.667969 14.730469 15.667969 12.40625 Z M 16.136719 28.214844 C 16.136719 25.507812 15.949219 23.640625 15.578125 22.617188 C 15.214844 21.589844 14.578125 21.078125 13.675781 21.078125 C 12.765625 21.078125 12.132812 21.589844 11.769531 22.617188 C 11.402344 23.640625 11.222656 25.507812 11.222656 28.214844 C 11.222656 30.949219 11.402344 32.839844 11.769531 33.882812 C 12.140625 34.933594 12.773438 35.453125 13.675781 35.453125 C 14.566406 35.453125 15.199219 34.933594 15.570312 33.882812 C 15.945312 32.839844 16.136719 30.949219 16.136719 28.214844 Z M 5.25 -5.289062 "/>
<path fill-rule="nonzero" fill="rgb(90.196078%, 9.411765%, 3.921569%)" fill-opacity="1" d="M 153.546875 223.886719 C 152.144531 223.457031 151.074219 222.484375 150.347656 220.976562 C 149.613281 219.464844 149.242188 217.492188 149.242188 215.046875 C 149.242188 212.007812 149.859375 209.667969 151.085938 208.039062 C 152.316406 206.410156 154.089844 205.59375 156.40625 205.59375 C 158.71875 205.59375 160.488281 206.410156 161.726562 208.039062 C 162.960938 209.667969 163.578125 212.007812 163.578125 215.046875 C 163.578125 217.492188 163.210938 219.464844 162.476562 220.976562 C 161.742188 222.484375 160.671875 223.457031 159.273438 223.886719 C 160.515625 224.421875 161.441406 225.316406 162.058594 226.5625 C 162.671875 227.816406 162.976562 229.402344 162.976562 231.320312 C 162.976562 234.136719 162.417969 236.285156 161.300781 237.765625 C 160.179688 239.25 158.546875 239.996094 156.40625 239.996094 C 154.269531 239.996094 152.644531 239.25 151.519531 237.765625 C 150.390625 236.285156 149.824219 234.136719 149.824219 231.320312 C 149.824219 229.402344 150.140625 227.816406 150.761719 226.5625 C 151.378906 225.316406 152.308594 224.421875 153.546875 223.886719 Z M 154.414062 231.238281 C 154.414062 233.570312 154.5625 235.179688 154.863281 236.0625 C 155.164062 236.941406 155.679688 237.382812 156.40625 237.382812 C 157.144531 237.382812 157.65625 236.941406 157.949219 236.0625 C 158.246094 235.179688 158.390625 233.570312 158.390625 231.238281 C 158.390625 228.914062 158.246094 227.3125 157.949219 226.445312 C 157.65625 225.585938 157.144531 225.15625 156.40625 225.15625 C 155.671875 225.15625 155.15625 225.585938 154.863281 226.445312 C 154.5625 227.3125 154.414062 228.914062 154.414062 231.238281 Z M 153.945312 215.425781 C 153.945312 218.136719 154.128906 220.003906 154.5 221.027344 C 154.867188 222.050781 155.503906 222.5625 156.40625 222.5625 C 157.3125 222.5625 157.949219 222.050781 158.3125 221.027344 C 158.675781 220.003906 158.859375 218.136719 158.859375 215.425781 C 158.859375 212.691406 158.675781 210.804688 158.3125 209.757812 C 157.941406 208.710938 157.304688 208.191406 156.40625 208.191406 C 155.511719 208.191406 154.878906 208.710938 154.507812 209.757812 C 154.132812 210.804688 153.945312 212.691406 153.945312 215.425781 Z M 164.828125 248.933594 "/>
<path fill-rule="nonzero" fill="rgb(90.196078%, 9.411765%, 3.921569%)" fill-opacity="1" d="M 14.898438 51.402344 C 17.460938 51.402344 20.019531 51.402344 22.578125 51.402344 C 21.707031 51.363281 20.960938 50.796875 20.257812 50.332031 C 18.679688 49.140625 17.199219 47.773438 16.03125 46.175781 C 15.488281 45.371094 14.914062 44.46875 14.898438 43.464844 M 22.578125 51.402344 C 21.46875 51.4375 20.523438 52.144531 19.675781 52.796875 C 18.179688 54.050781 16.886719 55.542969 15.796875 57.160156 C 15.394531 57.828125 14.921875 58.539062 14.898438 59.34375 C 14.898438 56.695312 14.898438 54.050781 14.898438 51.402344 M 14.898438 59.34375 C 14.863281 58.160156 14.140625 57.136719 13.460938 56.222656 C 12.25 54.714844 10.8125 53.378906 9.234375 52.261719 C 8.621094 51.878906 7.96875 51.421875 7.21875 51.402344 C 9.78125 51.402344 12.339844 51.402344 14.898438 51.402344 M 7.21875 51.402344 C 8.328125 51.367188 9.277344 50.660156 10.125 50.011719 C 11.617188 48.753906 12.914062 47.261719 14.003906 45.644531 C 14.40625 44.976562 14.878906 44.269531 14.898438 43.464844 C 14.898438 46.109375 14.898438 48.757812 14.898438 51.402344 "/>
<path fill-rule="nonzero" fill="rgb(90.196078%, 9.411765%, 3.921569%)" fill-opacity="1" d="M 155.179688 192.238281 C 152.621094 192.238281 150.058594 192.238281 147.5 192.238281 C 148.375 192.277344 149.117188 192.84375 149.820312 193.3125 C 151.402344 194.503906 152.878906 195.871094 154.046875 197.46875 C 154.59375 198.273438 155.164062 199.175781 155.179688 200.179688 M 147.5 192.238281 C 148.609375 192.203125 149.558594 191.5 150.402344 190.847656 C 151.898438 189.59375 153.191406 188.097656 154.285156 186.484375 C 154.6875 185.8125 155.15625 185.105469 155.179688 184.300781 C 155.179688 186.945312 155.179688 189.59375 155.179688 192.238281 M 155.179688 184.300781 C 155.21875 185.480469 155.9375 186.507812 156.617188 187.421875 C 157.828125 188.929688 159.265625 190.265625 160.847656 191.382812 C 161.460938 191.765625 162.113281 192.222656 162.859375 192.238281 C 160.300781 192.238281 157.738281 192.238281 155.179688 192.238281 M 162.859375 192.238281 C 161.75 192.273438 160.800781 192.980469 159.957031 193.632812 C 158.460938 194.886719 157.167969 196.382812 156.074219 197.996094 C 155.675781 198.664062 155.203125 199.375 155.179688 200.179688 C 155.179688 197.53125 155.179688 194.886719 155.179688 192.238281 "/>
<path fill-rule="nonzero" fill="rgb(90.196078%, 9.411765%, 3.921569%)" fill-opacity="1" d="M 45.113281 38.011719 C 51.257812 38.011719 57.402344 38.011719 63.546875 38.011719 C 61.445312 37.917969 59.660156 36.558594 57.972656 35.4375 C 54.183594 32.578125 50.632812 29.296875 47.832031 25.464844 C 46.523438 23.535156 45.148438 21.363281 45.113281 18.953125 M 63.546875 38.011719 C 60.882812 38.09375 58.605469 39.789062 56.578125 41.355469 C 52.988281 44.367188 49.882812 47.949219 47.261719 51.828125 C 46.300781 53.433594 45.167969 55.132812 45.113281 57.066406 C 45.113281 50.714844 45.113281 44.363281 45.113281 38.011719 M 45.113281 57.066406 C 45.023438 54.230469 43.292969 51.773438 41.664062 49.578125 C 38.753906 45.953125 35.308594 42.75 31.515625 40.066406 C 30.042969 39.148438 28.476562 38.054688 26.683594 38.011719 C 32.824219 38.011719 38.96875 38.011719 45.113281 38.011719 M 26.683594 38.011719 C 29.347656 37.925781 31.621094 36.230469 33.652344 34.667969 C 37.238281 31.65625 40.34375 28.070312 42.964844 24.195312 C 43.929688 22.589844 45.058594 20.886719 45.113281 18.953125 C 45.113281 25.308594 45.113281 31.65625 45.113281 38.011719 "/>
<path fill-rule="nonzero" fill="rgb(90.196078%, 9.411765%, 3.921569%)" fill-opacity="1" d="M 45.113281 92.167969 C 51.257812 92.167969 57.402344 92.167969 63.546875 92.167969 C 61.445312 92.074219 59.660156 90.714844 57.972656 89.59375 C 54.183594 86.734375 50.632812 83.453125 47.832031 79.621094 C 46.523438 77.691406 45.148438 75.519531 45.113281 73.109375 M 63.546875 92.167969 C 60.882812 92.25 58.605469 93.945312 56.578125 95.511719 C 52.988281 98.523438 49.882812 102.105469 47.261719 105.984375 C 46.300781 107.589844 45.167969 109.289062 45.113281 111.222656 C 45.113281 104.871094 45.113281 98.519531 45.113281 92.167969 M 45.113281 111.222656 C 45.023438 108.386719 43.292969 105.929688 41.664062 103.734375 C 38.753906 100.109375 35.308594 96.90625 31.515625 94.222656 C 30.042969 93.304688 28.476562 92.210938 26.683594 92.167969 C 32.824219 92.167969 38.96875 92.167969 45.113281 92.167969 M 26.683594 92.167969 C 29.347656 92.082031 31.621094 90.386719 33.652344 88.824219 C 37.238281 85.8125 40.34375 82.226562 42.964844 78.351562 C 43.929688 76.746094 45.058594 75.042969 45.113281 73.109375 C 45.113281 79.464844 45.113281 85.8125 45.113281 92.167969 "/>
<path fill-rule="nonzero" fill="rgb(90.196078%, 9.411765%, 3.921569%)" fill-opacity="1" d="M 45.113281 147.328125 C 38.96875 147.328125 32.824219 147.328125 26.683594 147.328125 C 28.78125 147.421875 30.566406 148.777344 32.253906 149.902344 C 36.042969 152.761719 39.59375 156.039062 42.398438 159.875 C 43.707031 161.804688 45.078125 163.972656 45.113281 166.382812 M 26.683594 147.328125 C 29.347656 147.242188 31.621094 145.546875 33.652344 143.984375 C 37.238281 140.972656 40.34375 137.386719 42.964844 133.511719 C 43.929688 131.90625 45.0625 130.203125 45.113281 128.269531 C 45.113281 134.625 45.113281 140.972656 45.113281 147.328125 M 45.113281 128.269531 C 45.207031 131.109375 46.933594 133.566406 48.566406 135.757812 C 51.472656 139.382812 54.921875 142.589844 58.710938 145.269531 C 60.1875 146.1875 61.75 147.28125 63.546875 147.328125 C 57.402344 147.328125 51.257812 147.328125 45.113281 147.328125 M 63.546875 147.328125 C 60.882812 147.410156 58.605469 149.105469 56.578125 150.667969 C 52.988281 153.683594 49.882812 157.265625 47.261719 161.144531 C 46.300781 162.75 45.167969 164.449219 45.113281 166.382812 C 45.113281 160.03125 45.113281 153.679688 45.113281 147.328125 "/>
<path fill-rule="nonzero" fill="rgb(90.196078%, 9.411765%, 3.921569%)" fill-opacity="1" d="M 45.113281 201.484375 C 38.96875 201.484375 32.824219 201.484375 26.683594 201.484375 C 28.78125 201.578125 30.566406 202.933594 32.253906 204.058594 C 36.042969 206.917969 39.59375 210.195312 42.398438 214.03125 C 43.707031 215.960938 45.078125 218.128906 45.113281 220.539062 M 26.683594 201.484375 C 29.347656 201.398438 31.621094 199.703125 33.652344 198.140625 C 37.238281 195.128906 40.34375 191.542969 42.964844 187.667969 C 43.929688 186.058594 45.0625 184.359375 45.113281 182.425781 C 45.113281 188.78125 45.113281 195.128906 45.113281 201.484375 M 45.113281 182.425781 C 45.207031 185.265625 46.933594 187.722656 48.566406 189.914062 C 51.472656 193.539062 54.921875 196.746094 58.710938 199.425781 C 60.1875 200.34375 61.75 201.4375 63.546875 201.484375 C 57.402344 201.484375 51.257812 201.484375 45.113281 201.484375 M 63.546875 201.484375 C 60.882812 201.566406 58.605469 203.261719 56.578125 204.824219 C 52.988281 207.839844 49.882812 211.421875 47.261719 215.300781 C 46.300781 216.90625 45.167969 218.605469 45.113281 220.539062 C 45.113281 214.1875 45.113281 207.835938 45.113281 201.484375 "/>
<path fill-rule="nonzero" fill="rgb(90.196078%, 9.411765%, 3.921569%)" fill-opacity="1" d="M 124.972656 38.011719 C 131.117188 38.011719 137.257812 38.011719 143.402344 38.011719 C 141.304688 37.917969 139.519531 36.558594 137.832031 35.4375 C 134.042969 32.578125 130.492188 29.296875 127.6875 25.464844 C 126.378906 23.535156 125.007812 21.363281 124.972656 18.953125 M 143.402344 38.011719 C 140.738281 38.09375 138.464844 39.789062 136.433594 41.355469 C 132.847656 44.367188 129.738281 47.949219 127.121094 51.828125 C 126.15625 53.433594 125.023438 55.132812 124.972656 57.066406 C 124.972656 50.714844 124.972656 44.363281 124.972656 38.011719 M 124.972656 57.066406 C 124.878906 54.230469 123.152344 51.773438 121.519531 49.578125 C 118.613281 45.953125 115.164062 42.75 111.371094 40.066406 C 109.898438 39.148438 108.335938 38.054688 106.539062 38.011719 C 112.683594 38.011719 118.828125 38.011719 124.972656 38.011719 M 106.539062 38.011719 C 109.203125 37.925781 111.480469 36.230469 113.507812 34.667969 C 117.097656 31.65625 120.203125 28.070312 122.824219 24.195312 C 123.785156 22.589844 124.917969 20.886719 124.972656 18.953125 C 124.972656 25.308594 124.972656 31.65625 124.972656 38.011719 "/>
<path fill-rule="nonzero" fill="rgb(90.196078%, 9.411765%, 3.921569%)" fill-opacity="1" d="M 124.972656 92.167969 C 131.117188 92.167969 137.257812 92.167969 143.402344 92.167969 C 141.304688 92.074219 139.519531 90.714844 137.832031 89.59375 C 134.042969 86.734375 130.492188 83.453125 127.6875 79.621094 C 126.378906 77.691406 125.007812 75.519531 124.972656 73.109375 M 143.402344 92.167969 C 140.738281 92.25 138.464844 93.945312 136.433594 95.511719 C 132.847656 98.523438 129.738281 102.105469 127.121094 105.984375 C 126.15625 107.589844 125.023438 109.289062 124.972656 111.222656 C 124.972656 104.871094 124.972656 98.519531 124.972656 92.167969 M 124.972656 111.222656 C 124.878906 108.386719 123.152344 105.929688 121.519531 103.734375 C 118.613281 100.109375 115.164062 96.90625 111.371094 94.222656 C 109.898438 93.304688 108.335938 92.210938 106.539062 92.167969 C 112.683594 92.167969 118.828125 92.167969 124.972656 92.167969 M 106.539062 92.167969 C 109.203125 92.082031 111.480469 90.386719 113.507812 88.824219 C 117.097656 85.8125 120.203125 82.226562 122.824219 78.351562 C 123.785156 76.746094 124.917969 75.042969 124.972656 73.109375 C 124.972656 79.464844 124.972656 85.8125 124.972656 92.167969 "/>
<path fill-rule="nonzero" fill="rgb(90.196078%, 9.411765%, 3.921569%)" fill-opacity="1" d="M 124.972656 147.328125 C 118.828125 147.328125 112.683594 147.328125 106.539062 147.328125 C 108.640625 147.421875 110.425781 148.777344 112.113281 149.902344 C 115.902344 152.761719 119.453125 156.039062 122.253906 159.875 C 123.5625 161.804688 124.9375 163.972656 124.972656 166.382812 M 106.539062 147.328125 C 109.203125 147.242188 111.480469 145.546875 113.507812 143.984375 C 117.097656 140.972656 120.203125 137.386719 122.824219 133.511719 C 123.785156 131.90625 124.917969 130.203125 124.972656 128.269531 C 124.972656 134.625 124.972656 140.972656 124.972656 147.328125 M 124.972656 128.269531 C 125.0625 131.109375 126.789062 133.566406 128.421875 135.757812 C 131.332031 139.382812 134.777344 142.589844 138.570312 145.269531 C 140.042969 146.1875 141.609375 147.28125 143.402344 147.328125 C 137.257812 147.328125 131.117188 147.328125 124.972656 147.328125 M 143.402344 147.328125 C 140.738281 147.410156 138.464844 149.105469 136.433594 150.667969 C 132.847656 153.683594 129.742188 157.265625 127.121094 161.144531 C 126.15625 162.75 125.027344 164.449219 124.972656 166.382812 C 124.972656 160.03125 124.972656 153.679688 124.972656 147.328125 "/>
<path fill-rule="nonzero" fill="rgb(90.196078%, 9.411765%, 3.921569%)" fill-opacity="1" d="M 124.972656 201.484375 C 118.828125 201.484375 112.683594 201.484375 106.539062 201.484375 C 108.640625 201.578125 110.425781 202.933594 112.113281 204.058594 C 115.902344 206.917969 119.453125 210.195312 122.253906 214.03125 C 123.5625 215.960938 124.9375 218.128906 124.972656 220.539062 M 106.539062 201.484375 C 109.203125 201.398438 111.480469 199.703125 113.507812 198.140625 C 117.097656 195.128906 120.203125 191.542969 122.824219 187.667969 C 123.785156 186.058594 124.917969 184.359375 124.972656 182.425781 C 124.972656 188.78125 124.972656 195.128906 124.972656 201.484375 M 124.972656 182.425781 C 125.0625 185.265625 126.789062 187.722656 128.421875 189.914062 C 131.332031 193.539062 134.777344 196.746094 138.570312 199.425781 C 140.042969 200.34375 141.609375 201.4375 143.402344 201.484375 C 137.257812 201.484375 131.117188 201.484375 124.972656 201.484375 M 143.402344 201.484375 C 140.738281 201.566406 138.464844 203.261719 136.433594 204.824219 C 132.847656 207.839844 129.742188 211.421875 127.121094 215.300781 C 126.15625 216.90625 125.027344 218.605469 124.972656 220.539062 C 124.972656 214.1875 124.972656 207.835938 124.972656 201.484375 "/>
</svg>
