<?xml version="1.0" encoding="UTF-8"?>
<svg xmlns="http://www.w3.org/2000/svg" xmlns:xlink="http://www.w3.org/1999/xlink" width="169.074219" height="244.640625" viewBox="0 0 169.074219 244.640625">
<path fill-rule="nonzero" fill="rgb(100%, 100%, 100%)" fill-opacity="1" stroke-width="2.5" stroke-linecap="butt" stroke-linejoin="miter" stroke="rgb(0%, 0%, 0%)" stroke-opacity="1" stroke-miterlimit="4" d="M 0 -0.000468254 C 0 3.780782 3.089844 6.870625 6.871094 6.870625 L 159.714844 6.870625 C 163.484375 6.870625 166.574219 3.780782 166.574219 -0.000468254 L 166.574219 -228.398906 C 166.574219 -232.180156 163.484375 -235.27 159.714844 -235.27 L 6.871094 -235.27 C 3.089844 -235.27 0 -232.180156 0 -228.398906 Z M 0 -0.000468254 " transform="matrix(1, 0, 0, 1, 1.25, 236.52)"/>
<path fill-rule="nonzero" fill="rgb(90.196078%, 9.411765%, 3.921569%)" fill-opacity="1" d="M 8.453125 12.453125 L 7.03125 12.453125 L 7.03125 5.300781 C 7.996094 4.75 8.949219 4.339844 9.890625 4.0625 C 10.835938 3.789062 11.789062 3.648438 12.757812 3.648438 C 15.007812 3.648438 16.761719 4.515625 18.023438 6.242188 C 19.28125 7.972656 19.910156 10.371094 19.910156 13.445312 C 19.910156 15.640625 19.5625 17.605469 18.871094 19.34375 C 18.175781 21.085938 16.84375 23.144531 14.882812 25.523438 L 9.953125 31.585938 L 18.339844 31.585938 L 18.339844 27.671875 L 19.964844 27.671875 L 19.964844 37.402344 L 6.871094 37.402344 L 6.871094 31.984375 L 9.492188 28.597656 C 11.726562 25.703125 13.214844 23.238281 13.957031 21.210938 C 14.703125 19.1875 15.078125 16.816406 15.078125 14.105469 C 15.078125 11.554688 14.792969 9.609375 14.230469 8.273438 C 13.664062 6.933594 12.839844 6.257812 11.757812 6.257812 C 10.824219 6.257812 10.074219 6.789062 9.511719 7.84375 C 8.949219 8.902344 8.597656 10.4375 8.453125 12.453125 Z M 5.25 -5.289062 "/>
<path fill-rule="nonzero" fill="rgb(90.196078%, 9.411765%, 3.921569%)" fill-opacity="1" d="M 161.625 231.1875 L 163.042969 231.1875 L 163.042969 238.34375 C 162.078125 238.890625 161.125 239.304688 160.183594 239.582031 C 159.238281 239.855469 158.285156 239.996094 157.320312 239.996094 C 155.066406 239.996094 153.3125 239.128906 152.050781 237.402344 C 150.796875 235.667969 150.164062 233.269531 150.164062 230.195312 C 150.164062 228.003906 150.511719 226.039062 151.207031 224.296875 C 151.898438 222.554688 153.230469 220.5 155.191406 218.121094 L 160.125 212.054688 L 151.734375 212.054688 L 151.734375 215.972656 L 150.113281 215.972656 L 150.113281 206.238281 L 163.203125 206.238281 L 163.203125 211.660156 L 160.582031 215.046875 C 158.347656 217.941406 156.859375 220.402344 156.117188 222.429688 C 155.375 224.457031 155 226.828125 155 229.535156 C 155 232.089844 155.28125 234.035156 155.84375 235.367188 C 156.410156 236.710938 157.234375 237.382812 158.316406 237.382812 C 159.25 237.382812 160 236.855469 160.566406 235.796875 C 161.125 234.742188 161.476562 233.203125 161.625 231.1875 Z M 164.824219 248.933594 "/>
<path fill-rule="nonzero" fill="rgb(90.196078%, 9.411765%, 3.921569%)" fill-opacity="1" d="M 14.898438 51.402344 C 17.460938 51.402344 20.019531 51.402344 22.578125 51.402344 C 21.707031 51.363281 20.960938 50.796875 20.257812 50.332031 C 18.679688 49.140625 17.199219 47.773438 16.03125 46.175781 C 15.488281 45.371094 14.914062 44.46875 14.898438 43.464844 M 22.578125 51.402344 C 21.46875 51.4375 20.523438 52.144531 19.675781 52.796875 C 18.179688 54.050781 16.886719 55.542969 15.796875 57.160156 C 15.394531 57.828125 14.921875 58.539062 14.898438 59.34375 C 14.898438 56.695312 14.898438 54.050781 14.898438 51.402344 M 14.898438 59.34375 C 14.863281 58.160156 14.140625 57.136719 13.460938 56.222656 C 12.25 54.714844 10.8125 53.378906 9.234375 52.261719 C 8.621094 51.878906 7.96875 51.421875 7.21875 51.402344 C 9.78125 51.402344 12.339844 51.402344 14.898438 51.402344 M 7.21875 51.402344 C 8.328125 51.367188 9.277344 50.660156 10.125 50.011719 C 11.617188 48.753906 12.914062 47.261719 14.003906 45.644531 C 14.40625 44.976562 14.878906 44.269531 14.898438 43.464844 C 14.898438 46.109375 14.898438 48.757812 14.898438 51.402344 "/>
<path fill-rule="nonzero" fill="rgb(90.196078%, 9.411765%, 3.921569%)" fill-opacity="1" d="M 155.175781 192.238281 C 152.613281 192.238281 150.054688 192.238281 147.496094 192.238281 C 148.371094 192.277344 149.113281 192.84375 149.816406 193.3125 C 151.394531 194.503906 152.875 195.871094 154.042969 197.46875 C 154.589844 198.273438 155.160156 199.175781 155.175781 200.179688 M 147.496094 192.238281 C 148.605469 192.203125 149.554688 191.5 150.398438 190.847656 C 151.894531 189.59375 153.1875 188.097656 154.28125 186.484375 C 154.679688 185.8125 155.152344 185.105469 155.175781 184.300781 C 155.175781 186.945312 155.175781 189.59375 155.175781 192.238281 M 155.175781 184.300781 C 155.214844 185.480469 155.933594 186.507812 156.613281 187.421875 C 157.824219 188.929688 159.261719 190.265625 160.839844 191.382812 C 161.453125 191.765625 162.105469 192.222656 162.855469 192.238281 C 160.296875 192.238281 157.734375 192.238281 155.175781 192.238281 M 162.855469 192.238281 C 161.746094 192.273438 160.796875 192.980469 159.949219 193.632812 C 158.457031 194.886719 157.160156 196.382812 156.070312 197.996094 C 155.667969 198.664062 155.199219 199.375 155.175781 200.179688 C 155.175781 197.53125 155.175781 194.886719 155.175781 192.238281 "/>
<path fill-rule="nonzero" fill="rgb(90.196078%, 9.411765%, 3.921569%)" fill-opacity="1" d="M 85.035156 201.484375 C 78.894531 201.484375 72.75 201.484375 66.605469 201.484375 C 68.703125 201.578125 70.488281 202.933594 72.175781 204.058594 C 75.96875 206.917969 79.515625 210.195312 82.320312 214.03125 C 83.628906 215.960938 85.003906 218.128906 85.035156 220.539062 M 66.605469 201.484375 C 69.269531 201.398438 71.542969 199.703125 73.574219 198.140625 C 77.164062 195.128906 80.269531 191.542969 82.886719 187.667969 C 83.851562 186.058594 84.984375 184.359375 85.035156 182.425781 C 85.035156 188.78125 85.035156 195.128906 85.035156 201.484375 M 85.035156 182.425781 C 85.128906 185.265625 86.855469 187.722656 88.488281 189.914062 C 91.398438 193.539062 94.84375 196.746094 98.636719 199.425781 C 100.109375 200.34375 101.671875 201.4375 103.46875 201.484375 C 97.324219 201.484375 91.179688 201.484375 85.035156 201.484375 M 103.46875 201.484375 C 100.804688 201.566406 98.53125 203.261719 96.5 204.824219 C 92.910156 207.839844 89.804688 211.421875 87.183594 215.300781 C 86.222656 216.90625 85.089844 218.605469 85.035156 220.539062 C 85.035156 214.1875 85.035156 207.835938 85.035156 201.484375 "/>
<path fill-rule="nonzero" fill="rgb(90.196078%, 9.411765%, 3.921569%)" fill-opacity="1" d="M 85.035156 38.011719 C 91.179688 38.011719 97.324219 38.011719 103.46875 38.011719 C 101.371094 37.917969 99.582031 36.558594 97.894531 35.4375 C 94.105469 32.578125 90.554688 29.296875 87.753906 25.464844 C 86.445312 23.535156 85.070312 21.363281 85.035156 18.953125 M 103.46875 38.011719 C 100.804688 38.09375 98.53125 39.789062 96.5 41.355469 C 92.910156 44.367188 89.804688 47.949219 87.183594 51.828125 C 86.222656 53.433594 85.089844 55.132812 85.035156 57.066406 C 85.035156 50.714844 85.035156 44.363281 85.035156 38.011719 M 85.035156 57.066406 C 84.945312 54.230469 83.21875 51.773438 81.585938 49.578125 C 78.675781 45.953125 75.230469 42.75 71.4375 40.066406 C 69.964844 39.148438 68.398438 38.054688 66.605469 38.011719 C 72.75 38.011719 78.894531 38.011719 85.035156 38.011719 M 66.605469 38.011719 C 69.269531 37.925781 71.542969 36.230469 73.574219 34.667969 C 77.164062 31.65625 80.269531 28.070312 82.886719 24.195312 C 83.851562 22.589844 84.984375 20.886719 85.035156 18.953125 C 85.035156 25.308594 85.035156 31.65625 85.035156 38.011719 "/>
</svg>
