<?xml version="1.0" encoding="UTF-8"?>
<svg xmlns="http://www.w3.org/2000/svg" xmlns:xlink="http://www.w3.org/1999/xlink" width="169.074219" height="244.640625" viewBox="0 0 169.074219 244.640625">
<path fill-rule="nonzero" fill="rgb(100%, 100%, 100%)" fill-opacity="1" stroke-width="2.5" stroke-linecap="butt" stroke-linejoin="miter" stroke="rgb(0%, 0%, 0%)" stroke-opacity="1" stroke-miterlimit="4" d="M 0 -0.000473022 C 0 3.780777 3.089844 6.870621 6.871094 6.870621 L 159.714844 6.870621 C 163.484375 6.870621 166.574219 3.780777 166.574219 -0.000473022 L 166.574219 -228.398911 C 166.574219 -232.180161 163.484375 -235.270004 159.714844 -235.270004 L 6.871094 -235.270004 C 3.089844 -235.270004 0 -232.180161 0 -228.398911 Z M 0 -0.000473022 " transform="matrix(1, 0, 0, 1, 1.25, 236.520004)"/>
<path fill-rule="nonzero" fill="rgb(90.196078%, 9.411765%, 3.921569%)" fill-opacity="1" d="M 8.453125 12.453125 L 7.03125 12.453125 L 7.03125 5.300781 C 7.996094 4.75 8.949219 4.335938 9.890625 4.0625 C 10.835938 3.789062 11.789062 3.648438 12.757812 3.648438 C 15.007812 3.648438 16.761719 4.515625 18.023438 6.242188 C 19.28125 7.972656 19.910156 10.371094 19.910156 13.445312 C 19.910156 15.636719 19.5625 17.605469 18.871094 19.34375 C 18.175781 21.085938 16.84375 23.144531 14.882812 25.523438 L 9.953125 31.585938 L 18.339844 31.585938 L 18.339844 27.671875 L 19.964844 27.671875 L 19.964844 37.402344 L 6.871094 37.402344 L 6.871094 31.984375 L 9.492188 28.597656 C 11.726562 25.699219 13.214844 23.238281 13.957031 21.210938 C 14.703125 19.1875 15.078125 16.816406 15.078125 14.105469 C 15.078125 11.554688 14.792969 9.609375 14.230469 8.273438 C 13.664062 6.929688 12.839844 6.257812 11.757812 6.257812 C 10.824219 6.257812 10.074219 6.785156 9.511719 7.84375 C 8.949219 8.902344 8.597656 10.4375 8.453125 12.453125 Z M 5.25 -5.289062 "/>
<path fill-rule="nonzero" fill="rgb(90.196078%, 9.411765%, 3.921569%)" fill-opacity="1" d="M 161.625 231.1875 L 163.042969 231.1875 L 163.042969 238.34375 C 162.078125 238.890625 161.125 239.304688 160.183594 239.582031 C 159.238281 239.855469 158.285156 239.996094 157.320312 239.996094 C 155.066406 239.996094 153.3125 239.128906 152.050781 237.402344 C 150.796875 235.667969 150.164062 233.269531 150.164062 230.195312 C 150.164062 228.003906 150.511719 226.039062 151.207031 224.296875 C 151.898438 222.554688 153.230469 220.5 155.191406 218.121094 L 160.125 212.054688 L 151.734375 212.054688 L 151.734375 215.972656 L 150.113281 215.972656 L 150.113281 206.238281 L 163.203125 206.238281 L 163.203125 211.660156 L 160.582031 215.046875 C 158.347656 217.941406 156.859375 220.402344 156.117188 222.429688 C 155.375 224.457031 155 226.828125 155 229.535156 C 155 232.089844 155.28125 234.035156 155.84375 235.367188 C 156.410156 236.710938 157.234375 237.382812 158.316406 237.382812 C 159.25 237.382812 160 236.855469 160.566406 235.796875 C 161.125 234.742188 161.476562 233.203125 161.625 231.1875 Z M 164.824219 248.933594 "/>
<path fill-rule="nonzero" fill="rgb(90.196078%, 9.411765%, 3.921569%)" fill-opacity="1" d="M 22.570312 47.472656 C 22.558594 52.183594 16.660156 55.613281 14.929688 59.34375 C 13.179688 55.621094 7.269531 52.222656 7.230469 47.511719 C 7.21875 45.292969 8.941406 43.480469 11.050781 43.480469 C 13.171875 43.480469 14.898438 45.273438 14.898438 47.492188 C 14.898438 45.261719 16.609375 43.460938 18.71875 43.460938 C 20.839844 43.453125 22.558594 45.253906 22.570312 47.472656 Z M 22.570312 47.472656 "/>
<path fill-rule="nonzero" fill="rgb(90.196078%, 9.411765%, 3.921569%)" fill-opacity="1" d="M 147.503906 196.171875 C 147.515625 191.460938 153.414062 188.03125 155.144531 184.300781 C 156.894531 188.019531 162.804688 191.421875 162.84375 196.128906 C 162.855469 198.351562 161.136719 200.160156 159.023438 200.160156 C 156.90625 200.160156 155.175781 198.371094 155.175781 196.148438 C 155.175781 198.378906 153.464844 200.179688 151.355469 200.179688 C 149.234375 200.191406 147.515625 198.390625 147.503906 196.171875 Z M 147.503906 196.171875 "/>
<path fill-rule="nonzero" fill="rgb(90.196078%, 9.411765%, 3.921569%)" fill-opacity="1" d="M 66.628906 210.914062 C 66.652344 199.613281 80.8125 191.378906 84.964844 182.425781 C 89.164062 191.355469 103.347656 199.515625 103.445312 210.820312 C 103.46875 216.148438 99.339844 220.492188 94.277344 220.492188 C 89.1875 220.492188 85.035156 216.195312 85.035156 210.867188 C 85.035156 216.21875 80.933594 220.539062 75.867188 220.539062 C 70.78125 220.5625 66.652344 216.242188 66.628906 210.914062 Z M 66.628906 210.914062 "/>
<path fill-rule="nonzero" fill="rgb(90.196078%, 9.411765%, 3.921569%)" fill-opacity="1" d="M 103.445312 28.578125 C 103.421875 39.882812 89.261719 48.113281 85.109375 57.066406 C 80.910156 48.136719 66.722656 39.976562 66.628906 28.671875 C 66.605469 23.347656 70.734375 19 75.796875 19 C 80.882812 19 85.035156 23.296875 85.035156 28.625 C 85.035156 23.273438 89.140625 18.953125 94.203125 18.953125 C 99.292969 18.929688 103.421875 23.25 103.445312 28.578125 Z M 103.445312 28.578125 "/>
</svg>
