<?xml version="1.0" encoding="UTF-8"?>
<svg xmlns="http://www.w3.org/2000/svg" xmlns:xlink="http://www.w3.org/1999/xlink" width="169.074219" height="244.640625" viewBox="0 0 169.074219 244.640625">
<path fill-rule="nonzero" fill="rgb(100%, 100%, 100%)" fill-opacity="1" stroke-width="2.5" stroke-linecap="butt" stroke-linejoin="miter" stroke="rgb(0%, 0%, 0%)" stroke-opacity="1" stroke-miterlimit="4" d="M 0 -0.000473022 C 0 3.780777 3.089844 6.870621 6.871094 6.870621 L 159.714844 6.870621 C 163.484375 6.870621 166.574219 3.780777 166.574219 -0.000473022 L 166.574219 -228.398911 C 166.574219 -232.180161 163.484375 -235.270004 159.714844 -235.270004 L 6.871094 -235.270004 C 3.089844 -235.270004 0 -232.180161 0 -228.398911 Z M 0 -0.000473022 " transform="matrix(1, 0, 0, 1, 1.25, 236.520004)"/>
<path fill-rule="nonzero" fill="rgb(90.196078%, 9.411765%, 3.921569%)" fill-opacity="1" d="M 11.222656 17.757812 C 11.738281 16.988281 12.316406 16.410156 12.949219 16.023438 C 13.585938 15.636719 14.277344 15.445312 15.03125 15.445312 C 16.835938 15.445312 18.253906 16.4375 19.285156 18.417969 C 20.316406 20.402344 20.835938 23.128906 20.835938 26.597656 C 20.835938 30.242188 20.253906 33.066406 19.089844 35.054688 C 17.929688 37.050781 16.28125 38.046875 14.140625 38.046875 C 11.722656 38.046875 9.890625 36.683594 8.644531 33.949219 C 7.398438 31.21875 6.777344 27.203125 6.777344 21.90625 C 6.777344 15.882812 7.464844 11.332031 8.847656 8.257812 C 10.234375 5.183594 12.289062 3.648438 15.003906 3.648438 C 15.714844 3.648438 16.480469 3.761719 17.289062 3.996094 C 18.105469 4.21875 18.980469 4.546875 19.910156 4.984375 L 19.910156 10.851562 L 18.480469 10.851562 C 18.28125 9.34375 17.902344 8.203125 17.351562 7.429688 C 16.804688 6.652344 16.09375 6.257812 15.226562 6.257812 C 13.820312 6.257812 12.804688 7.164062 12.175781 8.96875 C 11.550781 10.777344 11.234375 13.707031 11.222656 17.757812 Z M 13.867188 35.453125 C 14.679688 35.453125 15.257812 34.808594 15.605469 33.519531 C 15.957031 32.222656 16.136719 29.96875 16.136719 26.761719 C 16.136719 23.570312 15.957031 21.324219 15.605469 20.039062 C 15.257812 18.742188 14.679688 18.085938 13.867188 18.085938 C 13.054688 18.085938 12.476562 18.742188 12.128906 20.039062 C 11.789062 21.324219 11.617188 23.570312 11.617188 26.761719 C 11.617188 29.96875 11.789062 32.222656 12.128906 33.519531 C 12.476562 34.808594 13.054688 35.453125 13.867188 35.453125 Z M 5.25 -5.289062 "/>
<path fill-rule="nonzero" fill="rgb(90.196078%, 9.411765%, 3.921569%)" fill-opacity="1" d="M 158.851562 225.882812 C 158.335938 226.652344 157.757812 227.230469 157.125 227.621094 C 156.488281 228.003906 155.796875 228.199219 155.042969 228.199219 C 153.238281 228.199219 151.820312 227.207031 150.792969 225.222656 C 149.757812 223.242188 149.238281 220.515625 149.238281 217.046875 C 149.238281 213.398438 149.820312 210.578125 150.984375 208.585938 C 152.144531 206.589844 153.792969 205.59375 155.933594 205.59375 C 158.351562 205.59375 160.183594 206.957031 161.429688 209.691406 C 162.675781 212.421875 163.300781 216.4375 163.300781 221.738281 C 163.300781 227.761719 162.609375 232.3125 161.226562 235.386719 C 159.839844 238.457031 157.785156 239.996094 155.070312 239.996094 C 154.359375 239.996094 153.597656 239.878906 152.785156 239.648438 C 151.96875 239.425781 151.09375 239.09375 150.164062 238.65625 L 150.164062 232.789062 L 151.59375 232.789062 C 151.792969 234.296875 152.171875 235.4375 152.722656 236.210938 C 153.269531 236.992188 153.980469 237.382812 154.847656 237.382812 C 156.253906 237.382812 157.273438 236.480469 157.902344 234.675781 C 158.523438 232.867188 158.84375 229.9375 158.851562 225.882812 Z M 156.207031 208.191406 C 155.394531 208.191406 154.816406 208.832031 154.46875 210.121094 C 154.117188 211.417969 153.941406 213.675781 153.941406 216.878906 C 153.941406 220.074219 154.117188 222.316406 154.46875 223.605469 C 154.816406 224.902344 155.394531 225.554688 156.207031 225.554688 C 157.019531 225.554688 157.597656 224.902344 157.945312 223.605469 C 158.285156 222.316406 158.457031 220.074219 158.457031 216.878906 C 158.457031 213.675781 158.285156 211.417969 157.945312 210.121094 C 157.597656 208.832031 157.019531 208.191406 156.207031 208.191406 Z M 164.824219 248.933594 "/>
<path fill-rule="nonzero" fill="rgb(90.196078%, 9.411765%, 3.921569%)" fill-opacity="1" d="M 22.570312 47.472656 C 22.558594 52.183594 16.660156 55.613281 14.929688 59.34375 C 13.179688 55.621094 7.269531 52.222656 7.230469 47.511719 C 7.21875 45.292969 8.941406 43.480469 11.050781 43.480469 C 13.171875 43.480469 14.898438 45.273438 14.898438 47.492188 C 14.898438 45.261719 16.609375 43.460938 18.71875 43.460938 C 20.839844 43.453125 22.558594 45.253906 22.570312 47.472656 Z M 22.570312 47.472656 "/>
<path fill-rule="nonzero" fill="rgb(90.196078%, 9.411765%, 3.921569%)" fill-opacity="1" d="M 147.503906 196.171875 C 147.515625 191.460938 153.414062 188.03125 155.144531 184.300781 C 156.894531 188.019531 162.804688 191.421875 162.84375 196.128906 C 162.855469 198.351562 161.136719 200.160156 159.023438 200.160156 C 156.90625 200.160156 155.175781 198.371094 155.175781 196.148438 C 155.175781 198.378906 153.464844 200.179688 151.355469 200.179688 C 149.234375 200.191406 147.515625 198.390625 147.503906 196.171875 Z M 147.503906 196.171875 "/>
<path fill-rule="nonzero" fill="rgb(90.196078%, 9.411765%, 3.921569%)" fill-opacity="1" d="M 63.515625 28.578125 C 63.492188 39.882812 49.332031 48.113281 45.179688 57.066406 C 40.980469 48.136719 26.796875 39.976562 26.699219 28.671875 C 26.675781 23.347656 30.804688 19 35.867188 19 C 40.957031 19 45.109375 23.296875 45.109375 28.625 C 45.109375 23.273438 49.210938 18.953125 54.277344 18.953125 C 59.363281 18.929688 63.492188 23.25 63.515625 28.578125 Z M 63.515625 28.578125 "/>
<path fill-rule="nonzero" fill="rgb(90.196078%, 9.411765%, 3.921569%)" fill-opacity="1" d="M 63.515625 105.519531 C 63.492188 116.824219 49.332031 125.054688 45.179688 134.007812 C 40.980469 125.078125 26.796875 116.917969 26.699219 105.617188 C 26.675781 100.289062 30.804688 95.945312 35.867188 95.945312 C 40.957031 95.945312 45.109375 100.238281 45.109375 105.566406 C 45.109375 100.214844 49.210938 95.894531 54.277344 95.894531 C 59.363281 95.871094 63.492188 100.191406 63.515625 105.519531 Z M 63.515625 105.519531 "/>
<path fill-rule="nonzero" fill="rgb(90.196078%, 9.411765%, 3.921569%)" fill-opacity="1" d="M 26.699219 210.914062 C 26.726562 199.613281 40.882812 191.378906 45.035156 182.425781 C 49.238281 191.355469 63.421875 199.515625 63.515625 210.820312 C 63.539062 216.148438 59.414062 220.492188 54.347656 220.492188 C 49.261719 220.492188 45.109375 216.195312 45.109375 210.867188 C 45.109375 216.21875 41.003906 220.539062 35.941406 220.539062 C 30.851562 220.5625 26.726562 216.242188 26.699219 210.914062 Z M 26.699219 210.914062 "/>
<path fill-rule="nonzero" fill="rgb(90.196078%, 9.411765%, 3.921569%)" fill-opacity="1" d="M 143.375 28.578125 C 143.351562 39.882812 129.191406 48.113281 125.039062 57.066406 C 120.839844 48.136719 106.652344 39.976562 106.558594 28.671875 C 106.535156 23.347656 110.664062 19 115.726562 19 C 120.8125 19 124.964844 23.296875 124.964844 28.625 C 124.964844 23.273438 129.070312 18.953125 134.132812 18.953125 C 139.222656 18.929688 143.351562 23.25 143.375 28.578125 Z M 143.375 28.578125 "/>
<path fill-rule="nonzero" fill="rgb(90.196078%, 9.411765%, 3.921569%)" fill-opacity="1" d="M 143.375 105.519531 C 143.351562 116.824219 129.191406 125.054688 125.039062 134.007812 C 120.839844 125.078125 106.652344 116.917969 106.558594 105.617188 C 106.535156 100.289062 110.664062 95.945312 115.726562 95.945312 C 120.8125 95.945312 124.964844 100.238281 124.964844 105.566406 C 124.964844 100.214844 129.070312 95.894531 134.132812 95.894531 C 139.222656 95.871094 143.351562 100.191406 143.375 105.519531 Z M 143.375 105.519531 "/>
<path fill-rule="nonzero" fill="rgb(90.196078%, 9.411765%, 3.921569%)" fill-opacity="1" d="M 106.558594 210.914062 C 106.582031 199.613281 120.742188 191.378906 124.894531 182.425781 C 129.09375 191.355469 143.277344 199.515625 143.375 210.820312 C 143.398438 216.148438 139.269531 220.492188 134.207031 220.492188 C 129.117188 220.492188 124.964844 216.195312 124.964844 210.867188 C 124.964844 216.21875 120.863281 220.539062 115.796875 220.539062 C 110.710938 220.5625 106.582031 216.242188 106.558594 210.914062 Z M 106.558594 210.914062 "/>
</svg>
