<?xml version="1.0" encoding="UTF-8"?>
<svg xmlns="http://www.w3.org/2000/svg" xmlns:xlink="http://www.w3.org/1999/xlink" width="169.074219" height="244.640625" viewBox="0 0 169.074219 244.640625">
<path fill-rule="nonzero" fill="rgb(100%, 100%, 100%)" fill-opacity="1" stroke-width="2.5" stroke-linecap="butt" stroke-linejoin="miter" stroke="rgb(0%, 0%, 0%)" stroke-opacity="1" stroke-miterlimit="4" d="M 0 -0.000473022 C 0 3.780777 3.089844 6.870621 6.871094 6.870621 L 159.714844 6.870621 C 163.484375 6.870621 166.574219 3.780777 166.574219 -0.000473022 L 166.574219 -228.398911 C 166.574219 -232.180161 163.484375 -235.270004 159.714844 -235.270004 L 6.871094 -235.270004 C 3.089844 -235.270004 0 -232.180161 0 -228.398911 Z M 0 -0.000473022 " transform="matrix(1, 0, 0, 1, 1.25, 236.520004)"/>
<path fill-rule="nonzero" fill="rgb(90.196078%, 9.411765%, 3.921569%)" fill-opacity="1" d="M 16.53125 19.757812 C 17.9375 20.1875 19.003906 21.15625 19.734375 22.664062 C 20.46875 24.175781 20.835938 26.152344 20.835938 28.597656 C 20.835938 31.636719 20.222656 33.972656 18.992188 35.601562 C 17.761719 37.234375 15.988281 38.046875 13.675781 38.046875 C 11.363281 38.046875 9.589844 37.234375 8.355469 35.601562 C 7.121094 33.972656 6.503906 31.636719 6.503906 28.597656 C 6.503906 26.152344 6.867188 24.175781 7.605469 22.664062 C 8.339844 21.15625 9.40625 20.1875 10.808594 19.757812 C 9.566406 19.21875 8.636719 18.328125 8.019531 17.078125 C 7.40625 15.824219 7.101562 14.238281 7.101562 12.320312 C 7.101562 9.503906 7.660156 7.355469 8.777344 5.878906 C 9.902344 4.390625 11.53125 3.648438 13.675781 3.648438 C 15.808594 3.648438 17.4375 4.390625 18.5625 5.878906 C 19.691406 7.355469 20.253906 9.503906 20.253906 12.320312 C 20.253906 14.238281 19.941406 15.824219 19.320312 17.078125 C 18.703125 18.328125 17.769531 19.21875 16.53125 19.757812 Z M 15.667969 12.402344 C 15.667969 10.070312 15.515625 8.464844 15.21875 7.578125 C 14.917969 6.699219 14.402344 6.257812 13.675781 6.257812 C 12.9375 6.257812 12.421875 6.699219 12.128906 7.578125 C 11.835938 8.464844 11.6875 10.070312 11.6875 12.402344 C 11.6875 14.730469 11.835938 16.328125 12.128906 17.195312 C 12.421875 18.054688 12.9375 18.484375 13.675781 18.484375 C 14.40625 18.484375 14.921875 18.054688 15.21875 17.195312 C 15.515625 16.328125 15.667969 14.730469 15.667969 12.402344 Z M 16.136719 28.214844 C 16.136719 25.507812 15.949219 23.640625 15.578125 22.613281 C 15.214844 21.589844 14.578125 21.078125 13.675781 21.078125 C 12.765625 21.078125 12.132812 21.589844 11.769531 22.613281 C 11.402344 23.640625 11.222656 25.507812 11.222656 28.214844 C 11.222656 30.949219 11.402344 32.835938 11.769531 33.882812 C 12.140625 34.933594 12.773438 35.453125 13.675781 35.453125 C 14.566406 35.453125 15.199219 34.933594 15.570312 33.882812 C 15.945312 32.835938 16.136719 30.949219 16.136719 28.214844 Z M 5.25 -5.289062 "/>
<path fill-rule="nonzero" fill="rgb(90.196078%, 9.411765%, 3.921569%)" fill-opacity="1" d="M 153.546875 223.886719 C 152.144531 223.457031 151.074219 222.484375 150.347656 220.976562 C 149.613281 219.464844 149.242188 217.492188 149.242188 215.046875 C 149.242188 212.007812 149.859375 209.667969 151.085938 208.039062 C 152.316406 206.410156 154.089844 205.59375 156.40625 205.59375 C 158.71875 205.59375 160.488281 206.410156 161.726562 208.039062 C 162.960938 209.667969 163.578125 212.007812 163.578125 215.046875 C 163.578125 217.492188 163.210938 219.464844 162.476562 220.976562 C 161.742188 222.484375 160.671875 223.457031 159.273438 223.886719 C 160.515625 224.421875 161.441406 225.316406 162.058594 226.5625 C 162.671875 227.816406 162.976562 229.402344 162.976562 231.320312 C 162.976562 234.136719 162.417969 236.285156 161.300781 237.765625 C 160.179688 239.25 158.546875 239.996094 156.40625 239.996094 C 154.269531 239.996094 152.644531 239.25 151.519531 237.765625 C 150.390625 236.285156 149.824219 234.136719 149.824219 231.320312 C 149.824219 229.402344 150.140625 227.816406 150.761719 226.5625 C 151.378906 225.316406 152.308594 224.421875 153.546875 223.886719 Z M 154.414062 231.238281 C 154.414062 233.570312 154.5625 235.179688 154.863281 236.0625 C 155.164062 236.941406 155.679688 237.382812 156.40625 237.382812 C 157.144531 237.382812 157.65625 236.941406 157.949219 236.0625 C 158.246094 235.179688 158.390625 233.570312 158.390625 231.238281 C 158.390625 228.914062 158.246094 227.3125 157.949219 226.445312 C 157.65625 225.585938 157.144531 225.15625 156.40625 225.15625 C 155.671875 225.15625 155.15625 225.585938 154.863281 226.445312 C 154.5625 227.3125 154.414062 228.914062 154.414062 231.238281 Z M 153.945312 215.425781 C 153.945312 218.136719 154.128906 220.003906 154.5 221.027344 C 154.867188 222.050781 155.503906 222.5625 156.40625 222.5625 C 157.3125 222.5625 157.949219 222.050781 158.3125 221.027344 C 158.675781 220.003906 158.859375 218.136719 158.859375 215.425781 C 158.859375 212.691406 158.675781 210.804688 158.3125 209.757812 C 157.941406 208.710938 157.304688 208.191406 156.40625 208.191406 C 155.511719 208.191406 154.878906 208.710938 154.507812 209.757812 C 154.132812 210.804688 153.945312 212.691406 153.945312 215.425781 Z M 164.828125 248.933594 "/>
<path fill-rule="nonzero" fill="rgb(90.196078%, 9.411765%, 3.921569%)" fill-opacity="1" d="M 22.570312 47.472656 C 22.558594 52.183594 16.660156 55.613281 14.929688 59.34375 C 13.179688 55.621094 7.269531 52.222656 7.230469 47.511719 C 7.21875 45.292969 8.941406 43.480469 11.050781 43.480469 C 13.171875 43.480469 14.898438 45.273438 14.898438 47.492188 C 14.898438 45.261719 16.609375 43.460938 18.71875 43.460938 C 20.839844 43.453125 22.558594 45.253906 22.570312 47.472656 Z M 22.570312 47.472656 "/>
<path fill-rule="nonzero" fill="rgb(90.196078%, 9.411765%, 3.921569%)" fill-opacity="1" d="M 147.511719 196.171875 C 147.519531 191.460938 153.421875 188.03125 155.148438 184.300781 C 156.898438 188.019531 162.808594 191.421875 162.851562 196.128906 C 162.859375 198.351562 161.140625 200.160156 159.03125 200.160156 C 156.910156 200.160156 155.179688 198.371094 155.179688 196.148438 C 155.179688 198.378906 153.46875 200.179688 151.359375 200.179688 C 149.238281 200.191406 147.519531 198.390625 147.511719 196.171875 Z M 147.511719 196.171875 "/>
<path fill-rule="nonzero" fill="rgb(90.196078%, 9.411765%, 3.921569%)" fill-opacity="1" d="M 63.523438 28.578125 C 63.496094 39.882812 49.339844 48.113281 45.1875 57.066406 C 40.984375 48.136719 26.800781 39.976562 26.707031 28.671875 C 26.683594 23.347656 30.808594 19 35.875 19 C 40.960938 19 45.113281 23.296875 45.113281 28.625 C 45.113281 23.273438 49.21875 18.953125 54.28125 18.953125 C 59.371094 18.929688 63.496094 23.25 63.523438 28.578125 Z M 63.523438 28.578125 "/>
<path fill-rule="nonzero" fill="rgb(90.196078%, 9.411765%, 3.921569%)" fill-opacity="1" d="M 63.523438 82.734375 C 63.496094 94.039062 49.339844 102.269531 45.1875 111.222656 C 40.984375 102.292969 26.800781 94.132812 26.707031 82.828125 C 26.683594 77.5 30.808594 73.15625 35.875 73.15625 C 40.960938 73.15625 45.113281 77.453125 45.113281 82.78125 C 45.113281 77.429688 49.21875 73.109375 54.28125 73.109375 C 59.371094 73.085938 63.496094 77.40625 63.523438 82.734375 Z M 63.523438 82.734375 "/>
<path fill-rule="nonzero" fill="rgb(90.196078%, 9.411765%, 3.921569%)" fill-opacity="1" d="M 26.707031 156.757812 C 26.730469 145.457031 40.890625 137.222656 45.042969 128.269531 C 49.242188 137.199219 63.425781 145.359375 63.523438 156.664062 C 63.546875 161.992188 59.417969 166.335938 54.355469 166.335938 C 49.265625 166.335938 45.113281 162.039062 45.113281 156.710938 C 45.113281 162.0625 41.011719 166.382812 35.945312 166.382812 C 30.859375 166.40625 26.730469 162.085938 26.707031 156.757812 Z M 26.707031 156.757812 "/>
<path fill-rule="nonzero" fill="rgb(90.196078%, 9.411765%, 3.921569%)" fill-opacity="1" d="M 26.707031 210.914062 C 26.730469 199.613281 40.890625 191.378906 45.042969 182.425781 C 49.242188 191.355469 63.425781 199.515625 63.523438 210.820312 C 63.546875 216.148438 59.417969 220.492188 54.355469 220.492188 C 49.265625 220.492188 45.113281 216.195312 45.113281 210.867188 C 45.113281 216.21875 41.011719 220.539062 35.945312 220.539062 C 30.859375 220.5625 26.730469 216.242188 26.707031 210.914062 Z M 26.707031 210.914062 "/>
<path fill-rule="nonzero" fill="rgb(90.196078%, 9.411765%, 3.921569%)" fill-opacity="1" d="M 143.378906 28.578125 C 143.355469 39.882812 129.195312 48.113281 125.042969 57.066406 C 120.84375 48.136719 106.660156 39.976562 106.5625 28.671875 C 106.539062 23.347656 110.667969 19 115.730469 19 C 120.820312 19 124.972656 23.296875 124.972656 28.625 C 124.972656 23.273438 129.074219 18.953125 134.140625 18.953125 C 139.226562 18.929688 143.355469 23.25 143.378906 28.578125 Z M 143.378906 28.578125 "/>
<path fill-rule="nonzero" fill="rgb(90.196078%, 9.411765%, 3.921569%)" fill-opacity="1" d="M 143.378906 82.734375 C 143.355469 94.039062 129.195312 102.269531 125.042969 111.222656 C 120.84375 102.292969 106.660156 94.132812 106.5625 82.828125 C 106.539062 77.5 110.667969 73.15625 115.730469 73.15625 C 120.820312 73.15625 124.972656 77.453125 124.972656 82.78125 C 124.972656 77.429688 129.074219 73.109375 134.140625 73.109375 C 139.226562 73.085938 143.355469 77.40625 143.378906 82.734375 Z M 143.378906 82.734375 "/>
<path fill-rule="nonzero" fill="rgb(90.196078%, 9.411765%, 3.921569%)" fill-opacity="1" d="M 106.5625 156.757812 C 106.585938 145.457031 120.746094 137.222656 124.898438 128.269531 C 129.101562 137.199219 143.285156 145.359375 143.378906 156.664062 C 143.402344 161.992188 139.277344 166.335938 134.210938 166.335938 C 129.125 166.335938 124.972656 162.039062 124.972656 156.710938 C 124.972656 162.0625 120.867188 166.382812 115.804688 166.382812 C 110.714844 166.40625 106.585938 162.085938 106.5625 156.757812 Z M 106.5625 156.757812 "/>
<path fill-rule="nonzero" fill="rgb(90.196078%, 9.411765%, 3.921569%)" fill-opacity="1" d="M 106.5625 210.914062 C 106.585938 199.613281 120.746094 191.378906 124.898438 182.425781 C 129.101562 191.355469 143.285156 199.515625 143.378906 210.820312 C 143.402344 216.148438 139.277344 220.492188 134.210938 220.492188 C 129.125 220.492188 124.972656 216.195312 124.972656 210.867188 C 124.972656 216.21875 120.867188 220.539062 115.804688 220.539062 C 110.714844 220.5625 106.585938 216.242188 106.5625 210.914062 Z M 106.5625 210.914062 "/>
</svg>
