<?xml version="1.0" encoding="UTF-8"?>
<svg xmlns="http://www.w3.org/2000/svg" xmlns:xlink="http://www.w3.org/1999/xlink" width="169.074219" height="244.640625" viewBox="0 0 169.074219 244.640625">
<path fill-rule="nonzero" fill="rgb(100%, 100%, 100%)" fill-opacity="1" stroke-width="2.5" stroke-linecap="butt" stroke-linejoin="miter" stroke="rgb(0%, 0%, 0%)" stroke-opacity="1" stroke-miterlimit="4" d="M 0 -0.000473022 C 0 3.780777 3.089844 6.870621 6.871094 6.870621 L 159.714844 6.870621 C 163.484375 6.870621 166.574219 3.780777 166.574219 -0.000473022 L 166.574219 -228.398911 C 166.574219 -232.180161 163.484375 -235.270004 159.714844 -235.270004 L 6.871094 -235.270004 C 3.089844 -235.270004 0 -232.180161 0 -228.398911 Z M 0 -0.000473022 " transform="matrix(1, 0, 0, 1, 1.25, 236.520004)"/>
<path fill-rule="nonzero" fill="rgb(90.196078%, 9.411765%, 3.921569%)" fill-opacity="1" d="M 20.738281 37.402344 L 11 37.402344 L 11 34.707031 L 13.628906 34.707031 L 13.628906 28.679688 L 6.246094 28.679688 L 6.246094 26.117188 L 13.65625 3.648438 L 18.109375 3.648438 L 18.109375 25.820312 L 21.144531 25.820312 L 21.144531 28.679688 L 18.109375 28.679688 L 18.109375 34.707031 L 20.738281 34.707031 Z M 13.628906 25.820312 L 13.628906 9.710938 L 8.355469 25.820312 Z M 5.25 -5.289062 "/>
<path fill-rule="nonzero" fill="rgb(90.196078%, 9.411765%, 3.921569%)" fill-opacity="1" d="M 149.335938 206.238281 L 159.074219 206.238281 L 159.074219 208.933594 L 156.445312 208.933594 L 156.445312 214.964844 L 163.828125 214.964844 L 163.828125 217.523438 L 156.417969 239.996094 L 151.964844 239.996094 L 151.964844 217.820312 L 148.929688 217.820312 L 148.929688 214.964844 L 151.964844 214.964844 L 151.964844 208.933594 L 149.335938 208.933594 Z M 156.445312 217.820312 L 156.445312 233.929688 L 161.71875 217.820312 Z M 164.824219 248.933594 "/>
<path fill-rule="nonzero" fill="rgb(90.196078%, 9.411765%, 3.921569%)" fill-opacity="1" d="M 22.570312 47.472656 C 22.558594 52.183594 16.660156 55.613281 14.929688 59.34375 C 13.179688 55.621094 7.269531 52.222656 7.230469 47.511719 C 7.21875 45.292969 8.941406 43.480469 11.050781 43.480469 C 13.171875 43.480469 14.898438 45.273438 14.898438 47.492188 C 14.898438 45.261719 16.609375 43.460938 18.71875 43.460938 C 20.839844 43.453125 22.558594 45.253906 22.570312 47.472656 Z M 22.570312 47.472656 "/>
<path fill-rule="nonzero" fill="rgb(90.196078%, 9.411765%, 3.921569%)" fill-opacity="1" d="M 147.503906 196.171875 C 147.515625 191.460938 153.414062 188.03125 155.144531 184.300781 C 156.894531 188.019531 162.804688 191.421875 162.84375 196.128906 C 162.855469 198.351562 161.136719 200.160156 159.023438 200.160156 C 156.90625 200.160156 155.175781 198.371094 155.175781 196.148438 C 155.175781 198.378906 153.464844 200.179688 151.355469 200.179688 C 149.234375 200.191406 147.515625 198.390625 147.503906 196.171875 Z M 147.503906 196.171875 "/>
<path fill-rule="nonzero" fill="rgb(90.196078%, 9.411765%, 3.921569%)" fill-opacity="1" d="M 63.515625 28.578125 C 63.492188 39.882812 49.332031 48.113281 45.179688 57.066406 C 40.980469 48.136719 26.796875 39.976562 26.699219 28.671875 C 26.675781 23.347656 30.804688 19 35.867188 19 C 40.957031 19 45.109375 23.296875 45.109375 28.625 C 45.109375 23.273438 49.210938 18.953125 54.277344 18.953125 C 59.363281 18.929688 63.492188 23.25 63.515625 28.578125 Z M 63.515625 28.578125 "/>
<path fill-rule="nonzero" fill="rgb(90.196078%, 9.411765%, 3.921569%)" fill-opacity="1" d="M 26.699219 210.914062 C 26.722656 199.613281 40.882812 191.378906 45.035156 182.425781 C 49.234375 191.355469 63.421875 199.515625 63.515625 210.820312 C 63.539062 216.148438 59.414062 220.492188 54.347656 220.492188 C 49.261719 220.492188 45.109375 216.195312 45.109375 210.867188 C 45.109375 216.21875 41.003906 220.539062 35.941406 220.539062 C 30.851562 220.5625 26.722656 216.242188 26.699219 210.914062 Z M 26.699219 210.914062 "/>
<path fill-rule="nonzero" fill="rgb(90.196078%, 9.411765%, 3.921569%)" fill-opacity="1" d="M 143.375 28.578125 C 143.351562 39.882812 129.191406 48.113281 125.039062 57.066406 C 120.835938 48.136719 106.652344 39.976562 106.558594 28.671875 C 106.535156 23.347656 110.660156 19 115.726562 19 C 120.8125 19 124.964844 23.296875 124.964844 28.625 C 124.964844 23.273438 129.070312 18.953125 134.132812 18.953125 C 139.222656 18.929688 143.351562 23.25 143.375 28.578125 Z M 143.375 28.578125 "/>
<path fill-rule="nonzero" fill="rgb(90.196078%, 9.411765%, 3.921569%)" fill-opacity="1" d="M 106.558594 210.914062 C 106.582031 199.613281 120.742188 191.378906 124.894531 182.425781 C 129.09375 191.355469 143.277344 199.515625 143.375 210.820312 C 143.398438 216.148438 139.269531 220.492188 134.207031 220.492188 C 129.117188 220.492188 124.964844 216.195312 124.964844 210.867188 C 124.964844 216.21875 120.863281 220.539062 115.796875 220.539062 C 110.710938 220.5625 106.582031 216.242188 106.558594 210.914062 Z M 106.558594 210.914062 "/>
</svg>
