<?xml version="1.0" encoding="UTF-8"?>
<svg xmlns="http://www.w3.org/2000/svg" xmlns:xlink="http://www.w3.org/1999/xlink" width="169.074219" height="244.640625" viewBox="0 0 169.074219 244.640625">
<path fill-rule="nonzero" fill="rgb(100%, 100%, 100%)" fill-opacity="1" stroke-width="2.5" stroke-linecap="butt" stroke-linejoin="miter" stroke="rgb(0%, 0%, 0%)" stroke-opacity="1" stroke-miterlimit="4" d="M 0 -0.000488281 C 0 3.780762 3.089844 6.870605 6.871094 6.870605 L 159.714844 6.870605 C 163.484375 6.870605 166.574219 3.780762 166.574219 -0.000488281 L 166.574219 -228.398926 C 166.574219 -232.180176 163.484375 -235.27002 159.714844 -235.27002 L 6.871094 -235.27002 C 3.089844 -235.27002 0 -232.180176 0 -228.398926 Z M 0 -0.000488281 " transform="matrix(1, 0, 0, 1, 1.25, 236.52002)"/>
<path fill-rule="nonzero" fill="rgb(90.196078%, 9.411765%, 3.921569%)" fill-opacity="1" d="M 102.09375 200.59375 L 101.34375 202.042969 L 102.117188 207.078125 L 104.132812 206.726562 L 108.128906 204.023438 L 103.6875 199.796875 "/>
<path fill-rule="nonzero" fill="rgb(90.196078%, 9.411765%, 3.921569%)" fill-opacity="1" d="M 117.371094 67.011719 C 117.652344 67.117188 110.957031 73.433594 110.113281 73.433594 L 104.429688 76.589844 L 101.046875 81.585938 L 98.503906 87.214844 L 98.347656 93.457031 L 100.714844 96.824219 L 105.746094 97.859375 L 112.042969 96.753906 L 118.9375 92.367188 L 122.433594 87.835938 L 123.757812 83.414062 L 123.289062 80.464844 L 120.15625 78.953125 L 117.480469 78.703125 L 117.292969 77.574219 L 117.777344 74.871094 L 115.484375 73.042969 L 111.300781 73.320312 L 118.09375 67.175781 L 125.128906 68.960938 L 128.453125 68.359375 L 137.910156 79.964844 L 132.847656 86.9375 L 132.066406 89.949219 L 133.117188 94.191406 L 134.699219 98.542969 L 133.925781 103.242188 L 132.734375 104.925781 L 132.871094 108.640625 L 132.136719 110.535156 L 129.578125 111.625 L 127.191406 110.609375 L 125.71875 108.046875 L 126.457031 105.066406 L 128.453125 103.941406 L 130.242188 103.910156 L 130.558594 103.382812 L 129.15625 99.769531 L 125.964844 97.421875 L 123.367188 97.28125 L 117.058594 101.558594 L 116.355469 105.242188 L 116.285156 111.414062 L 122.386719 115.445312 L 125.15625 119.902344 L 126.035156 125.089844 L 126.738281 131.546875 L 132.523438 145.921875 L 134.554688 149.570312 L 133.785156 150.203125 L 129.050781 147.992188 L 124.769531 143.574219 L 124.527344 140.207031 L 125.332031 137.574219 L 124.210938 135.613281 L 122.316406 135.648438 L 121.125 137.542969 L 121.300781 139.085938 L 122.84375 141.609375 L 122.140625 145.503906 L 119.335938 150.695312 L 117.863281 150.726562 L 114.953125 146.589844 L 113.339844 141.082031 L 114.847656 137.507812 L 114.8125 136.066406 L 112.253906 134 L 110.289062 134.628906 L 108.851562 136.839844 L 110.324219 141.644531 L 108.746094 144.484375 L 102.816406 149.5 L 101.730469 148.867188 L 100.363281 145.292969 L 100.011719 139.960938 L 103.238281 137.4375 L 103.484375 134.628906 L 101.660156 133.054688 L 99.664062 133.367188 L 97.664062 134.804688 L 97.523438 137.4375 L 97.558594 140.59375 L 93.59375 145.679688 L 89.210938 149.007812 L 87.386719 148.519531 L 86.617188 146.203125 L 86.476562 136.523438 L 90.332031 134.492188 L 91.453125 132.28125 L 90.226562 130.316406 L 87.703125 129.546875 L 85.492188 130.949219 L 84.511719 133.261719 L 85.246094 136.417969 L 83.632812 138.207031 L 81.25 140.207031 L 75.042969 143.152344 L 72.304688 143.574219 L 72.339844 139.574219 L 74.515625 132.667969 L 76.339844 130.035156 L 80.476562 128.808594 L 81.808594 126.25 L 81.074219 124.25 L 78.40625 123.058594 L 75.988281 124.425781 L 75.144531 126.039062 L 74.691406 128.421875 L 71.394531 130.703125 L 62.800781 133.332031 L 61.574219 132.175781 L 64.136719 124.773438 L 67.5 121.445312 L 71.464844 120.882812 L 73.078125 118.113281 L 72.304688 115.480469 L 69.921875 114.429688 L 67.675781 115.515625 L 65.890625 119.445312 L 62.554688 121.621094 L 54.523438 123.09375 L 55.4375 119.585938 L 57.363281 116.007812 L 58.734375 114.816406 L 60.980469 112.324219 L 64.660156 112.011719 L 66.132812 110.46875 L 66.625 109.097656 L 66.449219 107.695312 L 64.449219 106.398438 L 61.152344 107.378906 L 59.4375 107.484375 L 56.171875 104.328125 L 54.945312 102.292969 L 55.71875 101.910156 L 59.960938 102.015625 L 64.835938 100.71875 L 74.410156 96.296875 L 78.585938 95.492188 L 82.828125 96.367188 L 86.054688 98.296875 L 85.984375 96.230469 L 87.316406 94.507812 L 91.523438 93.703125 L 91.734375 93.175781 L 91.875 90.089844 L 94.15625 88.128906 L 95.875 82.058594 L 99.3125 76.730469 L 99.34375 75.113281 L 97.136719 70.449219 L 97.207031 65.503906 L 98.1875 62.734375 L 100.117188 60.070312 L 104.640625 58.105469 L 106.464844 55.371094 L 108.359375 54.496094 L 110.671875 55.125 L 112.148438 57.472656 L 111.410156 60.84375 L 108.605469 62.035156 L 105.378906 60.738281 L 104.746094 60.980469 L 104.289062 64.558594 L 105.203125 67.644531 L 107.203125 68.839844 L 114.566406 66.980469 "/>
<path fill-rule="nonzero" fill="rgb(90.196078%, 9.411765%, 3.921569%)" fill-opacity="1" d="M 117.589844 66.953125 L 117.996094 67.429688 L 111.15625 73.539062 L 110.75 73.0625 Z M 117.589844 66.953125 "/>
<path fill-rule="nonzero" fill="rgb(90.196078%, 9.411765%, 3.921569%)" fill-opacity="1" d="M 52.507812 105.367188 L 55.609375 106.066406 L 57.792969 109.777344 L 55.390625 121.347656 L 49.148438 132.964844 L 39.585938 142.789062 L 31.15625 142.789062 L 29.804688 140.953125 L 40.542969 131.261719 L 49.148438 117.199219 "/>
<path fill-rule="nonzero" fill="rgb(90.196078%, 9.411765%, 3.921569%)" fill-opacity="1" d="M 107.425781 149.824219 L 108.773438 148.8125 L 112.644531 147.859375 L 113.882812 148.984375 L 115.960938 156.84375 L 116.691406 161.109375 L 116.128906 169.078125 L 112.929688 182.050781 L 110.570312 187.773438 L 106.753906 192.714844 L 102.09375 195.914062 L 102.429688 193.667969 L 103.777344 191.480469 L 106.359375 187.214844 L 108.660156 180.421875 L 110.738281 171.269531 L 111.46875 164.757812 L 110.457031 157.460938 L 107.539062 152.238281 "/>
<path fill-rule="nonzero" fill="rgb(0%, 0%, 0%)" fill-opacity="1" d="M 86 162.347656 L 86.890625 161.46875 L 89.660156 161.191406 L 91.835938 160.40625 L 92.175781 160.015625 L 93.324219 160.304688 L 93.851562 159.566406 L 94.652344 159.929688 L 95.265625 159.792969 L 96.671875 159.410156 L 100.027344 152.902344 L 101.582031 149.097656 L 102.738281 149.65625 L 104.105469 149.242188 L 113.316406 146.417969 L 113.917969 147.675781 L 112.144531 147.796875 L 108.867188 148.664062 L 106.933594 149.953125 L 107.316406 152.050781 L 106.082031 152.617188 L 103.5625 156.25 L 103.875 157.417969 L 106.175781 156.894531 L 107.414062 154.378906 L 107.003906 152.996094 L 107.679688 152.828125 L 110.195312 157.421875 L 109.621094 162.742188 L 111.230469 165.542969 L 110.296875 172.527344 L 109.300781 176.992188 L 108.109375 181.671875 L 106.121094 187.335938 L 102.929688 192.699219 L 102.550781 190.3125 L 104.472656 185.445312 L 103.550781 176.738281 L 103.722656 168.625 L 101.832031 168.015625 L 100.726562 169.894531 L 100.960938 187.996094 L 101.984375 190.691406 L 102.359375 193.308594 L 101.625 196.507812 L 102.910156 199.808594 L 102.007812 200.890625 L 101.140625 203 L 102.574219 206.863281 L 103.359375 206.832031 L 108.292969 203.839844 L 109.253906 206.402344 L 106.886719 209.335938 L 103.003906 210.15625 L 100.625 206.65625 L 100.21875 201.769531 L 100.238281 200.019531 L 98.882812 199.171875 L 98.738281 195.570312 L 96.085938 188.308594 L 95.359375 180.730469 L 95.257812 173.304688 L 95.351562 168.59375 L 89.824219 168.882812 L 89.347656 169.753906 L 87.945312 168.929688 L 85.449219 169.652344 L 83.53125 169.59375 L 81.367188 170.824219 L 77.472656 171.742188 L 73.839844 172.222656 L 75.28125 170.589844 L 82.917969 169.085938 L 85.546875 167.484375 L 86.386719 163.496094 "/>
<path fill-rule="nonzero" fill="rgb(0%, 0%, 0%)" fill-opacity="1" d="M 106.757812 152.050781 L 107.703125 152.050781 L 107.703125 152.949219 L 106.757812 152.949219 Z M 106.757812 152.050781 "/>
<path fill-rule="nonzero" fill="rgb(0%, 0%, 0%)" fill-opacity="1" d="M 101.972656 190.667969 L 102.886719 190.667969 L 102.886719 193.183594 L 101.972656 193.183594 Z M 101.972656 190.667969 "/>
<path fill-rule="nonzero" fill="rgb(0%, 0%, 0%)" fill-opacity="1" d="M 109.046875 157.988281 L 110.445312 157.824219 L 111.238281 165.101562 L 109.835938 165.269531 Z M 109.046875 157.988281 "/>
<path fill-rule="nonzero" fill="rgb(0%, 0%, 0%)" fill-opacity="1" d="M 114.523438 147.777344 C 114.523438 148.023438 116.460938 152.101562 116.460938 152.101562 L 117.703125 158.363281 L 117.855469 166.8125 L 115.917969 178.9375 L 115.417969 180.132812 L 115.867188 180.378906 L 116.363281 180.03125 L 122.078125 167.953125 L 124.367188 158.164062 L 124.863281 152.894531 L 125.757812 153.242188 L 125.109375 160.898438 L 122.179688 171.382812 L 117.257812 181.570312 L 111.839844 188.777344 L 109.355469 190.71875 L 109.15625 189.675781 L 112.285156 183.957031 L 115.964844 169.941406 L 116.660156 161.691406 L 115.070312 152.5 L 113.527344 147.777344 "/>
<path fill-rule="nonzero" fill="rgb(90.196078%, 9.411765%, 3.921569%)" fill-opacity="1" d="M 78.027344 44.042969 L 81.949219 44.386719 L 84.109375 49.285156 L 82.457031 52.851562 L 77.03125 52.1875 L 76.160156 47.128906 "/>
<path fill-rule="nonzero" fill="rgb(90.196078%, 9.411765%, 3.921569%)" fill-opacity="1" d="M 90.242188 39.125 L 93.464844 37.550781 L 94.75 38 L 95.210938 39.664062 L 95.21875 41.222656 L 94.304688 43.847656 L 91.125 46.707031 L 85.550781 47.976562 L 85.152344 46.441406 L 87.136719 45.820312 L 89.851562 43.160156 "/>
<path fill-rule="nonzero" fill="rgb(100%, 0%, 61.176471%)" fill-opacity="1" d="M 51.859375 41.328125 C 51.859375 42.5625 50.914062 43.566406 49.75 43.566406 C 48.585938 43.566406 47.640625 42.5625 47.640625 41.328125 C 47.640625 40.089844 48.585938 39.089844 49.75 39.089844 C 50.914062 39.089844 51.859375 40.089844 51.859375 41.328125 Z M 51.859375 41.328125 "/>
<path fill-rule="nonzero" fill="rgb(0%, 100%, 3.921569%)" fill-opacity="1" d="M 56.789062 52.679688 C 56.789062 53.828125 55.804688 54.757812 54.59375 54.757812 C 53.378906 54.757812 52.398438 53.828125 52.398438 52.679688 C 52.398438 51.53125 53.378906 50.601562 54.59375 50.601562 C 55.804688 50.601562 56.789062 51.53125 56.789062 52.679688 Z M 56.789062 52.679688 "/>
<path fill-rule="nonzero" fill="rgb(100%, 61.960784%, 0%)" fill-opacity="1" d="M 67.804688 69.652344 C 67.804688 70.851562 66.738281 71.820312 65.421875 71.820312 C 64.105469 71.820312 63.039062 70.851562 63.039062 69.652344 C 63.039062 68.457031 64.105469 67.488281 65.421875 67.488281 C 66.738281 67.488281 67.804688 68.457031 67.804688 69.652344 Z M 67.804688 69.652344 "/>
<path fill-rule="nonzero" fill="rgb(0%, 44.705882%, 100%)" fill-opacity="1" d="M 76.636719 75.484375 C 76.636719 76.804688 75.589844 77.871094 74.300781 77.871094 C 73.011719 77.871094 71.96875 76.804688 71.96875 75.484375 C 71.96875 74.167969 73.011719 73.097656 74.300781 73.097656 C 75.589844 73.097656 76.636719 74.167969 76.636719 75.484375 Z M 76.636719 75.484375 "/>
<path fill-rule="nonzero" fill="rgb(100%, 100%, 0%)" fill-opacity="1" d="M 85.953125 78.425781 C 85.953125 79.878906 84.894531 81.058594 83.589844 81.058594 C 82.28125 81.058594 81.222656 79.878906 81.222656 78.425781 C 81.222656 76.972656 82.28125 75.792969 83.589844 75.792969 C 84.894531 75.792969 85.953125 76.972656 85.953125 78.425781 Z M 85.953125 78.425781 "/>
<path fill-rule="nonzero" fill="rgb(90.196078%, 9.411765%, 3.921569%)" fill-opacity="1" d="M 61.519531 62.484375 C 61.863281 63.042969 61.546875 63.855469 60.816406 64.300781 C 60.085938 64.742188 59.214844 64.644531 58.871094 64.085938 C 58.53125 63.527344 58.84375 62.714844 59.578125 62.269531 C 60.308594 61.828125 61.179688 61.925781 61.519531 62.484375 Z M 61.519531 62.484375 "/>
<path fill-rule="nonzero" fill="rgb(90.196078%, 9.411765%, 3.921569%)" fill-opacity="1" d="M 67.1875 58.71875 C 67.1875 59.242188 66.820312 59.664062 66.367188 59.664062 C 65.914062 59.664062 65.546875 59.242188 65.546875 58.71875 C 65.546875 58.195312 65.914062 57.769531 66.367188 57.769531 C 66.820312 57.769531 67.1875 58.195312 67.1875 58.71875 Z M 67.1875 58.71875 "/>
<path fill-rule="nonzero" fill="rgb(90.196078%, 9.411765%, 3.921569%)" fill-opacity="1" d="M 55.535156 67.785156 C 55.632812 67.894531 55.554688 68.121094 55.332031 68.375 C 55.109375 68.625 54.78125 68.859375 54.472656 68.984375 C 54.167969 69.109375 53.929688 69.101562 53.863281 68.96875 C 53.765625 68.859375 53.84375 68.632812 54.0625 68.378906 C 54.285156 68.128906 54.617188 67.894531 54.921875 67.769531 C 55.230469 67.644531 55.464844 67.652344 55.535156 67.785156 Z M 55.535156 67.785156 "/>
<path fill-rule="nonzero" fill="rgb(90.196078%, 9.411765%, 3.921569%)" fill-opacity="1" d="M 38.085938 79.210938 L 41.949219 75.617188 L 43.757812 77.433594 L 39.890625 81.027344 Z M 38.085938 79.210938 "/>
<path fill-rule="nonzero" fill="rgb(90.196078%, 9.411765%, 3.921569%)" fill-opacity="1" d="M 30.140625 85.125 L 35.777344 80.578125 L 37.382812 82.433594 L 31.75 86.980469 Z M 30.140625 85.125 "/>
<path fill-rule="nonzero" fill="rgb(90.196078%, 9.411765%, 3.921569%)" fill-opacity="1" d="M 28.367188 88.183594 C 28.554688 88.398438 28.566406 88.730469 28.402344 89.054688 C 28.238281 89.378906 27.917969 89.640625 27.574219 89.734375 C 27.230469 89.828125 26.917969 89.742188 26.757812 89.503906 C 26.570312 89.292969 26.554688 88.960938 26.71875 88.636719 C 26.886719 88.3125 27.203125 88.050781 27.546875 87.957031 C 27.890625 87.863281 28.207031 87.949219 28.367188 88.183594 Z M 28.367188 88.183594 "/>
<path fill-rule="nonzero" fill="rgb(90.196078%, 9.411765%, 3.921569%)" fill-opacity="1" d="M 27.789062 147.085938 L 29.277344 146.550781 L 31.425781 147.699219 L 33.367188 149.511719 L 33.390625 151.433594 L 29.238281 153.59375 L 27.15625 152.210938 L 27.363281 148.082031 "/>
<path fill-rule="nonzero" fill="rgb(90.196078%, 9.411765%, 3.921569%)" fill-opacity="1" d="M 44.359375 85.105469 L 49.117188 83.601562 L 50.214844 85.226562 L 48.832031 103.476562 L 51.632812 106.726562 L 48.628906 118.269531 L 45.214844 119.816406 L 36.800781 116.648438 L 36.394531 113.230469 L 39.605469 97.542969 L 43.507812 86.488281 "/>
<path fill-rule="nonzero" fill="rgb(90.196078%, 9.411765%, 3.921569%)" fill-opacity="1" d="M 89.121094 162.71875 L 102.261719 159.707031 L 105.671875 158.246094 L 108.148438 158.011719 L 108.796875 159.207031 L 108.855469 165.105469 L 107.808594 166.09375 L 89.253906 167.554688 L 87.351562 167.214844 L 87.21875 164.691406 "/>
<path fill-rule="nonzero" fill="rgb(90.196078%, 9.411765%, 3.921569%)" fill-opacity="1" d="M 133.679688 52.601562 C 133.960938 52.601562 135.75 52.878906 135.996094 53.089844 C 136.242188 53.300781 137.605469 54.984375 137.605469 54.984375 L 137.1875 58.210938 L 137.398438 59.578125 L 139.992188 64.101562 L 140.976562 69.433594 L 139.992188 76.238281 L 138.167969 80.375 L 128.417969 68.414062 L 131.820312 67.328125 L 135.046875 64.035156 L 135.785156 60.417969 L 135.46875 60.035156 L 132.101562 59.613281 L 130.136719 56.703125 L 131.503906 53.617188 "/>
<path fill-rule="nonzero" fill="rgb(0%, 0%, 0%)" fill-opacity="1" d="M 61.667969 59.964844 C 59.25 61.84375 56.601562 65.207031 53.742188 66.320312 C 52.605469 66.75 50.613281 63.582031 49.5625 66.214844 C 47.875 65.730469 46.597656 66.488281 46.515625 68.246094 C 44.625 68.25 42.246094 69.6875 41.1875 71.296875 C 40.125 72.914062 41.933594 74.699219 40.628906 76.175781 C 37.582031 79.621094 32.914062 82.308594 29.378906 85.238281 C 28.179688 86.222656 25.792969 87.476562 26.121094 89.355469 C 26.566406 91.921875 30.609375 88.542969 31.445312 87.832031 C 33.863281 85.851562 36.351562 83.558594 39.003906 81.929688 C 39.535156 81.605469 40.789062 80.21875 41.414062 80.347656 C 42.109375 80.503906 43.507812 83.996094 43.652344 84.6875 C 43.878906 85.90625 42.453125 87.800781 42.050781 88.953125 C 40.691406 92.847656 39.191406 96.75 38.109375 100.726562 C 36.96875 104.914062 36.925781 109.660156 35.390625 113.71875 C 34.605469 115.769531 32.953125 117.417969 31.976562 119.402344 C 30.34375 122.714844 29.015625 126.785156 28.117188 130.363281 C 27.265625 133.765625 27.171875 137.824219 27.433594 141.324219 C 27.496094 141.960938 28.246094 142.390625 28.234375 142.949219 C 28.21875 143.558594 27.089844 143.710938 26.914062 144.382812 C 26.6875 145.25 27.359375 145.996094 27.34375 146.804688 C 27.289062 149.925781 25.960938 153.582031 27.839844 156.550781 C 29.25 158.648438 34.945312 155.890625 35.753906 154.214844 C 36.226562 153.332031 35.554688 152.449219 35.214844 151.679688 C 34.09375 149.359375 32.28125 148.066406 30.273438 146.558594 C 29.707031 146.117188 29.300781 144.097656 29.8125 143.480469 C 30.273438 142.953125 31.140625 143.359375 31.695312 143.46875 C 33.117188 143.777344 34.882812 143.59375 36.363281 143.558594 C 41.433594 143.433594 45.976562 142.796875 50.777344 140.988281 C 52.175781 140.457031 54.679688 139.832031 55.445312 138.484375 C 51.105469 138.6875 47.230469 141.644531 42.65625 140.921875 C 42.730469 140.933594 45.921875 137.707031 45.921875 137.707031 C 47.359375 135.898438 52.070312 130.367188 53.125 128.335938 C 53.878906 126.914062 54.605469 124.492188 55.804688 123.382812 C 56.507812 122.734375 58.371094 123 59.304688 122.8125 C 61.535156 122.359375 63.867188 121.535156 65.707031 120.113281 C 67.535156 118.699219 66.597656 115.78125 69.453125 115.070312 C 71.035156 114.679688 72.460938 116.0625 72.585938 117.578125 C 72.691406 118.847656 71.566406 120.128906 70.46875 120.625 C 69.34375 121.136719 68.183594 120.546875 67.019531 121.246094 C 64.175781 122.945312 62.632812 126.757812 61.714844 129.757812 C 61.457031 130.609375 60.886719 132.492188 61.535156 133.285156 C 62.304688 134.222656 66.058594 133.007812 67.019531 132.667969 C 69.496094 131.851562 72.777344 130.796875 74.617188 128.835938 C 75.246094 128.160156 75.136719 127.136719 75.429688 126.308594 C 76.191406 124.152344 78.046875 122.925781 80.175781 124.109375 C 81.839844 125.039062 81.527344 126.917969 80.394531 128.132812 C 78.855469 129.777344 76.636719 128.746094 75.320312 130.578125 C 73.398438 133.257812 72.664062 137.136719 72.027344 140.316406 C 71.875 141.074219 71.484375 143.207031 72.214844 143.765625 C 72.824219 144.238281 73.898438 143.765625 74.53125 143.566406 C 76.625 142.953125 78.628906 142.085938 80.5 140.945312 C 82.339844 139.824219 83.707031 138.488281 85.289062 137.066406 C 82.855469 141.671875 80.820312 146.535156 78.652344 151.277344 C 77.882812 152.960938 77.214844 156.023438 75.851562 157.285156 C 74.53125 158.5 70.980469 155.296875 69.660156 154.804688 C 69 154.554688 67.703125 154.246094 67.222656 154.996094 C 66.003906 156.902344 70.261719 159.539062 71.28125 160.613281 C 67.9375 160.46875 64.46875 159.671875 61.132812 159.8125 C 60.117188 159.851562 58.425781 159.800781 57.683594 160.574219 C 56.871094 161.386719 57.570312 162.183594 58.492188 162.382812 C 60.984375 162.933594 63.875 163.40625 66.410156 163.660156 L 66.410156 163.863281 C 64.289062 164.367188 62.054688 163.804688 59.914062 164.183594 C 59.179688 164.316406 58.050781 164.550781 57.683594 165.304688 C 57.195312 166.378906 58.695312 166.96875 59.507812 167.070312 C 62.210938 167.414062 65.117188 167.3125 67.832031 167.3125 L 67.832031 167.71875 C 65.128906 167.929688 62.546875 168.445312 59.914062 169.09375 C 59.101562 169.289062 57.238281 169.886719 58.210938 171.054688 C 58.898438 171.902344 60.320312 171.8125 61.335938 171.777344 C 64.117188 171.644531 66.882812 170.617188 69.660156 170.558594 C 68.355469 172.277344 65.722656 172.726562 64.179688 174.417969 C 61.578125 177.328125 66.246094 176.167969 67.628906 175.429688 C 66.867188 177.671875 65.714844 179.757812 64.785156 181.925781 C 64.46875 182.667969 63.75 183.695312 63.875 184.566406 C 63.976562 185.253906 64.582031 184.972656 64.882812 184.566406 C 65.535156 183.515625 65.953125 182.230469 66.410156 181.117188 L 66.613281 181.117188 L 66.207031 183.144531 C 68.035156 182.847656 69.304688 178.28125 69.863281 176.648438 L 70.066406 176.648438 C 69.863281 177.410156 68.117188 180.328125 68.960938 180.875 C 69.457031 181.214844 69.863281 180.214844 70.007812 179.898438 C 70.675781 178.355469 71.484375 176.816406 72.09375 175.226562 L 72.296875 175.226562 L 70.875 179.695312 C 73.214844 179 73.410156 174.484375 74.9375 172.792969 L 72.90625 178.273438 C 74.53125 178.140625 75.285156 175.226562 75.75 173.808594 L 75.953125 173.808594 L 74.9375 177.257812 C 76.40625 177.019531 77.003906 174.890625 77.371094 173.605469 L 77.574219 173.605469 L 76.96875 176.242188 C 78.285156 176.039062 78.625 174.53125 78.996094 173.402344 L 79.199219 173.402344 C 78.441406 175.835938 80.011719 174.898438 80.621094 173.199219 L 80.824219 173.199219 L 80.824219 174.417969 C 82.105469 174.214844 82.449219 172.878906 82.855469 171.777344 L 83.058594 171.777344 L 82.855469 173.605469 C 83.972656 173.410156 84.242188 172.386719 84.476562 171.371094 L 84.679688 171.371094 L 84.476562 172.792969 C 85.78125 172.6875 86.179688 171.492188 86.507812 170.355469 L 86.710938 170.355469 L 86.507812 172.183594 C 87.496094 172.007812 87.777344 171.011719 88.132812 170.152344 L 88.335938 170.152344 L 88.335938 171.371094 C 89.554688 171.171875 89.898438 170.042969 90.160156 168.933594 L 90.363281 168.933594 C 89.890625 171.640625 91.347656 169.433594 92.230469 169.058594 C 93.046875 168.734375 94.339844 168.84375 95.238281 168.734375 C 95.238281 177.171875 94.558594 185.074219 97.226562 193.296875 C 97.566406 194.332031 98.183594 195.28125 98.445312 196.339844 C 98.824219 197.851562 97.847656 200.023438 100.105469 200.199219 C 99.960938 203.578125 99.847656 206.835938 102.054688 209.738281 C 103.625 211.769531 108.019531 209.394531 108.96875 207.707031 C 110.710938 204.609375 107.378906 201.820312 104.980469 200.128906 C 104.121094 199.535156 101.886719 198.191406 102.40625 196.789062 C 102.726562 195.933594 104.242188 195.289062 104.980469 194.835938 C 106.9375 193.617188 108.765625 192.179688 110.449219 190.601562 C 114.867188 186.449219 117.90625 181.230469 120.53125 175.839844 C 123.65625 169.40625 125.890625 161.703125 125.890625 154.523438 C 125.890625 152.699219 125.855469 150.871094 125.832031 149.042969 C 125.824219 148.640625 125.808594 147.472656 125.117188 147.621094 C 124.445312 147.734375 124.675781 149.136719 124.675781 149.59375 C 124.734375 151.683594 124.53125 153.710938 124.242188 155.742188 C 123.539062 160.742188 122.59375 165.890625 120.613281 170.5625 C 119.277344 173.808594 117.164062 176.855469 115.945312 180.101562 L 115.742188 180.101562 C 118.382812 171.792969 118.859375 162.445312 117.121094 153.914062 C 116.648438 151.59375 115.859375 149.207031 114.523438 147.214844 C 114.21875 146.714844 113.878906 145.796875 113.261719 145.59375 C 112.621094 145.34375 111.164062 146.050781 110.550781 146.3125 C 108.503906 147.214844 106.402344 147.984375 104.375 148.839844 C 106.191406 147.277344 110.703125 144.261719 110.648438 141.535156 C 110.613281 139.910156 109.042969 138.691406 109.285156 136.863281 C 109.441406 135.644531 110.796875 134.425781 112.082031 134.53125 C 112.578125 134.574219 112.972656 134.855469 113.359375 135.144531 C 116.09375 137.207031 113.164062 138.902344 113.15625 141.125 C 113.152344 143.164062 114.320312 146.007812 115.320312 147.761719 C 115.941406 148.882812 117.40625 152.046875 119.097656 151.363281 C 120.003906 150.992188 120.488281 149.660156 120.878906 148.847656 C 121.957031 146.609375 123.40625 143.90625 122.984375 141.328125 C 122.699219 139.574219 119.777344 137.46875 122.765625 136.050781 C 123.761719 135.558594 124.78125 136.511719 124.941406 137.46875 C 125.148438 138.714844 124.097656 139.90625 124.0625 141.125 C 124.011719 144.203125 126.828125 146.683594 129.019531 148.378906 C 129.746094 148.953125 134.101562 151.789062 134.652344 149.808594 C 134.902344 148.921875 134.003906 147.566406 133.640625 146.808594 C 132.382812 144.246094 131.046875 141.761719 130.03125 139.09375 C 128.726562 135.675781 127.234375 132.394531 126.589844 128.742188 C 125.988281 125.363281 126.378906 121.636719 124.90625 118.421875 C 123.902344 116.246094 122.199219 114.453125 120.199219 113.148438 C 119.140625 112.457031 117.65625 111.996094 116.835938 111.003906 C 116.226562 110.269531 116.875 109.265625 116.933594 108.441406 C 117.082031 106.257812 116.28125 104.183594 117.277344 102 C 117.636719 101.222656 119.125 100.621094 119.796875 100.117188 C 121.160156 99.023438 122.269531 97.816406 124.058594 97.582031 C 127.03125 97.191406 129.914062 100.894531 130.148438 103.570312 C 129.222656 103.570312 128.371094 103.628906 127.511719 104.011719 C 122.324219 106.308594 127.550781 114.992188 132.339844 110.703125 C 134.207031 109.015625 132.695312 107.328125 132.9375 105.398438 C 133.035156 104.609375 133.757812 104.050781 134.097656 103.367188 C 134.726562 102.101562 135.023438 100.117188 134.945312 98.699219 C 134.714844 95.613281 132.316406 92.886719 132.4375 89.765625 C 132.585938 85.921875 137.550781 82.382812 139.222656 79.007812 C 141.519531 74.277344 141.894531 68.121094 139.964844 63.171875 C 139.386719 61.691406 138.066406 60.535156 137.539062 59.121094 C 137.253906 58.417969 138 57.609375 138.046875 56.878906 C 138.207031 54.292969 136.648438 51.839844 133.804688 52.085938 C 130.863281 52.34375 128.839844 55.929688 130.503906 58.503906 C 131.570312 60.191406 133.558594 60.671875 135.429688 60.332031 C 135.378906 66.03125 128.984375 69.121094 123.859375 68.363281 C 120.917969 67.929688 118.648438 66.292969 115.535156 66.429688 C 113.265625 66.527344 111.226562 67.351562 109.039062 67.839844 C 108.320312 67.96875 107.183594 68.449219 106.492188 68.042969 C 103.730469 66.503906 104.9375 63.21875 105.183594 60.941406 C 106.804688 62.082031 108.71875 62.96875 110.660156 61.824219 C 113.554688 60.128906 112.960938 55.144531 109.648438 54.335938 C 108.09375 53.957031 106.265625 54.574219 105.3125 55.871094 C 104.875 56.472656 104.847656 57.433594 104.265625 57.90625 C 103.109375 58.839844 101.21875 58.953125 99.945312 59.964844 C 97.234375 62.109375 96.339844 66.421875 96.6875 69.667969 C 96.832031 71.003906 97.261719 72.515625 97.871094 73.726562 C 98.335938 74.644531 99.265625 75.410156 98.84375 76.535156 C 98.039062 78.679688 96.167969 80.578125 95.195312 82.695312 C 94.417969 84.320312 94.542969 86.375 93.722656 87.898438 C 93.320312 88.652344 92.386719 88.996094 91.847656 89.652344 C 90.960938 90.730469 91.136719 92.144531 91.375 93.417969 C 88.53125 92.75 84.953125 94.785156 85.691406 97.886719 C 84.460938 97.035156 82.886719 95.855469 81.425781 95.476562 C 75.210938 94.027344 68.617188 99.160156 62.933594 100.933594 C 61.589844 101.355469 59.898438 101.792969 58.488281 101.742188 C 57.472656 101.691406 55.996094 101.164062 55.09375 101.746094 C 53.546875 102.753906 55.847656 104.140625 56.253906 104.902344 C 56.714844 105.734375 55.359375 105.429688 55.035156 105.277344 C 53.820312 104.707031 50.570312 103.277344 49.960938 102.082031 C 49.519531 101.164062 49.960938 99.136719 49.957031 98.089844 C 49.875 93.929688 50.929688 89.824219 50.976562 85.703125 C 50.976562 84.4375 51.257812 83.089844 51.160156 81.84375 C 51.101562 81.101562 50.65625 80.371094 51.015625 79.644531 C 51.53125 78.597656 52.558594 77.785156 53.136719 76.734375 C 53.933594 75.292969 54.199219 73.648438 55.378906 72.429688 C 56.664062 71.085938 59.167969 69.875 60.046875 68.191406 C 60.445312 67.433594 59.707031 66.734375 60.027344 66.054688 C 60.296875 65.425781 61.597656 64.871094 62.144531 64.488281 C 63.972656 63.226562 65.675781 61.851562 67.417969 60.480469 C 68.019531 60.003906 68.929688 58.570312 69.753906 59.386719 C 71.359375 60.96875 70.347656 66.851562 68.171875 67.636719 C 67.015625 68.042969 65.867188 66.378906 64.375 67.027344 C 63.304688 67.445312 62.753906 68.558594 62.753906 69.667969 C 62.6875 73.597656 69.148438 72.945312 68.03125 69.058594 C 72.84375 67.742188 71.84375 61.550781 72.945312 57.890625 C 73.367188 56.488281 74.910156 55.492188 75.136719 54.238281 C 76.007812 53.980469 76.804688 52.761719 77.621094 53.878906 C 78.382812 54.964844 77.515625 58.5 77.570312 59.921875 C 77.738281 63.429688 78.789062 66.621094 77.449219 70.074219 C 77.144531 70.84375 76.871094 72.101562 76.109375 72.53125 C 75.566406 73.105469 73.855469 72.773438 72.777344 73.277344 C 70.765625 74.703125 71.226562 79.277344 75.226562 77.863281 C 77.386719 77.101562 76.222656 75.644531 77.253906 74.289062 C 78.328125 72.875 80.046875 72.003906 81.023438 70.480469 C 83.242188 67.039062 82.097656 62.972656 81.429688 59.316406 C 81.226562 58.242188 80.75 54.082031 82.636719 54.082031 C 83.351562 54.082031 83.65625 55.132812 83.855469 55.660156 C 84.523438 57.488281 85.191406 59.261719 85.605469 61.140625 C 86.503906 65.273438 87.003906 71.019531 84.402344 74.742188 C 83.542969 75.960938 81.699219 75.371094 81.023438 76.980469 C 80.34375 78.738281 81.15625 80.707031 83.054688 81.132812 C 85.082031 81.59375 86.582031 79.921875 86.496094 77.992188 C 86.464844 77.277344 85.890625 76.417969 86.246094 75.761719 C 86.8125 74.699219 87.902344 74.019531 88.457031 72.917969 C 90.257812 69.351562 90.527344 64.289062 89.203125 60.535156 C 88.128906 57.574219 83.246094 54.039062 84.25 50.792969 C 85.082031 48.101562 88.242188 48.578125 90.359375 47.460938 C 95.152344 44.9375 96.277344 41.46875 94.628906 36.820312 C 94.511719 36.007812 95.511719 35.214844 95.023438 34.378906 C 94.582031 33.628906 93.605469 33.738281 93.152344 34.378906 C 92.242188 35.671875 93.90625 36.582031 92.253906 37.839844 C 91.230469 38.632812 89.894531 38.335938 88.738281 38.753906 C 88.199219 38.949219 87.816406 39.546875 87.261719 39.648438 C 86.394531 39.828125 85.609375 39.152344 84.785156 39.828125 C 83.453125 40.847656 83.863281 43.820312 81.429688 44.09375 C 77.660156 44.429688 77.953125 41.53125 76.054688 39.21875 C 74.578125 37.421875 72.292969 36.34375 70.0625 35.816406 C 66.742188 35.035156 62.996094 35.9375 60.917969 38.847656 C 59.707031 40.535156 59.15625 44.65625 56.460938 44.5625 C 55.410156 44.527344 52.738281 43.695312 52.328125 42.625 C 51.789062 41.316406 52.675781 40.03125 51.160156 39.015625 C 49.730469 38.085938 47.597656 38.722656 47.199219 40.441406 C 46.832031 42.058594 47.527344 43.851562 49.355469 44.050781 C 50.089844 44.132812 50.867188 43.683594 51.554688 44.023438 C 53.378906 44.992188 54.773438 46.664062 57.070312 46.230469 C 60.058594 45.664062 60.925781 41.65625 63.160156 39.886719 C 65.910156 37.71875 70.988281 39.566406 73.714844 40.929688 C 74.699219 41.453125 76.285156 42.265625 76.488281 43.484375 C 76.71875 44.820312 73.917969 43.949219 73.308594 43.890625 C 69.933594 43.410156 66 44.441406 64.222656 47.546875 C 62.933594 49.792969 63.894531 52.21875 60.722656 53.167969 C 59.851562 53.429688 58.539062 53.835938 57.78125 53.113281 C 56.800781 52.210938 57.214844 50.617188 55.644531 50.113281 C 53.960938 49.574219 52.082031 50.332031 51.835938 52.214844 C 51.78125 52.621094 51.835938 53.042969 51.960938 53.433594 C 53.007812 56.734375 55.613281 54.292969 57.675781 54.558594 C 59.671875 54.8125 61.53125 55.398438 63.351562 53.957031 C 65.640625 52.140625 65.1875 49.371094 68.433594 48.222656 C 69.78125 47.753906 73.976562 46.617188 74.597656 48.5625 C 75.042969 49.980469 73.078125 50.875 72.207031 51.546875 C 70.183594 53.109375 68.207031 54.769531 66.203125 56.398438 C 65.574219 56.949219 62.515625 59.3125 61.667969 59.964844 Z M 85.695312 46.523438 C 87.703125 46.320312 90.105469 43.953125 90.65625 42.058594 C 90.898438 41.246094 90.460938 40.027344 90.949219 39.285156 C 91.5 38.460938 93.925781 37.316406 94.582031 38.421875 C 96.726562 42.058594 92.167969 46.558594 88.941406 46.957031 C 87.929688 47.082031 86.101562 47.910156 85.695312 46.523438 Z M 49.5625 39.296875 C 52.03125 38.976562 52.683594 43.082031 50.171875 43.433594 C 47.488281 43.8125 46.921875 39.640625 49.5625 39.296875 Z M 84.273438 42.667969 C 84.207031 43.285156 84.476562 44.519531 85.382812 43.796875 C 85.753906 43.496094 83.929688 41.652344 85.003906 40.558594 C 85.617188 39.949219 86.589844 40.503906 87.320312 40.398438 C 88.019531 40.300781 88.742188 39.46875 89.488281 39.757812 C 90.421875 40.125 89.902344 42.070312 89.554688 42.6875 C 88.640625 44.316406 86.363281 46.640625 84.273438 46.265625 C 81.988281 45.847656 82.84375 43.527344 84.273438 42.667969 Z M 87.117188 41.449219 L 87.929688 42.871094 C 89.257812 42.058594 88.539062 40.777344 87.117188 41.449219 Z M 85.289062 43.613281 C 85.214844 43.683594 84.898438 43.855469 84.769531 43.804688 C 84.636719 43.753906 84.453125 42.328125 84.453125 42.328125 C 84.453125 42.328125 85.363281 43.539062 85.289062 43.613281 Z M 79.605469 44.445312 C 81.980469 43.886719 84.046875 48.773438 83.3125 50.585938 C 82.683594 52.113281 81.675781 50.886719 80.621094 51.144531 C 80.011719 51.292969 79.808594 52.011719 79.1875 52.132812 C 78.792969 52.210938 78.347656 52.019531 78.335938 51.601562 C 78.3125 50.746094 79.664062 50.480469 79.308594 49.578125 C 78.933594 48.625 76.5625 49.289062 76.765625 48.152344 C 77.003906 46.808594 78.695312 48.152344 79.179688 47.28125 C 79.652344 46.476562 78.035156 44.820312 79.605469 44.445312 Z M 54.027344 50.855469 C 56.636719 50.382812 57.71875 54.140625 54.839844 54.597656 C 52.34375 54.996094 51.445312 51.339844 54.027344 50.855469 Z M 134.011719 149.648438 C 130.152344 148.902344 125.855469 145.714844 124.832031 141.730469 C 124.257812 139.5 127.394531 136.582031 123.859375 135.140625 C 122.136719 134.425781 120.726562 136.863281 120.730469 138.28125 C 120.730469 139.765625 121.964844 140.421875 122.320312 141.730469 C 122.886719 143.785156 121.019531 146.878906 120.121094 148.632812 C 119.800781 149.242188 119.382812 150.371094 118.582031 150.476562 C 117.363281 150.664062 115.902344 147.316406 115.511719 146.402344 C 114.902344 144.988281 113.824219 142.898438 113.976562 141.324219 C 114.0625 140.417969 114.792969 139.75 115.03125 138.890625 C 115.609375 136.777344 114.832031 134.625 112.695312 133.84375 C 111.195312 133.292969 109.242188 134.632812 108.796875 136.050781 C 108.027344 138.308594 110.097656 139.816406 109.8125 141.734375 C 109.390625 144.574219 104.738281 147.308594 102.746094 149.042969 L 102.542969 149.042969 C 100.769531 147.457031 100.921875 145.183594 100.632812 142.953125 C 100.515625 142.140625 100.242188 140.765625 100.71875 140.027344 C 101.882812 138.28125 104.371094 138.015625 103.871094 135.238281 C 103.335938 132.289062 99.703125 131.902344 97.957031 134.027344 C 96.253906 136.09375 98.0625 138.214844 97.125 140.3125 C 95.605469 143.707031 91.992188 146.28125 89.351562 148.636719 C 89.351562 148.636719 88.324219 148.628906 88.121094 148.425781 C 87.921875 148.222656 87.472656 147.707031 87.289062 147.179688 C 86.785156 145.734375 86.59375 143.652344 86.773438 142.140625 C 86.914062 140.648438 86.417969 138.28125 87.039062 136.917969 C 87.574219 135.761719 89.957031 135.445312 90.871094 134.484375 C 92.933594 132.3125 90.355469 128.792969 87.726562 129.191406 C 85.742188 129.496094 84.15625 131.644531 84.316406 133.617188 C 84.390625 134.542969 85.125 135.683594 84.59375 136.558594 C 82.355469 140.25 76.507812 142.402344 72.503906 143.15625 C 72.503906 139.503906 73.667969 133.257812 76.464844 130.636719 C 77.953125 129.242188 80.257812 130.441406 81.636719 128.132812 C 83.113281 125.699219 81.289062 122.867188 78.59375 122.699219 C 76.703125 122.582031 75.207031 124.480469 74.738281 126.105469 C 74.582031 126.714844 74.738281 127.527344 74.394531 128.007812 C 72.84375 130.007812 69.460938 130.859375 67.226562 131.703125 C 66.375 132.019531 63.042969 133.160156 62.355469 132.277344 C 61.6875 131.394531 62.945312 129.191406 63.277344 128.339844 C 64.183594 126 65.4375 123.144531 67.835938 121.910156 C 69.617188 120.992188 71.402344 122.097656 72.761719 120.015625 C 74.535156 117.261719 72.261719 113.167969 68.851562 114.34375 C 66.210938 115.25 66.820312 117.722656 65.3125 119.3125 C 62.863281 121.875 58.351562 122.25 55.046875 122.25 C 55.429688 119.203125 58.5625 114.4375 61.171875 112.832031 C 62.015625 112.3125 62.890625 112.8125 63.777344 112.613281 C 65.601562 112.191406 67.214844 109.929688 66.734375 108.046875 C 66.277344 106.253906 63.707031 105.605469 62.152344 106.214844 C 61.535156 106.464844 61 107.171875 60.324219 107.242188 C 59.632812 107.320312 59.105469 106.476562 58.683594 106.070312 C 57.539062 105.003906 55.707031 104.003906 55.453125 102.355469 C 58.398438 102.355469 61.136719 102.355469 63.953125 101.339844 C 68.511719 99.664062 73.0625 96.507812 77.984375 95.898438 C 81.324219 95.484375 83.191406 98.5 86.308594 98.5 C 86.292969 97.808594 86.027344 96.933594 86.265625 96.273438 C 87.085938 93.980469 90.535156 95.109375 91.667969 93.625 C 92.230469 92.84375 91.832031 91.820312 92.167969 90.988281 C 92.601562 89.890625 93.820312 89.523438 94.339844 88.550781 C 95.101562 87.078125 95.039062 85.203125 95.71875 83.679688 C 96.757812 81.320312 98.894531 79.011719 99.601562 76.574219 C 100.066406 74.949219 98.363281 73.046875 97.878906 71.5 C 96.863281 68.320312 97.136719 65.082031 98.828125 62.160156 C 100.316406 59.558594 102.421875 59.75 104.574219 58.355469 C 106.257812 57.289062 107.269531 53.945312 110.058594 55.351562 C 112.207031 56.4375 112.25 59.992188 110.058594 61.082031 C 108.160156 62.027344 107.011719 60.210938 105.390625 60.539062 C 102.476562 61.058594 104.171875 66.859375 105.316406 68.191406 C 106.167969 69.1875 107.265625 69.082031 108.433594 68.863281 C 110.910156 68.320312 113.191406 67.484375 115.742188 67.273438 C 118.179688 67.070312 120.003906 68.660156 122.238281 69.171875 C 126.941406 70.316406 134.558594 68.253906 135.839844 62.972656 C 136.042969 62.113281 136.449219 60.742188 135.75 60.015625 C 135.117188 59.371094 134.195312 59.613281 133.402344 59.453125 C 131.769531 59.125 130.539062 57.523438 130.832031 55.867188 C 131.332031 53.023438 135.148438 52.09375 136.773438 54.445312 C 137.9375 56.121094 136.417969 57.644531 136.820312 59.316406 C 137.023438 60.132812 137.933594 60.800781 138.34375 61.550781 C 139.289062 63.285156 139.871094 65.085938 140.210938 67.03125 C 141.113281 72.164062 139.769531 77.179688 136.835938 81.445312 C 135.191406 83.832031 132.3125 85.917969 131.839844 88.957031 C 131.304688 92.421875 133.847656 95.351562 134.179688 98.699219 C 134.3125 100.039062 134.085938 101.914062 133.546875 103.164062 C 133.25 103.835938 132.558594 104.234375 132.4375 104.996094 C 132.113281 107.023438 133.558594 108.964844 131.34375 110.554688 C 129.085938 112.179688 125.554688 109.660156 126.179688 107.023438 C 126.410156 106.050781 127.148438 104.949219 128.121094 104.632812 C 128.890625 104.382812 130.066406 104.5 130.554688 103.71875 C 131.113281 102.820312 130.40625 101.339844 129.925781 100.527344 C 128.492188 98.179688 126.339844 96.433594 123.453125 96.824219 C 122.167969 97 121.191406 97.992188 120.207031 98.75 C 119.191406 99.515625 117.664062 100.242188 116.878906 101.214844 C 115.378906 103.074219 116.132812 106.007812 116.140625 108.039062 C 116.144531 108.996094 115.402344 110.167969 115.679688 111.085938 C 116.089844 112.414062 118.503906 113.242188 119.597656 113.925781 C 121.683594 115.183594 123.320312 117.011719 124.394531 119.203125 C 126.347656 123.199219 125.648438 128.6875 126.886719 133.007812 C 127.980469 136.820312 129.667969 140.605469 131.371094 144.171875 C 132.261719 145.996094 133.457031 147.722656 134.011719 149.648438 Z M 66.207031 57.839844 C 67.222656 57.539062 67.542969 59.320312 66.585938 59.566406 C 65.503906 59.84375 65.175781 58.144531 66.207031 57.839844 Z M 59.507812 61.953125 L 59.304688 62.15625 Z M 60.320312 62.253906 C 62.273438 61.886719 61.910156 64.261719 60.117188 64.53125 C 58.15625 64.828125 58.890625 62.523438 60.320312 62.253906 Z M 50.839844 66.5625 C 52.589844 65.941406 53.257812 71.289062 51.964844 71.507812 C 50.84375 71.703125 49.5625 67.027344 50.839844 66.5625 Z M 49.765625 73.523438 C 48.140625 73.25 46.996094 69.316406 47.683594 67.894531 C 48.484375 66.238281 49.503906 68.777344 49.5625 69.464844 C 49.632812 70.003906 49.730469 70.542969 49.757812 71.085938 C 49.765625 71.898438 49.765625 72.714844 49.765625 73.523438 Z M 58.695312 67.433594 C 58.148438 69.261719 55.855469 70.015625 54.695312 71.328125 C 53.332031 72.828125 52.949219 75.261719 51.59375 76.914062 C 50.859375 77.863281 49.054688 78.316406 48.53125 79.113281 C 48.140625 79.679688 49.359375 79.9375 49.644531 80.222656 C 50.265625 80.832031 49.96875 82.1875 49.445312 82.746094 C 48.695312 83.507812 45.5 84.890625 44.546875 84.15625 C 43.738281 83.535156 43.519531 82.136719 43.175781 81.238281 C 42.941406 80.632812 42.457031 79.917969 42.558594 79.242188 C 42.644531 78.546875 44.179688 76.910156 44.894531 76.894531 C 45.496094 76.878906 45.867188 77.421875 46.507812 77.195312 C 47.578125 76.8125 47.328125 75.574219 47.984375 74.867188 C 49.019531 73.738281 50.246094 74.699219 50.578125 72.507812 C 54.121094 72.929688 54.972656 67.839844 58.695312 67.433594 Z M 64.582031 67.722656 C 67.425781 66.902344 68.964844 70.71875 66.199219 71.558594 C 63.71875 72.316406 62.09375 68.449219 64.582031 67.722656 Z M 55.449219 67.839844 C 55.296875 68.679688 54.824219 68.78125 54.027344 68.855469 C 54.175781 67.96875 54.601562 67.867188 55.449219 67.839844 Z M 45.171875 69.414062 C 45.820312 69.226562 46.160156 70.003906 46.304688 70.476562 C 46.601562 71.441406 47.789062 75.375 46.472656 75.90625 C 45.824219 76.167969 45.378906 75.433594 45.179688 74.945312 C 44.796875 74.003906 43.652344 69.871094 45.171875 69.414062 Z M 43.878906 76.769531 C 42.457031 76.304688 41.183594 73.117188 42.050781 71.753906 C 42.863281 70.476562 43.675781 72.148438 43.816406 72.914062 C 43.878906 73.453125 43.878906 74 43.964844 74.539062 C 44.066406 75.351562 44.023438 75.996094 43.878906 76.769531 Z M 123.453125 80.019531 C 123.453125 80.019531 122.191406 79.183594 120.726562 78.789062 C 119.59375 78.484375 118.320312 78.597656 117.566406 78.597656 C 117.71875 77.417969 118.417969 75.917969 117.972656 74.742188 C 116.535156 70.625 109.164062 73.320312 106.808594 74.699219 C 101.097656 78.0625 97.265625 85.207031 98.199219 91.796875 C 98.328125 92.703125 98.078125 93.527344 98.429688 94.433594 C 100.011719 98.496094 105.539062 98.097656 109.039062 97.71875 C 116.816406 96.867188 125.816406 88.179688 123.453125 80.019531 Z M 73.921875 73.417969 C 76.917969 72.664062 77.035156 77.023438 74.699219 77.527344 C 71.6875 78.191406 70.992188 74.15625 73.921875 73.417969 Z M 109.242188 82.253906 L 107.011719 84.484375 C 109.125 84.121094 111.851562 82.867188 112.78125 80.832031 C 113.710938 78.730469 111.78125 75.148438 109.445312 74.945312 C 109.980469 76.859375 113.839844 80.425781 110.257812 81.644531 C 110.257812 79.132812 109.851562 76.4375 106.808594 76.367188 C 107.695312 73.410156 115.332031 72.351562 117.214844 74.808594 C 118.167969 76.058594 116.277344 77.898438 117.453125 78.875 C 119.144531 80.277344 122.4375 78.507812 123.339844 81.644531 C 124.117188 84.355469 122.1875 87.328125 120.667969 89.359375 C 116.726562 94.664062 107.367188 100.191406 100.71875 96.054688 C 99.0625 94.992188 98.6875 92.808594 98.6875 90.980469 C 98.683594 87.042969 99.6875 84.339844 101.792969 81.035156 C 102.480469 79.953125 103.558594 77.484375 104.96875 77.210938 C 105.589844 77.085938 105.875 78.394531 106.058594 78.800781 C 106.730469 80.371094 107.519531 81.742188 109.242188 82.253906 Z M 41.886719 76.164062 C 42.605469 76.03125 43.0625 77.019531 42.863281 77.589844 C 42.59375 78.523438 40.871094 80.347656 39.855469 80.425781 C 39.210938 80.425781 38.398438 79.511719 38.71875 78.90625 C 39.042969 78.246094 41.195312 76.257812 41.886719 76.164062 Z M 82.855469 76.285156 C 85.535156 75.238281 86.960938 79.28125 84.664062 80.242188 C 81.910156 81.394531 80.351562 77.265625 82.855469 76.285156 Z M 109.511719 81.640625 C 109.367188 81.746094 109.230469 81.628906 108.988281 81.550781 C 108.75 81.472656 108.191406 80.882812 107.886719 80.539062 C 107.585938 80.195312 106.9375 79.253906 106.9375 79.253906 C 106.9375 79.253906 107.546875 79.457031 108.140625 78.921875 C 108.734375 78.386719 108.757812 77.765625 108.757812 77.765625 C 108.757812 77.765625 109.066406 78.117188 109.417969 79.171875 C 109.605469 79.742188 109.816406 80.835938 109.777344 81.078125 C 109.734375 81.320312 109.652344 81.535156 109.511719 81.640625 Z M 106.726562 77.113281 C 107.15625 76.6875 107.394531 76.859375 107.625 76.941406 C 107.851562 77.019531 108.40625 77.34375 108.40625 77.34375 C 108.40625 77.34375 107.917969 77.273438 107.355469 77.78125 C 106.792969 78.289062 106.765625 78.730469 106.765625 78.730469 C 106.765625 78.730469 106.515625 78.191406 106.480469 77.914062 C 106.433594 77.527344 106.296875 77.542969 106.726562 77.113281 Z M 31.699219 86.71875 C 29.382812 85.246094 33.640625 81.945312 35.351562 81.539062 C 37.554688 81.035156 36 83.46875 35.351562 83.992188 C 34.890625 84.378906 34.414062 84.753906 33.929688 85.117188 C 33.199219 85.664062 32.425781 86.160156 31.699219 86.71875 Z M 115.128906 83.46875 L 118.175781 85.101562 L 120.613281 86.921875 C 120.460938 84.128906 117.640625 82.730469 115.128906 83.46875 Z M 100.71875 87.125 L 103.152344 83.875 C 101.460938 83.988281 100.304688 85.433594 100.71875 87.125 Z M 47.328125 84.347656 C 50.5 83.820312 49.335938 88.757812 49.121094 90.777344 C 48.75 93.96875 48.546875 97.117188 48.324219 100.320312 C 48.25 101.425781 47.734375 102.6875 47.835938 103.769531 C 47.980469 105.597656 49.460938 105.464844 50.046875 106.675781 C 50.574219 107.777344 50.085938 109.734375 49.878906 110.875 C 49.539062 112.765625 48.476562 117.941406 46.292969 118.523438 C 45.355469 118.792969 44.351562 118.320312 43.46875 118.066406 C 41.234375 117.429688 37.582031 116.988281 37.242188 114.125 C 37.03125 112.429688 37.71875 110.332031 37.960938 108.640625 C 38.773438 103 40.476562 97.476562 42.019531 91.996094 C 42.863281 88.972656 43.664062 84.957031 47.328125 84.347656 Z M 113.507812 85.703125 L 112.492188 85.703125 C 112.683594 88.367188 116.238281 90.023438 118.582031 90.371094 C 118.578125 89.050781 118.523438 86.761719 117.511719 85.789062 C 116.527344 84.839844 113.832031 83.71875 113.507812 85.703125 Z M 110.664062 92.199219 L 109.242188 94.433594 C 112.859375 93.867188 111.476562 90.585938 110.460938 88.34375 C 109.445312 89.3125 110.371094 90.09375 110.664062 91.183594 C 108.691406 90.886719 106.695312 88.753906 105.386719 87.328125 C 104.929688 86.796875 104.371094 85.425781 103.558594 85.425781 C 101.269531 85.425781 101.683594 90.035156 102.644531 91.140625 C 104.339844 93.078125 108.433594 92.613281 110.664062 92.199219 Z M 107.621094 85.5 C 107.417969 86.851562 108.835938 87.601562 110.054688 87.734375 C 109.953125 86.410156 108.761719 85.90625 107.621094 85.5 Z M 103.558594 86.3125 L 108.230469 91.589844 C 105.652344 91.589844 101.363281 89.558594 103.558594 86.3125 Z M 113.890625 85.847656 C 114.070312 85.523438 114.472656 85.140625 115.039062 85.082031 C 115.609375 85.082031 116.046875 85.496094 116.046875 85.496094 C 116.046875 85.496094 115.371094 85.671875 114.886719 86.207031 C 114.402344 86.746094 114.285156 87.734375 114.285156 87.734375 C 113.71875 87.617188 113.617188 86.417969 113.890625 85.847656 Z M 116.140625 87.429688 C 116.699219 86.890625 116.6875 86.050781 116.6875 86.050781 C 116.6875 86.050781 117.316406 86.507812 117.617188 87.347656 C 117.921875 88.203125 118.191406 89.199219 117.890625 89.5 C 117.589844 89.800781 116.550781 89.3125 115.902344 89.015625 C 115.371094 88.769531 114.730469 88.121094 114.730469 88.121094 C 114.730469 88.121094 115.617188 87.941406 116.140625 87.429688 Z M 27.636719 88.0625 C 28.972656 87.992188 28.519531 89.558594 27.433594 89.648438 C 26.296875 89.769531 26.597656 88.140625 27.636719 88.0625 Z M 99.648438 101.746094 C 99.171875 102.199219 99.996094 102.792969 100.3125 102.984375 C 101.175781 103.46875 103.152344 104.378906 104.035156 103.417969 C 104.851562 102.519531 100.273438 101.15625 99.648438 101.746094 Z M 90.566406 102.957031 C 91.785156 108.195312 97.859375 110.945312 102.542969 112.042969 C 104.371094 112.5 107.484375 112.828125 108.835938 111.28125 C 104.691406 110.207031 100.898438 110.265625 97.0625 107.910156 C 95.03125 106.675781 92.898438 103.160156 90.566406 102.957031 Z M 57.265625 112.078125 C 54.320312 123.730469 49.320312 133.285156 42.144531 139.410156 C 39.761719 141.449219 37.25 142.339844 34.132812 142.339844 C 33.492188 142.339844 31.699219 142.648438 31.425781 141.871094 C 31.074219 140.945312 37.957031 135.277344 40.105469 133.003906 C 44.738281 127.992188 48.070312 122.265625 50.375 115.949219 C 51.59375 112.664062 52.800781 109.351562 52.808594 105.800781 C 53.609375 105.800781 57.582031 108.007812 57.265625 112.078125 Z M 57.480469 115.339844 L 58.492188 109.25 L 56.464844 106.003906 C 57.679688 106.335938 58.660156 107.6875 59.914062 107.832031 C 61.945312 108.046875 63.976562 105.613281 66.09375 107.78125 C 66.691406 108.402344 66.460938 109.386719 66.09375 110.0625 C 64.488281 113.019531 62.351562 110.9375 60.320312 112.335938 C 59.175781 113.125 58.777344 114.933594 57.480469 115.339844 Z M 32.308594 136.859375 C 31.175781 136.5 34.65625 125.550781 35.347656 123.699219 C 35.890625 122.246094 36.773438 119.75 37.914062 118.664062 C 38.527344 118.070312 39.949219 118.265625 40.101562 119.210938 C 40.3125 120.527344 38.746094 122.261719 38.28125 123.460938 C 36.808594 127.257812 35.699219 130.898438 34.71875 134.828125 C 34.4375 135.945312 33.441406 137.21875 32.308594 136.859375 Z M 87.523438 130.027344 C 89.613281 129.617188 91.558594 131.214844 90.566406 133.410156 C 90.03125 134.625 87.804688 135.863281 86.507812 136.113281 C 85.394531 136.332031 85.171875 134.625 85.0625 133.816406 C 84.824219 132.109375 85.695312 130.382812 87.523438 130.027344 Z M 89.753906 160.8125 C 89.351562 159.390625 91.308594 156.476562 91.945312 155.128906 C 94.136719 150.484375 96.65625 145.75 98.425781 140.917969 C 99.019531 139.296875 97.265625 137.484375 97.832031 135.640625 C 98.324219 133.960938 100.445312 132.800781 102.078125 133.671875 C 103.757812 134.589844 103.433594 136.65625 102.300781 137.871094 C 101.492188 138.714844 100.195312 138.984375 99.5 139.941406 C 98.28125 141.617188 97.570312 143.910156 96.707031 145.789062 C 94.417969 150.765625 92.394531 156.027344 89.753906 160.8125 Z M 86.304688 137.671875 L 83.527344 144.574219 L 77.371094 158.378906 L 77.167969 158.378906 C 77.441406 155.332031 83.828125 140.738281 86.304688 137.671875 Z M 86.304688 140.308594 C 86.304688 140.308594 81.359375 156.363281 78.589844 158.175781 L 83.582031 146.601562 Z M 99.90625 141.527344 L 97.757812 147.007812 L 91.582031 160.40625 L 91.378906 160.40625 C 92.089844 156.414062 94.90625 152.117188 96.59375 148.429688 C 97.601562 146.230469 98.355469 143.402344 99.90625 141.527344 Z M 96.453125 142.949219 L 88.132812 161.21875 L 87.929688 161.21875 C 87.726562 159.722656 89.144531 157.6875 89.804688 156.347656 C 91.332031 153.300781 92.671875 150.101562 94.167969 147.007812 C 94.832031 145.640625 95.273438 143.964844 96.453125 142.949219 Z M 100.109375 144.574219 C 99.703125 148.292969 96.730469 152.746094 95.175781 156.144531 C 94.621094 157.363281 94.144531 159.257812 93.003906 160 L 97.515625 149.851562 Z M 86.304688 144.980469 L 82.734375 153.300781 L 80.214844 158.582031 C 80.011719 157.019531 81.367188 154.882812 82.042969 153.503906 C 83.460938 150.761719 84.679688 147.828125 85.898438 144.980469 Z M 100.3125 146.199219 C 100.632812 147.96875 99.769531 149.289062 99.066406 150.867188 C 97.828125 153.644531 95.769531 156.808594 95.238281 159.796875 C 96.996094 159.796875 97.46875 158.652344 98.132812 157.160156 C 99.234375 154.640625 101.105469 151.980469 101.53125 149.242188 L 101.328125 149.242188 L 96.65625 159.390625 L 96.453125 159.390625 C 96.949219 156.042969 99.421875 151.753906 101.125 148.835938 C 101.125 148.835938 102.382812 149.851562 102.746094 149.851562 C 103.113281 149.851562 104.433594 149.5 107.125 148.382812 C 107.484375 148.265625 114.082031 146.199219 113.253906 147.476562 C 113 147.878906 111.917969 147.570312 111.476562 147.820312 C 111.476562 147.820312 106.277344 148.695312 106.648438 150.460938 C 107.210938 153.179688 109.589844 155.566406 110.257812 158.378906 C 112.011719 165.484375 110.15625 172.808594 108.496094 179.691406 C 107.734375 182.847656 106.457031 186.390625 104.914062 189.234375 C 104.0625 190.8125 102.308594 192.597656 101.882812 194.308594 C 101.710938 194.988281 101.324219 196.492188 101.492188 197.152344 C 101.691406 197.996094 102.480469 198.820312 102.328125 199.753906 C 102.042969 201.492188 100.566406 202.121094 101.023438 204.253906 C 101.121094 204.742188 101.308594 205.21875 101.5 205.675781 C 102.746094 208.722656 104.339844 205.949219 106.601562 205.183594 C 107.105469 205.015625 107.871094 204.667969 108.363281 205.011719 C 109.78125 206 107.554688 208.519531 106.59375 208.925781 C 105.761719 209.292969 104.128906 210.011719 103.230469 209.613281 C 101.519531 208.859375 100.671875 205.101562 100.550781 203.445312 C 100.480469 202.460938 100.96875 201.363281 100.59375 200.410156 C 100.308594 199.710938 99.496094 199.460938 99.242188 198.773438 C 98.890625 197.925781 99.394531 197.007812 99.167969 196.136719 C 98.6875 194.332031 97.664062 192.683594 97.152344 190.859375 C 96.125 187.242188 95.828125 183.417969 95.472656 179.691406 C 95.238281 177.277344 95.496094 174.617188 95.644531 172.179688 C 95.730469 171.179688 96.117188 169.949219 95.722656 168.945312 C 95.125 167.457031 92.191406 168.121094 91.175781 168.730469 L 90.972656 168.730469 C 90.121094 168.386719 89.621094 168.664062 89.351562 169.542969 L 89.148438 169.542969 C 88.539062 168.433594 87.222656 168.75 86.304688 169.339844 L 84.679688 169.339844 C 83.664062 169.003906 81.839844 169.949219 81.230469 170.761719 C 80.417969 170.480469 79.996094 170.566406 79.402344 171.167969 L 74.53125 171.976562 C 75.390625 170.46875 78.058594 170.425781 79.605469 170.152344 C 81.105469 169.847656 84.542969 169.042969 85.492188 167.832031 C 86.507812 166.59375 86.597656 163.675781 86.304688 162.234375 L 86.914062 161.625 C 88.269531 161.835938 91.222656 161.179688 92.191406 160.203125 L 93.410156 160.609375 L 93.816406 159.796875 L 94.019531 159.796875 L 94.832031 160.203125 C 94.832031 158.175781 96.171875 156.152344 97.03125 154.316406 C 98.28125 151.640625 99.355469 148.949219 100.3125 146.199219 Z M 93.207031 146.402344 L 90.949219 151.679688 L 86.304688 161.828125 L 86.101562 161.828125 L 90.484375 151.882812 Z M 28.3125 147.132812 C 29.855469 146.40625 33.523438 148.960938 33.238281 150.664062 C 33.019531 151.976562 31.949219 151.332031 31.195312 151.828125 C 30.78125 152.097656 30.609375 152.636719 30.171875 152.894531 C 27.527344 154.347656 26.367188 148.046875 28.3125 147.132812 Z M 86.507812 147.210938 C 86.359375 150.09375 83.988281 153.542969 82.761719 156.144531 C 82.308594 157.105469 81.960938 158.421875 81.027344 158.988281 C 82.042969 155.386719 84.253906 150.195312 86.507812 147.210938 Z M 102.542969 194.714844 C 103.011719 192.140625 105.589844 189.734375 106.585938 187.203125 C 109.109375 180.707031 111.179688 173.6875 111.660156 166.699219 C 111.878906 163.558594 111.785156 160.125 110.625 157.160156 C 109.84375 155.167969 107.734375 152.539062 107.542969 150.464844 C 107.40625 149 111.191406 148.238281 112.289062 148.335938 C 113.660156 148.453125 113.964844 150.203125 114.296875 151.273438 C 115.273438 154.414062 115.859375 157.566406 116.203125 160.8125 C 117.03125 168.730469 112.109375 183.351562 111.550781 184.765625 C 110.996094 186.183594 106.863281 192.703125 102.542969 194.714844 Z M 114.117188 148.226562 C 118.046875 153.753906 118.152344 163.726562 117.074219 170.152344 C 116.675781 172.519531 116.332031 174.925781 115.738281 177.257812 C 115.582031 178.011719 114.929688 179.496094 115.261719 180.242188 C 115.664062 181.164062 116.753906 179.894531 117.03125 179.488281 C 118.226562 177.867188 118.859375 175.835938 119.75 174.007812 C 122.738281 167.941406 124.785156 160.929688 125.074219 154.113281 L 125.277344 154.113281 C 125.277344 163.488281 121.597656 173.6875 116.59375 181.519531 C 114.699219 184.488281 112.792969 187.566406 109.851562 189.640625 C 114.078125 181.941406 118.171875 166.492188 116.519531 157.855469 C 116.042969 155.347656 114.117188 148.226562 114.117188 148.226562 Z M 90.566406 148.835938 C 89.695312 152.914062 86.875 157.242188 85.085938 161.015625 L 84.882812 161.015625 L 88.867188 152.085938 Z M 104.371094 148.835938 L 104.371094 149.039062 L 103.761719 149.039062 Z M 87.523438 149.039062 L 82.652344 159.59375 L 83.664062 160 L 87.246094 152.289062 L 88.945312 149.242188 L 83.867188 160.40625 L 82.59375 159.347656 L 84.273438 155.296875 L 87.117188 149.039062 Z M 106.398438 152.300781 C 104.777344 152.515625 101.730469 157.917969 104.371094 157.730469 C 106.046875 157.613281 107.335938 156.609375 107.578125 154.925781 C 107.691406 154.125 107.679688 152.128906 106.398438 152.300781 Z M 106.605469 152.894531 C 107.8125 155.15625 106.199219 156.867188 103.964844 157.160156 C 104.136719 155.480469 105.183594 153.8125 106.605469 152.894531 Z M 86.304688 163.453125 L 86.304688 163.65625 C 85.457031 164.625 85.808594 166.828125 84.964844 167.511719 C 82.34375 169.617188 77.636719 169.542969 74.53125 170.664062 C 71.167969 171.910156 68.421875 174.863281 64.785156 175.429688 C 65.960938 173.195312 70.523438 173.230469 71.128906 170.566406 C 71.421875 169.289062 69.144531 169.5 68.441406 169.578125 C 65.140625 169.949219 62.070312 171.183594 58.695312 170.558594 L 58.695312 170.355469 L 69.863281 167.917969 C 69.148438 165.683594 67.351562 166.433594 65.589844 166.496094 C 63.363281 166.535156 60.214844 166.519531 58.085938 165.886719 L 58.085938 165.683594 C 60.453125 164.679688 63.285156 164.875 65.800781 164.875 C 66.613281 164.875 68.511719 165.09375 69.050781 164.351562 C 69.820312 163.359375 67.285156 163.074219 66.816406 162.925781 C 64.152344 162.089844 61.09375 161.625 58.289062 161.625 C 58.6875 160.5 59.953125 160.933594 60.929688 160.863281 C 63.765625 160.652344 66.292969 161.421875 69.050781 161.625 C 69.964844 161.675781 72.355469 161.96875 72.492188 160.609375 C 72.570312 159.824219 71.613281 159.296875 71.078125 158.917969 C 69.863281 158.074219 68.152344 157.097656 68.035156 155.535156 L 75.140625 158.988281 L 82.042969 160.609375 Z M 101.328125 159.554688 C 98.378906 160.53125 95.226562 161.175781 92.191406 161.832031 C 90.972656 162.085938 89.425781 161.886719 88.371094 162.582031 C 87.117188 163.402344 86.421875 165.890625 87.0625 167.265625 C 87.695312 168.609375 90.847656 167.773438 91.988281 167.71875 C 96.050781 167.515625 100.3125 167.375 104.371094 166.847656 C 105.5625 166.703125 107.621094 166.90625 108.546875 166.007812 C 109.851562 164.714844 109.265625 159.3125 108.453125 157.820312 C 107.902344 156.800781 102.859375 159.046875 101.328125 159.554688 Z M 107.40625 158.304688 C 108.160156 158.378906 108.359375 159.191406 108.414062 159.796875 C 108.527344 161.117188 109.089844 164.566406 107.9375 165.511719 C 106.933594 166.335938 104.773438 165.957031 103.542969 166.117188 C 99.777344 166.605469 95.792969 166.808594 91.988281 166.90625 C 90.832031 166.9375 89.089844 167.519531 87.992188 166.984375 C 86.472656 166.234375 88.335938 163.414062 89.351562 163.0625 C 93.0625 161.761719 97.316406 161.648438 101.125 160.429688 C 102.925781 159.855469 105.5 158.175781 107.40625 158.304688 Z M 101.9375 167.832031 C 100.402344 168.28125 100.578125 170.886719 100.515625 172.179688 C 100.3125 176.769531 100.515625 181.410156 100.71875 185.984375 C 100.761719 186.835938 100.839844 191.324219 102.21875 190.886719 C 103.457031 190.5 104.167969 187.703125 104.488281 186.59375 C 105.035156 184.613281 104.167969 181.941406 104 179.894531 C 103.753906 177.300781 103.964844 174.617188 103.964844 171.976562 C 103.964844 170.417969 104.566406 167.058594 101.9375 167.832031 Z M 102.34375 190.25 C 101.328125 189.640625 101.519531 187.308594 101.386719 186.1875 C 100.882812 181.957031 101.125 177.664062 101.125 173.398438 C 101.125 172.382812 100.890625 169.011719 101.996094 168.527344 C 104.167969 167.515625 103.121094 172.667969 103.238281 173.601562 C 103.546875 176.039062 103.207031 178.480469 103.355469 180.910156 C 103.480469 182.414062 104.222656 184.085938 104.054688 185.578125 C 103.871094 187.238281 102.660156 188.648438 102.34375 190.25 Z M 87.320312 169.136719 L 86.914062 170.355469 L 86.710938 170.355469 Z M 88.742188 169.136719 L 88.539062 170.152344 L 88.335938 170.152344 Z M 84.070312 169.542969 L 83.664062 170.761719 L 83.460938 170.761719 Z M 85.492188 169.542969 L 84.882812 171.371094 L 84.679688 171.371094 Z M 82.449219 170.355469 L 82.449219 170.558594 L 81.839844 171.371094 Z M 80.417969 170.964844 L 79.402344 173.398438 L 79.199219 173.398438 Z M 83.460938 170.964844 L 83.261719 171.777344 L 83.058594 171.777344 Z M 78.589844 171.574219 L 77.777344 173.601562 L 77.574219 173.601562 Z M 81.636719 171.574219 L 81.027344 173.195312 L 80.824219 173.195312 Z M 76.96875 171.777344 L 76.359375 173.398438 L 76.15625 173.398438 L 76.5625 171.777344 Z M 75.140625 172.179688 L 75.140625 172.789062 L 74.9375 172.789062 Z M 73.3125 172.992188 L 72.5 175.226562 L 72.296875 175.226562 Z M 76.15625 173.601562 L 75.953125 173.804688 Z M 71.484375 173.804688 L 70.269531 176.648438 L 70.066406 176.648438 Z M 69.660156 174.617188 L 66.816406 181.113281 L 66.613281 181.113281 C 66.867188 179.417969 68.160156 175.53125 69.660156 174.617188 Z M 102.949219 206.691406 C 101.734375 205.601562 100.515625 199.875 103.558594 200.414062 C 104.328125 200.546875 107.65625 203.34375 107.175781 204.125 C 106.898438 204.578125 105.84375 204.660156 105.386719 204.863281 C 104.417969 205.269531 103.640625 205.90625 102.949219 206.691406 Z M 102.949219 206.691406 "/>
<path fill-rule="nonzero" fill="rgb(90.196078%, 9.411765%, 3.921569%)" fill-opacity="1" d="M 41.59375 168.3125 C 39.648438 172.601562 43.59375 178.171875 43.617188 182.28125 C 46.753906 179.625 53.542969 178.984375 55.535156 174.714844 C 56.464844 172.695312 55.652344 170.335938 53.730469 169.460938 C 51.800781 168.582031 49.484375 169.492188 48.5625 171.511719 C 49.488281 169.484375 48.679688 167.136719 46.761719 166.257812 C 44.835938 165.371094 42.523438 166.292969 41.59375 168.3125 Z M 41.59375 168.3125 "/>
<path fill-rule="nonzero" fill="rgb(90.196078%, 9.411765%, 3.921569%)" fill-opacity="1" d="M 58.695312 195.003906 C 56.21875 195.640625 53.742188 196.277344 51.261719 196.914062 C 52.101562 196.660156 52.679688 195.925781 53.242188 195.296875 C 54.476562 193.753906 55.566406 192.0625 56.300781 190.222656 C 56.625 189.308594 56.957031 188.292969 56.71875 187.316406 M 51.261719 196.914062 C 52.347656 196.671875 53.441406 197.121094 54.421875 197.539062 C 56.179688 198.382812 57.804688 199.507812 59.265625 200.796875 C 59.820312 201.347656 60.453125 201.914062 60.675781 202.6875 C 60.015625 200.125 59.355469 197.566406 58.695312 195.003906 M 60.675781 202.6875 C 60.417969 201.535156 60.859375 200.363281 61.289062 199.3125 C 62.085938 197.546875 63.144531 195.894531 64.394531 194.421875 C 64.894531 193.898438 65.410156 193.292969 66.132812 193.089844 C 63.652344 193.726562 61.175781 194.367188 58.695312 195.003906 M 66.132812 193.089844 C 65.046875 193.332031 63.953125 192.886719 62.972656 192.464844 C 61.214844 191.621094 59.589844 190.5 58.128906 189.207031 C 57.574219 188.660156 56.941406 188.089844 56.71875 187.316406 C 57.378906 189.878906 58.039062 192.441406 58.695312 195.003906 "/>
<path fill-rule="nonzero" fill="rgb(0%, 0%, 0%)" fill-opacity="1" d="M 86.835938 194.417969 C 85.957031 196 83.925781 196.554688 82.289062 195.648438 C 80.652344 194.738281 80.042969 192.722656 80.921875 191.136719 C 81.800781 189.554688 83.832031 189 85.46875 189.90625 C 87.105469 190.8125 87.714844 192.832031 86.835938 194.417969 Z M 86.835938 194.417969 "/>
<path fill-rule="nonzero" fill="rgb(0%, 0%, 0%)" fill-opacity="1" d="M 87.640625 201.964844 C 86.761719 203.546875 84.726562 204.101562 83.089844 203.195312 C 81.453125 202.289062 80.847656 200.269531 81.722656 198.6875 C 82.601562 197.101562 84.636719 196.546875 86.273438 197.457031 C 87.910156 198.363281 88.515625 200.382812 87.640625 201.964844 Z M 87.640625 201.964844 "/>
<path fill-rule="nonzero" fill="rgb(0%, 0%, 0%)" fill-opacity="1" d="M 80.050781 197.78125 C 79.730469 198.359375 79.257812 198.804688 78.699219 199.089844 C 77.742188 199.578125 76.535156 199.585938 75.503906 199.011719 C 73.867188 198.105469 73.257812 196.085938 74.136719 194.503906 C 75.015625 192.917969 77.050781 192.367188 78.6875 193.273438 C 80.320312 194.179688 80.929688 196.199219 80.050781 197.78125 Z M 80.050781 197.78125 "/>
<path fill-rule="nonzero" fill="rgb(0%, 0%, 0%)" fill-opacity="1" d="M 81.242188 205.726562 C 79.78125 204.917969 79.671875 203.300781 79.925781 201.886719 C 80.183594 200.472656 80.808594 199.265625 80.808594 199.265625 L 80.054688 198.847656 C 80.054688 198.847656 77.28125 203.523438 74.355469 201.910156 Z M 81.242188 205.726562 "/>
<path fill-rule="nonzero" fill="rgb(0%, 0%, 0%)" fill-opacity="1" d="M 80.707031 193.773438 C 81.445312 196.359375 80.066406 198.851562 80.066406 198.851562 L 80.804688 199.273438 C 80.804688 199.273438 82.214844 196.726562 84.730469 196.007812 "/>
<path fill-rule="nonzero" fill="rgb(0%, 0%, 0%)" fill-opacity="1" d="M 78.082031 199.296875 C 80.664062 198.554688 83.15625 199.9375 83.15625 199.9375 L 83.570312 199.195312 C 83.570312 199.195312 81.023438 197.78125 80.300781 195.265625 "/>
<path fill-rule="nonzero" fill="rgb(0%, 0%, 0%)" fill-opacity="1" d="M 81.410156 201.152344 C 80.667969 198.570312 78.175781 197.1875 78.175781 197.1875 L 78.585938 196.445312 C 78.585938 196.445312 81.132812 197.855469 83.648438 197.132812 "/>
<path fill-rule="nonzero" fill="rgb(0%, 0%, 0%)" fill-opacity="1" d="M 63.273438 156.285156 C 61.667969 156.746094 60.332031 155.28125 59.394531 153.695312 C 58.460938 152.113281 57.929688 150.414062 57.929688 150.414062 L 57.109375 150.640625 C 57.109375 150.640625 58.929688 157.535156 55.71875 158.460938 Z M 63.273438 156.285156 "/>
<path fill-rule="nonzero" fill="rgb(0%, 0%, 0%)" fill-opacity="1" d="M 64.019531 148.648438 C 63.046875 145.316406 57.34375 144.335938 55.113281 142.128906 C 54.40625 145.195312 50.097656 149.058594 51.042969 152.386719 C 51.5 153.964844 53.320312 154.824219 55.117188 154.304688 C 56.902344 153.789062 57.984375 152.09375 57.53125 150.519531 C 57.984375 152.09375 59.804688 152.953125 61.601562 152.4375 C 63.398438 151.917969 64.472656 150.222656 64.019531 148.648438 Z M 64.019531 148.648438 "/>
<path fill-rule="nonzero" fill="rgb(90.196078%, 9.411765%, 3.921569%)" fill-opacity="1" d="M 8.460938 31.617188 L 8.460938 28.671875 L 9.171875 28.671875 C 9.195312 29.449219 9.273438 30.023438 9.414062 30.390625 C 9.558594 30.765625 9.769531 30.957031 10.054688 30.957031 C 10.40625 30.957031 10.648438 30.636719 10.789062 30.007812 C 10.933594 29.382812 11.007812 28.214844 11.007812 26.496094 L 11.007812 9.867188 L 9.8125 9.867188 L 9.8125 8.347656 L 14.195312 8.347656 L 14.195312 9.867188 L 13.136719 9.867188 L 13.136719 26.605469 C 13.136719 28.640625 12.914062 30.125 12.464844 31.066406 C 12.015625 32.003906 11.300781 32.476562 10.316406 32.476562 C 10.011719 32.476562 9.707031 32.402344 9.398438 32.257812 C 9.09375 32.121094 8.78125 31.910156 8.460938 31.617188 Z M 19.53125 25.964844 C 20.230469 25.964844 20.75 25.289062 21.09375 23.933594 C 21.433594 22.582031 21.605469 20.523438 21.605469 17.75 C 21.605469 14.972656 21.433594 12.902344 21.09375 11.550781 C 20.75 10.195312 20.230469 9.519531 19.53125 9.519531 C 18.832031 9.519531 18.308594 10.207031 17.960938 11.570312 C 17.617188 12.9375 17.449219 15 17.449219 17.75 C 17.449219 20.496094 17.617188 22.554688 17.960938 23.914062 C 18.308594 25.28125 18.832031 25.964844 19.53125 25.964844 Z M 19.53125 27.480469 C 18.140625 27.480469 17.054688 26.621094 16.269531 24.902344 C 15.484375 23.175781 15.09375 20.789062 15.09375 17.75 C 15.09375 14.714844 15.484375 12.332031 16.269531 10.597656 C 17.058594 8.871094 18.148438 8 19.53125 8 C 20.914062 8 21.996094 8.871094 22.78125 10.597656 C 23.566406 12.320312 23.960938 14.707031 23.960938 17.75 C 23.960938 20.789062 23.5625 23.175781 22.773438 24.902344 C 21.988281 26.621094 20.910156 27.480469 19.53125 27.480469 Z M 24.972656 27.117188 L 24.972656 25.597656 L 26.023438 25.597656 L 26.023438 9.867188 L 24.972656 9.867188 L 24.972656 8.347656 L 29.203125 8.347656 L 29.203125 9.867188 L 28.144531 9.867188 L 28.144531 16.707031 L 31.628906 9.867188 L 30.75 9.867188 L 30.75 8.347656 L 33.816406 8.347656 L 33.816406 9.867188 L 32.71875 9.867188 L 29.769531 15.664062 L 33.785156 25.597656 L 34.59375 25.597656 L 34.59375 27.117188 L 31.804688 27.117188 L 28.144531 18.007812 L 28.144531 25.597656 L 29.203125 25.597656 L 29.203125 27.117188 Z M 34.773438 27.117188 L 34.773438 25.597656 L 35.824219 25.597656 L 35.824219 9.867188 L 34.773438 9.867188 L 34.773438 8.347656 L 42.167969 8.347656 L 42.167969 12.777344 L 41.40625 12.777344 L 41.40625 10.070312 L 37.945312 10.070312 L 37.945312 16.085938 L 40.101562 16.085938 L 40.101562 13.691406 L 40.855469 13.691406 L 40.855469 20.183594 L 40.101562 20.183594 L 40.101562 17.804688 L 37.945312 17.804688 L 37.945312 25.398438 L 41.511719 25.398438 L 41.511719 22.691406 L 42.265625 22.691406 L 42.265625 27.117188 Z M 48.824219 17.953125 C 49.15625 18.0625 49.429688 18.3125 49.648438 18.703125 C 49.875 19.082031 50.066406 19.636719 50.234375 20.367188 L 51.433594 25.597656 L 52.277344 25.597656 L 52.277344 27.117188 L 49.578125 27.117188 L 48.261719 21.445312 C 48.011719 20.277344 47.796875 19.535156 47.613281 19.214844 C 47.4375 18.886719 47.191406 18.71875 46.878906 18.71875 L 46.542969 18.71875 L 46.542969 25.597656 L 47.597656 25.597656 L 47.597656 27.117188 L 43.371094 27.117188 L 43.371094 25.597656 L 44.417969 25.597656 L 44.417969 9.867188 L 43.371094 9.867188 L 43.371094 8.347656 L 48.0625 8.347656 C 49.019531 8.347656 49.753906 8.789062 50.273438 9.667969 C 50.789062 10.535156 51.050781 11.769531 51.050781 13.378906 C 51.050781 14.6875 50.867188 15.722656 50.5 16.488281 C 50.128906 17.25 49.570312 17.734375 48.824219 17.953125 Z M 46.542969 17.203125 L 47.261719 17.203125 C 47.773438 17.203125 48.167969 16.886719 48.449219 16.25 C 48.722656 15.621094 48.863281 14.710938 48.863281 13.527344 C 48.863281 12.347656 48.722656 11.441406 48.449219 10.820312 C 48.167969 10.1875 47.773438 9.867188 47.261719 9.867188 L 46.542969 9.867188 Z M 9.285156 2.933594 "/>
<path fill-rule="nonzero" fill="rgb(90.196078%, 9.411765%, 3.921569%)" fill-opacity="1" d="M 160.617188 213.023438 L 160.617188 215.96875 L 159.902344 215.96875 C 159.878906 215.191406 159.800781 214.613281 159.664062 214.25 C 159.519531 213.875 159.304688 213.683594 159.019531 213.683594 C 158.667969 213.683594 158.425781 214.003906 158.285156 214.632812 C 158.140625 215.253906 158.066406 216.425781 158.066406 218.144531 L 158.066406 234.773438 L 159.261719 234.773438 L 159.261719 236.289062 L 154.878906 236.289062 L 154.878906 234.773438 L 155.9375 234.773438 L 155.9375 218.035156 C 155.9375 216 156.160156 214.515625 156.609375 213.574219 C 157.058594 212.636719 157.777344 212.164062 158.757812 212.164062 C 159.0625 212.164062 159.371094 212.238281 159.679688 212.382812 C 159.984375 212.519531 160.292969 212.730469 160.617188 213.023438 Z M 149.542969 218.675781 C 148.84375 218.675781 148.324219 219.351562 147.980469 220.707031 C 147.640625 222.058594 147.46875 224.117188 147.46875 226.890625 C 147.46875 229.667969 147.640625 231.734375 147.980469 233.089844 C 148.324219 234.441406 148.84375 235.121094 149.542969 235.121094 C 150.246094 235.121094 150.765625 234.433594 151.113281 233.070312 C 151.457031 231.703125 151.625 229.640625 151.625 226.890625 C 151.625 224.144531 151.457031 222.085938 151.113281 220.722656 C 150.765625 219.355469 150.246094 218.675781 149.542969 218.675781 Z M 149.542969 217.15625 C 150.933594 217.15625 152.019531 218.015625 152.804688 219.738281 C 153.589844 221.464844 153.980469 223.851562 153.980469 226.890625 C 153.980469 229.925781 153.589844 232.308594 152.804688 234.039062 C 152.015625 235.769531 150.925781 236.636719 149.542969 236.636719 C 148.164062 236.636719 147.078125 235.769531 146.292969 234.039062 C 145.507812 232.320312 145.113281 229.933594 145.113281 226.890625 C 145.113281 223.851562 145.511719 221.464844 146.300781 219.738281 C 147.085938 218.015625 148.167969 217.15625 149.542969 217.15625 Z M 144.101562 217.523438 L 144.101562 219.042969 L 143.050781 219.042969 L 143.050781 234.773438 L 144.101562 234.773438 L 144.101562 236.289062 L 139.871094 236.289062 L 139.871094 234.773438 L 140.929688 234.773438 L 140.929688 227.929688 L 137.445312 234.773438 L 138.328125 234.773438 L 138.328125 236.289062 L 135.257812 236.289062 L 135.257812 234.773438 L 136.355469 234.773438 L 139.304688 228.972656 L 135.289062 219.042969 L 134.480469 219.042969 L 134.480469 217.523438 L 137.269531 217.523438 L 140.929688 226.632812 L 140.929688 219.042969 L 139.871094 219.042969 L 139.871094 217.523438 Z M 134.300781 217.523438 L 134.300781 219.042969 L 133.25 219.042969 L 133.25 234.773438 L 134.300781 234.773438 L 134.300781 236.289062 L 126.90625 236.289062 L 126.90625 231.863281 L 127.667969 231.863281 L 127.667969 234.570312 L 131.128906 234.570312 L 131.128906 228.554688 L 128.972656 228.554688 L 128.972656 230.949219 L 128.21875 230.949219 L 128.21875 224.457031 L 128.972656 224.457031 L 128.972656 226.835938 L 131.128906 226.835938 L 131.128906 219.242188 L 127.5625 219.242188 L 127.5625 221.949219 L 126.8125 221.949219 L 126.8125 217.523438 Z M 120.25 226.6875 C 119.921875 226.578125 119.644531 226.328125 119.425781 225.9375 C 119.203125 225.558594 119.007812 225.003906 118.839844 224.273438 L 117.640625 219.042969 L 116.796875 219.042969 L 116.796875 217.523438 L 119.496094 217.523438 L 120.8125 223.195312 C 121.0625 224.363281 121.28125 225.105469 121.460938 225.425781 C 121.636719 225.753906 121.882812 225.917969 122.195312 225.917969 L 122.535156 225.917969 L 122.535156 219.042969 L 121.476562 219.042969 L 121.476562 217.523438 L 125.707031 217.523438 L 125.707031 219.042969 L 124.65625 219.042969 L 124.65625 234.773438 L 125.707031 234.773438 L 125.707031 236.289062 L 121.011719 236.289062 C 120.054688 236.289062 119.320312 235.851562 118.800781 234.972656 C 118.285156 234.105469 118.023438 232.871094 118.023438 231.261719 C 118.023438 229.953125 118.207031 228.917969 118.578125 228.152344 C 118.945312 227.390625 119.503906 226.90625 120.25 226.6875 Z M 122.535156 227.4375 L 121.8125 227.4375 C 121.300781 227.4375 120.90625 227.753906 120.628906 228.390625 C 120.351562 229.019531 120.210938 229.929688 120.210938 231.113281 C 120.210938 232.292969 120.351562 233.199219 120.628906 233.820312 C 120.90625 234.453125 121.300781 234.773438 121.8125 234.773438 L 122.535156 234.773438 Z M 159.789062 241.707031 "/>
</svg>
