<?xml version="1.0" encoding="UTF-8"?>
<svg xmlns="http://www.w3.org/2000/svg" xmlns:xlink="http://www.w3.org/1999/xlink" width="169.074219" height="244.640625" viewBox="0 0 169.074219 244.640625">
<path fill-rule="nonzero" fill="rgb(100%, 100%, 100%)" fill-opacity="1" stroke-width="2.5" stroke-linecap="butt" stroke-linejoin="miter" stroke="rgb(0%, 0%, 0%)" stroke-opacity="1" stroke-miterlimit="4" d="M 0 -0.000457764 C 0 3.780792 3.089844 6.870636 6.871094 6.870636 L 159.714844 6.870636 C 163.484375 6.870636 166.574219 3.780792 166.574219 -0.000457764 L 166.574219 -228.398895 C 166.574219 -232.180145 163.484375 -235.269989 159.714844 -235.269989 L 6.871094 -235.269989 C 3.089844 -235.269989 0 -232.180145 0 -228.398895 Z M 0 -0.000457764 " transform="matrix(1, 0, 0, 1, 1.25, 236.519989)"/>
<path fill-rule="nonzero" fill="rgb(0%, 0%, 0%)" fill-opacity="1" d="M 20.121094 9.894531 L 12.828125 37.402344 L 10.417969 37.402344 L 17.527344 10.539062 L 8.796875 10.539062 L 8.796875 15.015625 L 7.171875 15.015625 L 7.171875 4.261719 L 20.121094 4.261719 Z M 5.25 -5.289062 "/>
<path fill-rule="nonzero" fill="rgb(0%, 0%, 0%)" fill-opacity="1" d="M 149.949219 233.75 L 157.242188 206.238281 L 159.652344 206.238281 L 152.542969 233.105469 L 161.273438 233.105469 L 161.273438 228.628906 L 162.898438 228.628906 L 162.898438 239.382812 L 149.949219 239.382812 Z M 164.820312 248.933594 "/>
<path fill-rule="nonzero" fill="rgb(0%, 0%, 0%)" fill-opacity="1" d="M 10.980469 59.332031 C 12.648438 59.332031 13.53125 57.554688 13.988281 55.773438 C 14.449219 53.992188 14.488281 52.214844 14.488281 52.214844 L 15.339844 52.203125 C 15.339844 52.203125 15.5 59.332031 18.839844 59.332031 Z M 10.980469 59.332031 "/>
<path fill-rule="nonzero" fill="rgb(0%, 0%, 0%)" fill-opacity="1" d="M 8.148438 52.203125 C 8.160156 48.734375 13.371094 46.214844 14.898438 43.472656 C 16.429688 46.222656 21.640625 48.742188 21.648438 52.203125 C 21.648438 53.84375 20.140625 55.171875 18.269531 55.171875 C 16.410156 55.171875 14.898438 53.84375 14.898438 52.203125 C 14.898438 53.84375 13.390625 55.171875 11.519531 55.171875 C 9.648438 55.171875 8.148438 53.84375 8.148438 52.203125 Z M 8.148438 52.203125 "/>
<path fill-rule="nonzero" fill="rgb(0%, 0%, 0%)" fill-opacity="1" d="M 159.089844 184.308594 C 157.421875 184.308594 156.539062 186.089844 156.078125 187.871094 C 155.621094 189.648438 155.578125 191.429688 155.578125 191.429688 L 154.730469 191.441406 C 154.730469 191.441406 154.570312 184.308594 151.230469 184.308594 Z M 159.089844 184.308594 "/>
<path fill-rule="nonzero" fill="rgb(0%, 0%, 0%)" fill-opacity="1" d="M 161.921875 191.441406 C 161.910156 194.910156 156.699219 197.429688 155.171875 200.171875 C 153.640625 197.421875 148.429688 194.898438 148.421875 191.441406 C 148.421875 189.800781 149.929688 188.46875 151.800781 188.46875 C 153.660156 188.46875 155.171875 189.800781 155.171875 191.441406 C 155.171875 189.800781 156.679688 188.46875 158.550781 188.46875 C 160.421875 188.46875 161.921875 189.800781 161.921875 191.441406 Z M 161.921875 191.441406 "/>
<path fill-rule="nonzero" fill="rgb(0%, 0%, 0%)" fill-opacity="1" d="M 35.699219 57.042969 C 39.707031 57.042969 41.820312 52.769531 42.925781 48.496094 C 44.027344 44.226562 44.125 39.953125 44.125 39.953125 L 46.164062 39.929688 C 46.164062 39.929688 46.546875 57.042969 54.566406 57.042969 Z M 35.699219 57.042969 "/>
<path fill-rule="nonzero" fill="rgb(0%, 0%, 0%)" fill-opacity="1" d="M 28.910156 39.929688 C 28.933594 31.601562 41.4375 25.554688 45.109375 18.976562 C 48.78125 25.578125 61.285156 31.625 61.308594 39.929688 C 61.308594 43.867188 57.683594 47.058594 53.195312 47.058594 C 48.734375 47.058594 45.109375 43.867188 45.109375 39.929688 C 45.109375 43.867188 41.484375 47.058594 36.996094 47.058594 C 32.507812 47.058594 28.910156 43.867188 28.910156 39.929688 Z M 28.910156 39.929688 "/>
<path fill-rule="nonzero" fill="rgb(0%, 0%, 0%)" fill-opacity="1" d="M 35.699219 133.984375 C 39.707031 133.984375 41.820312 129.710938 42.925781 125.4375 C 44.027344 121.167969 44.125 116.894531 44.125 116.894531 L 46.164062 116.871094 C 46.164062 116.871094 46.546875 133.984375 54.566406 133.984375 Z M 35.699219 133.984375 "/>
<path fill-rule="nonzero" fill="rgb(0%, 0%, 0%)" fill-opacity="1" d="M 28.910156 116.871094 C 28.933594 108.542969 41.4375 102.496094 45.109375 95.917969 C 48.78125 102.519531 61.285156 108.566406 61.308594 116.871094 C 61.308594 120.808594 57.683594 124 53.195312 124 C 48.734375 124 45.109375 120.808594 45.109375 116.871094 C 45.109375 120.808594 41.484375 124 36.996094 124 C 32.507812 124 28.910156 120.808594 28.910156 116.871094 Z M 28.910156 116.871094 "/>
<path fill-rule="nonzero" fill="rgb(0%, 0%, 0%)" fill-opacity="1" d="M 54.515625 182.453125 C 50.507812 182.453125 48.398438 186.722656 47.292969 190.996094 C 46.1875 195.265625 46.09375 199.539062 46.09375 199.539062 L 44.054688 199.5625 C 44.054688 199.5625 43.667969 182.453125 35.652344 182.453125 Z M 54.515625 182.453125 "/>
<path fill-rule="nonzero" fill="rgb(0%, 0%, 0%)" fill-opacity="1" d="M 61.308594 199.5625 C 61.285156 207.890625 48.78125 213.9375 45.109375 220.515625 C 41.4375 213.914062 28.933594 207.867188 28.910156 199.5625 C 28.910156 195.628906 32.53125 192.433594 37.019531 192.433594 C 41.484375 192.433594 45.109375 195.628906 45.109375 199.5625 C 45.109375 195.628906 48.734375 192.433594 53.222656 192.433594 C 57.707031 192.433594 61.308594 195.628906 61.308594 199.5625 Z M 61.308594 199.5625 "/>
<path fill-rule="nonzero" fill="rgb(0%, 0%, 0%)" fill-opacity="1" d="M 115.558594 57.042969 C 119.566406 57.042969 121.679688 52.769531 122.78125 48.496094 C 123.886719 44.226562 123.980469 39.953125 123.980469 39.953125 L 126.023438 39.929688 C 126.023438 39.929688 126.40625 57.042969 134.421875 57.042969 Z M 115.558594 57.042969 "/>
<path fill-rule="nonzero" fill="rgb(0%, 0%, 0%)" fill-opacity="1" d="M 108.765625 39.929688 C 108.789062 31.601562 121.292969 25.554688 124.964844 18.976562 C 128.636719 25.578125 141.140625 31.625 141.167969 39.929688 C 141.167969 43.867188 137.542969 47.058594 133.054688 47.058594 C 128.589844 47.058594 124.964844 43.867188 124.964844 39.929688 C 124.964844 43.867188 121.34375 47.058594 116.855469 47.058594 C 112.367188 47.058594 108.765625 43.867188 108.765625 39.929688 Z M 108.765625 39.929688 "/>
<path fill-rule="nonzero" fill="rgb(0%, 0%, 0%)" fill-opacity="1" d="M 115.558594 133.984375 C 119.566406 133.984375 121.679688 129.710938 122.78125 125.4375 C 123.886719 121.167969 123.980469 116.894531 123.980469 116.894531 L 126.023438 116.871094 C 126.023438 116.871094 126.40625 133.984375 134.421875 133.984375 Z M 115.558594 133.984375 "/>
<path fill-rule="nonzero" fill="rgb(0%, 0%, 0%)" fill-opacity="1" d="M 108.765625 116.871094 C 108.789062 108.542969 121.292969 102.496094 124.964844 95.917969 C 128.636719 102.519531 141.140625 108.566406 141.167969 116.871094 C 141.167969 120.808594 137.542969 124 133.054688 124 C 128.589844 124 124.964844 120.808594 124.964844 116.871094 C 124.964844 120.808594 121.34375 124 116.855469 124 C 112.367188 124 108.765625 120.808594 108.765625 116.871094 Z M 108.765625 116.871094 "/>
<path fill-rule="nonzero" fill="rgb(0%, 0%, 0%)" fill-opacity="1" d="M 134.375 182.453125 C 130.367188 182.453125 128.253906 186.722656 127.152344 190.996094 C 126.046875 195.265625 125.949219 199.539062 125.949219 199.539062 L 123.910156 199.5625 C 123.910156 199.5625 123.527344 182.453125 115.511719 182.453125 Z M 134.375 182.453125 "/>
<path fill-rule="nonzero" fill="rgb(0%, 0%, 0%)" fill-opacity="1" d="M 141.167969 199.5625 C 141.140625 207.890625 128.636719 213.9375 124.964844 220.515625 C 121.292969 213.914062 108.789062 207.867188 108.765625 199.5625 C 108.765625 195.628906 112.390625 192.433594 116.878906 192.433594 C 121.34375 192.433594 124.964844 195.628906 124.964844 199.5625 C 124.964844 195.628906 128.589844 192.433594 133.078125 192.433594 C 137.566406 192.433594 141.167969 195.628906 141.167969 199.5625 Z M 141.167969 199.5625 "/>
<path fill-rule="nonzero" fill="rgb(0%, 0%, 0%)" fill-opacity="1" d="M 75.628906 111.199219 C 79.636719 111.199219 81.75 106.925781 82.851562 102.652344 C 83.957031 98.382812 84.054688 94.109375 84.054688 94.109375 L 86.09375 94.085938 C 86.09375 94.085938 86.476562 111.199219 94.492188 111.199219 Z M 75.628906 111.199219 "/>
<path fill-rule="nonzero" fill="rgb(0%, 0%, 0%)" fill-opacity="1" d="M 68.835938 94.085938 C 68.863281 85.757812 81.367188 79.710938 85.039062 73.132812 C 88.710938 79.734375 101.214844 85.78125 101.238281 94.085938 C 101.238281 98.023438 97.613281 101.214844 93.125 101.214844 C 88.660156 101.214844 85.039062 98.023438 85.039062 94.085938 C 85.039062 98.023438 81.414062 101.214844 76.925781 101.214844 C 72.4375 101.214844 68.835938 98.023438 68.835938 94.085938 Z M 68.835938 94.085938 "/>
</svg>
