<?xml version="1.0" encoding="UTF-8"?>
<svg xmlns="http://www.w3.org/2000/svg" xmlns:xlink="http://www.w3.org/1999/xlink" width="169.074219" height="244.640625" viewBox="0 0 169.074219 244.640625">
<path fill-rule="nonzero" fill="rgb(100%, 100%, 100%)" fill-opacity="1" stroke-width="2.5" stroke-linecap="butt" stroke-linejoin="miter" stroke="rgb(0%, 0%, 0%)" stroke-opacity="1" stroke-miterlimit="4" d="M 0 -0.000457764 C 0 3.780792 3.089844 6.870636 6.871094 6.870636 L 159.714844 6.870636 C 163.484375 6.870636 166.574219 3.780792 166.574219 -0.000457764 L 166.574219 -228.398895 C 166.574219 -232.180145 163.484375 -235.269989 159.714844 -235.269989 L 6.871094 -235.269989 C 3.089844 -235.269989 0 -232.180145 0 -228.398895 Z M 0 -0.000457764 " transform="matrix(1, 0, 0, 1, 1.25, 236.519989)"/>
<path fill-rule="nonzero" fill="rgb(0%, 0%, 0%)" fill-opacity="1" d="M 8.453125 12.453125 L 7.03125 12.453125 L 7.03125 5.300781 C 7.996094 4.75 8.949219 4.339844 9.890625 4.0625 C 10.835938 3.789062 11.789062 3.648438 12.757812 3.648438 C 15.007812 3.648438 16.761719 4.515625 18.023438 6.242188 C 19.28125 7.972656 19.910156 10.371094 19.910156 13.445312 C 19.910156 15.640625 19.5625 17.605469 18.871094 19.34375 C 18.175781 21.085938 16.84375 23.144531 14.882812 25.523438 L 9.953125 31.585938 L 18.339844 31.585938 L 18.339844 27.671875 L 19.964844 27.671875 L 19.964844 37.402344 L 6.871094 37.402344 L 6.871094 31.984375 L 9.492188 28.597656 C 11.726562 25.703125 13.214844 23.238281 13.957031 21.210938 C 14.703125 19.1875 15.078125 16.816406 15.078125 14.105469 C 15.078125 11.554688 14.792969 9.609375 14.230469 8.273438 C 13.664062 6.933594 12.839844 6.257812 11.757812 6.257812 C 10.824219 6.257812 10.074219 6.789062 9.511719 7.84375 C 8.949219 8.902344 8.597656 10.4375 8.453125 12.453125 Z M 5.25 -5.289062 "/>
<path fill-rule="nonzero" fill="rgb(0%, 0%, 0%)" fill-opacity="1" d="M 161.625 231.1875 L 163.042969 231.1875 L 163.042969 238.34375 C 162.078125 238.890625 161.125 239.304688 160.183594 239.582031 C 159.238281 239.855469 158.285156 239.996094 157.320312 239.996094 C 155.066406 239.996094 153.3125 239.128906 152.050781 237.402344 C 150.796875 235.667969 150.164062 233.269531 150.164062 230.195312 C 150.164062 228.003906 150.511719 226.039062 151.207031 224.296875 C 151.898438 222.554688 153.230469 220.5 155.191406 218.121094 L 160.125 212.054688 L 151.734375 212.054688 L 151.734375 215.972656 L 150.113281 215.972656 L 150.113281 206.238281 L 163.203125 206.238281 L 163.203125 211.660156 L 160.582031 215.046875 C 158.347656 217.941406 156.859375 220.402344 156.117188 222.429688 C 155.375 224.457031 155 226.828125 155 229.535156 C 155 232.089844 155.28125 234.035156 155.84375 235.367188 C 156.410156 236.710938 157.234375 237.382812 158.316406 237.382812 C 159.25 237.382812 160 236.855469 160.566406 235.796875 C 161.125 234.742188 161.476562 233.203125 161.625 231.1875 Z M 164.824219 248.933594 "/>
<path fill-rule="nonzero" fill="rgb(0%, 0%, 0%)" fill-opacity="1" d="M 10.980469 59.332031 C 12.648438 59.332031 13.53125 57.554688 13.988281 55.773438 C 14.449219 53.992188 14.488281 52.214844 14.488281 52.214844 L 15.339844 52.203125 C 15.339844 52.203125 15.5 59.332031 18.839844 59.332031 Z M 10.980469 59.332031 "/>
<path fill-rule="nonzero" fill="rgb(0%, 0%, 0%)" fill-opacity="1" d="M 8.148438 52.203125 C 8.160156 48.734375 13.371094 46.214844 14.898438 43.472656 C 16.429688 46.222656 21.640625 48.742188 21.648438 52.203125 C 21.648438 53.84375 20.140625 55.171875 18.269531 55.171875 C 16.410156 55.171875 14.898438 53.84375 14.898438 52.203125 C 14.898438 53.84375 13.390625 55.171875 11.519531 55.171875 C 9.648438 55.171875 8.148438 53.84375 8.148438 52.203125 Z M 8.148438 52.203125 "/>
<path fill-rule="nonzero" fill="rgb(0%, 0%, 0%)" fill-opacity="1" d="M 159.09375 184.308594 C 157.425781 184.308594 156.546875 186.089844 156.085938 187.871094 C 155.625 189.648438 155.585938 191.429688 155.585938 191.429688 L 154.734375 191.441406 C 154.734375 191.441406 154.574219 184.308594 151.234375 184.308594 Z M 159.09375 184.308594 "/>
<path fill-rule="nonzero" fill="rgb(0%, 0%, 0%)" fill-opacity="1" d="M 161.925781 191.441406 C 161.914062 194.910156 156.703125 197.429688 155.175781 200.171875 C 153.644531 197.421875 148.433594 194.898438 148.425781 191.441406 C 148.425781 189.800781 149.933594 188.46875 151.804688 188.46875 C 153.664062 188.46875 155.175781 189.800781 155.175781 191.441406 C 155.175781 189.800781 156.683594 188.46875 158.554688 188.46875 C 160.425781 188.46875 161.925781 189.800781 161.925781 191.441406 Z M 161.925781 191.441406 "/>
<path fill-rule="nonzero" fill="rgb(0%, 0%, 0%)" fill-opacity="1" d="M 94.445312 182.453125 C 90.4375 182.453125 88.324219 186.722656 87.21875 190.996094 C 86.117188 195.265625 86.019531 199.539062 86.019531 199.539062 L 83.980469 199.5625 C 83.980469 199.5625 83.597656 182.453125 75.582031 182.453125 Z M 94.445312 182.453125 "/>
<path fill-rule="nonzero" fill="rgb(0%, 0%, 0%)" fill-opacity="1" d="M 101.238281 199.5625 C 101.210938 207.890625 88.707031 213.9375 85.035156 220.515625 C 81.363281 213.914062 68.859375 207.867188 68.835938 199.5625 C 68.835938 195.628906 72.460938 192.433594 76.949219 192.433594 C 81.414062 192.433594 85.035156 195.628906 85.035156 199.5625 C 85.035156 195.628906 88.660156 192.433594 93.148438 192.433594 C 97.636719 192.433594 101.238281 195.628906 101.238281 199.5625 Z M 101.238281 199.5625 "/>
<path fill-rule="nonzero" fill="rgb(0%, 0%, 0%)" fill-opacity="1" d="M 75.628906 57.042969 C 79.636719 57.042969 81.75 52.769531 82.851562 48.496094 C 83.957031 44.226562 84.050781 39.953125 84.050781 39.953125 L 86.09375 39.929688 C 86.09375 39.929688 86.476562 57.042969 94.492188 57.042969 Z M 75.628906 57.042969 "/>
<path fill-rule="nonzero" fill="rgb(0%, 0%, 0%)" fill-opacity="1" d="M 68.835938 39.929688 C 68.859375 31.601562 81.363281 25.554688 85.035156 18.976562 C 88.707031 25.578125 101.210938 31.625 101.238281 39.929688 C 101.238281 43.867188 97.613281 47.058594 93.125 47.058594 C 88.660156 47.058594 85.035156 43.867188 85.035156 39.929688 C 85.035156 43.867188 81.414062 47.058594 76.925781 47.058594 C 72.4375 47.058594 68.835938 43.867188 68.835938 39.929688 Z M 68.835938 39.929688 "/>
</svg>
