<?xml version="1.0" encoding="UTF-8"?>
<svg xmlns="http://www.w3.org/2000/svg" xmlns:xlink="http://www.w3.org/1999/xlink" width="169.074219" height="244.640625" viewBox="0 0 169.074219 244.640625">
<path fill-rule="nonzero" fill="rgb(100%, 100%, 100%)" fill-opacity="1" stroke-width="2.5" stroke-linecap="butt" stroke-linejoin="miter" stroke="rgb(0%, 0%, 0%)" stroke-opacity="1" stroke-miterlimit="4" d="M 0 -0.000457764 C 0 3.780792 3.089844 6.870636 6.871094 6.870636 L 159.714844 6.870636 C 163.484375 6.870636 166.574219 3.780792 166.574219 -0.000457764 L 166.574219 -228.398895 C 166.574219 -232.180145 163.484375 -235.269989 159.714844 -235.269989 L 6.871094 -235.269989 C 3.089844 -235.269989 0 -232.180145 0 -228.398895 Z M 0 -0.000457764 " transform="matrix(1, 0, 0, 1, 1.25, 236.519989)"/>
<path fill-rule="nonzero" fill="rgb(0%, 0%, 0%)" fill-opacity="1" d="M 11.222656 17.757812 C 11.738281 16.988281 12.316406 16.410156 12.949219 16.023438 C 13.585938 15.640625 14.277344 15.445312 15.03125 15.445312 C 16.835938 15.445312 18.253906 16.4375 19.285156 18.417969 C 20.316406 20.402344 20.835938 23.128906 20.835938 26.597656 C 20.835938 30.246094 20.253906 33.066406 19.089844 35.058594 C 17.929688 37.050781 16.28125 38.046875 14.140625 38.046875 C 11.722656 38.046875 9.890625 36.683594 8.644531 33.949219 C 7.398438 31.21875 6.777344 27.203125 6.777344 21.90625 C 6.777344 15.882812 7.464844 11.332031 8.847656 8.257812 C 10.234375 5.183594 12.289062 3.648438 15.003906 3.648438 C 15.714844 3.648438 16.480469 3.765625 17.289062 3.996094 C 18.105469 4.21875 18.980469 4.550781 19.910156 4.988281 L 19.910156 10.851562 L 18.480469 10.851562 C 18.28125 9.34375 17.902344 8.203125 17.351562 7.433594 C 16.804688 6.652344 16.09375 6.257812 15.226562 6.257812 C 13.820312 6.257812 12.804688 7.164062 12.175781 8.96875 C 11.550781 10.777344 11.234375 13.707031 11.222656 17.757812 Z M 13.867188 35.453125 C 14.679688 35.453125 15.257812 34.808594 15.605469 33.519531 C 15.957031 32.222656 16.136719 29.96875 16.136719 26.761719 C 16.136719 23.570312 15.957031 21.328125 15.605469 20.039062 C 15.257812 18.742188 14.679688 18.089844 13.867188 18.089844 C 13.054688 18.089844 12.476562 18.742188 12.128906 20.039062 C 11.789062 21.328125 11.617188 23.570312 11.617188 26.761719 C 11.617188 29.96875 11.789062 32.222656 12.128906 33.519531 C 12.476562 34.808594 13.054688 35.453125 13.867188 35.453125 Z M 5.25 -5.289062 "/>
<path fill-rule="nonzero" fill="rgb(0%, 0%, 0%)" fill-opacity="1" d="M 158.851562 225.882812 C 158.335938 226.652344 157.757812 227.230469 157.125 227.621094 C 156.488281 228.003906 155.796875 228.199219 155.042969 228.199219 C 153.238281 228.199219 151.820312 227.207031 150.792969 225.222656 C 149.757812 223.242188 149.238281 220.515625 149.238281 217.046875 C 149.238281 213.398438 149.820312 210.578125 150.984375 208.585938 C 152.144531 206.589844 153.792969 205.59375 155.933594 205.59375 C 158.351562 205.59375 160.183594 206.957031 161.429688 209.691406 C 162.675781 212.421875 163.300781 216.4375 163.300781 221.738281 C 163.300781 227.761719 162.609375 232.3125 161.226562 235.386719 C 159.839844 238.457031 157.785156 239.996094 155.070312 239.996094 C 154.359375 239.996094 153.597656 239.878906 152.785156 239.648438 C 151.96875 239.425781 151.09375 239.09375 150.164062 238.65625 L 150.164062 232.789062 L 151.59375 232.789062 C 151.792969 234.296875 152.171875 235.4375 152.722656 236.210938 C 153.269531 236.992188 153.980469 237.382812 154.847656 237.382812 C 156.253906 237.382812 157.273438 236.480469 157.902344 234.675781 C 158.523438 232.867188 158.84375 229.9375 158.851562 225.882812 Z M 156.207031 208.191406 C 155.394531 208.191406 154.816406 208.832031 154.46875 210.121094 C 154.117188 211.417969 153.941406 213.675781 153.941406 216.878906 C 153.941406 220.074219 154.117188 222.316406 154.46875 223.605469 C 154.816406 224.902344 155.394531 225.554688 156.207031 225.554688 C 157.019531 225.554688 157.597656 224.902344 157.945312 223.605469 C 158.285156 222.316406 158.457031 220.074219 158.457031 216.878906 C 158.457031 213.675781 158.285156 211.417969 157.945312 210.121094 C 157.597656 208.832031 157.019531 208.191406 156.207031 208.191406 Z M 164.824219 248.933594 "/>
<path fill-rule="nonzero" fill="rgb(0%, 0%, 0%)" fill-opacity="1" d="M 10.980469 59.332031 C 12.648438 59.332031 13.53125 57.554688 13.988281 55.773438 C 14.449219 53.992188 14.488281 52.214844 14.488281 52.214844 L 15.339844 52.203125 C 15.339844 52.203125 15.5 59.332031 18.839844 59.332031 Z M 10.980469 59.332031 "/>
<path fill-rule="nonzero" fill="rgb(0%, 0%, 0%)" fill-opacity="1" d="M 8.148438 52.203125 C 8.160156 48.734375 13.371094 46.214844 14.898438 43.472656 C 16.429688 46.222656 21.640625 48.742188 21.648438 52.203125 C 21.648438 53.84375 20.140625 55.171875 18.269531 55.171875 C 16.410156 55.171875 14.898438 53.84375 14.898438 52.203125 C 14.898438 53.84375 13.390625 55.171875 11.519531 55.171875 C 9.648438 55.171875 8.148438 53.84375 8.148438 52.203125 Z M 8.148438 52.203125 "/>
<path fill-rule="nonzero" fill="rgb(0%, 0%, 0%)" fill-opacity="1" d="M 159.09375 184.308594 C 157.425781 184.308594 156.546875 186.089844 156.085938 187.871094 C 155.625 189.648438 155.585938 191.429688 155.585938 191.429688 L 154.734375 191.441406 C 154.734375 191.441406 154.574219 184.308594 151.234375 184.308594 Z M 159.09375 184.308594 "/>
<path fill-rule="nonzero" fill="rgb(0%, 0%, 0%)" fill-opacity="1" d="M 161.925781 191.441406 C 161.914062 194.910156 156.703125 197.429688 155.175781 200.171875 C 153.644531 197.421875 148.433594 194.898438 148.425781 191.441406 C 148.425781 189.800781 149.933594 188.46875 151.804688 188.46875 C 153.664062 188.46875 155.175781 189.800781 155.175781 191.441406 C 155.175781 189.800781 156.683594 188.46875 158.554688 188.46875 C 160.425781 188.46875 161.925781 189.800781 161.925781 191.441406 Z M 161.925781 191.441406 "/>
<path fill-rule="nonzero" fill="rgb(0%, 0%, 0%)" fill-opacity="1" d="M 35.699219 57.042969 C 39.707031 57.042969 41.820312 52.769531 42.925781 48.496094 C 44.027344 44.226562 44.125 39.953125 44.125 39.953125 L 46.164062 39.929688 C 46.164062 39.929688 46.546875 57.042969 54.566406 57.042969 Z M 35.699219 57.042969 "/>
<path fill-rule="nonzero" fill="rgb(0%, 0%, 0%)" fill-opacity="1" d="M 28.910156 39.929688 C 28.933594 31.601562 41.4375 25.554688 45.109375 18.976562 C 48.78125 25.578125 61.285156 31.625 61.308594 39.929688 C 61.308594 43.867188 57.683594 47.058594 53.195312 47.058594 C 48.734375 47.058594 45.109375 43.867188 45.109375 39.929688 C 45.109375 43.867188 41.484375 47.058594 36.996094 47.058594 C 32.507812 47.058594 28.910156 43.867188 28.910156 39.929688 Z M 28.910156 39.929688 "/>
<path fill-rule="nonzero" fill="rgb(0%, 0%, 0%)" fill-opacity="1" d="M 35.699219 133.984375 C 39.707031 133.984375 41.820312 129.710938 42.925781 125.4375 C 44.027344 121.167969 44.125 116.894531 44.125 116.894531 L 46.164062 116.871094 C 46.164062 116.871094 46.546875 133.984375 54.566406 133.984375 Z M 35.699219 133.984375 "/>
<path fill-rule="nonzero" fill="rgb(0%, 0%, 0%)" fill-opacity="1" d="M 28.910156 116.871094 C 28.933594 108.542969 41.4375 102.496094 45.109375 95.917969 C 48.78125 102.519531 61.285156 108.566406 61.308594 116.871094 C 61.308594 120.808594 57.683594 124 53.195312 124 C 48.734375 124 45.109375 120.808594 45.109375 116.871094 C 45.109375 120.808594 41.484375 124 36.996094 124 C 32.507812 124 28.910156 120.808594 28.910156 116.871094 Z M 28.910156 116.871094 "/>
<path fill-rule="nonzero" fill="rgb(0%, 0%, 0%)" fill-opacity="1" d="M 54.515625 182.453125 C 50.507812 182.453125 48.398438 186.722656 47.292969 190.996094 C 46.1875 195.265625 46.09375 199.539062 46.09375 199.539062 L 44.050781 199.5625 C 44.050781 199.5625 43.667969 182.453125 35.652344 182.453125 Z M 54.515625 182.453125 "/>
<path fill-rule="nonzero" fill="rgb(0%, 0%, 0%)" fill-opacity="1" d="M 61.308594 199.5625 C 61.285156 207.890625 48.78125 213.9375 45.109375 220.515625 C 41.4375 213.914062 28.933594 207.867188 28.910156 199.5625 C 28.910156 195.628906 32.53125 192.433594 37.019531 192.433594 C 41.484375 192.433594 45.109375 195.628906 45.109375 199.5625 C 45.109375 195.628906 48.734375 192.433594 53.21875 192.433594 C 57.707031 192.433594 61.308594 195.628906 61.308594 199.5625 Z M 61.308594 199.5625 "/>
<path fill-rule="nonzero" fill="rgb(0%, 0%, 0%)" fill-opacity="1" d="M 115.558594 57.042969 C 119.566406 57.042969 121.679688 52.769531 122.78125 48.496094 C 123.886719 44.226562 123.980469 39.953125 123.980469 39.953125 L 126.023438 39.929688 C 126.023438 39.929688 126.40625 57.042969 134.421875 57.042969 Z M 115.558594 57.042969 "/>
<path fill-rule="nonzero" fill="rgb(0%, 0%, 0%)" fill-opacity="1" d="M 108.765625 39.929688 C 108.789062 31.601562 121.292969 25.554688 124.964844 18.976562 C 128.636719 25.578125 141.140625 31.625 141.167969 39.929688 C 141.167969 43.867188 137.542969 47.058594 133.054688 47.058594 C 128.589844 47.058594 124.964844 43.867188 124.964844 39.929688 C 124.964844 43.867188 121.34375 47.058594 116.855469 47.058594 C 112.367188 47.058594 108.765625 43.867188 108.765625 39.929688 Z M 108.765625 39.929688 "/>
<path fill-rule="nonzero" fill="rgb(0%, 0%, 0%)" fill-opacity="1" d="M 115.558594 133.984375 C 119.566406 133.984375 121.679688 129.710938 122.78125 125.4375 C 123.886719 121.167969 123.980469 116.894531 123.980469 116.894531 L 126.023438 116.871094 C 126.023438 116.871094 126.40625 133.984375 134.421875 133.984375 Z M 115.558594 133.984375 "/>
<path fill-rule="nonzero" fill="rgb(0%, 0%, 0%)" fill-opacity="1" d="M 108.765625 116.871094 C 108.789062 108.542969 121.292969 102.496094 124.964844 95.917969 C 128.636719 102.519531 141.140625 108.566406 141.167969 116.871094 C 141.167969 120.808594 137.542969 124 133.054688 124 C 128.589844 124 124.964844 120.808594 124.964844 116.871094 C 124.964844 120.808594 121.34375 124 116.855469 124 C 112.367188 124 108.765625 120.808594 108.765625 116.871094 Z M 108.765625 116.871094 "/>
<path fill-rule="nonzero" fill="rgb(0%, 0%, 0%)" fill-opacity="1" d="M 134.375 182.453125 C 130.367188 182.453125 128.253906 186.722656 127.148438 190.996094 C 126.046875 195.265625 125.949219 199.539062 125.949219 199.539062 L 123.910156 199.5625 C 123.910156 199.5625 123.527344 182.453125 115.511719 182.453125 Z M 134.375 182.453125 "/>
<path fill-rule="nonzero" fill="rgb(0%, 0%, 0%)" fill-opacity="1" d="M 141.167969 199.5625 C 141.140625 207.890625 128.636719 213.9375 124.964844 220.515625 C 121.292969 213.914062 108.789062 207.867188 108.765625 199.5625 C 108.765625 195.628906 112.390625 192.433594 116.878906 192.433594 C 121.34375 192.433594 124.964844 195.628906 124.964844 199.5625 C 124.964844 195.628906 128.589844 192.433594 133.078125 192.433594 C 137.566406 192.433594 141.167969 195.628906 141.167969 199.5625 Z M 141.167969 199.5625 "/>
</svg>
