<?xml version="1.0" encoding="UTF-8"?>
<svg xmlns="http://www.w3.org/2000/svg" xmlns:xlink="http://www.w3.org/1999/xlink" width="169.074219" height="244.640625" viewBox="0 0 169.074219 244.640625">
<path fill-rule="nonzero" fill="rgb(100%, 100%, 100%)" fill-opacity="1" stroke-width="2.5" stroke-linecap="butt" stroke-linejoin="miter" stroke="rgb(0%, 0%, 0%)" stroke-opacity="1" stroke-miterlimit="4" d="M 0 -0.000457764 C 0 3.780792 3.089844 6.870636 6.871094 6.870636 L 159.714844 6.870636 C 163.484375 6.870636 166.574219 3.780792 166.574219 -0.000457764 L 166.574219 -228.398895 C 166.574219 -232.180145 163.484375 -235.269989 159.714844 -235.269989 L 6.871094 -235.269989 C 3.089844 -235.269989 0 -232.180145 0 -228.398895 Z M 0 -0.000457764 " transform="matrix(1, 0, 0, 1, 1.25, 236.519989)"/>
<path fill-rule="nonzero" fill="rgb(0%, 0%, 0%)" fill-opacity="1" d="M 7.15625 37.402344 L 7.15625 34.710938 L 9.050781 34.710938 L 9.050781 7.894531 L 6.945312 11.976562 L 6.945312 8.671875 L 9.484375 3.648438 L 11.617188 3.648438 L 11.617188 34.710938 L 13.519531 34.710938 L 13.519531 37.402344 Z M 19.730469 35.453125 C 20.269531 35.453125 20.644531 34.652344 20.84375 33.042969 C 21.046875 31.421875 21.148438 27.367188 21.148438 20.863281 C 21.148438 14.414062 21.046875 10.363281 20.84375 8.722656 C 20.644531 7.082031 20.269531 6.257812 19.730469 6.257812 C 19.1875 6.257812 18.820312 7.070312 18.617188 8.6875 C 18.414062 10.296875 18.316406 14.355469 18.316406 20.863281 C 18.316406 27.367188 18.414062 31.421875 18.617188 33.042969 C 18.820312 34.652344 19.1875 35.453125 19.730469 35.453125 Z M 19.730469 38.046875 C 18.378906 38.046875 17.34375 36.574219 16.625 33.621094 C 15.910156 30.671875 15.550781 26.414062 15.550781 20.863281 C 15.550781 15.3125 15.910156 11.058594 16.625 8.09375 C 17.34375 5.132812 18.378906 3.648438 19.730469 3.648438 C 21.078125 3.648438 22.109375 5.132812 22.824219 8.09375 C 23.542969 11.058594 23.902344 15.3125 23.902344 20.863281 C 23.902344 26.414062 23.542969 30.671875 22.824219 33.621094 C 22.109375 36.574219 21.078125 38.046875 19.730469 38.046875 Z M 5.25 -5.289062 "/>
<path fill-rule="nonzero" fill="rgb(0%, 0%, 0%)" fill-opacity="1" d="M 162.925781 206.238281 L 162.925781 208.933594 L 161.03125 208.933594 L 161.03125 235.75 L 163.136719 231.667969 L 163.136719 234.972656 L 160.597656 239.996094 L 158.464844 239.996094 L 158.464844 208.933594 L 156.558594 208.933594 L 156.558594 206.238281 Z M 150.347656 208.191406 C 149.808594 208.191406 149.4375 208.992188 149.234375 210.601562 C 149.035156 212.222656 148.933594 216.277344 148.933594 222.777344 C 148.933594 229.230469 149.035156 233.277344 149.234375 234.921875 C 149.4375 236.5625 149.808594 237.382812 150.347656 237.382812 C 150.890625 237.382812 151.261719 236.574219 151.464844 234.957031 C 151.664062 233.34375 151.765625 229.289062 151.765625 222.777344 C 151.765625 216.277344 151.664062 212.222656 151.464844 210.601562 C 151.261719 208.992188 150.890625 208.191406 150.347656 208.191406 Z M 150.347656 205.59375 C 151.699219 205.59375 152.734375 207.070312 153.453125 210.023438 C 154.167969 212.972656 154.527344 217.226562 154.527344 222.777344 C 154.527344 228.328125 154.167969 232.585938 153.453125 235.550781 C 152.734375 238.511719 151.699219 239.996094 150.347656 239.996094 C 149.003906 239.996094 147.96875 238.511719 147.253906 235.550781 C 146.535156 232.585938 146.175781 228.328125 146.175781 222.777344 C 146.175781 217.226562 146.535156 212.972656 147.253906 210.023438 C 147.96875 207.070312 149.003906 205.59375 150.347656 205.59375 Z M 164.828125 248.933594 "/>
<path fill-rule="nonzero" fill="rgb(0%, 0%, 0%)" fill-opacity="1" d="M 10.988281 59.332031 C 12.660156 59.332031 13.539062 57.554688 14 55.773438 C 14.460938 53.992188 14.5 52.214844 14.5 52.214844 L 15.351562 52.203125 C 15.351562 52.203125 15.511719 59.332031 18.851562 59.332031 Z M 10.988281 59.332031 "/>
<path fill-rule="nonzero" fill="rgb(0%, 0%, 0%)" fill-opacity="1" d="M 8.160156 52.203125 C 8.167969 48.734375 13.378906 46.214844 14.910156 43.472656 C 16.441406 46.222656 21.648438 48.742188 21.660156 52.203125 C 21.660156 53.84375 20.148438 55.171875 18.28125 55.171875 C 16.417969 55.171875 14.910156 53.84375 14.910156 52.203125 C 14.910156 53.84375 13.398438 55.171875 11.53125 55.171875 C 9.660156 55.171875 8.160156 53.84375 8.160156 52.203125 Z M 8.160156 52.203125 "/>
<path fill-rule="nonzero" fill="rgb(0%, 0%, 0%)" fill-opacity="1" d="M 159.101562 184.308594 C 157.429688 184.308594 156.550781 186.089844 156.089844 187.871094 C 155.628906 189.648438 155.589844 191.429688 155.589844 191.429688 L 154.738281 191.441406 C 154.738281 191.441406 154.578125 184.308594 151.238281 184.308594 Z M 159.101562 184.308594 "/>
<path fill-rule="nonzero" fill="rgb(0%, 0%, 0%)" fill-opacity="1" d="M 161.929688 191.441406 C 161.921875 194.910156 156.710938 197.429688 155.179688 200.171875 C 153.648438 197.421875 148.441406 194.898438 148.429688 191.441406 C 148.429688 189.800781 149.941406 188.46875 151.808594 188.46875 C 153.671875 188.46875 155.179688 189.800781 155.179688 191.441406 C 155.179688 189.800781 156.691406 188.46875 158.558594 188.46875 C 160.429688 188.46875 161.929688 189.800781 161.929688 191.441406 Z M 161.929688 191.441406 "/>
<path fill-rule="nonzero" fill="rgb(0%, 0%, 0%)" fill-opacity="1" d="M 35.707031 57.042969 C 39.714844 57.042969 41.828125 52.769531 42.929688 48.496094 C 44.035156 44.226562 44.128906 39.953125 44.128906 39.953125 L 46.171875 39.929688 C 46.171875 39.929688 46.554688 57.042969 54.570312 57.042969 Z M 35.707031 57.042969 "/>
<path fill-rule="nonzero" fill="rgb(0%, 0%, 0%)" fill-opacity="1" d="M 28.914062 39.929688 C 28.9375 31.601562 41.441406 25.554688 45.113281 18.976562 C 48.785156 25.578125 61.289062 31.625 61.3125 39.929688 C 61.3125 43.867188 57.691406 47.058594 53.203125 47.058594 C 48.738281 47.058594 45.113281 43.867188 45.113281 39.929688 C 45.113281 43.867188 41.492188 47.058594 37.003906 47.058594 C 32.515625 47.058594 28.914062 43.867188 28.914062 39.929688 Z M 28.914062 39.929688 "/>
<path fill-rule="nonzero" fill="rgb(0%, 0%, 0%)" fill-opacity="1" d="M 35.707031 111.199219 C 39.714844 111.199219 41.828125 106.925781 42.929688 102.652344 C 44.035156 98.382812 44.128906 94.109375 44.128906 94.109375 L 46.171875 94.085938 C 46.171875 94.085938 46.554688 111.199219 54.570312 111.199219 Z M 35.707031 111.199219 "/>
<path fill-rule="nonzero" fill="rgb(0%, 0%, 0%)" fill-opacity="1" d="M 28.914062 94.085938 C 28.9375 85.757812 41.441406 79.710938 45.113281 73.132812 C 48.785156 79.734375 61.289062 85.78125 61.3125 94.085938 C 61.3125 98.023438 57.691406 101.214844 53.203125 101.214844 C 48.738281 101.214844 45.113281 98.023438 45.113281 94.085938 C 45.113281 98.023438 41.492188 101.214844 37.003906 101.214844 C 32.515625 101.214844 28.914062 98.023438 28.914062 94.085938 Z M 28.914062 94.085938 "/>
<path fill-rule="nonzero" fill="rgb(0%, 0%, 0%)" fill-opacity="1" d="M 54.523438 128.296875 C 50.515625 128.296875 48.402344 132.566406 47.296875 136.839844 C 46.195312 141.109375 46.097656 145.382812 46.097656 145.382812 L 44.058594 145.40625 C 44.058594 145.40625 43.675781 128.296875 35.660156 128.296875 Z M 54.523438 128.296875 "/>
<path fill-rule="nonzero" fill="rgb(0%, 0%, 0%)" fill-opacity="1" d="M 61.316406 145.40625 C 61.289062 153.734375 48.785156 159.785156 45.113281 166.359375 C 41.441406 159.757812 28.9375 153.710938 28.914062 145.40625 C 28.914062 141.472656 32.539062 138.277344 37.027344 138.277344 C 41.492188 138.277344 45.113281 141.472656 45.113281 145.40625 C 45.113281 141.472656 48.738281 138.277344 53.226562 138.277344 C 57.714844 138.277344 61.316406 141.472656 61.316406 145.40625 Z M 61.316406 145.40625 "/>
<path fill-rule="nonzero" fill="rgb(0%, 0%, 0%)" fill-opacity="1" d="M 54.523438 182.453125 C 50.515625 182.453125 48.402344 186.722656 47.296875 190.996094 C 46.195312 195.265625 46.097656 199.539062 46.097656 199.539062 L 44.058594 199.5625 C 44.058594 199.5625 43.675781 182.453125 35.660156 182.453125 Z M 54.523438 182.453125 "/>
<path fill-rule="nonzero" fill="rgb(0%, 0%, 0%)" fill-opacity="1" d="M 61.316406 199.5625 C 61.289062 207.890625 48.785156 213.9375 45.113281 220.515625 C 41.441406 213.914062 28.9375 207.867188 28.914062 199.5625 C 28.914062 195.628906 32.539062 192.433594 37.027344 192.433594 C 41.492188 192.433594 45.113281 195.628906 45.113281 199.5625 C 45.113281 195.628906 48.738281 192.433594 53.226562 192.433594 C 57.714844 192.433594 61.316406 195.628906 61.316406 199.5625 Z M 61.316406 199.5625 "/>
<path fill-rule="nonzero" fill="rgb(0%, 0%, 0%)" fill-opacity="1" d="M 115.5625 57.042969 C 119.570312 57.042969 121.683594 52.769531 122.789062 48.496094 C 123.890625 44.226562 123.988281 39.953125 123.988281 39.953125 L 126.027344 39.929688 C 126.027344 39.929688 126.410156 57.042969 134.429688 57.042969 Z M 115.5625 57.042969 "/>
<path fill-rule="nonzero" fill="rgb(0%, 0%, 0%)" fill-opacity="1" d="M 108.773438 39.929688 C 108.796875 31.601562 121.300781 25.554688 124.972656 18.976562 C 128.644531 25.578125 141.148438 31.625 141.171875 39.929688 C 141.171875 43.867188 137.546875 47.058594 133.058594 47.058594 C 128.597656 47.058594 124.972656 43.867188 124.972656 39.929688 C 124.972656 43.867188 121.347656 47.058594 116.859375 47.058594 C 112.371094 47.058594 108.773438 43.867188 108.773438 39.929688 Z M 108.773438 39.929688 "/>
<path fill-rule="nonzero" fill="rgb(0%, 0%, 0%)" fill-opacity="1" d="M 115.5625 111.199219 C 119.570312 111.199219 121.683594 106.925781 122.789062 102.652344 C 123.890625 98.382812 123.988281 94.109375 123.988281 94.109375 L 126.027344 94.085938 C 126.027344 94.085938 126.410156 111.199219 134.429688 111.199219 Z M 115.5625 111.199219 "/>
<path fill-rule="nonzero" fill="rgb(0%, 0%, 0%)" fill-opacity="1" d="M 108.773438 94.085938 C 108.796875 85.757812 121.300781 79.710938 124.972656 73.132812 C 128.644531 79.734375 141.148438 85.78125 141.171875 94.085938 C 141.171875 98.023438 137.546875 101.214844 133.058594 101.214844 C 128.597656 101.214844 124.972656 98.023438 124.972656 94.085938 C 124.972656 98.023438 121.347656 101.214844 116.859375 101.214844 C 112.371094 101.214844 108.773438 98.023438 108.773438 94.085938 Z M 108.773438 94.085938 "/>
<path fill-rule="nonzero" fill="rgb(0%, 0%, 0%)" fill-opacity="1" d="M 134.378906 128.296875 C 130.371094 128.296875 128.261719 132.566406 127.15625 136.839844 C 126.050781 141.109375 125.957031 145.382812 125.957031 145.382812 L 123.917969 145.40625 C 123.917969 145.40625 123.53125 128.296875 115.515625 128.296875 Z M 134.378906 128.296875 "/>
<path fill-rule="nonzero" fill="rgb(0%, 0%, 0%)" fill-opacity="1" d="M 141.171875 145.40625 C 141.148438 153.734375 128.644531 159.785156 124.972656 166.359375 C 121.300781 159.757812 108.796875 153.710938 108.773438 145.40625 C 108.773438 141.472656 112.394531 138.277344 116.882812 138.277344 C 121.347656 138.277344 124.972656 141.472656 124.972656 145.40625 C 124.972656 141.472656 128.597656 138.277344 133.085938 138.277344 C 137.570312 138.277344 141.171875 141.472656 141.171875 145.40625 Z M 141.171875 145.40625 "/>
<path fill-rule="nonzero" fill="rgb(0%, 0%, 0%)" fill-opacity="1" d="M 134.378906 182.453125 C 130.371094 182.453125 128.261719 186.722656 127.15625 190.996094 C 126.050781 195.265625 125.957031 199.539062 125.957031 199.539062 L 123.917969 199.5625 C 123.917969 199.5625 123.53125 182.453125 115.515625 182.453125 Z M 134.378906 182.453125 "/>
<path fill-rule="nonzero" fill="rgb(0%, 0%, 0%)" fill-opacity="1" d="M 141.171875 199.5625 C 141.148438 207.890625 128.644531 213.9375 124.972656 220.515625 C 121.300781 213.914062 108.796875 207.867188 108.773438 199.5625 C 108.773438 195.628906 112.394531 192.433594 116.882812 192.433594 C 121.347656 192.433594 124.972656 195.628906 124.972656 199.5625 C 124.972656 195.628906 128.597656 192.433594 133.085938 192.433594 C 137.570312 192.433594 141.171875 195.628906 141.171875 199.5625 Z M 141.171875 199.5625 "/>
<path fill-rule="nonzero" fill="rgb(0%, 0%, 0%)" fill-opacity="1" d="M 75.636719 84.121094 C 79.644531 84.121094 81.753906 79.847656 82.859375 75.578125 C 83.964844 71.304688 84.058594 67.03125 84.058594 67.03125 L 86.097656 67.007812 C 86.097656 67.007812 86.484375 84.121094 94.5 84.121094 Z M 75.636719 84.121094 "/>
<path fill-rule="nonzero" fill="rgb(0%, 0%, 0%)" fill-opacity="1" d="M 68.84375 67.007812 C 68.867188 58.679688 81.371094 52.632812 85.042969 46.058594 C 88.714844 52.65625 101.21875 58.703125 101.242188 67.007812 C 101.242188 70.945312 97.621094 74.136719 93.132812 74.136719 C 88.667969 74.136719 85.042969 70.945312 85.042969 67.007812 C 85.042969 70.945312 81.417969 74.136719 76.929688 74.136719 C 72.441406 74.136719 68.84375 70.945312 68.84375 67.007812 Z M 68.84375 67.007812 "/>
<path fill-rule="nonzero" fill="rgb(0%, 0%, 0%)" fill-opacity="1" d="M 94.453125 155.371094 C 90.441406 155.371094 88.332031 159.644531 87.226562 163.917969 C 86.125 168.1875 86.027344 172.460938 86.027344 172.460938 L 83.988281 172.484375 C 83.988281 172.484375 83.601562 155.371094 75.585938 155.371094 Z M 94.453125 155.371094 "/>
<path fill-rule="nonzero" fill="rgb(0%, 0%, 0%)" fill-opacity="1" d="M 101.242188 172.484375 C 101.21875 180.8125 88.714844 186.859375 85.042969 193.4375 C 81.371094 186.835938 68.867188 180.789062 68.84375 172.484375 C 68.84375 168.546875 72.46875 165.355469 76.957031 165.355469 C 81.417969 165.355469 85.042969 168.546875 85.042969 172.484375 C 85.042969 168.546875 88.667969 165.355469 93.15625 165.355469 C 97.644531 165.355469 101.242188 168.546875 101.242188 172.484375 Z M 101.242188 172.484375 "/>
</svg>
