<?xml version="1.0" encoding="UTF-8"?>
<svg xmlns="http://www.w3.org/2000/svg" xmlns:xlink="http://www.w3.org/1999/xlink" width="169.074219" height="244.640625" viewBox="0 0 169.074219 244.640625">
<path fill-rule="nonzero" fill="rgb(100%, 100%, 100%)" fill-opacity="1" stroke-width="2.5" stroke-linecap="butt" stroke-linejoin="miter" stroke="rgb(0%, 0%, 0%)" stroke-opacity="1" stroke-miterlimit="4" d="M 0 -0.000457764 C 0 3.780792 3.089844 6.870636 6.871094 6.870636 L 159.714844 6.870636 C 163.484375 6.870636 166.574219 3.780792 166.574219 -0.000457764 L 166.574219 -228.398895 C 166.574219 -232.180145 163.484375 -235.269989 159.714844 -235.269989 L 6.871094 -235.269989 C 3.089844 -235.269989 0 -232.180145 0 -228.398895 Z M 0 -0.000457764 " transform="matrix(1, 0, 0, 1, 1.25, 236.519989)"/>
<path fill-rule="nonzero" fill="rgb(0%, 0%, 0%)" fill-opacity="1" d="M 16.53125 19.757812 C 17.9375 20.1875 19.003906 21.15625 19.734375 22.664062 C 20.46875 24.175781 20.835938 26.152344 20.835938 28.597656 C 20.835938 31.636719 20.222656 33.976562 18.992188 35.601562 C 17.761719 37.234375 15.988281 38.046875 13.675781 38.046875 C 11.363281 38.046875 9.589844 37.234375 8.355469 35.601562 C 7.121094 33.976562 6.503906 31.636719 6.503906 28.597656 C 6.503906 26.152344 6.867188 24.175781 7.605469 22.664062 C 8.339844 21.15625 9.40625 20.1875 10.808594 19.757812 C 9.566406 19.21875 8.636719 18.328125 8.019531 17.082031 C 7.40625 15.824219 7.101562 14.238281 7.101562 12.324219 C 7.101562 9.503906 7.660156 7.359375 8.777344 5.878906 C 9.902344 4.390625 11.53125 3.648438 13.675781 3.648438 C 15.808594 3.648438 17.4375 4.390625 18.5625 5.878906 C 19.691406 7.359375 20.253906 9.503906 20.253906 12.324219 C 20.253906 14.238281 19.941406 15.824219 19.320312 17.082031 C 18.703125 18.328125 17.769531 19.21875 16.53125 19.757812 Z M 15.667969 12.40625 C 15.667969 10.070312 15.515625 8.464844 15.21875 7.582031 C 14.917969 6.699219 14.402344 6.257812 13.675781 6.257812 C 12.9375 6.257812 12.421875 6.699219 12.128906 7.582031 C 11.835938 8.464844 11.6875 10.070312 11.6875 12.40625 C 11.6875 14.730469 11.835938 16.328125 12.128906 17.195312 C 12.421875 18.054688 12.9375 18.484375 13.675781 18.484375 C 14.40625 18.484375 14.921875 18.054688 15.21875 17.195312 C 15.515625 16.328125 15.667969 14.730469 15.667969 12.40625 Z M 16.136719 28.214844 C 16.136719 25.507812 15.949219 23.640625 15.578125 22.617188 C 15.214844 21.589844 14.578125 21.078125 13.675781 21.078125 C 12.765625 21.078125 12.132812 21.589844 11.769531 22.617188 C 11.402344 23.640625 11.222656 25.507812 11.222656 28.214844 C 11.222656 30.949219 11.402344 32.839844 11.769531 33.882812 C 12.140625 34.933594 12.773438 35.453125 13.675781 35.453125 C 14.566406 35.453125 15.199219 34.933594 15.570312 33.882812 C 15.945312 32.839844 16.136719 30.949219 16.136719 28.214844 Z M 5.25 -5.289062 "/>
<path fill-rule="nonzero" fill="rgb(0%, 0%, 0%)" fill-opacity="1" d="M 153.546875 223.886719 C 152.144531 223.457031 151.074219 222.484375 150.347656 220.976562 C 149.613281 219.464844 149.242188 217.492188 149.242188 215.046875 C 149.242188 212.007812 149.859375 209.667969 151.085938 208.039062 C 152.316406 206.410156 154.089844 205.59375 156.40625 205.59375 C 158.71875 205.59375 160.488281 206.410156 161.726562 208.039062 C 162.960938 209.667969 163.578125 212.007812 163.578125 215.046875 C 163.578125 217.492188 163.210938 219.464844 162.476562 220.976562 C 161.742188 222.484375 160.671875 223.457031 159.273438 223.886719 C 160.515625 224.421875 161.441406 225.316406 162.058594 226.5625 C 162.671875 227.816406 162.976562 229.402344 162.976562 231.320312 C 162.976562 234.136719 162.417969 236.285156 161.300781 237.765625 C 160.179688 239.25 158.546875 239.996094 156.40625 239.996094 C 154.269531 239.996094 152.644531 239.25 151.519531 237.765625 C 150.390625 236.285156 149.824219 234.136719 149.824219 231.320312 C 149.824219 229.402344 150.140625 227.816406 150.761719 226.5625 C 151.378906 225.316406 152.308594 224.421875 153.546875 223.886719 Z M 154.414062 231.238281 C 154.414062 233.570312 154.5625 235.179688 154.863281 236.0625 C 155.164062 236.941406 155.679688 237.382812 156.40625 237.382812 C 157.144531 237.382812 157.65625 236.941406 157.949219 236.0625 C 158.246094 235.179688 158.390625 233.570312 158.390625 231.238281 C 158.390625 228.914062 158.246094 227.3125 157.949219 226.445312 C 157.65625 225.585938 157.144531 225.15625 156.40625 225.15625 C 155.671875 225.15625 155.15625 225.585938 154.863281 226.445312 C 154.5625 227.3125 154.414062 228.914062 154.414062 231.238281 Z M 153.945312 215.425781 C 153.945312 218.136719 154.128906 220.003906 154.5 221.027344 C 154.867188 222.050781 155.503906 222.5625 156.40625 222.5625 C 157.3125 222.5625 157.949219 222.050781 158.3125 221.027344 C 158.675781 220.003906 158.859375 218.136719 158.859375 215.425781 C 158.859375 212.691406 158.675781 210.804688 158.3125 209.757812 C 157.941406 208.710938 157.304688 208.191406 156.40625 208.191406 C 155.511719 208.191406 154.878906 208.710938 154.507812 209.757812 C 154.132812 210.804688 153.945312 212.691406 153.945312 215.425781 Z M 164.828125 248.933594 "/>
<path fill-rule="nonzero" fill="rgb(0%, 0%, 0%)" fill-opacity="1" d="M 10.980469 59.332031 C 12.648438 59.332031 13.53125 57.554688 13.988281 55.773438 C 14.449219 53.992188 14.488281 52.214844 14.488281 52.214844 L 15.339844 52.203125 C 15.339844 52.203125 15.5 59.332031 18.839844 59.332031 Z M 10.980469 59.332031 "/>
<path fill-rule="nonzero" fill="rgb(0%, 0%, 0%)" fill-opacity="1" d="M 8.148438 52.203125 C 8.160156 48.734375 13.371094 46.214844 14.898438 43.472656 C 16.429688 46.222656 21.640625 48.742188 21.648438 52.203125 C 21.648438 53.84375 20.140625 55.171875 18.269531 55.171875 C 16.410156 55.171875 14.898438 53.84375 14.898438 52.203125 C 14.898438 53.84375 13.390625 55.171875 11.519531 55.171875 C 9.648438 55.171875 8.148438 53.84375 8.148438 52.203125 Z M 8.148438 52.203125 "/>
<path fill-rule="nonzero" fill="rgb(0%, 0%, 0%)" fill-opacity="1" d="M 159.101562 184.308594 C 157.429688 184.308594 156.550781 186.089844 156.089844 187.871094 C 155.628906 189.648438 155.589844 191.429688 155.589844 191.429688 L 154.738281 191.441406 C 154.738281 191.441406 154.578125 184.308594 151.238281 184.308594 Z M 159.101562 184.308594 "/>
<path fill-rule="nonzero" fill="rgb(0%, 0%, 0%)" fill-opacity="1" d="M 161.929688 191.441406 C 161.921875 194.910156 156.710938 197.429688 155.179688 200.171875 C 153.648438 197.421875 148.441406 194.898438 148.429688 191.441406 C 148.429688 189.800781 149.941406 188.46875 151.808594 188.46875 C 153.671875 188.46875 155.179688 189.800781 155.179688 191.441406 C 155.179688 189.800781 156.691406 188.46875 158.558594 188.46875 C 160.429688 188.46875 161.929688 189.800781 161.929688 191.441406 Z M 161.929688 191.441406 "/>
<path fill-rule="nonzero" fill="rgb(0%, 0%, 0%)" fill-opacity="1" d="M 35.707031 57.042969 C 39.714844 57.042969 41.824219 52.769531 42.929688 48.496094 C 44.035156 44.226562 44.128906 39.953125 44.128906 39.953125 L 46.171875 39.929688 C 46.171875 39.929688 46.554688 57.042969 54.570312 57.042969 Z M 35.707031 57.042969 "/>
<path fill-rule="nonzero" fill="rgb(0%, 0%, 0%)" fill-opacity="1" d="M 28.914062 39.929688 C 28.9375 31.601562 41.441406 25.554688 45.113281 18.976562 C 48.785156 25.578125 61.289062 31.625 61.3125 39.929688 C 61.3125 43.867188 57.691406 47.058594 53.203125 47.058594 C 48.738281 47.058594 45.113281 43.867188 45.113281 39.929688 C 45.113281 43.867188 41.488281 47.058594 37.003906 47.058594 C 32.515625 47.058594 28.914062 43.867188 28.914062 39.929688 Z M 28.914062 39.929688 "/>
<path fill-rule="nonzero" fill="rgb(0%, 0%, 0%)" fill-opacity="1" d="M 35.707031 111.199219 C 39.714844 111.199219 41.824219 106.925781 42.929688 102.652344 C 44.035156 98.382812 44.128906 94.109375 44.128906 94.109375 L 46.171875 94.085938 C 46.171875 94.085938 46.554688 111.199219 54.570312 111.199219 Z M 35.707031 111.199219 "/>
<path fill-rule="nonzero" fill="rgb(0%, 0%, 0%)" fill-opacity="1" d="M 28.914062 94.085938 C 28.9375 85.757812 41.441406 79.710938 45.113281 73.132812 C 48.785156 79.734375 61.289062 85.78125 61.3125 94.085938 C 61.3125 98.023438 57.691406 101.214844 53.203125 101.214844 C 48.738281 101.214844 45.113281 98.023438 45.113281 94.085938 C 45.113281 98.023438 41.488281 101.214844 37.003906 101.214844 C 32.515625 101.214844 28.914062 98.023438 28.914062 94.085938 Z M 28.914062 94.085938 "/>
<path fill-rule="nonzero" fill="rgb(0%, 0%, 0%)" fill-opacity="1" d="M 54.523438 128.296875 C 50.515625 128.296875 48.402344 132.566406 47.296875 136.839844 C 46.195312 141.109375 46.097656 145.382812 46.097656 145.382812 L 44.058594 145.40625 C 44.058594 145.40625 43.675781 128.296875 35.65625 128.296875 Z M 54.523438 128.296875 "/>
<path fill-rule="nonzero" fill="rgb(0%, 0%, 0%)" fill-opacity="1" d="M 61.3125 145.40625 C 61.289062 153.734375 48.785156 159.785156 45.113281 166.359375 C 41.441406 159.757812 28.9375 153.710938 28.914062 145.40625 C 28.914062 141.472656 32.539062 138.277344 37.027344 138.277344 C 41.488281 138.277344 45.113281 141.472656 45.113281 145.40625 C 45.113281 141.472656 48.738281 138.277344 53.226562 138.277344 C 57.714844 138.277344 61.3125 141.472656 61.3125 145.40625 Z M 61.3125 145.40625 "/>
<path fill-rule="nonzero" fill="rgb(0%, 0%, 0%)" fill-opacity="1" d="M 54.523438 182.453125 C 50.515625 182.453125 48.402344 186.722656 47.296875 190.996094 C 46.195312 195.265625 46.097656 199.539062 46.097656 199.539062 L 44.058594 199.5625 C 44.058594 199.5625 43.675781 182.453125 35.65625 182.453125 Z M 54.523438 182.453125 "/>
<path fill-rule="nonzero" fill="rgb(0%, 0%, 0%)" fill-opacity="1" d="M 61.3125 199.5625 C 61.289062 207.890625 48.785156 213.9375 45.113281 220.515625 C 41.441406 213.914062 28.9375 207.867188 28.914062 199.5625 C 28.914062 195.628906 32.539062 192.433594 37.027344 192.433594 C 41.488281 192.433594 45.113281 195.628906 45.113281 199.5625 C 45.113281 195.628906 48.738281 192.433594 53.226562 192.433594 C 57.714844 192.433594 61.3125 195.628906 61.3125 199.5625 Z M 61.3125 199.5625 "/>
<path fill-rule="nonzero" fill="rgb(0%, 0%, 0%)" fill-opacity="1" d="M 115.5625 57.042969 C 119.570312 57.042969 121.683594 52.769531 122.789062 48.496094 C 123.890625 44.226562 123.988281 39.953125 123.988281 39.953125 L 126.027344 39.929688 C 126.027344 39.929688 126.410156 57.042969 134.425781 57.042969 Z M 115.5625 57.042969 "/>
<path fill-rule="nonzero" fill="rgb(0%, 0%, 0%)" fill-opacity="1" d="M 108.769531 39.929688 C 108.796875 31.601562 121.300781 25.554688 124.972656 18.976562 C 128.644531 25.578125 141.148438 31.625 141.171875 39.929688 C 141.171875 43.867188 137.546875 47.058594 133.058594 47.058594 C 128.59375 47.058594 124.972656 43.867188 124.972656 39.929688 C 124.972656 43.867188 121.347656 47.058594 116.859375 47.058594 C 112.371094 47.058594 108.769531 43.867188 108.769531 39.929688 Z M 108.769531 39.929688 "/>
<path fill-rule="nonzero" fill="rgb(0%, 0%, 0%)" fill-opacity="1" d="M 115.5625 111.199219 C 119.570312 111.199219 121.683594 106.925781 122.789062 102.652344 C 123.890625 98.382812 123.988281 94.109375 123.988281 94.109375 L 126.027344 94.085938 C 126.027344 94.085938 126.410156 111.199219 134.425781 111.199219 Z M 115.5625 111.199219 "/>
<path fill-rule="nonzero" fill="rgb(0%, 0%, 0%)" fill-opacity="1" d="M 108.769531 94.085938 C 108.796875 85.757812 121.300781 79.710938 124.972656 73.132812 C 128.644531 79.734375 141.148438 85.78125 141.171875 94.085938 C 141.171875 98.023438 137.546875 101.214844 133.058594 101.214844 C 128.59375 101.214844 124.972656 98.023438 124.972656 94.085938 C 124.972656 98.023438 121.347656 101.214844 116.859375 101.214844 C 112.371094 101.214844 108.769531 98.023438 108.769531 94.085938 Z M 108.769531 94.085938 "/>
<path fill-rule="nonzero" fill="rgb(0%, 0%, 0%)" fill-opacity="1" d="M 134.378906 128.296875 C 130.371094 128.296875 128.257812 132.566406 127.15625 136.839844 C 126.050781 141.109375 125.957031 145.382812 125.957031 145.382812 L 123.914062 145.40625 C 123.914062 145.40625 123.53125 128.296875 115.515625 128.296875 Z M 134.378906 128.296875 "/>
<path fill-rule="nonzero" fill="rgb(0%, 0%, 0%)" fill-opacity="1" d="M 141.171875 145.40625 C 141.148438 153.734375 128.644531 159.785156 124.972656 166.359375 C 121.300781 159.757812 108.796875 153.710938 108.773438 145.40625 C 108.773438 141.472656 112.394531 138.277344 116.882812 138.277344 C 121.347656 138.277344 124.972656 141.472656 124.972656 145.40625 C 124.972656 141.472656 128.59375 138.277344 133.082031 138.277344 C 137.570312 138.277344 141.171875 141.472656 141.171875 145.40625 Z M 141.171875 145.40625 "/>
<path fill-rule="nonzero" fill="rgb(0%, 0%, 0%)" fill-opacity="1" d="M 134.378906 182.453125 C 130.371094 182.453125 128.257812 186.722656 127.15625 190.996094 C 126.050781 195.265625 125.957031 199.539062 125.957031 199.539062 L 123.914062 199.5625 C 123.914062 199.5625 123.53125 182.453125 115.515625 182.453125 Z M 134.378906 182.453125 "/>
<path fill-rule="nonzero" fill="rgb(0%, 0%, 0%)" fill-opacity="1" d="M 141.171875 199.5625 C 141.148438 207.890625 128.644531 213.9375 124.972656 220.515625 C 121.300781 213.914062 108.796875 207.867188 108.773438 199.5625 C 108.773438 195.628906 112.394531 192.433594 116.882812 192.433594 C 121.347656 192.433594 124.972656 195.628906 124.972656 199.5625 C 124.972656 195.628906 128.59375 192.433594 133.082031 192.433594 C 137.570312 192.433594 141.171875 195.628906 141.171875 199.5625 Z M 141.171875 199.5625 "/>
</svg>
