<?xml version="1.0" encoding="UTF-8"?>
<svg xmlns="http://www.w3.org/2000/svg" xmlns:xlink="http://www.w3.org/1999/xlink" width="169.074219" height="244.640625" viewBox="0 0 169.074219 244.640625">
<path fill-rule="nonzero" fill="rgb(100%, 100%, 100%)" fill-opacity="1" stroke-width="2.5" stroke-linecap="butt" stroke-linejoin="miter" stroke="rgb(0%, 0%, 0%)" stroke-opacity="1" stroke-miterlimit="4" d="M 0 -0.000473022 C 0 3.780777 3.089844 6.870621 6.871094 6.870621 L 159.714844 6.870621 C 163.484375 6.870621 166.574219 3.780777 166.574219 -0.000473022 L 166.574219 -228.398911 C 166.574219 -232.180161 163.484375 -235.270004 159.714844 -235.270004 L 6.871094 -235.270004 C 3.089844 -235.270004 0 -232.180161 0 -228.398911 Z M 0 -0.000473022 " transform="matrix(1, 0, 0, 1, 1.25, 236.520004)"/>
<path fill-rule="nonzero" fill="rgb(0%, 0%, 0%)" fill-opacity="1" d="M 11.222656 17.757812 C 11.738281 16.988281 12.316406 16.410156 12.949219 16.023438 C 13.585938 15.640625 14.277344 15.445312 15.03125 15.445312 C 16.835938 15.445312 18.253906 16.4375 19.285156 18.417969 C 20.316406 20.402344 20.835938 23.128906 20.835938 26.597656 C 20.835938 30.246094 20.253906 33.066406 19.089844 35.058594 C 17.929688 37.050781 16.28125 38.046875 14.140625 38.046875 C 11.722656 38.046875 9.890625 36.683594 8.644531 33.949219 C 7.398438 31.21875 6.777344 27.203125 6.777344 21.90625 C 6.777344 15.882812 7.464844 11.332031 8.847656 8.257812 C 10.234375 5.183594 12.289062 3.648438 15.003906 3.648438 C 15.714844 3.648438 16.480469 3.765625 17.289062 3.996094 C 18.105469 4.21875 18.980469 4.550781 19.910156 4.988281 L 19.910156 10.851562 L 18.480469 10.851562 C 18.28125 9.34375 17.902344 8.203125 17.351562 7.433594 C 16.804688 6.652344 16.09375 6.257812 15.226562 6.257812 C 13.820312 6.257812 12.804688 7.164062 12.175781 8.96875 C 11.550781 10.777344 11.234375 13.707031 11.222656 17.757812 Z M 13.867188 35.453125 C 14.679688 35.453125 15.257812 34.808594 15.605469 33.519531 C 15.957031 32.222656 16.136719 29.96875 16.136719 26.761719 C 16.136719 23.570312 15.957031 21.328125 15.605469 20.039062 C 15.257812 18.742188 14.679688 18.089844 13.867188 18.089844 C 13.054688 18.089844 12.476562 18.742188 12.128906 20.039062 C 11.789062 21.328125 11.617188 23.570312 11.617188 26.761719 C 11.617188 29.96875 11.789062 32.222656 12.128906 33.519531 C 12.476562 34.808594 13.054688 35.453125 13.867188 35.453125 Z M 5.25 -5.289062 "/>
<path fill-rule="nonzero" fill="rgb(0%, 0%, 0%)" fill-opacity="1" d="M 158.851562 225.882812 C 158.335938 226.652344 157.757812 227.230469 157.125 227.621094 C 156.488281 228.003906 155.796875 228.199219 155.042969 228.199219 C 153.238281 228.199219 151.820312 227.207031 150.792969 225.222656 C 149.757812 223.242188 149.238281 220.515625 149.238281 217.046875 C 149.238281 213.398438 149.820312 210.578125 150.984375 208.585938 C 152.144531 206.589844 153.792969 205.59375 155.933594 205.59375 C 158.351562 205.59375 160.183594 206.957031 161.429688 209.691406 C 162.675781 212.421875 163.300781 216.4375 163.300781 221.738281 C 163.300781 227.761719 162.609375 232.3125 161.226562 235.386719 C 159.839844 238.457031 157.785156 239.996094 155.070312 239.996094 C 154.359375 239.996094 153.597656 239.878906 152.785156 239.648438 C 151.96875 239.425781 151.09375 239.09375 150.164062 238.65625 L 150.164062 232.789062 L 151.59375 232.789062 C 151.792969 234.296875 152.171875 235.4375 152.722656 236.210938 C 153.269531 236.992188 153.980469 237.382812 154.847656 237.382812 C 156.253906 237.382812 157.273438 236.480469 157.902344 234.675781 C 158.523438 232.867188 158.84375 229.9375 158.851562 225.882812 Z M 156.207031 208.191406 C 155.394531 208.191406 154.816406 208.832031 154.46875 210.121094 C 154.117188 211.417969 153.941406 213.675781 153.941406 216.878906 C 153.941406 220.074219 154.117188 222.316406 154.46875 223.605469 C 154.816406 224.902344 155.394531 225.554688 156.207031 225.554688 C 157.019531 225.554688 157.597656 224.902344 157.945312 223.605469 C 158.285156 222.316406 158.457031 220.074219 158.457031 216.878906 C 158.457031 213.675781 158.285156 211.417969 157.945312 210.121094 C 157.597656 208.832031 157.019531 208.191406 156.207031 208.191406 Z M 164.824219 248.933594 "/>
<path fill-rule="nonzero" fill="rgb(0%, 0%, 0%)" fill-opacity="1" d="M 11.550781 46.742188 C 11.550781 48.554688 13.058594 50.023438 14.929688 50.023438 C 16.800781 50.023438 18.308594 48.554688 18.308594 46.742188 C 18.308594 44.933594 16.800781 43.464844 14.929688 43.464844 C 13.058594 43.464844 11.550781 44.933594 11.550781 46.742188 Z M 11.550781 46.742188 "/>
<path fill-rule="nonzero" fill="rgb(0%, 0%, 0%)" fill-opacity="1" d="M 7.191406 52.953125 C 7.191406 54.761719 8.699219 56.234375 10.570312 56.234375 C 12.441406 56.234375 13.949219 54.761719 13.949219 52.953125 C 13.949219 51.144531 12.441406 49.671875 10.570312 49.671875 C 8.699219 49.671875 7.191406 51.144531 7.191406 52.953125 Z M 7.191406 52.953125 "/>
<path fill-rule="nonzero" fill="rgb(0%, 0%, 0%)" fill-opacity="1" d="M 15.851562 52.972656 C 15.851562 53.632812 16.050781 54.253906 16.398438 54.773438 C 17 55.664062 18.050781 56.253906 19.230469 56.253906 C 21.101562 56.253906 22.609375 54.78125 22.609375 52.972656 C 22.609375 51.164062 21.101562 49.691406 19.230469 49.691406 C 17.359375 49.691406 15.851562 51.164062 15.851562 52.972656 Z M 15.851562 52.972656 "/>
<path fill-rule="nonzero" fill="rgb(0%, 0%, 0%)" fill-opacity="1" d="M 10.960938 59.34375 C 12.628906 59.34375 13.511719 57.984375 13.96875 56.621094 C 14.429688 55.261719 14.46875 53.902344 14.46875 53.902344 L 15.328125 53.902344 C 15.328125 53.902344 15.488281 59.332031 18.828125 59.34375 Z M 10.960938 59.34375 "/>
<path fill-rule="nonzero" fill="rgb(0%, 0%, 0%)" fill-opacity="1" d="M 17.21875 49.152344 C 15.320312 51.054688 15.320312 53.902344 15.320312 53.902344 L 14.46875 53.914062 C 14.46875 53.914062 14.46875 51.003906 12.621094 49.152344 "/>
<path fill-rule="nonzero" fill="rgb(0%, 0%, 0%)" fill-opacity="1" d="M 16.839844 55.253906 C 14.941406 53.351562 12.089844 53.351562 12.089844 53.351562 L 12.089844 52.503906 C 12.089844 52.503906 15 52.503906 16.851562 50.652344 "/>
<path fill-rule="nonzero" fill="rgb(0%, 0%, 0%)" fill-opacity="1" d="M 13.03125 55.261719 C 14.929688 53.363281 17.78125 53.363281 17.78125 53.363281 L 17.78125 52.511719 C 17.78125 52.511719 14.871094 52.511719 13.019531 50.664062 "/>
<path fill-rule="nonzero" fill="rgb(0%, 0%, 0%)" fill-opacity="1" d="M 158.523438 196.898438 C 158.523438 195.089844 157.015625 193.621094 155.144531 193.621094 C 153.273438 193.621094 151.765625 195.089844 151.765625 196.898438 C 151.765625 198.710938 153.273438 200.179688 155.144531 200.179688 C 157.015625 200.179688 158.523438 198.710938 158.523438 196.898438 Z M 158.523438 196.898438 "/>
<path fill-rule="nonzero" fill="rgb(0%, 0%, 0%)" fill-opacity="1" d="M 162.886719 190.691406 C 162.886719 188.878906 161.375 187.410156 159.503906 187.410156 C 157.636719 187.410156 156.125 188.878906 156.125 190.691406 C 156.125 192.5 157.636719 193.96875 159.503906 193.96875 C 161.375 193.96875 162.886719 192.5 162.886719 190.691406 Z M 162.886719 190.691406 "/>
<path fill-rule="nonzero" fill="rgb(0%, 0%, 0%)" fill-opacity="1" d="M 154.226562 190.671875 C 154.226562 190.011719 154.023438 189.390625 153.675781 188.871094 C 153.074219 187.980469 152.023438 187.390625 150.84375 187.390625 C 148.976562 187.390625 147.464844 188.859375 147.464844 190.671875 C 147.464844 192.480469 148.976562 193.949219 150.84375 193.949219 C 152.714844 193.949219 154.226562 192.480469 154.226562 190.671875 Z M 154.226562 190.671875 "/>
<path fill-rule="nonzero" fill="rgb(0%, 0%, 0%)" fill-opacity="1" d="M 159.113281 184.300781 C 157.445312 184.300781 156.566406 185.660156 156.105469 187.019531 C 155.644531 188.378906 155.605469 189.738281 155.605469 189.738281 L 154.746094 189.738281 C 154.746094 189.738281 154.585938 184.308594 151.246094 184.300781 Z M 159.113281 184.300781 "/>
<path fill-rule="nonzero" fill="rgb(0%, 0%, 0%)" fill-opacity="1" d="M 152.855469 194.488281 C 154.753906 192.589844 154.753906 189.738281 154.753906 189.738281 L 155.605469 189.730469 C 155.605469 189.730469 155.605469 192.640625 157.453125 194.488281 "/>
<path fill-rule="nonzero" fill="rgb(0%, 0%, 0%)" fill-opacity="1" d="M 153.234375 188.390625 C 155.136719 190.289062 157.984375 190.289062 157.984375 190.289062 L 157.984375 191.140625 C 157.984375 191.140625 155.074219 191.140625 153.226562 192.988281 "/>
<path fill-rule="nonzero" fill="rgb(0%, 0%, 0%)" fill-opacity="1" d="M 157.046875 188.378906 C 155.144531 190.28125 152.296875 190.28125 152.296875 190.28125 L 152.296875 191.128906 C 152.296875 191.128906 155.203125 191.128906 157.054688 192.980469 "/>
<path fill-rule="nonzero" fill="rgb(0%, 0%, 0%)" fill-opacity="1" d="M 37.070312 26.824219 C 37.070312 31.171875 40.691406 34.699219 45.179688 34.699219 C 49.667969 34.699219 53.292969 31.171875 53.292969 26.824219 C 53.292969 22.480469 49.667969 18.953125 45.179688 18.953125 C 40.691406 18.953125 37.070312 22.480469 37.070312 26.824219 Z M 37.070312 26.824219 "/>
<path fill-rule="nonzero" fill="rgb(0%, 0%, 0%)" fill-opacity="1" d="M 26.605469 41.730469 C 26.605469 46.074219 30.226562 49.601562 34.714844 49.601562 C 39.203125 49.601562 42.828125 46.074219 42.828125 41.730469 C 42.828125 37.386719 39.203125 33.859375 34.714844 33.859375 C 30.226562 33.859375 26.605469 37.386719 26.605469 41.730469 Z M 26.605469 41.730469 "/>
<path fill-rule="nonzero" fill="rgb(0%, 0%, 0%)" fill-opacity="1" d="M 47.386719 41.777344 C 47.386719 43.363281 47.867188 44.851562 48.707031 46.097656 C 50.148438 48.234375 52.667969 49.648438 55.5 49.648438 C 59.988281 49.648438 63.613281 46.121094 63.613281 41.777344 C 63.613281 37.433594 59.988281 33.90625 55.5 33.90625 C 51.011719 33.90625 47.386719 37.433594 47.386719 41.777344 Z M 47.386719 41.777344 "/>
<path fill-rule="nonzero" fill="rgb(0%, 0%, 0%)" fill-opacity="1" d="M 35.652344 57.066406 C 39.660156 57.066406 41.773438 53.800781 42.875 50.539062 C 43.980469 47.273438 44.078125 44.011719 44.078125 44.011719 L 46.140625 44.011719 C 46.140625 44.011719 46.523438 57.042969 54.539062 57.066406 Z M 35.652344 57.066406 "/>
<path fill-rule="nonzero" fill="rgb(0%, 0%, 0%)" fill-opacity="1" d="M 50.675781 32.609375 C 46.117188 37.171875 46.117188 44.011719 46.117188 44.011719 L 44.078125 44.035156 C 44.078125 44.035156 44.078125 37.050781 39.636719 32.609375 "/>
<path fill-rule="nonzero" fill="rgb(0%, 0%, 0%)" fill-opacity="1" d="M 49.765625 47.25 C 45.203125 42.691406 38.363281 42.691406 38.363281 42.691406 L 38.363281 40.648438 C 38.363281 40.648438 45.347656 40.648438 49.789062 36.210938 "/>
<path fill-rule="nonzero" fill="rgb(0%, 0%, 0%)" fill-opacity="1" d="M 40.621094 47.273438 C 45.179688 42.714844 52.019531 42.714844 52.019531 42.714844 L 52.019531 40.675781 C 52.019531 40.675781 45.035156 40.675781 40.597656 36.234375 "/>
<path fill-rule="nonzero" fill="rgb(0%, 0%, 0%)" fill-opacity="1" d="M 37.070312 103.765625 C 37.070312 108.113281 40.691406 111.640625 45.179688 111.640625 C 49.667969 111.640625 53.292969 108.113281 53.292969 103.765625 C 53.292969 99.421875 49.667969 95.894531 45.179688 95.894531 C 40.691406 95.894531 37.070312 99.421875 37.070312 103.765625 Z M 37.070312 103.765625 "/>
<path fill-rule="nonzero" fill="rgb(0%, 0%, 0%)" fill-opacity="1" d="M 26.605469 118.671875 C 26.605469 123.015625 30.226562 126.542969 34.714844 126.542969 C 39.203125 126.542969 42.828125 123.015625 42.828125 118.671875 C 42.828125 114.328125 39.203125 110.800781 34.714844 110.800781 C 30.226562 110.800781 26.605469 114.328125 26.605469 118.671875 Z M 26.605469 118.671875 "/>
<path fill-rule="nonzero" fill="rgb(0%, 0%, 0%)" fill-opacity="1" d="M 47.386719 118.71875 C 47.386719 120.304688 47.867188 121.792969 48.707031 123.039062 C 50.148438 125.175781 52.667969 126.589844 55.5 126.589844 C 59.988281 126.589844 63.613281 123.0625 63.613281 118.71875 C 63.613281 114.375 59.988281 110.847656 55.5 110.847656 C 51.011719 110.847656 47.386719 114.375 47.386719 118.71875 Z M 47.386719 118.71875 "/>
<path fill-rule="nonzero" fill="rgb(0%, 0%, 0%)" fill-opacity="1" d="M 35.652344 134.007812 C 39.660156 134.007812 41.773438 130.742188 42.875 127.480469 C 43.980469 124.214844 44.078125 120.953125 44.078125 120.953125 L 46.140625 120.953125 C 46.140625 120.953125 46.523438 133.984375 54.539062 134.007812 Z M 35.652344 134.007812 "/>
<path fill-rule="nonzero" fill="rgb(0%, 0%, 0%)" fill-opacity="1" d="M 50.675781 109.550781 C 46.117188 114.113281 46.117188 120.953125 46.117188 120.953125 L 44.078125 120.976562 C 44.078125 120.976562 44.078125 113.992188 39.636719 109.550781 "/>
<path fill-rule="nonzero" fill="rgb(0%, 0%, 0%)" fill-opacity="1" d="M 49.765625 124.191406 C 45.203125 119.632812 38.363281 119.632812 38.363281 119.632812 L 38.363281 117.589844 C 38.363281 117.589844 45.347656 117.589844 49.789062 113.152344 "/>
<path fill-rule="nonzero" fill="rgb(0%, 0%, 0%)" fill-opacity="1" d="M 40.621094 124.214844 C 45.179688 119.65625 52.019531 119.65625 52.019531 119.65625 L 52.019531 117.617188 C 52.019531 117.617188 45.035156 117.617188 40.597656 113.175781 "/>
<path fill-rule="nonzero" fill="rgb(0%, 0%, 0%)" fill-opacity="1" d="M 53.148438 212.667969 C 53.148438 208.324219 49.523438 204.792969 45.035156 204.792969 C 40.546875 204.792969 36.925781 208.324219 36.925781 212.667969 C 36.925781 217.011719 40.546875 220.539062 45.035156 220.539062 C 49.523438 220.539062 53.148438 217.011719 53.148438 212.667969 Z M 53.148438 212.667969 "/>
<path fill-rule="nonzero" fill="rgb(0%, 0%, 0%)" fill-opacity="1" d="M 63.613281 197.761719 C 63.613281 193.417969 59.988281 189.890625 55.5 189.890625 C 51.011719 189.890625 47.386719 193.417969 47.386719 197.761719 C 47.386719 202.105469 51.011719 205.632812 55.5 205.632812 C 59.988281 205.632812 63.613281 202.105469 63.613281 197.761719 Z M 63.613281 197.761719 "/>
<path fill-rule="nonzero" fill="rgb(0%, 0%, 0%)" fill-opacity="1" d="M 42.828125 197.714844 C 42.828125 196.128906 42.347656 194.640625 41.507812 193.394531 C 40.070312 191.257812 37.546875 189.84375 34.714844 189.84375 C 30.230469 189.84375 26.605469 193.371094 26.605469 197.714844 C 26.605469 202.058594 30.230469 205.585938 34.714844 205.585938 C 39.203125 205.585938 42.828125 202.058594 42.828125 197.714844 Z M 42.828125 197.714844 "/>
<path fill-rule="nonzero" fill="rgb(0%, 0%, 0%)" fill-opacity="1" d="M 54.566406 182.425781 C 50.558594 182.425781 48.445312 185.691406 47.339844 188.953125 C 46.238281 192.21875 46.140625 195.480469 46.140625 195.480469 L 44.078125 195.480469 C 44.078125 195.480469 43.691406 182.449219 35.675781 182.425781 Z M 54.566406 182.425781 "/>
<path fill-rule="nonzero" fill="rgb(0%, 0%, 0%)" fill-opacity="1" d="M 39.539062 206.882812 C 44.101562 202.324219 44.101562 195.480469 44.101562 195.480469 L 46.140625 195.457031 C 46.140625 195.457031 46.140625 202.441406 50.582031 206.882812 "/>
<path fill-rule="nonzero" fill="rgb(0%, 0%, 0%)" fill-opacity="1" d="M 40.453125 192.242188 C 45.011719 196.800781 51.851562 196.800781 51.851562 196.800781 L 51.851562 198.84375 C 51.851562 198.84375 44.867188 198.84375 40.429688 203.28125 "/>
<path fill-rule="nonzero" fill="rgb(0%, 0%, 0%)" fill-opacity="1" d="M 49.597656 192.21875 C 45.035156 196.777344 38.195312 196.777344 38.195312 196.777344 L 38.195312 198.820312 C 38.195312 198.820312 45.179688 198.820312 49.621094 203.257812 "/>
<path fill-rule="nonzero" fill="rgb(0%, 0%, 0%)" fill-opacity="1" d="M 116.925781 26.824219 C 116.925781 31.171875 120.550781 34.699219 125.039062 34.699219 C 129.527344 34.699219 133.148438 31.171875 133.148438 26.824219 C 133.148438 22.480469 129.527344 18.953125 125.039062 18.953125 C 120.550781 18.953125 116.925781 22.480469 116.925781 26.824219 Z M 116.925781 26.824219 "/>
<path fill-rule="nonzero" fill="rgb(0%, 0%, 0%)" fill-opacity="1" d="M 106.460938 41.730469 C 106.460938 46.074219 110.085938 49.601562 114.574219 49.601562 C 119.0625 49.601562 122.6875 46.074219 122.6875 41.730469 C 122.6875 37.386719 119.0625 33.859375 114.574219 33.859375 C 110.085938 33.859375 106.460938 37.386719 106.460938 41.730469 Z M 106.460938 41.730469 "/>
<path fill-rule="nonzero" fill="rgb(0%, 0%, 0%)" fill-opacity="1" d="M 127.246094 41.777344 C 127.246094 43.363281 127.726562 44.851562 128.566406 46.097656 C 130.007812 48.234375 132.527344 49.648438 135.359375 49.648438 C 139.847656 49.648438 143.46875 46.121094 143.46875 41.777344 C 143.46875 37.433594 139.847656 33.90625 135.359375 33.90625 C 130.871094 33.90625 127.246094 37.433594 127.246094 41.777344 Z M 127.246094 41.777344 "/>
<path fill-rule="nonzero" fill="rgb(0%, 0%, 0%)" fill-opacity="1" d="M 115.511719 57.066406 C 119.519531 57.066406 121.628906 53.800781 122.734375 50.539062 C 123.839844 47.273438 123.933594 44.011719 123.933594 44.011719 L 126 44.011719 C 126 44.011719 126.382812 57.042969 134.398438 57.066406 Z M 115.511719 57.066406 "/>
<path fill-rule="nonzero" fill="rgb(0%, 0%, 0%)" fill-opacity="1" d="M 130.535156 32.609375 C 125.972656 37.171875 125.972656 44.011719 125.972656 44.011719 L 123.933594 44.035156 C 123.933594 44.035156 123.933594 37.050781 119.496094 32.609375 "/>
<path fill-rule="nonzero" fill="rgb(0%, 0%, 0%)" fill-opacity="1" d="M 129.621094 47.25 C 125.0625 42.691406 118.222656 42.691406 118.222656 42.691406 L 118.222656 40.648438 C 118.222656 40.648438 125.207031 40.648438 129.644531 36.210938 "/>
<path fill-rule="nonzero" fill="rgb(0%, 0%, 0%)" fill-opacity="1" d="M 120.476562 47.273438 C 125.039062 42.714844 131.878906 42.714844 131.878906 42.714844 L 131.878906 40.675781 C 131.878906 40.675781 124.894531 40.675781 120.453125 36.234375 "/>
<path fill-rule="nonzero" fill="rgb(0%, 0%, 0%)" fill-opacity="1" d="M 116.925781 103.765625 C 116.925781 108.113281 120.550781 111.640625 125.039062 111.640625 C 129.527344 111.640625 133.148438 108.113281 133.148438 103.765625 C 133.148438 99.421875 129.527344 95.894531 125.039062 95.894531 C 120.550781 95.894531 116.925781 99.421875 116.925781 103.765625 Z M 116.925781 103.765625 "/>
<path fill-rule="nonzero" fill="rgb(0%, 0%, 0%)" fill-opacity="1" d="M 106.460938 118.671875 C 106.460938 123.015625 110.085938 126.542969 114.574219 126.542969 C 119.0625 126.542969 122.6875 123.015625 122.6875 118.671875 C 122.6875 114.328125 119.0625 110.800781 114.574219 110.800781 C 110.085938 110.800781 106.460938 114.328125 106.460938 118.671875 Z M 106.460938 118.671875 "/>
<path fill-rule="nonzero" fill="rgb(0%, 0%, 0%)" fill-opacity="1" d="M 127.246094 118.71875 C 127.246094 120.304688 127.726562 121.792969 128.566406 123.039062 C 130.007812 125.175781 132.527344 126.589844 135.359375 126.589844 C 139.847656 126.589844 143.46875 123.0625 143.46875 118.71875 C 143.46875 114.375 139.847656 110.847656 135.359375 110.847656 C 130.871094 110.847656 127.246094 114.375 127.246094 118.71875 Z M 127.246094 118.71875 "/>
<path fill-rule="nonzero" fill="rgb(0%, 0%, 0%)" fill-opacity="1" d="M 115.511719 134.007812 C 119.519531 134.007812 121.628906 130.742188 122.734375 127.480469 C 123.839844 124.214844 123.933594 120.953125 123.933594 120.953125 L 126 120.953125 C 126 120.953125 126.382812 133.984375 134.398438 134.007812 Z M 115.511719 134.007812 "/>
<path fill-rule="nonzero" fill="rgb(0%, 0%, 0%)" fill-opacity="1" d="M 130.535156 109.550781 C 125.972656 114.113281 125.972656 120.953125 125.972656 120.953125 L 123.933594 120.976562 C 123.933594 120.976562 123.933594 113.992188 119.496094 109.550781 "/>
<path fill-rule="nonzero" fill="rgb(0%, 0%, 0%)" fill-opacity="1" d="M 129.621094 124.191406 C 125.0625 119.632812 118.222656 119.632812 118.222656 119.632812 L 118.222656 117.589844 C 118.222656 117.589844 125.207031 117.589844 129.644531 113.152344 "/>
<path fill-rule="nonzero" fill="rgb(0%, 0%, 0%)" fill-opacity="1" d="M 120.476562 124.214844 C 125.039062 119.65625 131.878906 119.65625 131.878906 119.65625 L 131.878906 117.617188 C 131.878906 117.617188 124.894531 117.617188 120.453125 113.175781 "/>
<path fill-rule="nonzero" fill="rgb(0%, 0%, 0%)" fill-opacity="1" d="M 133.007812 212.667969 C 133.007812 208.324219 129.382812 204.792969 124.894531 204.792969 C 120.40625 204.792969 116.78125 208.324219 116.78125 212.667969 C 116.78125 217.011719 120.40625 220.539062 124.894531 220.539062 C 129.382812 220.539062 133.007812 217.011719 133.007812 212.667969 Z M 133.007812 212.667969 "/>
<path fill-rule="nonzero" fill="rgb(0%, 0%, 0%)" fill-opacity="1" d="M 143.46875 197.761719 C 143.46875 193.417969 139.847656 189.890625 135.359375 189.890625 C 130.871094 189.890625 127.246094 193.417969 127.246094 197.761719 C 127.246094 202.105469 130.871094 205.632812 135.359375 205.632812 C 139.847656 205.632812 143.46875 202.105469 143.46875 197.761719 Z M 143.46875 197.761719 "/>
<path fill-rule="nonzero" fill="rgb(0%, 0%, 0%)" fill-opacity="1" d="M 122.6875 197.714844 C 122.6875 196.128906 122.207031 194.640625 121.367188 193.394531 C 119.925781 191.257812 117.40625 189.84375 114.574219 189.84375 C 110.085938 189.84375 106.460938 193.371094 106.460938 197.714844 C 106.460938 202.058594 110.085938 205.585938 114.574219 205.585938 C 119.0625 205.585938 122.6875 202.058594 122.6875 197.714844 Z M 122.6875 197.714844 "/>
<path fill-rule="nonzero" fill="rgb(0%, 0%, 0%)" fill-opacity="1" d="M 134.421875 182.425781 C 130.414062 182.425781 128.300781 185.691406 127.199219 188.953125 C 126.09375 192.21875 126 195.480469 126 195.480469 L 123.933594 195.480469 C 123.933594 195.480469 123.550781 182.449219 115.535156 182.425781 Z M 134.421875 182.425781 "/>
<path fill-rule="nonzero" fill="rgb(0%, 0%, 0%)" fill-opacity="1" d="M 119.398438 206.882812 C 123.957031 202.324219 123.957031 195.480469 123.957031 195.480469 L 126 195.457031 C 126 195.457031 126 202.441406 130.4375 206.882812 "/>
<path fill-rule="nonzero" fill="rgb(0%, 0%, 0%)" fill-opacity="1" d="M 120.308594 192.242188 C 124.871094 196.800781 131.710938 196.800781 131.710938 196.800781 L 131.710938 198.84375 C 131.710938 198.84375 124.726562 198.84375 120.285156 203.28125 "/>
<path fill-rule="nonzero" fill="rgb(0%, 0%, 0%)" fill-opacity="1" d="M 129.453125 192.21875 C 124.894531 196.777344 118.054688 196.777344 118.054688 196.777344 L 118.054688 198.820312 C 118.054688 198.820312 125.039062 198.820312 129.476562 203.257812 "/>
</svg>
