<?xml version="1.0" encoding="UTF-8"?>
<svg xmlns="http://www.w3.org/2000/svg" xmlns:xlink="http://www.w3.org/1999/xlink" width="169.074219" height="244.640625" viewBox="0 0 169.074219 244.640625">
<path fill-rule="nonzero" fill="rgb(100%, 100%, 100%)" fill-opacity="1" stroke-width="2.5" stroke-linecap="butt" stroke-linejoin="miter" stroke="rgb(0%, 0%, 0%)" stroke-opacity="1" stroke-miterlimit="4" d="M 0 -0.000473022 C 0 3.780777 3.089844 6.870621 6.871094 6.870621 L 159.714844 6.870621 C 163.484375 6.870621 166.574219 3.780777 166.574219 -0.000473022 L 166.574219 -228.398911 C 166.574219 -232.180161 163.484375 -235.270004 159.714844 -235.270004 L 6.871094 -235.270004 C 3.089844 -235.270004 0 -232.180161 0 -228.398911 Z M 0 -0.000473022 " transform="matrix(1, 0, 0, 1, 1.25, 236.520004)"/>
<path fill-rule="nonzero" fill="rgb(0%, 0%, 0%)" fill-opacity="1" d="M 20.121094 9.894531 L 12.828125 37.402344 L 10.417969 37.402344 L 17.527344 10.539062 L 8.796875 10.539062 L 8.796875 15.015625 L 7.171875 15.015625 L 7.171875 4.261719 L 20.121094 4.261719 Z M 5.25 -5.289062 "/>
<path fill-rule="nonzero" fill="rgb(0%, 0%, 0%)" fill-opacity="1" d="M 149.949219 233.75 L 157.242188 206.238281 L 159.652344 206.238281 L 152.542969 233.105469 L 161.273438 233.105469 L 161.273438 228.628906 L 162.898438 228.628906 L 162.898438 239.382812 L 149.949219 239.382812 Z M 164.820312 248.933594 "/>
<path fill-rule="nonzero" fill="rgb(0%, 0%, 0%)" fill-opacity="1" d="M 11.550781 46.742188 C 11.550781 48.554688 13.058594 50.023438 14.929688 50.023438 C 16.800781 50.023438 18.308594 48.554688 18.308594 46.742188 C 18.308594 44.933594 16.800781 43.464844 14.929688 43.464844 C 13.058594 43.464844 11.550781 44.933594 11.550781 46.742188 Z M 11.550781 46.742188 "/>
<path fill-rule="nonzero" fill="rgb(0%, 0%, 0%)" fill-opacity="1" d="M 7.191406 52.953125 C 7.191406 54.761719 8.699219 56.234375 10.570312 56.234375 C 12.441406 56.234375 13.949219 54.761719 13.949219 52.953125 C 13.949219 51.144531 12.441406 49.671875 10.570312 49.671875 C 8.699219 49.671875 7.191406 51.144531 7.191406 52.953125 Z M 7.191406 52.953125 "/>
<path fill-rule="nonzero" fill="rgb(0%, 0%, 0%)" fill-opacity="1" d="M 15.851562 52.972656 C 15.851562 53.632812 16.050781 54.253906 16.398438 54.773438 C 17 55.664062 18.050781 56.253906 19.230469 56.253906 C 21.101562 56.253906 22.609375 54.78125 22.609375 52.972656 C 22.609375 51.164062 21.101562 49.691406 19.230469 49.691406 C 17.359375 49.691406 15.851562 51.164062 15.851562 52.972656 Z M 15.851562 52.972656 "/>
<path fill-rule="nonzero" fill="rgb(0%, 0%, 0%)" fill-opacity="1" d="M 10.960938 59.34375 C 12.628906 59.34375 13.511719 57.984375 13.96875 56.621094 C 14.429688 55.261719 14.46875 53.902344 14.46875 53.902344 L 15.328125 53.902344 C 15.328125 53.902344 15.488281 59.332031 18.828125 59.34375 Z M 10.960938 59.34375 "/>
<path fill-rule="nonzero" fill="rgb(0%, 0%, 0%)" fill-opacity="1" d="M 17.21875 49.152344 C 15.320312 51.054688 15.320312 53.902344 15.320312 53.902344 L 14.46875 53.914062 C 14.46875 53.914062 14.46875 51.003906 12.621094 49.152344 "/>
<path fill-rule="nonzero" fill="rgb(0%, 0%, 0%)" fill-opacity="1" d="M 16.839844 55.253906 C 14.941406 53.351562 12.089844 53.351562 12.089844 53.351562 L 12.089844 52.503906 C 12.089844 52.503906 15 52.503906 16.851562 50.652344 "/>
<path fill-rule="nonzero" fill="rgb(0%, 0%, 0%)" fill-opacity="1" d="M 13.03125 55.261719 C 14.929688 53.363281 17.78125 53.363281 17.78125 53.363281 L 17.78125 52.511719 C 17.78125 52.511719 14.871094 52.511719 13.019531 50.664062 "/>
<path fill-rule="nonzero" fill="rgb(0%, 0%, 0%)" fill-opacity="1" d="M 158.519531 196.898438 C 158.519531 195.089844 157.011719 193.621094 155.140625 193.621094 C 153.269531 193.621094 151.761719 195.089844 151.761719 196.898438 C 151.761719 198.710938 153.269531 200.179688 155.140625 200.179688 C 157.011719 200.179688 158.519531 198.710938 158.519531 196.898438 Z M 158.519531 196.898438 "/>
<path fill-rule="nonzero" fill="rgb(0%, 0%, 0%)" fill-opacity="1" d="M 162.878906 190.691406 C 162.878906 188.878906 161.371094 187.410156 159.5 187.410156 C 157.628906 187.410156 156.121094 188.878906 156.121094 190.691406 C 156.121094 192.5 157.628906 193.96875 159.5 193.96875 C 161.371094 193.96875 162.878906 192.5 162.878906 190.691406 Z M 162.878906 190.691406 "/>
<path fill-rule="nonzero" fill="rgb(0%, 0%, 0%)" fill-opacity="1" d="M 154.21875 190.671875 C 154.21875 190.011719 154.019531 189.390625 153.671875 188.871094 C 153.070312 187.980469 152.019531 187.390625 150.839844 187.390625 C 148.96875 187.390625 147.460938 188.859375 147.460938 190.671875 C 147.460938 192.480469 148.96875 193.949219 150.839844 193.949219 C 152.710938 193.949219 154.21875 192.480469 154.21875 190.671875 Z M 154.21875 190.671875 "/>
<path fill-rule="nonzero" fill="rgb(0%, 0%, 0%)" fill-opacity="1" d="M 159.109375 184.300781 C 157.441406 184.300781 156.558594 185.660156 156.101562 187.019531 C 155.640625 188.378906 155.601562 189.738281 155.601562 189.738281 L 154.738281 189.738281 C 154.738281 189.738281 154.578125 184.308594 151.238281 184.300781 Z M 159.109375 184.300781 "/>
<path fill-rule="nonzero" fill="rgb(0%, 0%, 0%)" fill-opacity="1" d="M 152.851562 194.488281 C 154.75 192.589844 154.75 189.738281 154.75 189.738281 L 155.601562 189.730469 C 155.601562 189.730469 155.601562 192.640625 157.449219 194.488281 "/>
<path fill-rule="nonzero" fill="rgb(0%, 0%, 0%)" fill-opacity="1" d="M 153.230469 188.390625 C 155.128906 190.289062 157.980469 190.289062 157.980469 190.289062 L 157.980469 191.140625 C 157.980469 191.140625 155.070312 191.140625 153.21875 192.988281 "/>
<path fill-rule="nonzero" fill="rgb(0%, 0%, 0%)" fill-opacity="1" d="M 157.039062 188.378906 C 155.140625 190.28125 152.289062 190.28125 152.289062 190.28125 L 152.289062 191.128906 C 152.289062 191.128906 155.199219 191.128906 157.050781 192.980469 "/>
<path fill-rule="nonzero" fill="rgb(0%, 0%, 0%)" fill-opacity="1" d="M 37.070312 26.824219 C 37.070312 31.171875 40.691406 34.699219 45.179688 34.699219 C 49.667969 34.699219 53.292969 31.171875 53.292969 26.824219 C 53.292969 22.480469 49.667969 18.953125 45.179688 18.953125 C 40.691406 18.953125 37.070312 22.480469 37.070312 26.824219 Z M 37.070312 26.824219 "/>
<path fill-rule="nonzero" fill="rgb(0%, 0%, 0%)" fill-opacity="1" d="M 26.605469 41.730469 C 26.605469 46.074219 30.230469 49.601562 34.71875 49.601562 C 39.203125 49.601562 42.828125 46.074219 42.828125 41.730469 C 42.828125 37.386719 39.203125 33.859375 34.71875 33.859375 C 30.230469 33.859375 26.605469 37.386719 26.605469 41.730469 Z M 26.605469 41.730469 "/>
<path fill-rule="nonzero" fill="rgb(0%, 0%, 0%)" fill-opacity="1" d="M 47.390625 41.777344 C 47.390625 43.363281 47.867188 44.851562 48.707031 46.097656 C 50.148438 48.234375 52.667969 49.648438 55.5 49.648438 C 59.988281 49.648438 63.613281 46.121094 63.613281 41.777344 C 63.613281 37.433594 59.988281 33.90625 55.5 33.90625 C 51.011719 33.90625 47.390625 37.433594 47.390625 41.777344 Z M 47.390625 41.777344 "/>
<path fill-rule="nonzero" fill="rgb(0%, 0%, 0%)" fill-opacity="1" d="M 35.652344 57.066406 C 39.660156 57.066406 41.773438 53.800781 42.875 50.539062 C 43.980469 47.273438 44.078125 44.011719 44.078125 44.011719 L 46.140625 44.011719 C 46.140625 44.011719 46.523438 57.042969 54.539062 57.066406 Z M 35.652344 57.066406 "/>
<path fill-rule="nonzero" fill="rgb(0%, 0%, 0%)" fill-opacity="1" d="M 50.675781 32.609375 C 46.117188 37.171875 46.117188 44.011719 46.117188 44.011719 L 44.078125 44.035156 C 44.078125 44.035156 44.078125 37.050781 39.636719 32.609375 "/>
<path fill-rule="nonzero" fill="rgb(0%, 0%, 0%)" fill-opacity="1" d="M 49.765625 47.25 C 45.203125 42.691406 38.363281 42.691406 38.363281 42.691406 L 38.363281 40.648438 C 38.363281 40.648438 45.347656 40.648438 49.789062 36.210938 "/>
<path fill-rule="nonzero" fill="rgb(0%, 0%, 0%)" fill-opacity="1" d="M 40.621094 47.273438 C 45.179688 42.714844 52.019531 42.714844 52.019531 42.714844 L 52.019531 40.675781 C 52.019531 40.675781 45.035156 40.675781 40.597656 36.234375 "/>
<path fill-rule="nonzero" fill="rgb(0%, 0%, 0%)" fill-opacity="1" d="M 37.070312 103.765625 C 37.070312 108.113281 40.691406 111.640625 45.179688 111.640625 C 49.667969 111.640625 53.292969 108.113281 53.292969 103.765625 C 53.292969 99.421875 49.667969 95.894531 45.179688 95.894531 C 40.691406 95.894531 37.070312 99.421875 37.070312 103.765625 Z M 37.070312 103.765625 "/>
<path fill-rule="nonzero" fill="rgb(0%, 0%, 0%)" fill-opacity="1" d="M 26.605469 118.671875 C 26.605469 123.015625 30.230469 126.542969 34.71875 126.542969 C 39.203125 126.542969 42.828125 123.015625 42.828125 118.671875 C 42.828125 114.328125 39.203125 110.800781 34.71875 110.800781 C 30.230469 110.800781 26.605469 114.328125 26.605469 118.671875 Z M 26.605469 118.671875 "/>
<path fill-rule="nonzero" fill="rgb(0%, 0%, 0%)" fill-opacity="1" d="M 47.390625 118.71875 C 47.390625 120.304688 47.867188 121.792969 48.707031 123.039062 C 50.148438 125.175781 52.667969 126.589844 55.5 126.589844 C 59.988281 126.589844 63.613281 123.0625 63.613281 118.71875 C 63.613281 114.375 59.988281 110.847656 55.5 110.847656 C 51.011719 110.847656 47.390625 114.375 47.390625 118.71875 Z M 47.390625 118.71875 "/>
<path fill-rule="nonzero" fill="rgb(0%, 0%, 0%)" fill-opacity="1" d="M 35.652344 134.007812 C 39.660156 134.007812 41.773438 130.742188 42.875 127.480469 C 43.980469 124.214844 44.078125 120.953125 44.078125 120.953125 L 46.140625 120.953125 C 46.140625 120.953125 46.523438 133.984375 54.539062 134.007812 Z M 35.652344 134.007812 "/>
<path fill-rule="nonzero" fill="rgb(0%, 0%, 0%)" fill-opacity="1" d="M 50.675781 109.550781 C 46.117188 114.113281 46.117188 120.953125 46.117188 120.953125 L 44.078125 120.976562 C 44.078125 120.976562 44.078125 113.992188 39.636719 109.550781 "/>
<path fill-rule="nonzero" fill="rgb(0%, 0%, 0%)" fill-opacity="1" d="M 49.765625 124.191406 C 45.203125 119.632812 38.363281 119.632812 38.363281 119.632812 L 38.363281 117.589844 C 38.363281 117.589844 45.347656 117.589844 49.789062 113.152344 "/>
<path fill-rule="nonzero" fill="rgb(0%, 0%, 0%)" fill-opacity="1" d="M 40.621094 124.214844 C 45.179688 119.65625 52.019531 119.65625 52.019531 119.65625 L 52.019531 117.617188 C 52.019531 117.617188 45.035156 117.617188 40.597656 113.175781 "/>
<path fill-rule="nonzero" fill="rgb(0%, 0%, 0%)" fill-opacity="1" d="M 53.148438 212.667969 C 53.148438 208.324219 49.523438 204.792969 45.035156 204.792969 C 40.550781 204.792969 36.925781 208.324219 36.925781 212.667969 C 36.925781 217.011719 40.550781 220.539062 45.035156 220.539062 C 49.523438 220.539062 53.148438 217.011719 53.148438 212.667969 Z M 53.148438 212.667969 "/>
<path fill-rule="nonzero" fill="rgb(0%, 0%, 0%)" fill-opacity="1" d="M 63.613281 197.761719 C 63.613281 193.417969 59.988281 189.890625 55.5 189.890625 C 51.011719 189.890625 47.390625 193.417969 47.390625 197.761719 C 47.390625 202.105469 51.011719 205.632812 55.5 205.632812 C 59.988281 205.632812 63.613281 202.105469 63.613281 197.761719 Z M 63.613281 197.761719 "/>
<path fill-rule="nonzero" fill="rgb(0%, 0%, 0%)" fill-opacity="1" d="M 42.828125 197.714844 C 42.828125 196.128906 42.347656 194.640625 41.507812 193.394531 C 40.070312 191.257812 37.550781 189.84375 34.71875 189.84375 C 30.230469 189.84375 26.605469 193.371094 26.605469 197.714844 C 26.605469 202.058594 30.230469 205.585938 34.71875 205.585938 C 39.203125 205.585938 42.828125 202.058594 42.828125 197.714844 Z M 42.828125 197.714844 "/>
<path fill-rule="nonzero" fill="rgb(0%, 0%, 0%)" fill-opacity="1" d="M 54.566406 182.425781 C 50.558594 182.425781 48.445312 185.691406 47.339844 188.953125 C 46.238281 192.21875 46.140625 195.480469 46.140625 195.480469 L 44.078125 195.480469 C 44.078125 195.480469 43.691406 182.449219 35.675781 182.425781 Z M 54.566406 182.425781 "/>
<path fill-rule="nonzero" fill="rgb(0%, 0%, 0%)" fill-opacity="1" d="M 39.539062 206.882812 C 44.101562 202.324219 44.101562 195.480469 44.101562 195.480469 L 46.140625 195.457031 C 46.140625 195.457031 46.140625 202.441406 50.582031 206.882812 "/>
<path fill-rule="nonzero" fill="rgb(0%, 0%, 0%)" fill-opacity="1" d="M 40.453125 192.242188 C 45.011719 196.800781 51.851562 196.800781 51.851562 196.800781 L 51.851562 198.84375 C 51.851562 198.84375 44.867188 198.84375 40.429688 203.28125 "/>
<path fill-rule="nonzero" fill="rgb(0%, 0%, 0%)" fill-opacity="1" d="M 49.597656 192.21875 C 45.035156 196.777344 38.195312 196.777344 38.195312 196.777344 L 38.195312 198.820312 C 38.195312 198.820312 45.179688 198.820312 49.621094 203.257812 "/>
<path fill-rule="nonzero" fill="rgb(0%, 0%, 0%)" fill-opacity="1" d="M 116.925781 26.824219 C 116.925781 31.171875 120.550781 34.699219 125.039062 34.699219 C 129.527344 34.699219 133.148438 31.171875 133.148438 26.824219 C 133.148438 22.480469 129.527344 18.953125 125.039062 18.953125 C 120.550781 18.953125 116.925781 22.480469 116.925781 26.824219 Z M 116.925781 26.824219 "/>
<path fill-rule="nonzero" fill="rgb(0%, 0%, 0%)" fill-opacity="1" d="M 106.460938 41.730469 C 106.460938 46.074219 110.085938 49.601562 114.574219 49.601562 C 119.0625 49.601562 122.6875 46.074219 122.6875 41.730469 C 122.6875 37.386719 119.0625 33.859375 114.574219 33.859375 C 110.085938 33.859375 106.460938 37.386719 106.460938 41.730469 Z M 106.460938 41.730469 "/>
<path fill-rule="nonzero" fill="rgb(0%, 0%, 0%)" fill-opacity="1" d="M 127.246094 41.777344 C 127.246094 43.363281 127.726562 44.851562 128.566406 46.097656 C 130.007812 48.234375 132.527344 49.648438 135.359375 49.648438 C 139.847656 49.648438 143.46875 46.121094 143.46875 41.777344 C 143.46875 37.433594 139.847656 33.90625 135.359375 33.90625 C 130.871094 33.90625 127.246094 37.433594 127.246094 41.777344 Z M 127.246094 41.777344 "/>
<path fill-rule="nonzero" fill="rgb(0%, 0%, 0%)" fill-opacity="1" d="M 115.511719 57.066406 C 119.519531 57.066406 121.628906 53.800781 122.734375 50.539062 C 123.839844 47.273438 123.933594 44.011719 123.933594 44.011719 L 126 44.011719 C 126 44.011719 126.382812 57.042969 134.398438 57.066406 Z M 115.511719 57.066406 "/>
<path fill-rule="nonzero" fill="rgb(0%, 0%, 0%)" fill-opacity="1" d="M 130.535156 32.609375 C 125.972656 37.171875 125.972656 44.011719 125.972656 44.011719 L 123.933594 44.035156 C 123.933594 44.035156 123.933594 37.050781 119.496094 32.609375 "/>
<path fill-rule="nonzero" fill="rgb(0%, 0%, 0%)" fill-opacity="1" d="M 129.621094 47.25 C 125.0625 42.691406 118.222656 42.691406 118.222656 42.691406 L 118.222656 40.648438 C 118.222656 40.648438 125.207031 40.648438 129.644531 36.210938 "/>
<path fill-rule="nonzero" fill="rgb(0%, 0%, 0%)" fill-opacity="1" d="M 120.476562 47.273438 C 125.039062 42.714844 131.878906 42.714844 131.878906 42.714844 L 131.878906 40.675781 C 131.878906 40.675781 124.894531 40.675781 120.453125 36.234375 "/>
<path fill-rule="nonzero" fill="rgb(0%, 0%, 0%)" fill-opacity="1" d="M 116.925781 103.765625 C 116.925781 108.113281 120.550781 111.640625 125.039062 111.640625 C 129.527344 111.640625 133.148438 108.113281 133.148438 103.765625 C 133.148438 99.421875 129.527344 95.894531 125.039062 95.894531 C 120.550781 95.894531 116.925781 99.421875 116.925781 103.765625 Z M 116.925781 103.765625 "/>
<path fill-rule="nonzero" fill="rgb(0%, 0%, 0%)" fill-opacity="1" d="M 106.460938 118.671875 C 106.460938 123.015625 110.085938 126.542969 114.574219 126.542969 C 119.0625 126.542969 122.6875 123.015625 122.6875 118.671875 C 122.6875 114.328125 119.0625 110.800781 114.574219 110.800781 C 110.085938 110.800781 106.460938 114.328125 106.460938 118.671875 Z M 106.460938 118.671875 "/>
<path fill-rule="nonzero" fill="rgb(0%, 0%, 0%)" fill-opacity="1" d="M 127.246094 118.71875 C 127.246094 120.304688 127.726562 121.792969 128.566406 123.039062 C 130.007812 125.175781 132.527344 126.589844 135.359375 126.589844 C 139.847656 126.589844 143.46875 123.0625 143.46875 118.71875 C 143.46875 114.375 139.847656 110.847656 135.359375 110.847656 C 130.871094 110.847656 127.246094 114.375 127.246094 118.71875 Z M 127.246094 118.71875 "/>
<path fill-rule="nonzero" fill="rgb(0%, 0%, 0%)" fill-opacity="1" d="M 115.511719 134.007812 C 119.519531 134.007812 121.628906 130.742188 122.734375 127.480469 C 123.839844 124.214844 123.933594 120.953125 123.933594 120.953125 L 126 120.953125 C 126 120.953125 126.382812 133.984375 134.398438 134.007812 Z M 115.511719 134.007812 "/>
<path fill-rule="nonzero" fill="rgb(0%, 0%, 0%)" fill-opacity="1" d="M 130.535156 109.550781 C 125.972656 114.113281 125.972656 120.953125 125.972656 120.953125 L 123.933594 120.976562 C 123.933594 120.976562 123.933594 113.992188 119.496094 109.550781 "/>
<path fill-rule="nonzero" fill="rgb(0%, 0%, 0%)" fill-opacity="1" d="M 129.621094 124.191406 C 125.0625 119.632812 118.222656 119.632812 118.222656 119.632812 L 118.222656 117.589844 C 118.222656 117.589844 125.207031 117.589844 129.644531 113.152344 "/>
<path fill-rule="nonzero" fill="rgb(0%, 0%, 0%)" fill-opacity="1" d="M 120.476562 124.214844 C 125.039062 119.65625 131.878906 119.65625 131.878906 119.65625 L 131.878906 117.617188 C 131.878906 117.617188 124.894531 117.617188 120.453125 113.175781 "/>
<path fill-rule="nonzero" fill="rgb(0%, 0%, 0%)" fill-opacity="1" d="M 133.007812 212.667969 C 133.007812 208.324219 129.382812 204.792969 124.894531 204.792969 C 120.40625 204.792969 116.78125 208.324219 116.78125 212.667969 C 116.78125 217.011719 120.40625 220.539062 124.894531 220.539062 C 129.382812 220.539062 133.007812 217.011719 133.007812 212.667969 Z M 133.007812 212.667969 "/>
<path fill-rule="nonzero" fill="rgb(0%, 0%, 0%)" fill-opacity="1" d="M 143.46875 197.761719 C 143.46875 193.417969 139.847656 189.890625 135.359375 189.890625 C 130.871094 189.890625 127.246094 193.417969 127.246094 197.761719 C 127.246094 202.105469 130.871094 205.632812 135.359375 205.632812 C 139.847656 205.632812 143.46875 202.105469 143.46875 197.761719 Z M 143.46875 197.761719 "/>
<path fill-rule="nonzero" fill="rgb(0%, 0%, 0%)" fill-opacity="1" d="M 122.6875 197.714844 C 122.6875 196.128906 122.207031 194.640625 121.367188 193.394531 C 119.925781 191.257812 117.40625 189.84375 114.574219 189.84375 C 110.085938 189.84375 106.460938 193.371094 106.460938 197.714844 C 106.460938 202.058594 110.085938 205.585938 114.574219 205.585938 C 119.0625 205.585938 122.6875 202.058594 122.6875 197.714844 Z M 122.6875 197.714844 "/>
<path fill-rule="nonzero" fill="rgb(0%, 0%, 0%)" fill-opacity="1" d="M 134.421875 182.425781 C 130.414062 182.425781 128.300781 185.691406 127.199219 188.953125 C 126.09375 192.21875 126 195.480469 126 195.480469 L 123.933594 195.480469 C 123.933594 195.480469 123.550781 182.449219 115.535156 182.425781 Z M 134.421875 182.425781 "/>
<path fill-rule="nonzero" fill="rgb(0%, 0%, 0%)" fill-opacity="1" d="M 119.398438 206.882812 C 123.957031 202.324219 123.957031 195.480469 123.957031 195.480469 L 126 195.457031 C 126 195.457031 126 202.441406 130.4375 206.882812 "/>
<path fill-rule="nonzero" fill="rgb(0%, 0%, 0%)" fill-opacity="1" d="M 120.308594 192.242188 C 124.871094 196.800781 131.710938 196.800781 131.710938 196.800781 L 131.710938 198.84375 C 131.710938 198.84375 124.726562 198.84375 120.285156 203.28125 "/>
<path fill-rule="nonzero" fill="rgb(0%, 0%, 0%)" fill-opacity="1" d="M 129.453125 192.21875 C 124.894531 196.777344 118.054688 196.777344 118.054688 196.777344 L 118.054688 198.820312 C 118.054688 198.820312 125.039062 198.820312 129.476562 203.257812 "/>
<path fill-rule="nonzero" fill="rgb(0%, 0%, 0%)" fill-opacity="1" d="M 76.996094 80.980469 C 76.996094 85.328125 80.621094 88.855469 85.109375 88.855469 C 89.597656 88.855469 93.222656 85.328125 93.222656 80.980469 C 93.222656 76.636719 89.597656 73.109375 85.109375 73.109375 C 80.621094 73.109375 76.996094 76.636719 76.996094 80.980469 Z M 76.996094 80.980469 "/>
<path fill-rule="nonzero" fill="rgb(0%, 0%, 0%)" fill-opacity="1" d="M 66.535156 95.886719 C 66.535156 100.230469 70.15625 103.757812 74.644531 103.757812 C 79.132812 103.757812 82.757812 100.230469 82.757812 95.886719 C 82.757812 91.542969 79.132812 88.015625 74.644531 88.015625 C 70.15625 88.015625 66.535156 91.542969 66.535156 95.886719 Z M 66.535156 95.886719 "/>
<path fill-rule="nonzero" fill="rgb(0%, 0%, 0%)" fill-opacity="1" d="M 87.316406 95.933594 C 87.316406 97.519531 87.796875 99.007812 88.636719 100.253906 C 90.078125 102.390625 92.597656 103.804688 95.429688 103.804688 C 99.917969 103.804688 103.542969 100.277344 103.542969 95.933594 C 103.542969 91.589844 99.917969 88.0625 95.429688 88.0625 C 90.941406 88.0625 87.316406 91.589844 87.316406 95.933594 Z M 87.316406 95.933594 "/>
<path fill-rule="nonzero" fill="rgb(0%, 0%, 0%)" fill-opacity="1" d="M 75.582031 111.222656 C 79.589844 111.222656 81.703125 107.957031 82.804688 104.695312 C 83.910156 101.429688 84.003906 98.167969 84.003906 98.167969 L 86.070312 98.167969 C 86.070312 98.167969 86.453125 111.199219 94.46875 111.222656 Z M 75.582031 111.222656 "/>
<path fill-rule="nonzero" fill="rgb(0%, 0%, 0%)" fill-opacity="1" d="M 90.605469 86.765625 C 86.046875 91.328125 86.046875 98.167969 86.046875 98.167969 L 84.003906 98.191406 C 84.003906 98.191406 84.003906 91.207031 79.566406 86.765625 "/>
<path fill-rule="nonzero" fill="rgb(0%, 0%, 0%)" fill-opacity="1" d="M 89.695312 101.40625 C 85.132812 96.847656 78.292969 96.847656 78.292969 96.847656 L 78.292969 94.804688 C 78.292969 94.804688 85.277344 94.804688 89.71875 90.367188 "/>
<path fill-rule="nonzero" fill="rgb(0%, 0%, 0%)" fill-opacity="1" d="M 80.550781 101.429688 C 85.109375 96.871094 91.949219 96.871094 91.949219 96.871094 L 91.949219 94.832031 C 91.949219 94.832031 84.964844 94.832031 80.527344 90.390625 "/>
</svg>
