<?xml version="1.0" encoding="UTF-8"?>
<svg xmlns="http://www.w3.org/2000/svg" xmlns:xlink="http://www.w3.org/1999/xlink" width="169.074219" height="244.640625" viewBox="0 0 169.074219 244.640625">
<path fill-rule="nonzero" fill="rgb(100%, 100%, 100%)" fill-opacity="1" stroke-width="2.5" stroke-linecap="butt" stroke-linejoin="miter" stroke="rgb(0%, 0%, 0%)" stroke-opacity="1" stroke-miterlimit="4" d="M 0 -0.000473022 C 0 3.780777 3.089844 6.870621 6.871094 6.870621 L 159.714844 6.870621 C 163.484375 6.870621 166.574219 3.780777 166.574219 -0.000473022 L 166.574219 -228.398911 C 166.574219 -232.180161 163.484375 -235.270004 159.714844 -235.270004 L 6.871094 -235.270004 C 3.089844 -235.270004 0 -232.180161 0 -228.398911 Z M 0 -0.000473022 " transform="matrix(1, 0, 0, 1, 1.25, 236.520004)"/>
<path fill-rule="nonzero" fill="rgb(90.196078%, 9.411765%, 3.921569%)" fill-opacity="1" d="M 5.054688 37.402344 L 5.054688 34.707031 L 6.503906 34.707031 L 13.171875 4.257812 L 16.003906 4.257812 L 22.671875 34.707031 L 24.355469 34.707031 L 24.355469 37.402344 L 16.074219 37.402344 L 16.074219 34.707031 L 17.800781 34.707031 L 16.347656 27.953125 L 9.695312 27.953125 L 8.214844 34.707031 L 10.320312 34.707031 L 10.320312 37.402344 Z M 10.277344 25.257812 L 15.765625 25.257812 L 13.039062 12.585938 Z M 5.25 -5.289062 "/>
<path fill-rule="nonzero" fill="rgb(90.196078%, 9.411765%, 3.921569%)" fill-opacity="1" d="M 165.019531 206.238281 L 165.019531 208.933594 L 163.574219 208.933594 L 156.902344 239.382812 L 154.074219 239.382812 L 147.402344 208.933594 L 145.71875 208.933594 L 145.71875 206.238281 L 154 206.238281 L 154 208.933594 L 152.273438 208.933594 L 153.726562 215.691406 L 160.378906 215.691406 L 161.859375 208.933594 L 159.753906 208.933594 L 159.753906 206.238281 Z M 159.796875 218.382812 L 154.3125 218.382812 L 157.035156 231.054688 Z M 164.824219 248.933594 "/>
<path fill-rule="nonzero" fill="rgb(90.196078%, 9.411765%, 3.921569%)" fill-opacity="1" d="M 22.570312 47.472656 C 22.558594 52.183594 16.660156 55.613281 14.929688 59.34375 C 13.179688 55.621094 7.269531 52.222656 7.230469 47.511719 C 7.21875 45.292969 8.941406 43.480469 11.050781 43.480469 C 13.171875 43.480469 14.898438 45.273438 14.898438 47.492188 C 14.898438 45.261719 16.609375 43.460938 18.71875 43.460938 C 20.839844 43.453125 22.558594 45.253906 22.570312 47.472656 Z M 22.570312 47.472656 "/>
<path fill-rule="nonzero" fill="rgb(90.196078%, 9.411765%, 3.921569%)" fill-opacity="1" d="M 147.503906 196.171875 C 147.515625 191.460938 153.414062 188.03125 155.144531 184.300781 C 156.894531 188.019531 162.804688 191.421875 162.84375 196.128906 C 162.855469 198.351562 161.136719 200.160156 159.023438 200.160156 C 156.90625 200.160156 155.175781 198.371094 155.175781 196.148438 C 155.175781 198.378906 153.464844 200.179688 151.355469 200.179688 C 149.234375 200.191406 147.515625 198.390625 147.503906 196.171875 Z M 147.503906 196.171875 "/>
<path fill-rule="nonzero" fill="rgb(90.196078%, 9.411765%, 3.921569%)" fill-opacity="1" d="M 103.445312 105.519531 C 103.421875 116.824219 89.261719 125.054688 85.109375 134.007812 C 80.910156 125.078125 66.726562 116.917969 66.628906 105.617188 C 66.605469 100.289062 70.734375 95.945312 75.796875 95.945312 C 80.886719 95.945312 85.039062 100.238281 85.039062 105.566406 C 85.039062 100.214844 89.140625 95.894531 94.207031 95.894531 C 99.292969 95.871094 103.421875 100.191406 103.445312 105.519531 Z M 103.445312 105.519531 "/>
</svg>
