<?xml version="1.0" encoding="UTF-8"?>
<svg xmlns="http://www.w3.org/2000/svg" xmlns:xlink="http://www.w3.org/1999/xlink" width="169.074219" height="244.640625" viewBox="0 0 169.074219 244.640625">
<path fill-rule="nonzero" fill="rgb(100%, 100%, 100%)" fill-opacity="1" stroke-width="2.5" stroke-linecap="butt" stroke-linejoin="miter" stroke="rgb(0%, 0%, 0%)" stroke-opacity="1" stroke-miterlimit="4" d="M 0 -0.000473022 C 0 3.780777 3.089844 6.870621 6.871094 6.870621 L 159.714844 6.870621 C 163.484375 6.870621 166.574219 3.780777 166.574219 -0.000473022 L 166.574219 -228.398911 C 166.574219 -232.180161 163.484375 -235.270004 159.714844 -235.270004 L 6.871094 -235.270004 C 3.089844 -235.270004 0 -232.180161 0 -228.398911 Z M 0 -0.000473022 " transform="matrix(1, 0, 0, 1, 1.25, 236.520004)"/>
<path fill-rule="nonzero" fill="rgb(90.196078%, 9.411765%, 3.921569%)" fill-opacity="1" d="M 7.339844 5.21875 C 8.382812 4.699219 9.390625 4.308594 10.367188 4.042969 C 11.347656 3.78125 12.304688 3.648438 13.242188 3.648438 C 15.375 3.648438 17.011719 4.367188 18.15625 5.796875 C 19.292969 7.230469 19.867188 9.277344 19.867188 11.941406 C 19.867188 13.9375 19.535156 15.554688 18.878906 16.800781 C 18.226562 18.046875 17.265625 18.878906 16.003906 19.308594 C 17.542969 19.765625 18.691406 20.746094 19.453125 22.269531 C 20.210938 23.78125 20.589844 25.835938 20.589844 28.445312 C 20.589844 31.546875 19.933594 33.914062 18.621094 35.566406 C 17.316406 37.21875 15.421875 38.046875 12.941406 38.046875 C 12.011719 38.046875 11.050781 37.898438 10.058594 37.601562 C 9.0625 37.304688 8.023438 36.855469 6.945312 36.261719 L 6.945312 28.992188 L 8.382812 28.992188 C 8.46875 31.097656 8.816406 32.703125 9.429688 33.800781 C 10.046875 34.902344 10.902344 35.453125 11.996094 35.453125 C 13.199219 35.453125 14.125 34.832031 14.777344 33.585938 C 15.433594 32.328125 15.765625 30.554688 15.765625 28.25 C 15.765625 25.863281 15.421875 24.015625 14.730469 22.714844 C 14.046875 21.40625 13.082031 20.746094 11.832031 20.746094 L 11.046875 20.746094 L 11.046875 18.085938 L 11.664062 18.085938 C 12.828125 18.085938 13.699219 17.589844 14.28125 16.585938 C 14.863281 15.574219 15.15625 14.070312 15.15625 12.074219 C 15.15625 10.191406 14.882812 8.753906 14.335938 7.761719 C 13.789062 6.761719 13 6.257812 11.972656 6.257812 C 11.035156 6.257812 10.296875 6.738281 9.75 7.695312 C 9.207031 8.644531 8.878906 10.023438 8.769531 11.84375 L 7.339844 11.84375 Z M 5.25 -5.289062 "/>
<path fill-rule="nonzero" fill="rgb(90.196078%, 9.411765%, 3.921569%)" fill-opacity="1" d="M 162.734375 238.425781 C 161.695312 238.941406 160.6875 239.332031 159.707031 239.597656 C 158.726562 239.863281 157.769531 239.996094 156.832031 239.996094 C 154.699219 239.996094 153.0625 239.277344 151.921875 237.847656 C 150.78125 236.414062 150.207031 234.363281 150.207031 231.699219 C 150.207031 229.707031 150.539062 228.085938 151.195312 226.84375 C 151.851562 225.59375 152.808594 224.761719 154.074219 224.332031 C 152.535156 223.878906 151.382812 222.894531 150.625 221.375 C 149.863281 219.863281 149.484375 217.804688 149.484375 215.195312 C 149.484375 212.097656 150.144531 209.726562 151.453125 208.074219 C 152.757812 206.421875 154.652344 205.59375 157.132812 205.59375 C 158.0625 205.59375 159.023438 205.746094 160.019531 206.042969 C 161.011719 206.339844 162.050781 206.785156 163.132812 207.378906 L 163.132812 214.648438 L 161.695312 214.648438 C 161.605469 212.542969 161.257812 210.941406 160.644531 209.84375 C 160.027344 208.738281 159.171875 208.191406 158.078125 208.191406 C 156.878906 208.191406 155.953125 208.808594 155.296875 210.054688 C 154.640625 211.3125 154.3125 213.089844 154.3125 215.394531 C 154.3125 217.78125 154.65625 219.628906 155.34375 220.929688 C 156.027344 222.238281 156.992188 222.894531 158.246094 222.894531 L 159.03125 222.894531 L 159.03125 225.554688 L 158.414062 225.554688 C 157.246094 225.554688 156.375 226.054688 155.792969 227.058594 C 155.210938 228.070312 154.917969 229.574219 154.917969 231.566406 C 154.917969 233.453125 155.191406 234.890625 155.738281 235.878906 C 156.285156 236.878906 157.074219 237.382812 158.105469 237.382812 C 159.039062 237.382812 159.78125 236.90625 160.328125 235.945312 C 160.867188 234.996094 161.195312 233.617188 161.304688 231.800781 L 162.734375 231.800781 Z M 164.824219 248.933594 "/>
<path fill-rule="nonzero" fill="rgb(90.196078%, 9.411765%, 3.921569%)" fill-opacity="1" d="M 22.570312 47.472656 C 22.558594 52.183594 16.660156 55.613281 14.929688 59.34375 C 13.179688 55.621094 7.269531 52.222656 7.230469 47.511719 C 7.21875 45.292969 8.941406 43.480469 11.050781 43.480469 C 13.171875 43.480469 14.898438 45.273438 14.898438 47.492188 C 14.898438 45.261719 16.609375 43.460938 18.71875 43.460938 C 20.839844 43.453125 22.558594 45.253906 22.570312 47.472656 Z M 22.570312 47.472656 "/>
<path fill-rule="nonzero" fill="rgb(90.196078%, 9.411765%, 3.921569%)" fill-opacity="1" d="M 147.503906 196.171875 C 147.515625 191.460938 153.414062 188.03125 155.144531 184.300781 C 156.894531 188.019531 162.804688 191.421875 162.84375 196.128906 C 162.855469 198.351562 161.136719 200.160156 159.023438 200.160156 C 156.90625 200.160156 155.175781 198.371094 155.175781 196.148438 C 155.175781 198.378906 153.464844 200.179688 151.355469 200.179688 C 149.234375 200.191406 147.515625 198.390625 147.503906 196.171875 Z M 147.503906 196.171875 "/>
<path fill-rule="nonzero" fill="rgb(90.196078%, 9.411765%, 3.921569%)" fill-opacity="1" d="M 66.628906 210.914062 C 66.652344 199.613281 80.8125 191.378906 84.964844 182.425781 C 89.164062 191.355469 103.347656 199.515625 103.445312 210.820312 C 103.46875 216.148438 99.339844 220.492188 94.277344 220.492188 C 89.1875 220.492188 85.035156 216.195312 85.035156 210.867188 C 85.035156 216.21875 80.933594 220.539062 75.867188 220.539062 C 70.78125 220.5625 66.652344 216.242188 66.628906 210.914062 Z M 66.628906 210.914062 "/>
<path fill-rule="nonzero" fill="rgb(90.196078%, 9.411765%, 3.921569%)" fill-opacity="1" d="M 103.445312 105.519531 C 103.421875 116.824219 89.261719 125.054688 85.109375 134.007812 C 80.910156 125.078125 66.726562 116.917969 66.628906 105.617188 C 66.605469 100.289062 70.734375 95.945312 75.796875 95.945312 C 80.886719 95.945312 85.035156 100.238281 85.035156 105.566406 C 85.035156 100.214844 89.140625 95.894531 94.203125 95.894531 C 99.292969 95.871094 103.421875 100.191406 103.445312 105.519531 Z M 103.445312 105.519531 "/>
<path fill-rule="nonzero" fill="rgb(90.196078%, 9.411765%, 3.921569%)" fill-opacity="1" d="M 103.445312 28.578125 C 103.421875 39.882812 89.261719 48.113281 85.109375 57.066406 C 80.910156 48.136719 66.726562 39.976562 66.628906 28.671875 C 66.605469 23.347656 70.734375 19 75.796875 19 C 80.886719 19 85.035156 23.296875 85.035156 28.625 C 85.035156 23.273438 89.140625 18.953125 94.203125 18.953125 C 99.292969 18.929688 103.421875 23.25 103.445312 28.578125 Z M 103.445312 28.578125 "/>
</svg>
