<?xml version="1.0" encoding="UTF-8"?>
<svg xmlns="http://www.w3.org/2000/svg" xmlns:xlink="http://www.w3.org/1999/xlink" width="169.074219" height="244.640625" viewBox="0 0 169.074219 244.640625">
<path fill-rule="nonzero" fill="rgb(100%, 100%, 100%)" fill-opacity="1" stroke-width="2.5" stroke-linecap="butt" stroke-linejoin="miter" stroke="rgb(0%, 0%, 0%)" stroke-opacity="1" stroke-miterlimit="4" d="M 0 -0.000473022 C 0 3.780777 3.089844 6.870621 6.871094 6.870621 L 159.714844 6.870621 C 163.484375 6.870621 166.574219 3.780777 166.574219 -0.000473022 L 166.574219 -228.398911 C 166.574219 -232.180161 163.484375 -235.270004 159.714844 -235.270004 L 6.871094 -235.270004 C 3.089844 -235.270004 0 -232.180161 0 -228.398911 Z M 0 -0.000473022 " transform="matrix(1, 0, 0, 1, 1.25, 236.520004)"/>
<path fill-rule="nonzero" fill="rgb(90.196078%, 9.411765%, 3.921569%)" fill-opacity="1" d="M 18.941406 4.257812 L 18.941406 10.074219 L 9.464844 10.074219 L 9.464844 17.359375 C 9.988281 16.601562 10.570312 16.03125 11.210938 15.640625 C 11.851562 15.257812 12.53125 15.0625 13.242188 15.0625 C 15.421875 15.0625 17.144531 16.101562 18.410156 18.171875 C 19.675781 20.230469 20.308594 23.039062 20.308594 26.597656 C 20.308594 30.199219 19.675781 33.007812 18.410156 35.023438 C 17.144531 37.039062 15.375 38.046875 13.101562 38.046875 C 12.132812 38.046875 11.175781 37.898438 10.226562 37.601562 C 9.273438 37.304688 8.277344 36.847656 7.242188 36.230469 L 7.242188 28.992188 L 8.664062 28.992188 C 8.710938 31.164062 9.011719 32.785156 9.570312 33.851562 C 10.128906 34.917969 10.953125 35.453125 12.042969 35.453125 C 13.207031 35.453125 14.066406 34.726562 14.625 33.273438 C 15.183594 31.808594 15.464844 29.582031 15.464844 26.597656 C 15.464844 23.648438 15.191406 21.441406 14.644531 19.988281 C 14.097656 18.527344 13.265625 17.789062 12.148438 17.789062 C 11.546875 17.789062 11.011719 18.03125 10.542969 18.5 C 10.070312 18.964844 9.636719 19.6875 9.238281 20.664062 L 8.046875 20.664062 L 8.046875 4.257812 Z M 5.25 -5.289062 "/>
<path fill-rule="nonzero" fill="rgb(90.196078%, 9.411765%, 3.921569%)" fill-opacity="1" d="M 151.136719 239.382812 L 151.136719 233.566406 L 160.609375 233.566406 L 160.609375 226.28125 C 160.085938 227.042969 159.503906 227.609375 158.863281 228 C 158.222656 228.382812 157.546875 228.578125 156.832031 228.578125 C 154.652344 228.578125 152.929688 227.542969 151.664062 225.472656 C 150.402344 223.410156 149.769531 220.601562 149.769531 217.046875 C 149.769531 213.445312 150.402344 210.636719 151.664062 208.621094 C 152.929688 206.601562 154.699219 205.59375 156.972656 205.59375 C 157.941406 205.59375 158.898438 205.746094 159.851562 206.042969 C 160.804688 206.339844 161.796875 206.792969 162.832031 207.414062 L 162.832031 214.648438 L 161.410156 214.648438 C 161.363281 212.476562 161.0625 210.859375 160.503906 209.792969 C 159.945312 208.722656 159.121094 208.191406 158.03125 208.191406 C 156.867188 208.191406 156.007812 208.917969 155.449219 210.371094 C 154.890625 211.832031 154.609375 214.058594 154.609375 217.046875 C 154.609375 219.996094 154.882812 222.199219 155.429688 223.652344 C 155.976562 225.117188 156.8125 225.851562 157.925781 225.851562 C 158.527344 225.851562 159.0625 225.613281 159.53125 225.140625 C 160.003906 224.679688 160.4375 223.957031 160.839844 222.976562 L 162.027344 222.976562 L 162.027344 239.382812 Z M 164.824219 248.933594 "/>
<path fill-rule="nonzero" fill="rgb(90.196078%, 9.411765%, 3.921569%)" fill-opacity="1" d="M 22.570312 47.472656 C 22.558594 52.183594 16.660156 55.613281 14.929688 59.34375 C 13.179688 55.621094 7.269531 52.222656 7.230469 47.511719 C 7.21875 45.292969 8.941406 43.480469 11.050781 43.480469 C 13.171875 43.480469 14.898438 45.273438 14.898438 47.492188 C 14.898438 45.261719 16.609375 43.460938 18.71875 43.460938 C 20.839844 43.453125 22.558594 45.253906 22.570312 47.472656 Z M 22.570312 47.472656 "/>
<path fill-rule="nonzero" fill="rgb(90.196078%, 9.411765%, 3.921569%)" fill-opacity="1" d="M 147.503906 196.171875 C 147.515625 191.460938 153.414062 188.03125 155.144531 184.300781 C 156.894531 188.019531 162.804688 191.421875 162.84375 196.128906 C 162.855469 198.351562 161.136719 200.160156 159.023438 200.160156 C 156.90625 200.160156 155.175781 198.371094 155.175781 196.148438 C 155.175781 198.378906 153.464844 200.179688 151.355469 200.179688 C 149.234375 200.191406 147.515625 198.390625 147.503906 196.171875 Z M 147.503906 196.171875 "/>
<path fill-rule="nonzero" fill="rgb(90.196078%, 9.411765%, 3.921569%)" fill-opacity="1" d="M 63.515625 28.578125 C 63.492188 39.882812 49.332031 48.113281 45.179688 57.066406 C 40.980469 48.136719 26.796875 39.976562 26.699219 28.671875 C 26.675781 23.347656 30.804688 19 35.867188 19 C 40.957031 19 45.109375 23.296875 45.109375 28.625 C 45.109375 23.273438 49.210938 18.953125 54.277344 18.953125 C 59.363281 18.929688 63.492188 23.25 63.515625 28.578125 Z M 63.515625 28.578125 "/>
<path fill-rule="nonzero" fill="rgb(90.196078%, 9.411765%, 3.921569%)" fill-opacity="1" d="M 26.699219 210.914062 C 26.722656 199.613281 40.882812 191.378906 45.035156 182.425781 C 49.238281 191.355469 63.421875 199.515625 63.515625 210.820312 C 63.539062 216.148438 59.414062 220.492188 54.347656 220.492188 C 49.261719 220.492188 45.109375 216.195312 45.109375 210.867188 C 45.109375 216.21875 41.003906 220.539062 35.941406 220.539062 C 30.851562 220.5625 26.722656 216.242188 26.699219 210.914062 Z M 26.699219 210.914062 "/>
<path fill-rule="nonzero" fill="rgb(90.196078%, 9.411765%, 3.921569%)" fill-opacity="1" d="M 143.375 28.578125 C 143.351562 39.882812 129.191406 48.113281 125.039062 57.066406 C 120.839844 48.136719 106.652344 39.976562 106.558594 28.671875 C 106.535156 23.347656 110.660156 19 115.726562 19 C 120.8125 19 124.964844 23.296875 124.964844 28.625 C 124.964844 23.273438 129.070312 18.953125 134.132812 18.953125 C 139.222656 18.929688 143.351562 23.25 143.375 28.578125 Z M 143.375 28.578125 "/>
<path fill-rule="nonzero" fill="rgb(90.196078%, 9.411765%, 3.921569%)" fill-opacity="1" d="M 106.558594 210.914062 C 106.582031 199.613281 120.742188 191.378906 124.894531 182.425781 C 129.09375 191.355469 143.277344 199.515625 143.375 210.820312 C 143.398438 216.148438 139.269531 220.492188 134.207031 220.492188 C 129.117188 220.492188 124.964844 216.195312 124.964844 210.867188 C 124.964844 216.21875 120.863281 220.539062 115.796875 220.539062 C 110.710938 220.5625 106.582031 216.242188 106.558594 210.914062 Z M 106.558594 210.914062 "/>
<path fill-rule="nonzero" fill="rgb(90.196078%, 9.411765%, 3.921569%)" fill-opacity="1" d="M 103.445312 105.519531 C 103.421875 116.824219 89.261719 125.054688 85.109375 134.007812 C 80.910156 125.078125 66.726562 116.917969 66.628906 105.617188 C 66.605469 100.289062 70.734375 95.945312 75.796875 95.945312 C 80.886719 95.945312 85.039062 100.238281 85.039062 105.566406 C 85.039062 100.214844 89.140625 95.894531 94.207031 95.894531 C 99.292969 95.871094 103.421875 100.191406 103.445312 105.519531 Z M 103.445312 105.519531 "/>
</svg>
