<?xml version="1.0" encoding="UTF-8"?>
<svg xmlns="http://www.w3.org/2000/svg" xmlns:xlink="http://www.w3.org/1999/xlink" width="169.074219" height="244.640625" viewBox="0 0 169.074219 244.640625">
<path fill-rule="nonzero" fill="rgb(100%, 100%, 100%)" fill-opacity="1" stroke-width="2.5" stroke-linecap="butt" stroke-linejoin="miter" stroke="rgb(0%, 0%, 0%)" stroke-opacity="1" stroke-miterlimit="4" d="M 0 -0.000457764 C 0 3.780792 3.089844 6.870636 6.871094 6.870636 L 159.714844 6.870636 C 163.484375 6.870636 166.574219 3.780792 166.574219 -0.000457764 L 166.574219 -228.398895 C 166.574219 -232.180145 163.484375 -235.269989 159.714844 -235.269989 L 6.871094 -235.269989 C 3.089844 -235.269989 0 -232.180145 0 -228.398895 Z M 0 -0.000457764 " transform="matrix(1, 0, 0, 1, 1.25, 236.519989)"/>
<path fill-rule="nonzero" fill="rgb(0%, 0%, 0%)" fill-opacity="1" d="M 7.339844 5.21875 C 8.382812 4.703125 9.390625 4.308594 10.367188 4.046875 C 11.347656 3.78125 12.304688 3.648438 13.242188 3.648438 C 15.375 3.648438 17.011719 4.367188 18.15625 5.796875 C 19.292969 7.230469 19.867188 9.277344 19.867188 11.941406 C 19.867188 13.9375 19.535156 15.558594 18.878906 16.800781 C 18.226562 18.046875 17.265625 18.882812 16.003906 19.3125 C 17.542969 19.765625 18.691406 20.75 19.453125 22.269531 C 20.210938 23.78125 20.589844 25.835938 20.589844 28.449219 C 20.589844 31.546875 19.933594 33.917969 18.621094 35.570312 C 17.316406 37.222656 15.421875 38.046875 12.941406 38.046875 C 12.011719 38.046875 11.050781 37.898438 10.058594 37.601562 C 9.0625 37.304688 8.023438 36.859375 6.945312 36.261719 L 6.945312 28.992188 L 8.382812 28.992188 C 8.46875 31.101562 8.816406 32.703125 9.429688 33.800781 C 10.046875 34.902344 10.902344 35.453125 11.996094 35.453125 C 13.199219 35.453125 14.125 34.832031 14.777344 33.585938 C 15.433594 32.332031 15.765625 30.554688 15.765625 28.25 C 15.765625 25.863281 15.421875 24.015625 14.730469 22.714844 C 14.046875 21.40625 13.082031 20.75 11.832031 20.75 L 11.046875 20.75 L 11.046875 18.089844 L 11.664062 18.089844 C 12.828125 18.089844 13.699219 17.589844 14.28125 16.585938 C 14.863281 15.574219 15.15625 14.070312 15.15625 12.074219 C 15.15625 10.191406 14.882812 8.753906 14.335938 7.761719 C 13.789062 6.761719 13 6.257812 11.972656 6.257812 C 11.035156 6.257812 10.296875 6.738281 9.75 7.695312 C 9.207031 8.644531 8.878906 10.027344 8.769531 11.84375 L 7.339844 11.84375 Z M 5.25 -5.289062 "/>
<path fill-rule="nonzero" fill="rgb(0%, 0%, 0%)" fill-opacity="1" d="M 162.734375 238.425781 C 161.695312 238.941406 160.6875 239.332031 159.707031 239.597656 C 158.726562 239.863281 157.769531 239.996094 156.832031 239.996094 C 154.699219 239.996094 153.0625 239.277344 151.921875 237.847656 C 150.78125 236.414062 150.207031 234.363281 150.207031 231.699219 C 150.207031 229.707031 150.539062 228.085938 151.195312 226.84375 C 151.851562 225.59375 152.808594 224.761719 154.074219 224.332031 C 152.535156 223.878906 151.382812 222.894531 150.625 221.375 C 149.863281 219.863281 149.484375 217.804688 149.484375 215.195312 C 149.484375 212.097656 150.144531 209.726562 151.453125 208.074219 C 152.757812 206.421875 154.652344 205.59375 157.132812 205.59375 C 158.0625 205.59375 159.023438 205.746094 160.019531 206.042969 C 161.011719 206.339844 162.050781 206.785156 163.132812 207.378906 L 163.132812 214.648438 L 161.695312 214.648438 C 161.605469 212.542969 161.257812 210.941406 160.644531 209.84375 C 160.027344 208.738281 159.171875 208.191406 158.078125 208.191406 C 156.878906 208.191406 155.953125 208.808594 155.296875 210.054688 C 154.640625 211.3125 154.3125 213.089844 154.3125 215.394531 C 154.3125 217.78125 154.65625 219.628906 155.34375 220.929688 C 156.027344 222.238281 156.992188 222.894531 158.246094 222.894531 L 159.03125 222.894531 L 159.03125 225.554688 L 158.414062 225.554688 C 157.246094 225.554688 156.375 226.054688 155.792969 227.058594 C 155.210938 228.070312 154.917969 229.574219 154.917969 231.566406 C 154.917969 233.453125 155.191406 234.890625 155.738281 235.878906 C 156.285156 236.878906 157.074219 237.382812 158.105469 237.382812 C 159.039062 237.382812 159.78125 236.90625 160.328125 235.945312 C 160.867188 234.996094 161.195312 233.617188 161.304688 231.800781 L 162.734375 231.800781 Z M 164.824219 248.933594 "/>
<path fill-rule="nonzero" fill="rgb(0%, 0%, 0%)" fill-opacity="1" d="M 10.980469 59.332031 C 12.648438 59.332031 13.53125 57.554688 13.988281 55.773438 C 14.449219 53.992188 14.488281 52.214844 14.488281 52.214844 L 15.339844 52.203125 C 15.339844 52.203125 15.5 59.332031 18.839844 59.332031 Z M 10.980469 59.332031 "/>
<path fill-rule="nonzero" fill="rgb(0%, 0%, 0%)" fill-opacity="1" d="M 8.148438 52.203125 C 8.160156 48.734375 13.371094 46.214844 14.898438 43.472656 C 16.429688 46.222656 21.640625 48.742188 21.648438 52.203125 C 21.648438 53.84375 20.140625 55.171875 18.269531 55.171875 C 16.410156 55.171875 14.898438 53.84375 14.898438 52.203125 C 14.898438 53.84375 13.390625 55.171875 11.519531 55.171875 C 9.648438 55.171875 8.148438 53.84375 8.148438 52.203125 Z M 8.148438 52.203125 "/>
<path fill-rule="nonzero" fill="rgb(0%, 0%, 0%)" fill-opacity="1" d="M 159.09375 184.308594 C 157.425781 184.308594 156.546875 186.089844 156.085938 187.871094 C 155.625 189.648438 155.585938 191.429688 155.585938 191.429688 L 154.734375 191.441406 C 154.734375 191.441406 154.574219 184.308594 151.234375 184.308594 Z M 159.09375 184.308594 "/>
<path fill-rule="nonzero" fill="rgb(0%, 0%, 0%)" fill-opacity="1" d="M 161.925781 191.441406 C 161.914062 194.910156 156.703125 197.429688 155.175781 200.171875 C 153.644531 197.421875 148.433594 194.898438 148.425781 191.441406 C 148.425781 189.800781 149.933594 188.46875 151.804688 188.46875 C 153.664062 188.46875 155.175781 189.800781 155.175781 191.441406 C 155.175781 189.800781 156.683594 188.46875 158.554688 188.46875 C 160.425781 188.46875 161.925781 189.800781 161.925781 191.441406 Z M 161.925781 191.441406 "/>
<path fill-rule="nonzero" fill="rgb(0%, 0%, 0%)" fill-opacity="1" d="M 94.445312 182.453125 C 90.4375 182.453125 88.324219 186.722656 87.222656 190.996094 C 86.117188 195.265625 86.019531 199.539062 86.019531 199.539062 L 83.980469 199.5625 C 83.980469 199.5625 83.597656 182.453125 75.582031 182.453125 Z M 94.445312 182.453125 "/>
<path fill-rule="nonzero" fill="rgb(0%, 0%, 0%)" fill-opacity="1" d="M 101.238281 199.5625 C 101.210938 207.890625 88.707031 213.9375 85.035156 220.515625 C 81.363281 213.914062 68.859375 207.867188 68.835938 199.5625 C 68.835938 195.628906 72.460938 192.433594 76.949219 192.433594 C 81.414062 192.433594 85.035156 195.628906 85.035156 199.5625 C 85.035156 195.628906 88.660156 192.433594 93.148438 192.433594 C 97.636719 192.433594 101.238281 195.628906 101.238281 199.5625 Z M 101.238281 199.5625 "/>
<path fill-rule="nonzero" fill="rgb(0%, 0%, 0%)" fill-opacity="1" d="M 75.628906 133.984375 C 79.636719 133.984375 81.75 129.710938 82.851562 125.4375 C 83.957031 121.167969 84.054688 116.894531 84.054688 116.894531 L 86.09375 116.871094 C 86.09375 116.871094 86.476562 133.984375 94.492188 133.984375 Z M 75.628906 133.984375 "/>
<path fill-rule="nonzero" fill="rgb(0%, 0%, 0%)" fill-opacity="1" d="M 68.835938 116.871094 C 68.859375 108.542969 81.363281 102.496094 85.035156 95.917969 C 88.707031 102.519531 101.210938 108.566406 101.238281 116.871094 C 101.238281 120.808594 97.613281 124 93.125 124 C 88.660156 124 85.035156 120.808594 85.035156 116.871094 C 85.035156 120.808594 81.414062 124 76.925781 124 C 72.4375 124 68.835938 120.808594 68.835938 116.871094 Z M 68.835938 116.871094 "/>
<path fill-rule="nonzero" fill="rgb(0%, 0%, 0%)" fill-opacity="1" d="M 75.628906 57.042969 C 79.636719 57.042969 81.75 52.769531 82.851562 48.496094 C 83.957031 44.226562 84.054688 39.953125 84.054688 39.953125 L 86.09375 39.929688 C 86.09375 39.929688 86.476562 57.042969 94.492188 57.042969 Z M 75.628906 57.042969 "/>
<path fill-rule="nonzero" fill="rgb(0%, 0%, 0%)" fill-opacity="1" d="M 68.835938 39.929688 C 68.859375 31.601562 81.363281 25.554688 85.035156 18.976562 C 88.707031 25.578125 101.210938 31.625 101.238281 39.929688 C 101.238281 43.867188 97.613281 47.058594 93.125 47.058594 C 88.660156 47.058594 85.035156 43.867188 85.035156 39.929688 C 85.035156 43.867188 81.414062 47.058594 76.925781 47.058594 C 72.4375 47.058594 68.835938 43.867188 68.835938 39.929688 Z M 68.835938 39.929688 "/>
</svg>
