<?xml version="1.0" encoding="UTF-8"?>
<svg xmlns="http://www.w3.org/2000/svg" xmlns:xlink="http://www.w3.org/1999/xlink" width="169.074219" height="244.640625" viewBox="0 0 169.074219 244.640625">
<path fill-rule="nonzero" fill="rgb(100%, 100%, 100%)" fill-opacity="1" stroke-width="2.5" stroke-linecap="butt" stroke-linejoin="miter" stroke="rgb(0%, 0%, 0%)" stroke-opacity="1" stroke-miterlimit="4" d="M 0 -0.000473022 C 0 3.780777 3.089844 6.870621 6.871094 6.870621 L 159.714844 6.870621 C 163.484375 6.870621 166.574219 3.780777 166.574219 -0.000473022 L 166.574219 -228.398911 C 166.574219 -232.180161 163.484375 -235.270004 159.714844 -235.270004 L 6.871094 -235.270004 C 3.089844 -235.270004 0 -232.180161 0 -228.398911 Z M 0 -0.000473022 " transform="matrix(1, 0, 0, 1, 1.25, 236.520004)"/>
<path fill-rule="nonzero" fill="rgb(0%, 0%, 0%)" fill-opacity="1" d="M 7.339844 5.21875 C 8.382812 4.703125 9.390625 4.308594 10.367188 4.046875 C 11.347656 3.78125 12.304688 3.648438 13.242188 3.648438 C 15.375 3.648438 17.011719 4.367188 18.15625 5.796875 C 19.292969 7.230469 19.867188 9.277344 19.867188 11.941406 C 19.867188 13.9375 19.535156 15.558594 18.878906 16.800781 C 18.226562 18.046875 17.265625 18.882812 16.003906 19.3125 C 17.542969 19.765625 18.691406 20.75 19.453125 22.269531 C 20.210938 23.78125 20.589844 25.835938 20.589844 28.449219 C 20.589844 31.546875 19.933594 33.917969 18.621094 35.570312 C 17.316406 37.222656 15.421875 38.046875 12.941406 38.046875 C 12.011719 38.046875 11.050781 37.898438 10.058594 37.601562 C 9.0625 37.304688 8.023438 36.859375 6.945312 36.261719 L 6.945312 28.992188 L 8.382812 28.992188 C 8.46875 31.101562 8.816406 32.703125 9.429688 33.800781 C 10.046875 34.902344 10.902344 35.453125 11.996094 35.453125 C 13.199219 35.453125 14.125 34.832031 14.777344 33.585938 C 15.433594 32.332031 15.765625 30.554688 15.765625 28.25 C 15.765625 25.863281 15.421875 24.015625 14.730469 22.714844 C 14.046875 21.40625 13.082031 20.75 11.832031 20.75 L 11.046875 20.75 L 11.046875 18.089844 L 11.664062 18.089844 C 12.828125 18.089844 13.699219 17.589844 14.28125 16.585938 C 14.863281 15.574219 15.15625 14.070312 15.15625 12.074219 C 15.15625 10.191406 14.882812 8.753906 14.335938 7.761719 C 13.789062 6.761719 13 6.257812 11.972656 6.257812 C 11.035156 6.257812 10.296875 6.738281 9.75 7.695312 C 9.207031 8.644531 8.878906 10.027344 8.769531 11.84375 L 7.339844 11.84375 Z M 5.25 -5.289062 "/>
<path fill-rule="nonzero" fill="rgb(0%, 0%, 0%)" fill-opacity="1" d="M 162.734375 238.425781 C 161.695312 238.941406 160.6875 239.332031 159.707031 239.597656 C 158.726562 239.863281 157.769531 239.996094 156.832031 239.996094 C 154.699219 239.996094 153.0625 239.277344 151.921875 237.847656 C 150.78125 236.414062 150.207031 234.363281 150.207031 231.699219 C 150.207031 229.707031 150.539062 228.085938 151.195312 226.84375 C 151.851562 225.59375 152.808594 224.761719 154.074219 224.332031 C 152.535156 223.878906 151.382812 222.894531 150.625 221.375 C 149.863281 219.863281 149.484375 217.804688 149.484375 215.195312 C 149.484375 212.097656 150.144531 209.726562 151.453125 208.074219 C 152.757812 206.421875 154.652344 205.59375 157.132812 205.59375 C 158.0625 205.59375 159.023438 205.746094 160.019531 206.042969 C 161.011719 206.339844 162.050781 206.785156 163.132812 207.378906 L 163.132812 214.648438 L 161.695312 214.648438 C 161.605469 212.542969 161.257812 210.941406 160.644531 209.84375 C 160.027344 208.738281 159.171875 208.191406 158.078125 208.191406 C 156.878906 208.191406 155.953125 208.808594 155.296875 210.054688 C 154.640625 211.3125 154.3125 213.089844 154.3125 215.394531 C 154.3125 217.78125 154.65625 219.628906 155.34375 220.929688 C 156.027344 222.238281 156.992188 222.894531 158.246094 222.894531 L 159.03125 222.894531 L 159.03125 225.554688 L 158.414062 225.554688 C 157.246094 225.554688 156.375 226.054688 155.792969 227.058594 C 155.210938 228.070312 154.917969 229.574219 154.917969 231.566406 C 154.917969 233.453125 155.191406 234.890625 155.738281 235.878906 C 156.285156 236.878906 157.074219 237.382812 158.105469 237.382812 C 159.039062 237.382812 159.78125 236.90625 160.328125 235.945312 C 160.867188 234.996094 161.195312 233.617188 161.304688 231.800781 L 162.734375 231.800781 Z M 164.824219 248.933594 "/>
<path fill-rule="nonzero" fill="rgb(0%, 0%, 0%)" fill-opacity="1" d="M 11.550781 46.742188 C 11.550781 48.554688 13.058594 50.023438 14.929688 50.023438 C 16.800781 50.023438 18.308594 48.554688 18.308594 46.742188 C 18.308594 44.933594 16.800781 43.464844 14.929688 43.464844 C 13.058594 43.464844 11.550781 44.933594 11.550781 46.742188 Z M 11.550781 46.742188 "/>
<path fill-rule="nonzero" fill="rgb(0%, 0%, 0%)" fill-opacity="1" d="M 7.191406 52.953125 C 7.191406 54.761719 8.699219 56.234375 10.570312 56.234375 C 12.441406 56.234375 13.949219 54.761719 13.949219 52.953125 C 13.949219 51.144531 12.441406 49.671875 10.570312 49.671875 C 8.699219 49.671875 7.191406 51.144531 7.191406 52.953125 Z M 7.191406 52.953125 "/>
<path fill-rule="nonzero" fill="rgb(0%, 0%, 0%)" fill-opacity="1" d="M 15.851562 52.972656 C 15.851562 53.632812 16.050781 54.253906 16.398438 54.773438 C 17 55.664062 18.050781 56.253906 19.230469 56.253906 C 21.101562 56.253906 22.609375 54.78125 22.609375 52.972656 C 22.609375 51.164062 21.101562 49.691406 19.230469 49.691406 C 17.359375 49.691406 15.851562 51.164062 15.851562 52.972656 Z M 15.851562 52.972656 "/>
<path fill-rule="nonzero" fill="rgb(0%, 0%, 0%)" fill-opacity="1" d="M 10.960938 59.34375 C 12.628906 59.34375 13.511719 57.984375 13.96875 56.621094 C 14.429688 55.261719 14.46875 53.902344 14.46875 53.902344 L 15.328125 53.902344 C 15.328125 53.902344 15.488281 59.332031 18.828125 59.34375 Z M 10.960938 59.34375 "/>
<path fill-rule="nonzero" fill="rgb(0%, 0%, 0%)" fill-opacity="1" d="M 17.21875 49.152344 C 15.320312 51.054688 15.320312 53.902344 15.320312 53.902344 L 14.46875 53.914062 C 14.46875 53.914062 14.46875 51.003906 12.621094 49.152344 "/>
<path fill-rule="nonzero" fill="rgb(0%, 0%, 0%)" fill-opacity="1" d="M 16.839844 55.253906 C 14.941406 53.351562 12.089844 53.351562 12.089844 53.351562 L 12.089844 52.503906 C 12.089844 52.503906 15 52.503906 16.851562 50.652344 "/>
<path fill-rule="nonzero" fill="rgb(0%, 0%, 0%)" fill-opacity="1" d="M 13.03125 55.261719 C 14.929688 53.363281 17.78125 53.363281 17.78125 53.363281 L 17.78125 52.511719 C 17.78125 52.511719 14.871094 52.511719 13.019531 50.664062 "/>
<path fill-rule="nonzero" fill="rgb(0%, 0%, 0%)" fill-opacity="1" d="M 158.523438 196.898438 C 158.523438 195.089844 157.015625 193.621094 155.144531 193.621094 C 153.273438 193.621094 151.765625 195.089844 151.765625 196.898438 C 151.765625 198.710938 153.273438 200.179688 155.144531 200.179688 C 157.015625 200.179688 158.523438 198.710938 158.523438 196.898438 Z M 158.523438 196.898438 "/>
<path fill-rule="nonzero" fill="rgb(0%, 0%, 0%)" fill-opacity="1" d="M 162.886719 190.691406 C 162.886719 188.878906 161.375 187.410156 159.503906 187.410156 C 157.636719 187.410156 156.125 188.878906 156.125 190.691406 C 156.125 192.5 157.636719 193.96875 159.503906 193.96875 C 161.375 193.96875 162.886719 192.5 162.886719 190.691406 Z M 162.886719 190.691406 "/>
<path fill-rule="nonzero" fill="rgb(0%, 0%, 0%)" fill-opacity="1" d="M 154.226562 190.671875 C 154.226562 190.011719 154.023438 189.390625 153.675781 188.871094 C 153.074219 187.980469 152.023438 187.390625 150.84375 187.390625 C 148.976562 187.390625 147.464844 188.859375 147.464844 190.671875 C 147.464844 192.480469 148.976562 193.949219 150.84375 193.949219 C 152.714844 193.949219 154.226562 192.480469 154.226562 190.671875 Z M 154.226562 190.671875 "/>
<path fill-rule="nonzero" fill="rgb(0%, 0%, 0%)" fill-opacity="1" d="M 159.113281 184.300781 C 157.445312 184.300781 156.566406 185.660156 156.105469 187.019531 C 155.644531 188.378906 155.605469 189.738281 155.605469 189.738281 L 154.746094 189.738281 C 154.746094 189.738281 154.585938 184.308594 151.246094 184.300781 Z M 159.113281 184.300781 "/>
<path fill-rule="nonzero" fill="rgb(0%, 0%, 0%)" fill-opacity="1" d="M 152.855469 194.488281 C 154.753906 192.589844 154.753906 189.738281 154.753906 189.738281 L 155.605469 189.730469 C 155.605469 189.730469 155.605469 192.640625 157.453125 194.488281 "/>
<path fill-rule="nonzero" fill="rgb(0%, 0%, 0%)" fill-opacity="1" d="M 153.234375 188.390625 C 155.136719 190.289062 157.984375 190.289062 157.984375 190.289062 L 157.984375 191.140625 C 157.984375 191.140625 155.074219 191.140625 153.226562 192.988281 "/>
<path fill-rule="nonzero" fill="rgb(0%, 0%, 0%)" fill-opacity="1" d="M 157.046875 188.378906 C 155.144531 190.28125 152.296875 190.28125 152.296875 190.28125 L 152.296875 191.128906 C 152.296875 191.128906 155.203125 191.128906 157.054688 192.980469 "/>
<path fill-rule="nonzero" fill="rgb(0%, 0%, 0%)" fill-opacity="1" d="M 93.078125 212.667969 C 93.078125 208.324219 89.453125 204.792969 84.964844 204.792969 C 80.476562 204.792969 76.851562 208.324219 76.851562 212.667969 C 76.851562 217.011719 80.476562 220.539062 84.964844 220.539062 C 89.453125 220.539062 93.078125 217.011719 93.078125 212.667969 Z M 93.078125 212.667969 "/>
<path fill-rule="nonzero" fill="rgb(0%, 0%, 0%)" fill-opacity="1" d="M 103.539062 197.761719 C 103.539062 193.417969 99.917969 189.890625 95.429688 189.890625 C 90.941406 189.890625 87.316406 193.417969 87.316406 197.761719 C 87.316406 202.105469 90.941406 205.632812 95.429688 205.632812 C 99.917969 205.632812 103.539062 202.105469 103.539062 197.761719 Z M 103.539062 197.761719 "/>
<path fill-rule="nonzero" fill="rgb(0%, 0%, 0%)" fill-opacity="1" d="M 82.757812 197.714844 C 82.757812 196.128906 82.277344 194.640625 81.4375 193.394531 C 79.996094 191.257812 77.476562 189.84375 74.644531 189.84375 C 70.15625 189.84375 66.53125 193.371094 66.53125 197.714844 C 66.53125 202.058594 70.15625 205.585938 74.644531 205.585938 C 79.132812 205.585938 82.757812 202.058594 82.757812 197.714844 Z M 82.757812 197.714844 "/>
<path fill-rule="nonzero" fill="rgb(0%, 0%, 0%)" fill-opacity="1" d="M 94.492188 182.425781 C 90.484375 182.425781 88.371094 185.691406 87.269531 188.953125 C 86.164062 192.21875 86.070312 195.480469 86.070312 195.480469 L 84.003906 195.480469 C 84.003906 195.480469 83.621094 182.449219 75.605469 182.425781 Z M 94.492188 182.425781 "/>
<path fill-rule="nonzero" fill="rgb(0%, 0%, 0%)" fill-opacity="1" d="M 79.46875 206.882812 C 84.027344 202.324219 84.027344 195.480469 84.027344 195.480469 L 86.070312 195.457031 C 86.070312 195.457031 86.070312 202.441406 90.507812 206.882812 "/>
<path fill-rule="nonzero" fill="rgb(0%, 0%, 0%)" fill-opacity="1" d="M 80.378906 192.242188 C 84.941406 196.800781 91.78125 196.800781 91.78125 196.800781 L 91.78125 198.84375 C 91.78125 198.84375 84.796875 198.84375 80.355469 203.28125 "/>
<path fill-rule="nonzero" fill="rgb(0%, 0%, 0%)" fill-opacity="1" d="M 89.523438 192.21875 C 84.964844 196.777344 78.125 196.777344 78.125 196.777344 L 78.125 198.820312 C 78.125 198.820312 85.109375 198.820312 89.550781 203.257812 "/>
<path fill-rule="nonzero" fill="rgb(0%, 0%, 0%)" fill-opacity="1" d="M 76.996094 103.765625 C 76.996094 108.113281 80.621094 111.640625 85.109375 111.640625 C 89.597656 111.640625 93.222656 108.113281 93.222656 103.765625 C 93.222656 99.421875 89.597656 95.894531 85.109375 95.894531 C 80.621094 95.894531 76.996094 99.421875 76.996094 103.765625 Z M 76.996094 103.765625 "/>
<path fill-rule="nonzero" fill="rgb(0%, 0%, 0%)" fill-opacity="1" d="M 66.53125 118.671875 C 66.53125 123.015625 70.15625 126.542969 74.644531 126.542969 C 79.132812 126.542969 82.757812 123.015625 82.757812 118.671875 C 82.757812 114.328125 79.132812 110.800781 74.644531 110.800781 C 70.15625 110.800781 66.53125 114.328125 66.53125 118.671875 Z M 66.53125 118.671875 "/>
<path fill-rule="nonzero" fill="rgb(0%, 0%, 0%)" fill-opacity="1" d="M 87.316406 118.71875 C 87.316406 120.304688 87.796875 121.792969 88.636719 123.039062 C 90.078125 125.175781 92.597656 126.589844 95.429688 126.589844 C 99.917969 126.589844 103.539062 123.0625 103.539062 118.71875 C 103.539062 114.375 99.917969 110.847656 95.429688 110.847656 C 90.941406 110.847656 87.316406 114.375 87.316406 118.71875 Z M 87.316406 118.71875 "/>
<path fill-rule="nonzero" fill="rgb(0%, 0%, 0%)" fill-opacity="1" d="M 75.582031 134.007812 C 79.589844 134.007812 81.699219 130.742188 82.804688 127.480469 C 83.910156 124.214844 84.003906 120.953125 84.003906 120.953125 L 86.070312 120.953125 C 86.070312 120.953125 86.453125 133.984375 94.46875 134.007812 Z M 75.582031 134.007812 "/>
<path fill-rule="nonzero" fill="rgb(0%, 0%, 0%)" fill-opacity="1" d="M 90.605469 109.550781 C 86.042969 114.113281 86.042969 120.953125 86.042969 120.953125 L 84.003906 120.976562 C 84.003906 120.976562 84.003906 113.992188 79.566406 109.550781 "/>
<path fill-rule="nonzero" fill="rgb(0%, 0%, 0%)" fill-opacity="1" d="M 89.691406 124.191406 C 85.132812 119.632812 78.292969 119.632812 78.292969 119.632812 L 78.292969 117.589844 C 78.292969 117.589844 85.277344 117.589844 89.714844 113.152344 "/>
<path fill-rule="nonzero" fill="rgb(0%, 0%, 0%)" fill-opacity="1" d="M 80.546875 124.214844 C 85.109375 119.65625 91.949219 119.65625 91.949219 119.65625 L 91.949219 117.617188 C 91.949219 117.617188 84.964844 117.617188 80.523438 113.175781 "/>
<path fill-rule="nonzero" fill="rgb(0%, 0%, 0%)" fill-opacity="1" d="M 76.996094 26.824219 C 76.996094 31.171875 80.621094 34.699219 85.109375 34.699219 C 89.597656 34.699219 93.222656 31.171875 93.222656 26.824219 C 93.222656 22.480469 89.597656 18.953125 85.109375 18.953125 C 80.621094 18.953125 76.996094 22.480469 76.996094 26.824219 Z M 76.996094 26.824219 "/>
<path fill-rule="nonzero" fill="rgb(0%, 0%, 0%)" fill-opacity="1" d="M 66.53125 41.730469 C 66.53125 46.074219 70.15625 49.601562 74.644531 49.601562 C 79.132812 49.601562 82.757812 46.074219 82.757812 41.730469 C 82.757812 37.386719 79.132812 33.859375 74.644531 33.859375 C 70.15625 33.859375 66.53125 37.386719 66.53125 41.730469 Z M 66.53125 41.730469 "/>
<path fill-rule="nonzero" fill="rgb(0%, 0%, 0%)" fill-opacity="1" d="M 87.316406 41.777344 C 87.316406 43.363281 87.796875 44.851562 88.636719 46.097656 C 90.078125 48.234375 92.597656 49.648438 95.429688 49.648438 C 99.917969 49.648438 103.539062 46.121094 103.539062 41.777344 C 103.539062 37.433594 99.917969 33.90625 95.429688 33.90625 C 90.941406 33.90625 87.316406 37.433594 87.316406 41.777344 Z M 87.316406 41.777344 "/>
<path fill-rule="nonzero" fill="rgb(0%, 0%, 0%)" fill-opacity="1" d="M 75.582031 57.066406 C 79.589844 57.066406 81.699219 53.800781 82.804688 50.539062 C 83.910156 47.273438 84.003906 44.011719 84.003906 44.011719 L 86.070312 44.011719 C 86.070312 44.011719 86.453125 57.042969 94.46875 57.066406 Z M 75.582031 57.066406 "/>
<path fill-rule="nonzero" fill="rgb(0%, 0%, 0%)" fill-opacity="1" d="M 90.605469 32.609375 C 86.042969 37.171875 86.042969 44.011719 86.042969 44.011719 L 84.003906 44.035156 C 84.003906 44.035156 84.003906 37.050781 79.566406 32.609375 "/>
<path fill-rule="nonzero" fill="rgb(0%, 0%, 0%)" fill-opacity="1" d="M 89.691406 47.25 C 85.132812 42.691406 78.292969 42.691406 78.292969 42.691406 L 78.292969 40.648438 C 78.292969 40.648438 85.277344 40.648438 89.714844 36.210938 "/>
<path fill-rule="nonzero" fill="rgb(0%, 0%, 0%)" fill-opacity="1" d="M 80.546875 47.273438 C 85.109375 42.714844 91.949219 42.714844 91.949219 42.714844 L 91.949219 40.675781 C 91.949219 40.675781 84.964844 40.675781 80.523438 36.234375 "/>
</svg>
