<?xml version="1.0" encoding="UTF-8"?>
<svg xmlns="http://www.w3.org/2000/svg" xmlns:xlink="http://www.w3.org/1999/xlink" width="169.074219" height="244.640625" viewBox="0 0 169.074219 244.640625">
<path fill-rule="nonzero" fill="rgb(100%, 100%, 100%)" fill-opacity="1" stroke-width="2.5" stroke-linecap="butt" stroke-linejoin="miter" stroke="rgb(0%, 0%, 0%)" stroke-opacity="1" stroke-miterlimit="4" d="M 0 -0.000473022 C 0 3.780777 3.089844 6.870621 6.871094 6.870621 L 159.714844 6.870621 C 163.484375 6.870621 166.574219 3.780777 166.574219 -0.000473022 L 166.574219 -228.398911 C 166.574219 -232.180161 163.484375 -235.270004 159.714844 -235.270004 L 6.871094 -235.270004 C 3.089844 -235.270004 0 -232.180161 0 -228.398911 Z M 0 -0.000473022 " transform="matrix(1, 0, 0, 1, 1.25, 236.520004)"/>
<path fill-rule="nonzero" fill="rgb(0%, 0%, 0%)" fill-opacity="1" d="M 18.941406 4.261719 L 18.941406 10.074219 L 9.464844 10.074219 L 9.464844 17.363281 C 9.988281 16.601562 10.570312 16.03125 11.210938 15.644531 C 11.851562 15.257812 12.53125 15.066406 13.242188 15.066406 C 15.421875 15.066406 17.144531 16.101562 18.410156 18.171875 C 19.675781 20.234375 20.308594 23.042969 20.308594 26.597656 C 20.308594 30.199219 19.675781 33.007812 18.410156 35.023438 C 17.144531 37.039062 15.375 38.046875 13.101562 38.046875 C 12.132812 38.046875 11.175781 37.898438 10.226562 37.601562 C 9.273438 37.304688 8.277344 36.847656 7.242188 36.230469 L 7.242188 28.992188 L 8.664062 28.992188 C 8.710938 31.164062 9.011719 32.785156 9.570312 33.851562 C 10.128906 34.921875 10.953125 35.453125 12.042969 35.453125 C 13.207031 35.453125 14.066406 34.726562 14.625 33.273438 C 15.183594 31.808594 15.464844 29.582031 15.464844 26.597656 C 15.464844 23.648438 15.191406 21.441406 14.644531 19.988281 C 14.097656 18.527344 13.265625 17.792969 12.148438 17.792969 C 11.546875 17.792969 11.011719 18.03125 10.542969 18.5 C 10.070312 18.964844 9.636719 19.6875 9.238281 20.667969 L 8.046875 20.667969 L 8.046875 4.261719 Z M 5.25 -5.289062 "/>
<path fill-rule="nonzero" fill="rgb(0%, 0%, 0%)" fill-opacity="1" d="M 151.136719 239.382812 L 151.136719 233.566406 L 160.609375 233.566406 L 160.609375 226.28125 C 160.085938 227.042969 159.503906 227.609375 158.863281 228 C 158.222656 228.382812 157.546875 228.578125 156.832031 228.578125 C 154.652344 228.578125 152.929688 227.542969 151.664062 225.472656 C 150.402344 223.410156 149.769531 220.601562 149.769531 217.046875 C 149.769531 213.445312 150.402344 210.636719 151.664062 208.621094 C 152.929688 206.601562 154.699219 205.59375 156.972656 205.59375 C 157.941406 205.59375 158.898438 205.746094 159.851562 206.042969 C 160.804688 206.339844 161.796875 206.792969 162.832031 207.414062 L 162.832031 214.648438 L 161.410156 214.648438 C 161.363281 212.476562 161.0625 210.859375 160.503906 209.792969 C 159.945312 208.722656 159.121094 208.191406 158.03125 208.191406 C 156.867188 208.191406 156.007812 208.917969 155.449219 210.371094 C 154.890625 211.832031 154.609375 214.058594 154.609375 217.046875 C 154.609375 219.996094 154.882812 222.199219 155.429688 223.652344 C 155.976562 225.117188 156.8125 225.851562 157.925781 225.851562 C 158.527344 225.851562 159.0625 225.613281 159.53125 225.140625 C 160.003906 224.679688 160.4375 223.957031 160.839844 222.976562 L 162.027344 222.976562 L 162.027344 239.382812 Z M 164.824219 248.933594 "/>
<path fill-rule="nonzero" fill="rgb(0%, 0%, 0%)" fill-opacity="1" d="M 11.550781 46.742188 C 11.550781 48.554688 13.058594 50.023438 14.929688 50.023438 C 16.800781 50.023438 18.308594 48.554688 18.308594 46.742188 C 18.308594 44.933594 16.800781 43.464844 14.929688 43.464844 C 13.058594 43.464844 11.550781 44.933594 11.550781 46.742188 Z M 11.550781 46.742188 "/>
<path fill-rule="nonzero" fill="rgb(0%, 0%, 0%)" fill-opacity="1" d="M 7.191406 52.953125 C 7.191406 54.761719 8.699219 56.234375 10.570312 56.234375 C 12.441406 56.234375 13.949219 54.761719 13.949219 52.953125 C 13.949219 51.144531 12.441406 49.671875 10.570312 49.671875 C 8.699219 49.671875 7.191406 51.144531 7.191406 52.953125 Z M 7.191406 52.953125 "/>
<path fill-rule="nonzero" fill="rgb(0%, 0%, 0%)" fill-opacity="1" d="M 15.851562 52.972656 C 15.851562 53.632812 16.050781 54.253906 16.398438 54.773438 C 17 55.664062 18.050781 56.253906 19.230469 56.253906 C 21.101562 56.253906 22.609375 54.78125 22.609375 52.972656 C 22.609375 51.164062 21.101562 49.691406 19.230469 49.691406 C 17.359375 49.691406 15.851562 51.164062 15.851562 52.972656 Z M 15.851562 52.972656 "/>
<path fill-rule="nonzero" fill="rgb(0%, 0%, 0%)" fill-opacity="1" d="M 10.960938 59.34375 C 12.628906 59.34375 13.511719 57.984375 13.96875 56.621094 C 14.429688 55.261719 14.46875 53.902344 14.46875 53.902344 L 15.328125 53.902344 C 15.328125 53.902344 15.488281 59.332031 18.828125 59.34375 Z M 10.960938 59.34375 "/>
<path fill-rule="nonzero" fill="rgb(0%, 0%, 0%)" fill-opacity="1" d="M 17.21875 49.152344 C 15.320312 51.054688 15.320312 53.902344 15.320312 53.902344 L 14.46875 53.914062 C 14.46875 53.914062 14.46875 51.003906 12.621094 49.152344 "/>
<path fill-rule="nonzero" fill="rgb(0%, 0%, 0%)" fill-opacity="1" d="M 16.839844 55.253906 C 14.941406 53.351562 12.089844 53.351562 12.089844 53.351562 L 12.089844 52.503906 C 12.089844 52.503906 15 52.503906 16.851562 50.652344 "/>
<path fill-rule="nonzero" fill="rgb(0%, 0%, 0%)" fill-opacity="1" d="M 13.03125 55.261719 C 14.929688 53.363281 17.78125 53.363281 17.78125 53.363281 L 17.78125 52.511719 C 17.78125 52.511719 14.871094 52.511719 13.019531 50.664062 "/>
<path fill-rule="nonzero" fill="rgb(0%, 0%, 0%)" fill-opacity="1" d="M 158.523438 196.898438 C 158.523438 195.089844 157.015625 193.621094 155.144531 193.621094 C 153.273438 193.621094 151.765625 195.089844 151.765625 196.898438 C 151.765625 198.710938 153.273438 200.179688 155.144531 200.179688 C 157.015625 200.179688 158.523438 198.710938 158.523438 196.898438 Z M 158.523438 196.898438 "/>
<path fill-rule="nonzero" fill="rgb(0%, 0%, 0%)" fill-opacity="1" d="M 162.886719 190.691406 C 162.886719 188.878906 161.375 187.410156 159.503906 187.410156 C 157.636719 187.410156 156.125 188.878906 156.125 190.691406 C 156.125 192.5 157.636719 193.96875 159.503906 193.96875 C 161.375 193.96875 162.886719 192.5 162.886719 190.691406 Z M 162.886719 190.691406 "/>
<path fill-rule="nonzero" fill="rgb(0%, 0%, 0%)" fill-opacity="1" d="M 154.226562 190.671875 C 154.226562 190.011719 154.023438 189.390625 153.675781 188.871094 C 153.074219 187.980469 152.023438 187.390625 150.84375 187.390625 C 148.976562 187.390625 147.464844 188.859375 147.464844 190.671875 C 147.464844 192.480469 148.976562 193.949219 150.84375 193.949219 C 152.714844 193.949219 154.226562 192.480469 154.226562 190.671875 Z M 154.226562 190.671875 "/>
<path fill-rule="nonzero" fill="rgb(0%, 0%, 0%)" fill-opacity="1" d="M 159.113281 184.300781 C 157.445312 184.300781 156.566406 185.660156 156.105469 187.019531 C 155.644531 188.378906 155.605469 189.738281 155.605469 189.738281 L 154.746094 189.738281 C 154.746094 189.738281 154.585938 184.308594 151.246094 184.300781 Z M 159.113281 184.300781 "/>
<path fill-rule="nonzero" fill="rgb(0%, 0%, 0%)" fill-opacity="1" d="M 152.855469 194.488281 C 154.753906 192.589844 154.753906 189.738281 154.753906 189.738281 L 155.605469 189.730469 C 155.605469 189.730469 155.605469 192.640625 157.453125 194.488281 "/>
<path fill-rule="nonzero" fill="rgb(0%, 0%, 0%)" fill-opacity="1" d="M 153.234375 188.390625 C 155.136719 190.289062 157.984375 190.289062 157.984375 190.289062 L 157.984375 191.140625 C 157.984375 191.140625 155.074219 191.140625 153.226562 192.988281 "/>
<path fill-rule="nonzero" fill="rgb(0%, 0%, 0%)" fill-opacity="1" d="M 157.046875 188.378906 C 155.144531 190.28125 152.296875 190.28125 152.296875 190.28125 L 152.296875 191.128906 C 152.296875 191.128906 155.203125 191.128906 157.054688 192.980469 "/>
<path fill-rule="nonzero" fill="rgb(0%, 0%, 0%)" fill-opacity="1" d="M 37.066406 26.824219 C 37.066406 31.171875 40.691406 34.699219 45.179688 34.699219 C 49.667969 34.699219 53.292969 31.171875 53.292969 26.824219 C 53.292969 22.480469 49.667969 18.953125 45.179688 18.953125 C 40.691406 18.953125 37.066406 22.480469 37.066406 26.824219 Z M 37.066406 26.824219 "/>
<path fill-rule="nonzero" fill="rgb(0%, 0%, 0%)" fill-opacity="1" d="M 26.605469 41.730469 C 26.605469 46.074219 30.226562 49.601562 34.714844 49.601562 C 39.203125 49.601562 42.828125 46.074219 42.828125 41.730469 C 42.828125 37.386719 39.203125 33.859375 34.714844 33.859375 C 30.226562 33.859375 26.605469 37.386719 26.605469 41.730469 Z M 26.605469 41.730469 "/>
<path fill-rule="nonzero" fill="rgb(0%, 0%, 0%)" fill-opacity="1" d="M 47.386719 41.777344 C 47.386719 43.363281 47.867188 44.851562 48.707031 46.097656 C 50.148438 48.234375 52.667969 49.648438 55.5 49.648438 C 59.988281 49.648438 63.613281 46.121094 63.613281 41.777344 C 63.613281 37.433594 59.988281 33.90625 55.5 33.90625 C 51.011719 33.90625 47.386719 37.433594 47.386719 41.777344 Z M 47.386719 41.777344 "/>
<path fill-rule="nonzero" fill="rgb(0%, 0%, 0%)" fill-opacity="1" d="M 35.652344 57.066406 C 39.660156 57.066406 41.773438 53.800781 42.875 50.539062 C 43.980469 47.273438 44.078125 44.011719 44.078125 44.011719 L 46.140625 44.011719 C 46.140625 44.011719 46.523438 57.042969 54.539062 57.066406 Z M 35.652344 57.066406 "/>
<path fill-rule="nonzero" fill="rgb(0%, 0%, 0%)" fill-opacity="1" d="M 50.675781 32.609375 C 46.117188 37.171875 46.117188 44.011719 46.117188 44.011719 L 44.078125 44.035156 C 44.078125 44.035156 44.078125 37.050781 39.636719 32.609375 "/>
<path fill-rule="nonzero" fill="rgb(0%, 0%, 0%)" fill-opacity="1" d="M 49.765625 47.25 C 45.203125 42.691406 38.363281 42.691406 38.363281 42.691406 L 38.363281 40.648438 C 38.363281 40.648438 45.347656 40.648438 49.789062 36.210938 "/>
<path fill-rule="nonzero" fill="rgb(0%, 0%, 0%)" fill-opacity="1" d="M 40.621094 47.273438 C 45.179688 42.714844 52.019531 42.714844 52.019531 42.714844 L 52.019531 40.675781 C 52.019531 40.675781 45.035156 40.675781 40.597656 36.234375 "/>
<path fill-rule="nonzero" fill="rgb(0%, 0%, 0%)" fill-opacity="1" d="M 53.148438 212.667969 C 53.148438 208.324219 49.523438 204.792969 45.035156 204.792969 C 40.546875 204.792969 36.925781 208.324219 36.925781 212.667969 C 36.925781 217.011719 40.546875 220.539062 45.035156 220.539062 C 49.523438 220.539062 53.148438 217.011719 53.148438 212.667969 Z M 53.148438 212.667969 "/>
<path fill-rule="nonzero" fill="rgb(0%, 0%, 0%)" fill-opacity="1" d="M 63.613281 197.761719 C 63.613281 193.417969 59.988281 189.890625 55.5 189.890625 C 51.011719 189.890625 47.386719 193.417969 47.386719 197.761719 C 47.386719 202.105469 51.011719 205.632812 55.5 205.632812 C 59.988281 205.632812 63.613281 202.105469 63.613281 197.761719 Z M 63.613281 197.761719 "/>
<path fill-rule="nonzero" fill="rgb(0%, 0%, 0%)" fill-opacity="1" d="M 42.828125 197.714844 C 42.828125 196.128906 42.347656 194.640625 41.507812 193.394531 C 40.070312 191.257812 37.546875 189.84375 34.714844 189.84375 C 30.226562 189.84375 26.605469 193.371094 26.605469 197.714844 C 26.605469 202.058594 30.226562 205.585938 34.714844 205.585938 C 39.203125 205.585938 42.828125 202.058594 42.828125 197.714844 Z M 42.828125 197.714844 "/>
<path fill-rule="nonzero" fill="rgb(0%, 0%, 0%)" fill-opacity="1" d="M 54.566406 182.425781 C 50.554688 182.425781 48.445312 185.691406 47.339844 188.953125 C 46.238281 192.21875 46.140625 195.480469 46.140625 195.480469 L 44.078125 195.480469 C 44.078125 195.480469 43.691406 182.449219 35.675781 182.425781 Z M 54.566406 182.425781 "/>
<path fill-rule="nonzero" fill="rgb(0%, 0%, 0%)" fill-opacity="1" d="M 39.539062 206.882812 C 44.101562 202.324219 44.101562 195.480469 44.101562 195.480469 L 46.140625 195.457031 C 46.140625 195.457031 46.140625 202.441406 50.582031 206.882812 "/>
<path fill-rule="nonzero" fill="rgb(0%, 0%, 0%)" fill-opacity="1" d="M 40.453125 192.242188 C 45.011719 196.800781 51.851562 196.800781 51.851562 196.800781 L 51.851562 198.84375 C 51.851562 198.84375 44.867188 198.84375 40.429688 203.28125 "/>
<path fill-rule="nonzero" fill="rgb(0%, 0%, 0%)" fill-opacity="1" d="M 49.597656 192.21875 C 45.035156 196.777344 38.195312 196.777344 38.195312 196.777344 L 38.195312 198.820312 C 38.195312 198.820312 45.179688 198.820312 49.621094 203.257812 "/>
<path fill-rule="nonzero" fill="rgb(0%, 0%, 0%)" fill-opacity="1" d="M 116.925781 26.824219 C 116.925781 31.171875 120.550781 34.699219 125.039062 34.699219 C 129.527344 34.699219 133.148438 31.171875 133.148438 26.824219 C 133.148438 22.480469 129.527344 18.953125 125.039062 18.953125 C 120.550781 18.953125 116.925781 22.480469 116.925781 26.824219 Z M 116.925781 26.824219 "/>
<path fill-rule="nonzero" fill="rgb(0%, 0%, 0%)" fill-opacity="1" d="M 106.460938 41.730469 C 106.460938 46.074219 110.085938 49.601562 114.574219 49.601562 C 119.0625 49.601562 122.6875 46.074219 122.6875 41.730469 C 122.6875 37.386719 119.0625 33.859375 114.574219 33.859375 C 110.085938 33.859375 106.460938 37.386719 106.460938 41.730469 Z M 106.460938 41.730469 "/>
<path fill-rule="nonzero" fill="rgb(0%, 0%, 0%)" fill-opacity="1" d="M 127.246094 41.777344 C 127.246094 43.363281 127.726562 44.851562 128.566406 46.097656 C 130.007812 48.234375 132.527344 49.648438 135.359375 49.648438 C 139.847656 49.648438 143.46875 46.121094 143.46875 41.777344 C 143.46875 37.433594 139.847656 33.90625 135.359375 33.90625 C 130.871094 33.90625 127.246094 37.433594 127.246094 41.777344 Z M 127.246094 41.777344 "/>
<path fill-rule="nonzero" fill="rgb(0%, 0%, 0%)" fill-opacity="1" d="M 115.511719 57.066406 C 119.519531 57.066406 121.628906 53.800781 122.734375 50.539062 C 123.839844 47.273438 123.933594 44.011719 123.933594 44.011719 L 125.996094 44.011719 C 125.996094 44.011719 126.382812 57.042969 134.398438 57.066406 Z M 115.511719 57.066406 "/>
<path fill-rule="nonzero" fill="rgb(0%, 0%, 0%)" fill-opacity="1" d="M 130.535156 32.609375 C 125.972656 37.171875 125.972656 44.011719 125.972656 44.011719 L 123.933594 44.035156 C 123.933594 44.035156 123.933594 37.050781 119.492188 32.609375 "/>
<path fill-rule="nonzero" fill="rgb(0%, 0%, 0%)" fill-opacity="1" d="M 129.621094 47.25 C 125.0625 42.691406 118.222656 42.691406 118.222656 42.691406 L 118.222656 40.648438 C 118.222656 40.648438 125.207031 40.648438 129.644531 36.210938 "/>
<path fill-rule="nonzero" fill="rgb(0%, 0%, 0%)" fill-opacity="1" d="M 120.476562 47.273438 C 125.039062 42.714844 131.878906 42.714844 131.878906 42.714844 L 131.878906 40.675781 C 131.878906 40.675781 124.894531 40.675781 120.453125 36.234375 "/>
<path fill-rule="nonzero" fill="rgb(0%, 0%, 0%)" fill-opacity="1" d="M 133.007812 212.667969 C 133.007812 208.324219 129.382812 204.792969 124.894531 204.792969 C 120.40625 204.792969 116.78125 208.324219 116.78125 212.667969 C 116.78125 217.011719 120.40625 220.539062 124.894531 220.539062 C 129.382812 220.539062 133.007812 217.011719 133.007812 212.667969 Z M 133.007812 212.667969 "/>
<path fill-rule="nonzero" fill="rgb(0%, 0%, 0%)" fill-opacity="1" d="M 143.46875 197.761719 C 143.46875 193.417969 139.847656 189.890625 135.359375 189.890625 C 130.871094 189.890625 127.246094 193.417969 127.246094 197.761719 C 127.246094 202.105469 130.871094 205.632812 135.359375 205.632812 C 139.847656 205.632812 143.46875 202.105469 143.46875 197.761719 Z M 143.46875 197.761719 "/>
<path fill-rule="nonzero" fill="rgb(0%, 0%, 0%)" fill-opacity="1" d="M 122.6875 197.714844 C 122.6875 196.128906 122.207031 194.640625 121.367188 193.394531 C 119.925781 191.257812 117.40625 189.84375 114.574219 189.84375 C 110.085938 189.84375 106.460938 193.371094 106.460938 197.714844 C 106.460938 202.058594 110.085938 205.585938 114.574219 205.585938 C 119.0625 205.585938 122.6875 202.058594 122.6875 197.714844 Z M 122.6875 197.714844 "/>
<path fill-rule="nonzero" fill="rgb(0%, 0%, 0%)" fill-opacity="1" d="M 134.421875 182.425781 C 130.414062 182.425781 128.300781 185.691406 127.199219 188.953125 C 126.09375 192.21875 125.996094 195.480469 125.996094 195.480469 L 123.933594 195.480469 C 123.933594 195.480469 123.550781 182.449219 115.535156 182.425781 Z M 134.421875 182.425781 "/>
<path fill-rule="nonzero" fill="rgb(0%, 0%, 0%)" fill-opacity="1" d="M 119.398438 206.882812 C 123.957031 202.324219 123.957031 195.480469 123.957031 195.480469 L 125.996094 195.457031 C 125.996094 195.457031 125.996094 202.441406 130.4375 206.882812 "/>
<path fill-rule="nonzero" fill="rgb(0%, 0%, 0%)" fill-opacity="1" d="M 120.308594 192.242188 C 124.871094 196.800781 131.710938 196.800781 131.710938 196.800781 L 131.710938 198.84375 C 131.710938 198.84375 124.726562 198.84375 120.285156 203.28125 "/>
<path fill-rule="nonzero" fill="rgb(0%, 0%, 0%)" fill-opacity="1" d="M 129.453125 192.21875 C 124.894531 196.777344 118.054688 196.777344 118.054688 196.777344 L 118.054688 198.820312 C 118.054688 198.820312 125.039062 198.820312 129.476562 203.257812 "/>
<path fill-rule="nonzero" fill="rgb(0%, 0%, 0%)" fill-opacity="1" d="M 76.996094 103.765625 C 76.996094 108.113281 80.621094 111.640625 85.109375 111.640625 C 89.597656 111.640625 93.222656 108.113281 93.222656 103.765625 C 93.222656 99.421875 89.597656 95.894531 85.109375 95.894531 C 80.621094 95.894531 76.996094 99.421875 76.996094 103.765625 Z M 76.996094 103.765625 "/>
<path fill-rule="nonzero" fill="rgb(0%, 0%, 0%)" fill-opacity="1" d="M 66.535156 118.671875 C 66.535156 123.015625 70.15625 126.542969 74.644531 126.542969 C 79.132812 126.542969 82.757812 123.015625 82.757812 118.671875 C 82.757812 114.328125 79.132812 110.800781 74.644531 110.800781 C 70.15625 110.800781 66.535156 114.328125 66.535156 118.671875 Z M 66.535156 118.671875 "/>
<path fill-rule="nonzero" fill="rgb(0%, 0%, 0%)" fill-opacity="1" d="M 87.316406 118.71875 C 87.316406 120.304688 87.796875 121.792969 88.636719 123.039062 C 90.078125 125.175781 92.597656 126.589844 95.429688 126.589844 C 99.917969 126.589844 103.542969 123.0625 103.542969 118.71875 C 103.542969 114.375 99.917969 110.847656 95.429688 110.847656 C 90.941406 110.847656 87.316406 114.375 87.316406 118.71875 Z M 87.316406 118.71875 "/>
<path fill-rule="nonzero" fill="rgb(0%, 0%, 0%)" fill-opacity="1" d="M 75.582031 134.007812 C 79.589844 134.007812 81.703125 130.742188 82.804688 127.480469 C 83.910156 124.214844 84.003906 120.953125 84.003906 120.953125 L 86.070312 120.953125 C 86.070312 120.953125 86.453125 133.984375 94.46875 134.007812 Z M 75.582031 134.007812 "/>
<path fill-rule="nonzero" fill="rgb(0%, 0%, 0%)" fill-opacity="1" d="M 90.605469 109.550781 C 86.046875 114.113281 86.046875 120.953125 86.046875 120.953125 L 84.003906 120.976562 C 84.003906 120.976562 84.003906 113.992188 79.566406 109.550781 "/>
<path fill-rule="nonzero" fill="rgb(0%, 0%, 0%)" fill-opacity="1" d="M 89.691406 124.191406 C 85.132812 119.632812 78.292969 119.632812 78.292969 119.632812 L 78.292969 117.589844 C 78.292969 117.589844 85.277344 117.589844 89.71875 113.152344 "/>
<path fill-rule="nonzero" fill="rgb(0%, 0%, 0%)" fill-opacity="1" d="M 80.550781 124.214844 C 85.109375 119.65625 91.949219 119.65625 91.949219 119.65625 L 91.949219 117.617188 C 91.949219 117.617188 84.964844 117.617188 80.523438 113.175781 "/>
</svg>
