<?xml version="1.0" encoding="UTF-8"?>
<svg xmlns="http://www.w3.org/2000/svg" xmlns:xlink="http://www.w3.org/1999/xlink" width="169.074219" height="244.640625" viewBox="0 0 169.074219 244.640625">
<path fill-rule="nonzero" fill="rgb(100%, 100%, 100%)" fill-opacity="1" stroke-width="2.5" stroke-linecap="butt" stroke-linejoin="miter" stroke="rgb(0%, 0%, 0%)" stroke-opacity="1" stroke-miterlimit="4" d="M 0 -0.000473022 C 0 3.780777 3.089844 6.870621 6.871094 6.870621 L 159.714844 6.870621 C 163.484375 6.870621 166.574219 3.780777 166.574219 -0.000473022 L 166.574219 -228.398911 C 166.574219 -232.180161 163.484375 -235.270004 159.714844 -235.270004 L 6.871094 -235.270004 C 3.089844 -235.270004 0 -232.180161 0 -228.398911 Z M 0 -0.000473022 " transform="matrix(1, 0, 0, 1, 1.25, 236.520004)"/>
<path fill-rule="nonzero" fill="rgb(0%, 0%, 0%)" fill-opacity="1" d="M 5.054688 37.402344 L 5.054688 34.710938 L 6.503906 34.710938 L 13.171875 4.261719 L 16.003906 4.261719 L 22.671875 34.710938 L 24.355469 34.710938 L 24.355469 37.402344 L 16.074219 37.402344 L 16.074219 34.710938 L 17.800781 34.710938 L 16.347656 27.953125 L 9.695312 27.953125 L 8.214844 34.710938 L 10.320312 34.710938 L 10.320312 37.402344 Z M 10.277344 25.257812 L 15.765625 25.257812 L 13.039062 12.585938 Z M 5.25 -5.289062 "/>
<path fill-rule="nonzero" fill="rgb(0%, 0%, 0%)" fill-opacity="1" d="M 165.019531 206.238281 L 165.019531 208.933594 L 163.574219 208.933594 L 156.902344 239.382812 L 154.074219 239.382812 L 147.402344 208.933594 L 145.71875 208.933594 L 145.71875 206.238281 L 154 206.238281 L 154 208.933594 L 152.273438 208.933594 L 153.726562 215.691406 L 160.378906 215.691406 L 161.859375 208.933594 L 159.753906 208.933594 L 159.753906 206.238281 Z M 159.796875 218.382812 L 154.3125 218.382812 L 157.035156 231.054688 Z M 164.824219 248.933594 "/>
<path fill-rule="nonzero" fill="rgb(0%, 0%, 0%)" fill-opacity="1" d="M 11.550781 46.742188 C 11.550781 48.554688 13.058594 50.023438 14.929688 50.023438 C 16.800781 50.023438 18.308594 48.554688 18.308594 46.742188 C 18.308594 44.933594 16.800781 43.464844 14.929688 43.464844 C 13.058594 43.464844 11.550781 44.933594 11.550781 46.742188 Z M 11.550781 46.742188 "/>
<path fill-rule="nonzero" fill="rgb(0%, 0%, 0%)" fill-opacity="1" d="M 7.191406 52.953125 C 7.191406 54.761719 8.699219 56.234375 10.570312 56.234375 C 12.441406 56.234375 13.949219 54.761719 13.949219 52.953125 C 13.949219 51.144531 12.441406 49.671875 10.570312 49.671875 C 8.699219 49.671875 7.191406 51.144531 7.191406 52.953125 Z M 7.191406 52.953125 "/>
<path fill-rule="nonzero" fill="rgb(0%, 0%, 0%)" fill-opacity="1" d="M 15.851562 52.972656 C 15.851562 53.632812 16.050781 54.253906 16.398438 54.773438 C 17 55.664062 18.050781 56.253906 19.230469 56.253906 C 21.101562 56.253906 22.609375 54.78125 22.609375 52.972656 C 22.609375 51.164062 21.101562 49.691406 19.230469 49.691406 C 17.359375 49.691406 15.851562 51.164062 15.851562 52.972656 Z M 15.851562 52.972656 "/>
<path fill-rule="nonzero" fill="rgb(0%, 0%, 0%)" fill-opacity="1" d="M 10.960938 59.34375 C 12.628906 59.34375 13.511719 57.984375 13.96875 56.621094 C 14.429688 55.261719 14.46875 53.902344 14.46875 53.902344 L 15.328125 53.902344 C 15.328125 53.902344 15.488281 59.332031 18.828125 59.34375 Z M 10.960938 59.34375 "/>
<path fill-rule="nonzero" fill="rgb(0%, 0%, 0%)" fill-opacity="1" d="M 17.21875 49.152344 C 15.320312 51.054688 15.320312 53.902344 15.320312 53.902344 L 14.46875 53.914062 C 14.46875 53.914062 14.46875 51.003906 12.621094 49.152344 "/>
<path fill-rule="nonzero" fill="rgb(0%, 0%, 0%)" fill-opacity="1" d="M 16.839844 55.253906 C 14.941406 53.351562 12.089844 53.351562 12.089844 53.351562 L 12.089844 52.503906 C 12.089844 52.503906 15 52.503906 16.851562 50.652344 "/>
<path fill-rule="nonzero" fill="rgb(0%, 0%, 0%)" fill-opacity="1" d="M 13.03125 55.261719 C 14.929688 53.363281 17.78125 53.363281 17.78125 53.363281 L 17.78125 52.511719 C 17.78125 52.511719 14.871094 52.511719 13.019531 50.664062 "/>
<path fill-rule="nonzero" fill="rgb(0%, 0%, 0%)" fill-opacity="1" d="M 158.523438 196.898438 C 158.523438 195.089844 157.015625 193.621094 155.144531 193.621094 C 153.273438 193.621094 151.765625 195.089844 151.765625 196.898438 C 151.765625 198.710938 153.273438 200.179688 155.144531 200.179688 C 157.015625 200.179688 158.523438 198.710938 158.523438 196.898438 Z M 158.523438 196.898438 "/>
<path fill-rule="nonzero" fill="rgb(0%, 0%, 0%)" fill-opacity="1" d="M 162.886719 190.691406 C 162.886719 188.878906 161.375 187.410156 159.503906 187.410156 C 157.636719 187.410156 156.125 188.878906 156.125 190.691406 C 156.125 192.5 157.636719 193.96875 159.503906 193.96875 C 161.375 193.96875 162.886719 192.5 162.886719 190.691406 Z M 162.886719 190.691406 "/>
<path fill-rule="nonzero" fill="rgb(0%, 0%, 0%)" fill-opacity="1" d="M 154.226562 190.671875 C 154.226562 190.011719 154.023438 189.390625 153.675781 188.871094 C 153.074219 187.980469 152.023438 187.390625 150.84375 187.390625 C 148.976562 187.390625 147.464844 188.859375 147.464844 190.671875 C 147.464844 192.480469 148.976562 193.949219 150.84375 193.949219 C 152.714844 193.949219 154.226562 192.480469 154.226562 190.671875 Z M 154.226562 190.671875 "/>
<path fill-rule="nonzero" fill="rgb(0%, 0%, 0%)" fill-opacity="1" d="M 159.113281 184.300781 C 157.445312 184.300781 156.566406 185.660156 156.105469 187.019531 C 155.644531 188.378906 155.605469 189.738281 155.605469 189.738281 L 154.746094 189.738281 C 154.746094 189.738281 154.585938 184.308594 151.246094 184.300781 Z M 159.113281 184.300781 "/>
<path fill-rule="nonzero" fill="rgb(0%, 0%, 0%)" fill-opacity="1" d="M 152.855469 194.488281 C 154.753906 192.589844 154.753906 189.738281 154.753906 189.738281 L 155.605469 189.730469 C 155.605469 189.730469 155.605469 192.640625 157.453125 194.488281 "/>
<path fill-rule="nonzero" fill="rgb(0%, 0%, 0%)" fill-opacity="1" d="M 153.234375 188.390625 C 155.136719 190.289062 157.984375 190.289062 157.984375 190.289062 L 157.984375 191.140625 C 157.984375 191.140625 155.074219 191.140625 153.226562 192.988281 "/>
<path fill-rule="nonzero" fill="rgb(0%, 0%, 0%)" fill-opacity="1" d="M 157.046875 188.378906 C 155.144531 190.28125 152.296875 190.28125 152.296875 190.28125 L 152.296875 191.128906 C 152.296875 191.128906 155.203125 191.128906 157.054688 192.980469 "/>
<path fill-rule="nonzero" fill="rgb(0%, 0%, 0%)" fill-opacity="1" d="M 76.996094 103.765625 C 76.996094 108.113281 80.621094 111.640625 85.109375 111.640625 C 89.597656 111.640625 93.222656 108.113281 93.222656 103.765625 C 93.222656 99.421875 89.597656 95.894531 85.109375 95.894531 C 80.621094 95.894531 76.996094 99.421875 76.996094 103.765625 Z M 76.996094 103.765625 "/>
<path fill-rule="nonzero" fill="rgb(0%, 0%, 0%)" fill-opacity="1" d="M 66.535156 118.671875 C 66.535156 123.015625 70.15625 126.542969 74.644531 126.542969 C 79.132812 126.542969 82.757812 123.015625 82.757812 118.671875 C 82.757812 114.328125 79.132812 110.800781 74.644531 110.800781 C 70.15625 110.800781 66.535156 114.328125 66.535156 118.671875 Z M 66.535156 118.671875 "/>
<path fill-rule="nonzero" fill="rgb(0%, 0%, 0%)" fill-opacity="1" d="M 87.316406 118.71875 C 87.316406 120.304688 87.796875 121.792969 88.636719 123.039062 C 90.078125 125.175781 92.597656 126.589844 95.429688 126.589844 C 99.917969 126.589844 103.542969 123.0625 103.542969 118.71875 C 103.542969 114.375 99.917969 110.847656 95.429688 110.847656 C 90.941406 110.847656 87.316406 114.375 87.316406 118.71875 Z M 87.316406 118.71875 "/>
<path fill-rule="nonzero" fill="rgb(0%, 0%, 0%)" fill-opacity="1" d="M 75.582031 134.007812 C 79.589844 134.007812 81.703125 130.742188 82.804688 127.480469 C 83.910156 124.214844 84.003906 120.953125 84.003906 120.953125 L 86.070312 120.953125 C 86.070312 120.953125 86.453125 133.984375 94.46875 134.007812 Z M 75.582031 134.007812 "/>
<path fill-rule="nonzero" fill="rgb(0%, 0%, 0%)" fill-opacity="1" d="M 90.605469 109.550781 C 86.046875 114.113281 86.046875 120.953125 86.046875 120.953125 L 84.003906 120.976562 C 84.003906 120.976562 84.003906 113.992188 79.566406 109.550781 "/>
<path fill-rule="nonzero" fill="rgb(0%, 0%, 0%)" fill-opacity="1" d="M 89.695312 124.191406 C 85.132812 119.632812 78.292969 119.632812 78.292969 119.632812 L 78.292969 117.589844 C 78.292969 117.589844 85.277344 117.589844 89.71875 113.152344 "/>
<path fill-rule="nonzero" fill="rgb(0%, 0%, 0%)" fill-opacity="1" d="M 80.550781 124.214844 C 85.109375 119.65625 91.949219 119.65625 91.949219 119.65625 L 91.949219 117.617188 C 91.949219 117.617188 84.964844 117.617188 80.527344 113.175781 "/>
<path fill-rule="nonzero" fill="rgb(0%, 0%, 0%)" fill-opacity="1" d="M 95.546875 151.035156 C 96.707031 151.507812 95.503906 152.175781 95.546875 151.035156 M 79.535156 151.035156 C 79.535156 152.789062 80.878906 151.328125 79.535156 151.035156 M 81.8125 149.921875 C 82.515625 149.90625 83.640625 150.816406 82.421875 151.121094 C 81.628906 151.324219 80.703125 150.136719 81.8125 149.921875 M 87.585938 151.121094 C 85.253906 150.382812 88.132812 148.542969 87.585938 151.121094 M 79.359375 149.285156 C 79.800781 150.210938 80.074219 151.828125 81.375 151.820312 C 80.875 151.121094 80.453125 150.882812 80.324219 149.984375 C 80.59375 150.195312 81.90625 151.417969 81.769531 151.726562 C 81.101562 153.269531 79.308594 151.71875 78.660156 151.136719 C 76.984375 149.628906 76.8125 149.617188 79.359375 149.285156 M 76.316406 149.160156 C 76.5625 149.652344 76.203125 149.792969 76.316406 149.160156 M 91.699219 148.585938 C 91.601562 148.777344 91.453125 148.894531 91.261719 148.933594 C 91.316406 148.722656 91.476562 148.597656 91.699219 148.585938 M 90.824219 148.671875 C 90.589844 148.554688 90.359375 148.527344 90.125 148.585938 C 90.335938 148.785156 90.453125 149.019531 90.472656 149.285156 L 90.035156 149.285156 C 90.375 150.476562 90.34375 151.359375 89.261719 152.199219 C 88.824219 152.535156 88.136719 153.03125 87.910156 152.433594 C 88.292969 151.851562 89.449219 146.410156 90.824219 148.671875 M 75.949219 148.933594 C 75.726562 150.414062 73.269531 149.046875 73.324219 148.058594 C 74.191406 148.449219 75.023438 148.53125 75.949219 148.933594 M 89.160156 148.058594 C 88.953125 148.558594 88.617188 148.953125 88.109375 149.109375 C 88.082031 148.574219 88.476562 147.707031 89.160156 148.058594 M 76.296875 147.882812 C 76.78125 148.527344 75.648438 148.703125 76.296875 147.882812 M 81.285156 148.933594 C 81.304688 149.214844 77.046875 149.347656 77.171875 148.410156 C 78.183594 148.664062 77.8125 147.644531 78.933594 147.949219 C 79.402344 148.074219 79.972656 148.039062 80.398438 148.234375 C 80.816406 148.664062 80.703125 148.929688 81.285156 148.933594 M 99.660156 148.058594 C 100.082031 148.074219 100.488281 147.960938 100.886719 147.796875 C 100.46875 147.722656 100.019531 147.824219 99.660156 148.058594 M 91.609375 147.710938 L 91.699219 147.796875 C 91.585938 148.265625 90.882812 148.417969 91.609375 147.710938 M 83.5625 147.183594 C 83.90625 147.621094 84.230469 148.230469 84.609375 148.496094 C 84.882812 147.964844 84.230469 146.828125 83.5625 147.183594 M 84.523438 149.546875 C 83.714844 149.34375 81.957031 147.589844 82.945312 146.898438 C 84.53125 145.785156 85.289062 147.859375 85.515625 148.921875 C 85.632812 149.46875 87.945312 152.371094 86.796875 152.496094 C 86.152344 152.542969 83.910156 150.136719 84.523438 149.546875 M 98.171875 146.132812 C 98.292969 146.171875 98.359375 146.613281 98.609375 146.132812 C 98.425781 146.039062 98.332031 146.164062 98.171875 146.132812 M 70.699219 144.648438 C 70.597656 145.121094 70.628906 145.585938 70.785156 146.046875 C 70.222656 145.699219 69.101562 144.132812 70.699219 144.648438 M 95.023438 144.382812 C 95.574219 146.875 91.574219 145.265625 91.609375 147.273438 C 90.253906 145.519531 93.214844 143.871094 92.835938 145.523438 C 93.582031 145.191406 94.265625 144.714844 95.023438 144.382812 M 66.5 143.335938 C 67.484375 144.097656 68.734375 144.417969 69.554688 145.363281 C 69.699219 145.527344 70.484375 146.355469 69.5625 146.222656 C 69.246094 146.304688 68.941406 145.574219 68.855469 145.492188 C 68.003906 145.007812 66.707031 144.292969 66.5 143.335938 M 93.449219 144.558594 C 92.980469 144.476562 92.53125 143.9375 92.835938 143.425781 C 93.402344 142.472656 93.988281 143.839844 93.449219 144.558594 M 88.722656 142.722656 C 88.695312 143.011719 88.664062 143.304688 88.636719 143.597656 C 88.277344 143.316406 88.355469 142.949219 88.722656 142.722656 M 87.9375 142.546875 C 87.96875 142.96875 87.929688 143.421875 87.9375 143.859375 C 87.554688 143.519531 87.570312 142.929688 87.9375 142.546875 M 99.484375 142.023438 C 99.40625 142.230469 99.3125 142.394531 99.3125 142.632812 C 99.542969 142.566406 99.6875 142.390625 99.75 142.109375 C 99.742188 142.101562 99.484375 141.941406 99.484375 142.023438 M 65.796875 142.023438 C 66.183594 142.324219 66.410156 142.675781 66.410156 143.160156 C 65.933594 142.957031 65.683594 142.519531 65.796875 142.023438 M 100.796875 141.148438 C 100.738281 141.378906 100.683594 141.613281 100.625 141.847656 C 100.933594 141.5625 100.8125 141.023438 100.796875 141.148438 M 102.199219 140.621094 C 101.746094 141.957031 100.019531 142.769531 99.75 143.859375 C 100.519531 143.648438 101.3125 143.53125 102.109375 143.507812 C 101.761719 143.242188 101.289062 143.328125 100.796875 143.335938 C 101.257812 142.660156 102.078125 142.542969 102.636719 142.109375 L 102.285156 142.109375 C 102.539062 141.890625 102.714844 141.625 102.8125 141.320312 C 102.664062 141.351562 102.519531 141.378906 102.375 141.410156 C 102.332031 139.398438 102.390625 141.175781 102.199219 140.621094 M 113.484375 139.746094 C 113.375 140.925781 112.796875 143.015625 111.160156 142.835938 C 109.734375 142.675781 109.007812 145.296875 107.601562 143.652344 C 106.953125 143.492188 105.589844 144.136719 105.304688 143.507812 C 104.851562 142.511719 108.773438 142.578125 109.199219 142.722656 C 108.480469 141.699219 110.207031 141.773438 110.773438 142.023438 C 110.898438 140.839844 112.550781 140.34375 113.484375 139.746094 M 68.773438 138.960938 C 68.941406 139.46875 69.402344 139.976562 69.210938 140.535156 C 68.773438 140.453125 68.335938 140.394531 67.898438 140.445312 C 68.636719 141.734375 69.925781 140.648438 70.523438 142.109375 C 69.691406 142.140625 69.359375 141.640625 68.511719 141.671875 C 68.730469 141.933594 68.960938 141.875 69.296875 141.933594 C 69.03125 142.351562 68.796875 142.25 68.6875 142.632812 C 69.574219 142.589844 71.289062 142.285156 71.835938 143.246094 C 71.355469 143.324219 70.953125 143.296875 70.609375 143.597656 C 71.113281 143.601562 71.609375 143.554688 72.097656 143.453125 C 72.820312 143.917969 73.507812 144.445312 74.285156 144.820312 C 73.988281 144.449219 73.667969 143.9375 73.671875 143.421875 C 72.839844 143.453125 72.921875 143.402344 72.648438 142.570312 C 72.125 140.996094 71.382812 140.582031 72.097656 142.546875 C 70.558594 142.328125 70.011719 139.6875 68.773438 138.960938 M 98.609375 144.996094 C 98.753906 144.316406 97.828125 145.648438 98.785156 144.210938 C 97.996094 144.585938 97.058594 144.535156 96.335938 144.996094 C 96.660156 144.6875 96.824219 144.335938 96.859375 143.859375 C 95.988281 144.195312 95.460938 145.234375 96.511719 145.523438 C 96.363281 146.355469 95.441406 146.339844 94.792969 146.566406 C 93.992188 146.847656 93.023438 147.957031 92.3125 148.058594 C 93.023438 146.671875 93.777344 146.742188 94.925781 145.667969 C 95.207031 145.40625 96.394531 142.597656 95.417969 143.097656 C 94.878906 143.375 93.769531 143.035156 94.015625 142.203125 C 94.523438 140.742188 95.570312 142.5 96.160156 142.371094 C 96.683594 142.710938 96.992188 143.089844 97.648438 142.832031 C 98.832031 142.371094 98.351562 140.382812 99.398438 139.972656 C 99.734375 139.839844 100.144531 140.421875 100.578125 140.332031 C 101.460938 140.148438 101.601562 138.582031 102.375 138.488281 C 103.125 138.226562 103.035156 139.265625 103.597656 139.53125 C 104.390625 139.90625 105.105469 138.671875 105.65625 139.660156 C 105.929688 140.152344 105.617188 140.460938 105.347656 140.859375 C 104.117188 141.761719 104.328125 141.757812 104.167969 143.160156 C 103.898438 143.886719 101.960938 145.898438 101.148438 145.921875 C 100.195312 145.511719 100.183594 145.191406 99.273438 145.796875 C 98.882812 146.46875 98.152344 147.710938 97.289062 146.878906 C 96.746094 145.382812 97.132812 145.109375 98.609375 144.996094 M 112.171875 139.921875 C 112.113281 139.816406 112.085938 139.695312 112.085938 139.570312 C 111.558594 140.066406 111.3125 140.804688 110.511719 141.058594 C 110.574219 140.722656 110.523438 140.378906 110.6875 140.007812 C 110.242188 140.714844 110.152344 141.527344 109.199219 141.671875 C 109.117188 141.289062 109.207031 140.9375 109.460938 140.621094 C 108.636719 141.453125 108.394531 142.605469 107.972656 140.972656 C 107.652344 141.136719 106.9375 143.453125 105.875 142.617188 C 105.074219 141.984375 106.730469 139.957031 107.359375 139.628906 C 108.660156 139.71875 108.925781 138.800781 109.898438 138.339844 C 110.652344 137.980469 111.289062 138.476562 112.164062 138.171875 C 112.765625 137.964844 113.839844 137.792969 113.832031 138.695312 C 113.828125 139.496094 112.730469 139.574219 112.171875 139.921875 M 56.875 137.382812 C 56.714844 137.839844 57.042969 138.363281 57.3125 138.695312 C 56.546875 138.351562 55.796875 137.753906 55.035156 137.558594 C 55.527344 138.304688 56.324219 138.691406 56.875 139.308594 C 56.628906 139.359375 56.554688 139.390625 56.347656 139.398438 L 56.347656 139.570312 C 58.160156 139.640625 59.453125 140.796875 61.25 141.234375 C 60.664062 140.390625 59.835938 139.328125 58.972656 138.785156 C 59.136719 139.304688 59.539062 139.671875 59.761719 140.183594 C 58.121094 139.757812 57.925781 138.191406 56.875 137.382812 M 75.160156 145.785156 C 73.816406 145.367188 71.644531 145.792969 71.3125 143.945312 C 68.855469 144.757812 68.753906 143.617188 66.890625 142.417969 C 66.691406 142.105469 66.667969 141.824219 66.515625 141.496094 C 66.707031 140.496094 65.328125 140.015625 65.535156 139.308594 C 65.722656 138.675781 65.742188 138.839844 66.503906 138.789062 C 67.535156 138.726562 67.578125 138.257812 67.953125 137.339844 C 69.097656 136.621094 69.703125 138.082031 69.929688 138.957031 C 70.621094 139.613281 71.640625 139.128906 72.261719 139.726562 C 72.816406 140.265625 72.425781 141.074219 72.972656 141.644531 C 74.003906 142.703125 74.15625 141.597656 74.078125 143.203125 C 74.050781 143.734375 74.558594 143.824219 74.867188 144.214844 C 75.066406 144.660156 75.007812 145.308594 75.160156 145.785156 M 111.035156 136.683594 C 111.003906 138.535156 108.605469 137.460938 111.035156 136.683594 M 112.785156 135.285156 C 112.832031 136.164062 112.222656 135.972656 112.785156 135.285156 M 107.1875 137.210938 C 106.25 137.070312 105.753906 135.375 106.921875 135.378906 C 108.847656 136.109375 106.914062 136.132812 107.1875 137.210938 M 61.421875 135.195312 C 60.941406 135.496094 59.765625 135.269531 60.023438 134.410156 C 60.097656 133.691406 61.652344 134.011719 61.421875 135.195312 M 112.4375 133.535156 C 112.414062 133.992188 112.359375 134.265625 112 134.320312 C 111.976562 133.976562 112.109375 133.621094 112.4375 133.535156 M 108.398438 133.273438 C 109.378906 133.976562 109.113281 135.722656 107.667969 135.191406 C 106.570312 134.785156 107.730469 133.464844 108.398438 133.273438 M 117.421875 132.867188 C 118.8125 132.953125 117.941406 134.085938 117.277344 134.511719 C 115.757812 135.484375 116.519531 133.183594 117.421875 132.867188 M 113.660156 132.835938 C 114.082031 133.546875 113.972656 134.691406 113.222656 135.109375 C 113.296875 134.433594 113.003906 133.25 113.660156 132.835938 M 61.160156 131.871094 C 62.011719 135.175781 58.46875 132.671875 61.160156 131.871094 M 114.796875 131.347656 C 114.792969 131.523438 114.71875 131.722656 114.625 131.871094 C 114.292969 131.789062 114.136719 131.796875 114.1875 131.523438 C 114.390625 131.464844 114.59375 131.40625 114.796875 131.347656 M 55.296875 130.910156 C 55.886719 131.21875 56.089844 132.425781 56.171875 133.007812 C 55.625 132.910156 55.277344 131.445312 55.296875 130.910156 M 50.660156 129.382812 C 51.652344 129.457031 52.367188 130.53125 51.097656 130.820312 C 49.960938 130.9375 49.269531 129.746094 50.660156 129.382812 M 54.773438 129.859375 C 54.09375 129.09375 55.21875 128.757812 54.773438 129.859375 M 50.046875 127.757812 C 49.878906 128.34375 50.207031 128.328125 50.660156 128.546875 C 49.855469 130.839844 48.386719 127.675781 50.046875 127.757812 M 52.234375 124.960938 C 52.796875 125.496094 53.355469 126.019531 53.8125 126.621094 C 53.007812 126.84375 52.382812 125.5 52.234375 124.960938 M 114.011719 124.433594 C 114.199219 125.605469 114.335938 127.066406 113.75 128.109375 C 113.753906 127.871094 113.628906 127.707031 113.398438 127.671875 C 113.414062 127.867188 113.398438 129.648438 113.863281 129.382812 C 114.210938 129.183594 115.039062 127.261719 115.148438 126.796875 C 114.898438 127.003906 114.550781 127.417969 114.449219 127.585938 C 114.1875 126.539062 114.71875 125.84375 114.972656 124.871094 C 114.554688 125.34375 114.3125 125.066406 114.273438 124.433594 L 114.011719 124.433594 M 119 124.347656 C 118.882812 125.074219 118.765625 125.804688 118.648438 126.535156 C 119.058594 126.058594 119.296875 124.722656 119 124.347656 M 118.824219 122.421875 C 118.839844 122.753906 118.890625 124.078125 118.125 123.648438 C 118.265625 123.148438 118.441406 122.648438 118.824219 122.421875 M 50.75 121.546875 C 51.722656 122.386719 51.652344 122.707031 51.1875 123.820312 C 50.539062 123.292969 50.070312 122.199219 50.75 121.546875 M 118.296875 128.285156 C 118.582031 127.886719 118.960938 127.835938 119.4375 127.671875 C 118.101562 127.234375 120.25 125.863281 120.921875 125.660156 C 119.78125 125.382812 121.773438 123.460938 122.148438 122.945312 C 121.5 123.265625 121.214844 124.003906 120.574219 124.347656 C 120.59375 123.898438 120.679688 123.460938 120.835938 123.035156 C 120.1875 123.714844 119.960938 124.96875 119.488281 125.851562 C 118.890625 126.960938 118.101562 127.910156 117.335938 128.898438 C 117.867188 129.515625 116.984375 129.898438 116.410156 130.09375 C 114.484375 130.738281 116.117188 129.304688 116.597656 128.667969 C 117.015625 128.117188 117.792969 127.246094 117.792969 126.535156 C 117.445312 125.925781 117.082031 125.273438 117.457031 124.628906 C 117.738281 124.144531 118.203125 124.183594 118.734375 124.066406 C 119.382812 123.585938 119.128906 123.519531 119.292969 122.636719 C 119.660156 120.640625 120.882812 121.945312 122.191406 121.710938 C 123.734375 121.433594 123.988281 122.300781 122.832031 123.472656 C 122.621094 124.25 123.257812 124.914062 123.058594 125.644531 C 122.890625 126.28125 121.671875 126.117188 121.183594 126.328125 C 119.394531 127.707031 121.050781 128.332031 118.296875 128.285156 M 117.511719 120.757812 C 117.625 121.011719 117.574219 121.253906 117.335938 121.371094 C 117.332031 121.160156 117.394531 120.941406 117.511719 120.757812 M 52.0625 120.410156 C 52.214844 121.617188 52.652344 123.289062 54.074219 123.210938 C 53.945312 123.882812 51.992188 124.957031 51.851562 123.851562 C 51.792969 123.417969 52.121094 123.035156 52.042969 122.597656 C 51.722656 121.515625 50.976562 121.351562 52.0625 120.410156 M 118.035156 120.234375 C 118.296875 120.453125 118.316406 120.675781 118.035156 120.847656 C 117.902344 120.613281 117.902344 120.40625 118.035156 120.234375 M 52.761719 121.285156 C 52.617188 120.8125 52.535156 120.355469 52.671875 119.882812 C 53.359375 120.035156 53.414062 121.097656 52.761719 121.285156 M 114.535156 119.121094 C 115.597656 119.007812 116.164062 120.324219 115.0625 120.320312 C 114.335938 120.398438 113.855469 119.445312 114.535156 119.121094 M 117.511719 118.835938 C 117.78125 119.234375 117.957031 119.671875 118.035156 120.148438 C 117.613281 119.871094 117.339844 119.3125 117.511719 118.835938 M 52.234375 118.132812 C 54.832031 119.003906 51.695312 120.050781 52.234375 118.132812 M 117.597656 117.347656 C 117.570312 117.464844 117.539062 117.582031 117.511719 117.695312 C 117.777344 117.785156 118.039062 117.753906 118.296875 117.609375 C 118.316406 118.054688 118.3125 118.496094 118.210938 118.921875 C 117.734375 118.566406 116.992188 117.710938 117.597656 117.347656 M 51.449219 117.347656 C 51.566406 117.746094 51.625 118.15625 51.625 118.570312 C 51.011719 118.503906 51.25 117.644531 51.449219 117.347656 M 120.660156 117.140625 C 121.34375 117.28125 122.394531 118.6875 121.1875 118.878906 C 120.265625 119.023438 120.164062 117.589844 120.660156 117.140625 M 115.148438 118.570312 C 113.523438 119.445312 113.808594 117.292969 114.476562 117.226562 C 115.558594 117.121094 114.785156 117.878906 115.148438 118.570312 M 54.773438 118.746094 C 52.210938 119.550781 54.023438 114.714844 54.773438 118.746094 M 54.6875 116.910156 C 52.757812 116.589844 56.550781 114.617188 54.6875 116.910156 M 51.796875 115.335938 C 52.46875 115.703125 52.402344 116.625 52.5 117.257812 C 51.835938 116.839844 51.539062 116.0625 51.796875 115.335938 M 50.136719 121.546875 C 49.453125 121.128906 49.78125 120.132812 50.046875 119.445312 C 48.914062 120.632812 49.199219 118.535156 49.4375 117.609375 C 49.265625 117.785156 49.195312 117.6875 49 117.960938 C 48.324219 117.003906 47.578125 115.726562 48.296875 118.132812 C 48.015625 118.246094 47.722656 118.214844 47.421875 118.046875 C 48.003906 118.75 48.691406 119.402344 48.824219 120.410156 C 48.453125 120.289062 48.003906 120.152344 47.597656 120.148438 C 47.890625 120.539062 48.488281 120.933594 49 120.757812 C 49.351562 121.691406 49.664062 122.433594 50.136719 123.296875 C 49.566406 123.460938 49 123.484375 48.625 123.035156 C 48.359375 121.746094 47.539062 121.96875 47.144531 120.933594 C 47.050781 120.683594 47.21875 120.328125 47.253906 120.113281 C 47.382812 119.300781 46.738281 119.191406 46.4375 118.5625 C 46 117.660156 47.238281 117.03125 47.003906 116.007812 C 46.339844 113.121094 48.710938 116.371094 49.523438 116.648438 C 50.304688 117.410156 49.839844 117.519531 50.230469 118.527344 C 50.402344 118.976562 51.105469 119.113281 51.226562 119.535156 C 51.394531 120.15625 50.519531 121.140625 50.136719 121.546875 M 51.710938 114.023438 C 51.867188 114.300781 52.042969 114.40625 51.886719 114.632812 C 51.507812 114.523438 51.589844 114.28125 51.449219 114.023438 L 51.710938 114.023438 M 118.125 116.734375 C 117.539062 116.398438 117.589844 115.96875 117.597656 115.246094 C 117.152344 114.441406 116.855469 114.589844 117.066406 113.699219 C 117.730469 110.875 118.101562 116.347656 118.125 116.734375 M 52.410156 114.023438 C 51.804688 110.046875 54.207031 112.324219 52.410156 114.023438 M 117.597656 110.171875 C 117.664062 110.6875 117.703125 111.222656 117.6875 111.746094 C 117.074219 111.28125 116.933594 110.59375 117.597656 110.171875 M 51.972656 109.996094 C 52.21875 110.570312 52.15625 111.222656 51.972656 111.835938 C 51.238281 111.320312 51.617188 110.449219 51.972656 109.996094 M 115.0625 109.820312 C 115.015625 110.347656 114.871094 110.84375 114.625 111.308594 C 113.988281 111.113281 113.800781 110.707031 113.398438 111.132812 C 113.769531 111.261719 114.691406 111.96875 115.105469 111.753906 C 115.449219 111.578125 115.605469 109.929688 115.0625 109.820312 M 53.285156 110.871094 C 52.707031 110.496094 52.089844 109.464844 52.0625 108.773438 C 52.789062 109.164062 53.175781 110.066406 53.285156 110.871094 M 49.347656 107.546875 C 49.253906 108.066406 49.25 109.699219 48.179688 108.554688 C 47.417969 107.746094 48.660156 107.488281 49.347656 107.546875 M 122.148438 108.246094 C 121.5625 108.296875 120.230469 108.957031 120.628906 107.632812 C 121.929688 105.886719 121.734375 107.507812 122.148438 108.246094 M 117.074219 106.757812 C 117.101562 106.867188 117.074219 106.957031 116.984375 107.023438 C 116.769531 106.828125 116.769531 106.726562 117.074219 106.757812 M 52.324219 105.710938 C 52.746094 106.285156 52.691406 106.921875 52.410156 107.546875 C 51.765625 107.15625 51.847656 106.242188 52.324219 105.710938 M 49.347656 105.183594 C 49.246094 105.347656 49.1875 105.523438 49.171875 105.710938 C 50.128906 105.648438 48.75 107.378906 48.09375 106.984375 C 47.289062 106.503906 48.464844 104.265625 49.347656 105.183594 M 115.761719 112.972656 C 116.078125 113.886719 116.636719 114.695312 116.984375 115.597656 C 115.355469 115.390625 115.546875 113.804688 114.140625 113.542969 C 112.726562 113.28125 113.234375 112.105469 112.609375 111.136719 C 112.320312 110.6875 111.570312 110.570312 111.667969 109.910156 C 112.519531 108.207031 113.289062 109.347656 114.449219 110.082031 C 114.601562 109.453125 115.257812 107.511719 114.625 107.195312 C 114.542969 107.628906 114.484375 108.078125 114.449219 108.507812 C 113.792969 107.730469 114.03125 106.542969 113.660156 105.707031 C 113.484375 106.921875 113.859375 108.105469 114.011719 109.296875 C 112.925781 108.679688 111.054688 107.484375 112.046875 106.101562 C 113.085938 105.316406 112.890625 104.960938 113.074219 103.882812 C 113.242188 102.894531 114.769531 103.664062 114.921875 104.308594 C 115.066406 104.917969 114.738281 105.484375 115.367188 105.925781 C 115.847656 106.265625 115.949219 106.683594 115.65625 107.195312 C 115.09375 108.1875 116.210938 108.332031 116.53125 109.121094 C 116.796875 109.785156 115.90625 110.269531 115.972656 110.957031 C 116.382812 111.628906 116.945312 112.777344 115.761719 112.972656 M 53.199219 104.132812 C 52.820312 104 52.652344 103.652344 52.761719 103.257812 C 53.132812 103.398438 53.203125 103.6875 53.199219 104.132812 M 57.136719 102.382812 C 57.511719 103.171875 57.867188 102.871094 58.449219 102.648438 C 58.507812 103.128906 58.445312 103.59375 58.265625 104.046875 C 58.375 104.503906 58.6875 104.871094 58.667969 105.359375 C 58.65625 105.644531 58.175781 105.789062 58.03125 106.070312 C 57.84375 106.425781 58.027344 106.976562 58.042969 107.371094 C 57.425781 108.4375 56.785156 107.652344 56.515625 109.121094 C 55.804688 109.660156 55.289062 109.613281 54.421875 109.734375 C 54.421875 109.296875 54.636719 109.273438 54.773438 108.882812 C 55.851562 107.917969 55.167969 108.78125 55.40625 107.898438 C 55.550781 107.371094 56.042969 107.140625 56.347656 106.730469 C 56.496094 105.550781 57.242188 104.597656 57.835938 103.609375 C 57.234375 103.832031 56.980469 104.429688 56.433594 104.835938 C 55.796875 104.058594 56.035156 106.261719 55.472656 106.671875 C 55.40625 106.175781 55.347656 105.679688 55.296875 105.183594 C 54.84375 105.644531 54.863281 106.511719 55.472656 106.757812 C 55.007812 107.773438 54.378906 109.289062 53.636719 109.996094 C 53.265625 108.902344 55.472656 107.121094 54.160156 106.757812 L 54.160156 107.722656 C 53.265625 107.144531 53.640625 106.832031 53.808594 106.1875 C 54.539062 105.707031 54.277344 105.140625 54.582031 104.398438 C 54.96875 103.882812 55.488281 104.035156 56.085938 103.800781 C 56.582031 103.476562 56.707031 102.757812 57.136719 102.382812 M 115.585938 103.785156 C 113.949219 103.410156 116.609375 100.945312 115.585938 103.785156 M 114.886719 101.246094 C 114.597656 101.148438 114.4375 100.929688 114.449219 100.632812 C 114.832031 100.691406 115 100.878906 114.886719 101.246094 M 55.125 100.632812 C 55.085938 100.890625 54.941406 101.0625 54.6875 101.160156 C 54.5625 100.808594 54.847656 100.816406 55.125 100.632812 M 113.3125 99.410156 L 113.3125 99.585938 L 113.136719 99.585938 C 113.132812 99.480469 113.203125 99.429688 113.3125 99.410156 M 113.660156 98.882812 C 113.628906 99.09375 113.585938 99.226562 113.398438 99.320312 C 113.464844 98.996094 113.375 98.828125 113.660156 98.882812 M 57.835938 100.023438 C 57.171875 100.0625 56.582031 99.539062 56.726562 98.839844 C 57.074219 97.125 58.566406 98.355469 57.835938 100.023438 M 113.136719 97.921875 C 114.796875 97.554688 113.421875 99.648438 113.136719 97.921875 M 58.972656 98.972656 C 58.050781 98.808594 58.253906 97.421875 59.101562 97.273438 C 61.101562 96.929688 59.238281 98.59375 58.972656 98.972656 M 112.171875 96.960938 C 112.410156 97.339844 112.402344 97.839844 112.261719 98.273438 C 111.695312 98.003906 111.851562 97.472656 112.171875 96.960938 M 107.535156 96.523438 C 108.007812 97.550781 107.90625 98.425781 108.820312 99.269531 C 109.394531 99.804688 109.625 100.824219 110.511719 100.898438 C 110.519531 100.105469 110.179688 99.105469 109.285156 99.089844 C 108.40625 98.367188 108.164062 98.199219 108.761719 97.046875 C 108.363281 96.847656 107.957031 96.671875 107.535156 96.523438 M 111.210938 96.433594 C 111.273438 96.625 111.214844 96.785156 111.035156 96.871094 C 111.042969 96.675781 111.058594 96.550781 111.210938 96.433594 M 115.5 95.035156 C 115.777344 96.09375 116.398438 97.242188 116.199219 98.359375 C 115.863281 98.007812 115.484375 97.71875 115.0625 97.484375 C 115.53125 98.265625 116.28125 98.914062 116.722656 99.757812 C 117.105469 99.828125 117.792969 97.707031 117.949219 97.398438 C 117.5625 97.394531 117.242188 97.542969 116.984375 97.835938 C 116.941406 97.121094 117.90625 95.722656 116.8125 95.472656 C 116.703125 95.867188 116.640625 96.292969 116.636719 96.695312 C 116.1875 96.203125 115.910156 95.371094 115.5 95.035156 M 59.5 93.722656 C 61.238281 94.0625 59.292969 94.925781 59.5 93.722656 M 108.0625 93.109375 C 108.160156 93.53125 108.117188 93.890625 108.410156 94.070312 C 108.398438 93.574219 108.40625 93.28125 108.0625 93.109375 M 106.660156 92.148438 C 106.738281 92.523438 106.886719 92.875 107.097656 93.195312 C 107.207031 92.800781 107.015625 92.363281 106.660156 92.148438 M 113.75 93.546875 C 113.945312 92.605469 114.191406 92.472656 114.933594 92.582031 C 115.367188 92.648438 115.570312 93.359375 115.722656 93.722656 C 116.296875 94.316406 116.882812 94.15625 117.597656 94.339844 C 117.914062 94.578125 117.914062 94.757812 118.171875 95.035156 C 117.964844 96.347656 119.132812 95.835938 119.378906 96.785156 C 119.488281 97.203125 118.953125 97.671875 118.792969 98.007812 C 118.664062 98.78125 119.585938 99.339844 119.1875 100.050781 C 118.699219 100.914062 118.253906 101.074219 118.585938 102.121094 C 118.328125 102.894531 117.25 103.371094 117.6875 104.308594 C 118.179688 103.738281 118.949219 103.113281 119.195312 102.382812 C 119.257812 101.339844 120 100.519531 119.90625 99.539062 C 119.84375 98.882812 119.34375 98.351562 119.726562 97.753906 C 120.03125 97.28125 120.148438 96.667969 119.8125 96.199219 C 119.054688 95.136719 118.753906 94.316406 117.6875 93.644531 C 116.347656 93.632812 116.042969 92.316406 114.71875 92.027344 C 113.429688 91.742188 113.195312 92.558594 113.75 93.546875 M 103.25 91.535156 C 103.433594 91.648438 103.238281 91.71875 103.597656 91.710938 C 103.503906 91.589844 103.390625 91.53125 103.25 91.535156 M 105 91.359375 C 105.0625 91.46875 105.335938 92.285156 105.261719 92.148438 C 104.773438 92.265625 104.246094 91.800781 103.773438 91.710938 C 104.640625 92.367188 105.625 92.988281 106.574219 93.546875 C 106.109375 92.800781 105.476562 92.121094 105 91.359375 M 55.5625 93.195312 C 55.472656 93.128906 55.1875 92.910156 55.035156 92.847656 C 55.023438 93.792969 55.027344 94.664062 54.597656 95.558594 C 54.214844 95.125 54.269531 93.523438 53.675781 93.632812 C 53.511719 93.664062 53.949219 96.882812 53.8125 97.308594 C 53.484375 96.945312 53.359375 96.320312 52.761719 96.609375 C 53.441406 97.695312 53.425781 98.824219 53.546875 100.023438 C 53.847656 99.695312 54.03125 98.933594 54.160156 98.363281 C 54.570312 97.734375 55.421875 97.414062 55.9375 96.851562 C 57.460938 95.179688 54.691406 97.375 54.421875 97.574219 C 54.628906 95.964844 56.203125 95.167969 56.960938 93.898438 C 56.375 93.847656 55.96875 94.546875 55.5625 94.859375 C 56.042969 93.40625 56.902344 89.40625 55.5625 93.195312 M 61.335938 92.933594 C 62.796875 92.777344 64.117188 93.441406 65.535156 93.632812 C 65.324219 93.390625 65.015625 93.179688 64.75 93.023438 C 65.800781 92.550781 66.324219 93.371094 67.285156 93.371094 C 67.101562 93.125 66.941406 92.683594 66.761719 92.496094 C 67.375 92.367188 67.976562 92.550781 68.597656 92.585938 C 68.277344 92.171875 68.367188 91.882812 68.859375 91.710938 C 67.332031 91.355469 67.769531 91.925781 66.324219 92.25 C 65.625 92.429688 65.296875 91.902344 64.398438 92.519531 C 64.042969 92.585938 63.847656 92.191406 63.523438 92.234375 C 62.75 92.558594 61.902344 92.664062 61.074219 92.539062 C 60.6875 92.84375 60.527344 93.046875 60.023438 93.023438 C 60.488281 92.636719 60.992188 92.058594 61.582031 91.789062 C 62.03125 91.582031 62.511719 91.800781 62.910156 91.589844 C 63.945312 91.050781 63.761719 89.738281 65.09375 90.488281 C 65.863281 90.921875 65.8125 90.875 66.726562 90.515625 C 68.050781 89.996094 67.640625 90.621094 68.816406 90.78125 C 69.113281 90.820312 71.042969 90.445312 70.476562 91.519531 C 70.144531 92.140625 69.589844 92.285156 69.101562 92.800781 C 68.75 93.171875 68.554688 94.074219 68.070312 94.277344 C 67.328125 94.589844 66.609375 93.96875 65.878906 94.515625 C 65.046875 95.136719 64.488281 94.042969 63.65625 93.964844 C 62.691406 93.875 61.617188 94.300781 61.335938 92.933594 M 56 89.902344 C 56.523438 89.917969 56.820312 90.308594 57.082031 90.746094 C 57.101562 91.675781 58.054688 92.152344 58.074219 92.933594 C 58.09375 93.75 57.378906 94.113281 57.488281 95.015625 C 57.683594 96.652344 56.148438 98.054688 54.863281 98.804688 C 54.238281 99.757812 54.40625 100.222656 53.285156 100.808594 C 52.707031 100.808594 52.652344 99.664062 52.476562 99.289062 C 52.210938 98.734375 51.644531 98.304688 51.625 97.660156 C 51.609375 97.152344 52.132812 96.851562 52.179688 96.347656 C 51.453125 94.09375 52.195312 95.34375 53.179688 93.722656 C 53.824219 92.664062 53.015625 92.375 54.5625 91.792969 C 55.710938 91.359375 54.988281 90.3125 56 89.902344 M 107.796875 95.648438 C 107.257812 95.546875 106.375 94.917969 105.609375 94.71875 C 104.726562 95.046875 104.078125 94.964844 103.632812 94.167969 C 103.1875 93.363281 102.617188 94 101.960938 93.496094 C 101.589844 93.214844 100.511719 91.1875 100.597656 90.921875 C 100.972656 89.773438 102.835938 90.464844 103.6875 90.132812 C 103.808594 90.882812 104.75 90.695312 105.347656 90.835938 C 104.835938 88.894531 103.011719 90.074219 101.585938 89.894531 C 99.347656 90.355469 100.472656 91.386719 100.964844 92.644531 C 101.550781 94.140625 102.5625 94.070312 103.78125 94.957031 C 104.402344 95.40625 105.054688 95.277344 105.785156 95.078125 C 106.324219 95.359375 107.144531 96.050781 107.796875 95.648438 M 110.160156 89.171875 C 109.898438 89.722656 109.417969 89.605469 108.9375 89.316406 C 108.789062 89.230469 108.75 89.019531 108.816406 88.886719 C 109.058594 88.410156 109.855469 89.109375 110.160156 89.171875 M 64.484375 88.820312 C 64.492188 87.089844 66.070312 88.746094 64.484375 88.820312 M 61.25 87.335938 C 61.355469 88.035156 61.308594 88.765625 61.074219 89.433594 C 60.628906 88.871094 60.644531 87.675781 61.25 87.335938 M 66.847656 86.460938 C 66.796875 86.832031 66.59375 87.164062 66.234375 87.246094 C 66.152344 86.859375 66.453125 86.601562 66.847656 86.460938 M 109.023438 86.175781 C 109.710938 86.769531 109.828125 88.714844 108.441406 88.277344 C 107.628906 88.023438 108.074219 86.203125 109.023438 86.175781 M 63.785156 84.972656 C 63.523438 86.105469 63.304688 87.46875 62.296875 88.210938 C 62.371094 87.234375 63.019531 85.59375 63.785156 84.972656 M 93.535156 84.621094 C 93.011719 84.65625 92.75 84.402344 92.574219 84.882812 C 93.605469 85.042969 95.351562 85.777344 94.105469 84.066406 C 93.609375 83.890625 93.597656 84.1875 93.535156 84.621094 M 72.710938 85.234375 C 73.429688 85.65625 74.023438 85.507812 74.808594 85.726562 C 75.765625 85.988281 76.648438 86.472656 77.609375 86.722656 C 77.113281 85.476562 79.226562 86.859375 79.625 87.070312 C 79.445312 85.882812 80.886719 86.28125 81.460938 86.023438 C 80.332031 85.953125 79.152344 86.261719 78.046875 85.847656 C 78.246094 85.492188 78.671875 85.34375 79.097656 85.148438 C 78.085938 85.160156 77.164062 86.074219 76.210938 85.585938 C 76.28125 85.261719 76.488281 85.027344 76.824219 84.882812 C 76.207031 85.144531 74.035156 85.910156 73.558594 85.058594 C 72.824219 83.75 77.035156 83.992188 77.046875 83.988281 C 77.792969 83.710938 77.671875 83.671875 78.394531 83.988281 C 79.136719 84.3125 80.300781 83.554688 80.816406 83.976562 C 81.394531 84.957031 81.320312 84.96875 82.421875 85.265625 C 82.644531 85.457031 83.058594 85.761719 83.023438 86.109375 C 82.933594 86.992188 81.976562 86.851562 81.378906 87.226562 C 80.96875 87.484375 80.644531 88.027344 80.148438 88.105469 C 79.660156 88.183594 79.246094 87.730469 78.746094 87.804688 C 77.367188 88.011719 77.960938 88.898438 76.730469 87.886719 C 75.90625 87.210938 75.066406 87.488281 74.203125 86.707031 C 73.71875 86.265625 72.914062 85.753906 72.710938 85.234375 M 91.785156 83.570312 C 91.777344 83.925781 91.804688 84.273438 91.875 84.621094 C 91.1875 84.296875 90.949219 84.777344 91.085938 85.496094 C 91.148438 85.433594 93.875 83.820312 91.785156 83.570312 M 98.523438 83.398438 L 98.523438 83.570312 L 99.222656 83.570312 C 99.03125 83.417969 98.796875 83.359375 98.523438 83.398438 M 89.949219 83.484375 C 88.78125 82.582031 88.953125 84.171875 89.511719 84.273438 C 89.570312 84.164062 89.601562 84.046875 89.597656 83.921875 C 90.160156 84.105469 90.65625 84.363281 91.261719 84.359375 C 91.003906 83.726562 90.054688 82.082031 89.949219 83.484375 M 100.359375 82.085938 C 100.378906 82.351562 100.496094 82.585938 100.710938 82.785156 C 100.957031 82.34375 100.605469 82.347656 100.359375 82.085938 M 99.3125 82.085938 C 98.902344 82.097656 99.246094 82.285156 98.4375 82.171875 C 98.859375 82.578125 99.75 82.785156 99.484375 83.484375 C 100.398438 83.429688 100.984375 83.339844 100.535156 84.183594 C 101.03125 84.277344 101.527344 84.277344 102.023438 84.183594 C 101.261719 83.210938 100.265625 82.839844 99.3125 82.085938 M 69.910156 81.648438 C 69.792969 82.5 69.890625 83.472656 69.035156 83.921875 C 69.058594 83.085938 67.40625 82.363281 68.273438 81.421875 C 68.777344 80.871094 69.4375 81.421875 69.910156 81.648438 M 92.574219 81.734375 C 92.730469 82.132812 92.90625 82.742188 93.273438 83.054688 C 94.039062 83.320312 94.738281 84.128906 95.417969 84.304688 C 95.960938 84.449219 97.46875 84.546875 96.347656 85.449219 C 95.625 86.027344 95.082031 85.816406 94.234375 85.914062 C 93.570312 86.527344 93.609375 86.769531 92.78125 86.261719 C 91.484375 85.472656 92.347656 86.449219 91 86.285156 C 89.742188 85.867188 89.976562 85.363281 88.699219 85.75 C 87.484375 86.121094 87.582031 85.210938 87.664062 84.359375 C 87.3125 83.550781 86.722656 83.835938 86.011719 83.414062 C 84.832031 82.710938 87.070312 81.375 87.410156 80.683594 C 87.78125 80.8125 88.769531 81.453125 89.140625 81.433594 C 89.300781 81.429688 89.519531 80.652344 89.859375 80.769531 C 90.4375 80.972656 90.476562 81.714844 91.171875 82.03125 C 91.703125 82.175781 92.078125 81.847656 92.574219 81.734375 M 94.847656 81.734375 C 95.222656 80.78125 96.5625 82.945312 96.390625 83.59375 C 96.175781 84.402344 93.511719 81.5625 93.203125 81.320312 C 92.75 80.96875 90.925781 81.695312 91.203125 80.78125 C 91.742188 79.027344 94.382812 81.359375 94.847656 81.734375 M 81.375 80.070312 L 81.375 80.246094 C 81.652344 80.367188 81.914062 80.367188 82.160156 80.246094 C 81.9375 80.089844 81.65625 80.03125 81.375 80.070312 M 102.636719 84.882812 L 102.199219 84.882812 L 102.199219 85.058594 C 103.832031 85.058594 102.214844 83.707031 102.683594 83.054688 C 102.972656 82.015625 104.5 85.019531 104.539062 85.410156 C 103.902344 87.054688 104.386719 86.429688 102.546875 86.675781 C 102.167969 86.546875 101.914062 86.546875 101.652344 86.199219 C 100.910156 85.210938 100.214844 86.347656 99.277344 85.757812 C 98.628906 84.542969 97.867188 85.304688 97.179688 84.359375 C 96.859375 83.109375 96.847656 82.460938 95.914062 81.449219 C 95.574219 81.082031 95.117188 80.761719 95.636719 80.300781 C 96.0625 79.925781 97.046875 80.359375 97.472656 80.472656 C 98.78125 79.871094 99.105469 80.148438 100.1875 80.902344 C 100.703125 81.144531 101.285156 80.980469 101.644531 81.449219 C 102.179688 82.15625 102.699219 83.941406 102.636719 84.882812 M 79.796875 79.023438 C 78.800781 80.804688 76.894531 81.761719 80.671875 81.210938 C 79.773438 81.195312 79.667969 81.078125 79.796875 80.421875 C 79.492188 80.660156 79.171875 80.75 78.835938 80.683594 C 79.277344 80.25 79.980469 79.371094 79.796875 79.023438 M 81.109375 78.320312 C 80.769531 78.820312 80.523438 79.390625 80.410156 79.984375 C 80.617188 79.988281 80.847656 79.910156 81.023438 79.808594 C 80.859375 79.265625 81.410156 78.546875 81.109375 78.320312 M 67.722656 85.671875 C 68.144531 85.527344 68.511719 85.195312 68.859375 84.882812 C 69.445312 84.597656 69.953125 84.949219 70.523438 84.445312 C 70.144531 84.507812 69.765625 84.539062 69.386719 84.535156 C 69.742188 82.875 71.054688 83.539062 72.011719 82.785156 C 69.820312 82.929688 71.902344 81.667969 72.710938 81.472656 C 71.871094 81.1875 72.214844 81.074219 72.449219 80.246094 C 72.132812 80.671875 71.449219 81.457031 71.574219 80.246094 C 71.292969 80.65625 71.027344 82.609375 70.347656 82.609375 C 69.617188 82.609375 70.582031 79.464844 70.699219 79.109375 C 71.804688 79.800781 72.09375 78.941406 73.0625 78.460938 C 73.871094 78.054688 74.667969 78.503906 74.511719 79.398438 C 74.273438 80.789062 74.648438 82.175781 73.113281 82.972656 C 72.722656 83.796875 72.671875 84.285156 71.726562 84.628906 C 71.152344 84.835938 70.953125 84.699219 70.707031 85.234375 C 70.398438 85.90625 69.847656 85.945312 69.1875 86.113281 C 67.910156 86.4375 67.644531 87.183594 67.292969 85.875 C 66.75 83.847656 69.449219 83.648438 67.722656 85.671875 M 83.5625 78.058594 C 83.46875 78.160156 83.410156 78.277344 83.386719 78.410156 C 83.574219 78.355469 83.648438 78.226562 83.5625 78.058594 M 89.949219 79.722656 C 90.21875 79.546875 90.714844 78.335938 91.246094 78.800781 C 91.53125 79.054688 90.902344 80.261719 91.875 79.546875 C 91.933594 81.128906 88.476562 79.757812 88.601562 78.414062 C 88.664062 77.753906 89.539062 77.246094 90.121094 77.625 C 90.832031 78.09375 89.738281 79.125 89.949219 79.722656 M 87.847656 77.445312 C 88.175781 77.96875 89.234375 80.027344 88.914062 80.507812 C 88.628906 80.9375 87.570312 80.320312 87.191406 80.367188 C 86.5 80.457031 86.0625 81.3125 85.671875 81.800781 C 84.648438 83.082031 85.363281 83.679688 86.789062 84.03125 C 87.085938 84.453125 86.65625 84.886719 86.851562 85.410156 C 87.335938 86.375 87.945312 86.378906 88.804688 86.167969 C 89.648438 85.960938 89.40625 86.019531 90.050781 86.511719 C 90.765625 87.054688 91.28125 86.851562 92.136719 86.605469 C 92.730469 86.664062 93.25 87.382812 93.929688 87.023438 C 94.394531 86.777344 94.628906 86.429688 95.113281 86.25 C 96.527344 86.457031 97.269531 84.847656 98.429688 85.320312 C 98.835938 85.488281 98.828125 86.1875 99.3125 86.417969 C 100.878906 86.855469 100.765625 85.707031 101.847656 87.335938 C 100.476562 86.972656 99.6875 87.523438 98.382812 87.726562 C 97.371094 87.882812 95.964844 87.617188 95.199219 88.296875 C 96.210938 87.992188 98.214844 88.230469 96.773438 89.609375 C 97.398438 88.984375 98.132812 88.589844 98.90625 88.167969 C 100.359375 87.375 101.273438 88.132812 102.726562 87.6875 C 103.28125 88.121094 104.117188 88.171875 104.609375 88.589844 C 105.101562 89.5 105.367188 90.726562 106.488281 90.664062 C 107.03125 91.039062 107.574219 91.515625 108.148438 91.886719 C 109.125 92.0625 109.222656 91.671875 109.503906 92.714844 C 109.679688 93.382812 109.480469 94.195312 109.625 94.683594 C 110.058594 95.414062 110.496094 95.769531 110.164062 96.609375 C 109.492188 96.183594 109.148438 95.085938 108.324219 95.035156 C 108.800781 95.734375 109.246094 96.457031 109.773438 97.117188 C 110.277344 97.746094 110.3125 98.792969 111.125 98.449219 C 111.058594 98.917969 111.273438 99.222656 111.738281 99.324219 C 111.546875 99.679688 111.390625 100.082031 111.300781 100.460938 C 111.703125 100.414062 112.050781 100.53125 112.351562 100.808594 C 111.964844 99.996094 112.453125 99.105469 113.136719 98.621094 C 112.957031 99.152344 113.40625 99.824219 112.789062 99.933594 C 112.878906 100.609375 112.929688 100.316406 113.050781 100.636719 C 113.273438 100.550781 113.476562 100.4375 113.664062 100.285156 C 113.523438 101.046875 113.261719 101.757812 112.527344 100.898438 C 112.976562 103.105469 113.738281 100.636719 114.277344 100.808594 C 113.996094 101.980469 113.925781 102.550781 112.875 103.371094 C 112.597656 103.90625 112.480469 104.277344 112.570312 104.921875 C 112.378906 105.375 111.890625 105.625 111.621094 106.070312 C 110.695312 107.59375 111.984375 107.457031 112.085938 108.511719 C 112.191406 109.578125 110.472656 109.792969 111.746094 110.960938 C 112.566406 111.71875 112.359375 112.664062 113.050781 113.585938 C 113.539062 113.996094 114.3125 114.011719 114.835938 114.375 C 115.035156 115.40625 115.894531 115.617188 116.71875 116.125 C 117.070312 116.703125 116.957031 117.449219 116.933594 118.113281 C 116.890625 119.328125 116.992188 122.675781 116.289062 123.296875 C 116.160156 122.5625 116.027344 121.820312 116.027344 121.070312 C 116.027344 120.101562 116.597656 119.445312 116.324219 118.457031 C 116.015625 117.335938 115.089844 116.816406 114.625 115.859375 C 113.492188 116.730469 112.9375 119.707031 114.558594 120.511719 C 114.820312 120.640625 115.269531 120.535156 115.46875 120.726562 C 115.855469 121.09375 115.859375 122.941406 115.851562 123.386719 C 114.851562 122.683594 113.96875 121.433594 112.902344 122.96875 C 112.335938 123.777344 113 124.503906 112.203125 125.234375 C 112.117188 125.75 112.480469 126.597656 112.265625 126.972656 C 111.871094 127.664062 110.773438 128.292969 111.414062 129.191406 C 111.910156 129.886719 112.492188 129.941406 112.789062 130.824219 C 112.832031 131.316406 112.238281 132.027344 112.085938 132.484375 C 112.695312 131.90625 113.246094 131.167969 113.75 130.472656 C 113.316406 130.316406 111.738281 129.242188 111.621094 128.722656 C 111.527344 128.332031 111.738281 128.101562 111.914062 127.773438 C 112.664062 127.167969 112.921875 127.132812 112.632812 126.230469 C 112.472656 125.726562 112.882812 123.636719 113.207031 123.117188 C 113.695312 122.332031 114.28125 122.460938 114.820312 123.136719 C 115.117188 124.039062 116.101562 124.375 116.273438 125.222656 C 115.984375 126.371094 115.460938 126.863281 116.375 127.761719 C 116.261719 128.542969 115.976562 129.015625 115.152344 129.25 C 115.171875 129.148438 115.246094 128.566406 115.238281 128.636719 C 113.996094 129.714844 115.410156 130.289062 114.089844 131.109375 C 111.890625 132.476562 111.324219 135.289062 109.375 136.773438 C 109.230469 135.902344 109.273438 135 109.511719 134.148438 C 109.242188 133.484375 109.136719 132.765625 109.199219 132.050781 C 108.046875 132.808594 104.941406 135.394531 106.078125 137.03125 C 107.992188 139.789062 102.875 137.769531 101.9375 138.238281 C 101.558594 138.546875 100.941406 139.882812 100.402344 139.742188 C 99.914062 139.613281 99.695312 139.300781 99.136719 139.472656 C 98.375 140.070312 97.949219 142.382812 97.035156 142.3125 C 96.351562 142.261719 96.300781 141.863281 96.511719 141.238281 C 94.96875 141.324219 92.890625 141.164062 92.222656 142.941406 C 91.566406 144.695312 89.800781 148.488281 87.324219 147.449219 C 88.296875 146.070312 90.851562 144.960938 89.617188 143.011719 C 88.800781 141.726562 87.097656 142.113281 85.816406 142.148438 C 84.210938 142.191406 82.785156 141.9375 81.21875 141.625 C 76.320312 140.636719 77.625 145.980469 81.550781 146.398438 C 80.761719 145.554688 79.457031 145.175781 78.65625 144.125 C 78.230469 143.398438 78.1875 142.085938 79.273438 142.09375 C 80.488281 142.097656 82.324219 141.722656 83.308594 142.714844 C 83.738281 143.144531 83.402344 143.851562 84 144.035156 C 84.066406 142.710938 84.039062 142.054688 84.875 143.425781 C 85.007812 142.265625 85.527344 142.574219 85.835938 143.597656 C 86.207031 143.570312 86.066406 142.835938 86.449219 142.550781 C 86.449219 142.964844 86.507812 143.375 86.625 143.773438 C 87.117188 143.464844 86.695312 142.832031 87.148438 142.550781 C 87.3125 143.289062 86.878906 144.214844 87.238281 144.5625 C 86.890625 145.117188 86.394531 145.589844 86.1875 146.136719 C 86.789062 145.628906 87.539062 145.007812 88.289062 144.738281 C 88.648438 145.730469 86.796875 147.296875 85.925781 147.375 C 85.605469 147.402344 84.808594 146.691406 84.503906 146.558594 C 83.1875 145.976562 82.613281 145.550781 81.8125 144.300781 C 83.355469 144.566406 84.988281 144.960938 86.539062 144.5625 C 85.09375 144.332031 80.238281 142.640625 79.273438 144.125 C 80.394531 144.125 80.105469 143.746094 80.738281 144.660156 C 81.222656 145.359375 81.8125 145.207031 82.335938 145.769531 C 83.132812 146.632812 82.066406 146.84375 81.636719 147.535156 C 81.972656 147.554688 82.195312 147.738281 82.25 148.0625 C 80.875 147.730469 79.199219 147.835938 77.921875 147.246094 C 76.921875 146.785156 76.6875 146.183594 75.773438 146.3125 C 76.289062 145.804688 75.894531 144.214844 75.605469 143.558594 C 74.992188 142.171875 75.476562 141.933594 74.113281 140.886719 C 73.511719 139.839844 72.585938 138.410156 71.136719 138.667969 C 70.457031 138.230469 70.257812 137.402344 69.5 136.972656 C 67.910156 136.078125 67.6875 137.660156 66.675781 138.269531 C 65.976562 138.210938 65.09375 138.328125 64.882812 139.136719 C 64.613281 140.152344 65.933594 140.320312 65.886719 141.148438 C 65.097656 140.785156 64.050781 140.21875 63.40625 139.574219 C 62.914062 138.382812 61.84375 137.863281 61.398438 136.644531 C 61.117188 135.867188 62.523438 135.042969 62.660156 134.109375 C 62.859375 132.722656 61.800781 131.660156 61.164062 130.5625 C 60.953125 131.046875 60.628906 131.417969 60.277344 131.839844 C 59.566406 132.6875 59.691406 134.285156 58.625 133.273438 C 58.910156 134.132812 59.195312 135 59.648438 135.785156 C 60.023438 136.441406 60.726562 136.859375 61.070312 137.480469 C 61.335938 137.964844 60.84375 138.164062 60.375 138.171875 C 60.304688 137.964844 60.144531 137.804688 59.9375 137.734375 C 59.789062 138.851562 60.617188 138.988281 61.554688 138.972656 C 62.277344 138.957031 62.410156 139.253906 62.832031 139.871094 C 63.554688 140.925781 63.539062 141.480469 64.835938 141.933594 C 64.644531 142.105469 64.527344 142.308594 64.488281 142.546875 C 63.589844 142.097656 62.925781 141.457031 62.210938 140.886719 C 62.328125 141.78125 63.320312 142.136719 62.824219 142.898438 C 64.132812 142.515625 65.496094 143.523438 66.324219 144.472656 C 67.800781 143.9375 65.128906 144.96875 65.363281 144.910156 L 66.238281 144.910156 C 65.234375 145.46875 66.503906 146.160156 66.5 147.183594 C 66.886719 146.882812 68.859375 145.828125 68.445312 147.273438 C 68 148.832031 63.863281 146.984375 64.660156 144.996094 C 64.074219 145.175781 63.550781 145.027344 63.085938 145.261719 C 63.808594 145.292969 63.84375 145.691406 63.902344 146.308594 C 64.34375 147.203125 65.230469 147.808594 66.191406 148.027344 C 67.203125 148.253906 68.261719 148.121094 68.882812 147.253906 C 69.625 146.222656 70.394531 146.515625 71.574219 146.835938 C 71.535156 146.40625 71.433594 145.851562 71.398438 145.523438 C 72.085938 145.925781 74.871094 146.765625 75.425781 145.871094 C 75.566406 146.386719 75.332031 146.773438 74.722656 146.746094 C 74.753906 147.097656 74.929688 147.386719 75.25 147.621094 C 74.621094 147.5625 72.574219 147.722656 73.0625 146.484375 C 72.617188 146.339844 72.136719 146.703125 71.925781 147.011719 C 72.121094 147.28125 72.355469 147.511719 72.625 147.710938 C 72.382812 147.789062 72.386719 147.777344 72.1875 147.796875 C 73.585938 149.390625 71.28125 149.261719 71.75 147.886719 C 71.210938 147.878906 70.832031 148.214844 70.980469 148.714844 C 71.070312 149.023438 71.375 149.261719 71.660156 149.410156 C 72.992188 149.597656 74.023438 149.125 75.238281 150.046875 C 76.101562 150.707031 73.554688 151.300781 74.332031 151.90625 C 75.105469 152.511719 76.929688 152.90625 77.699219 152.261719 C 76.929688 152.28125 75.761719 152.5625 76.5625 151.558594 C 76.140625 151.734375 75.703125 151.847656 75.25 151.910156 C 75.125 149.1875 78.003906 150.804688 78.867188 151.882812 C 80.714844 154.191406 82.21875 150.984375 83.867188 150.484375 C 84.507812 150.289062 85.277344 151.921875 85.601562 152.320312 C 86.742188 153.375 88.300781 153.105469 89.523438 152.363281 C 89.949219 152.109375 90.621094 151.136719 91.152344 151.539062 C 91.96875 152.152344 92.207031 153.496094 93.539062 153.136719 C 92.457031 152.964844 90.839844 151.363281 92.488281 150.6875 C 92.671875 151.351562 94.484375 153.75 94.9375 152.699219 C 93.855469 152.550781 92.894531 151.558594 92.925781 150.425781 C 93.601562 150.710938 95.484375 152.492188 96.25 152.230469 C 97.042969 151.957031 96.746094 151.121094 96.160156 150.828125 C 94.941406 150.222656 93.09375 151.113281 92.136719 149.441406 C 91.953125 149.117188 92.191406 149.238281 92.226562 148.953125 C 92.507812 148.765625 92.816406 148.675781 93.152344 148.683594 C 93.554688 148.398438 93.300781 147.820312 93.800781 147.449219 C 93.769531 147.902344 93.980469 148.21875 94.414062 148.324219 C 94.277344 146.6875 95.628906 146.648438 96.625 147.398438 C 98.710938 148.964844 101.476562 148.871094 103.949219 148.761719 C 102.722656 148.386719 101.929688 148.773438 100.6875 148.535156 C 99.492188 148.308594 97.546875 148.402344 98.914062 147.226562 C 99.261719 146.929688 99.464844 146.203125 99.925781 146.070312 C 100.246094 145.976562 100.835938 146.527344 101.328125 146.511719 C 102.46875 146.476562 103.152344 146.828125 104.207031 146.160156 C 104.539062 146.210938 104.570312 146.117188 104.808594 146.441406 C 105.054688 146.777344 105.265625 147.429688 105.4375 147.816406 C 105.507812 147.972656 106.019531 147.921875 106.066406 148.238281 C 106.003906 148.6875 105.621094 148.71875 105.261719 148.882812 C 104.980469 149.144531 104.714844 149.421875 104.472656 149.722656 C 103.632812 149.921875 103.097656 149.542969 102.269531 149.882812 C 100.820312 150.476562 100.121094 148.929688 98.613281 149.957031 C 97.234375 150.121094 96.839844 147.203125 94.851562 147.535156 C 95.460938 148.167969 96.445312 148.324219 97.03125 149.230469 C 97.246094 149.5625 97.429688 150.050781 97.824219 150.25 C 98.539062 150.394531 99.460938 149.875 100.03125 150.019531 C 101 151.636719 102.230469 150.363281 103.554688 150.40625 C 104.773438 150.449219 105.882812 149.679688 106.761719 148.867188 C 107.3125 148.359375 107.097656 148.078125 106.894531 147.601562 C 105.90625 147.125 105.683594 145.867188 104.5625 145.707031 C 104 145.625 103.222656 146.585938 102.804688 146.050781 C 102.285156 145.367188 103.394531 144.867188 103.769531 144.660156 C 104.292969 144.332031 104.144531 144.207031 104.628906 144.15625 C 105.421875 145.039062 106.832031 144.269531 107.835938 144.550781 C 109.40625 144.992188 109.695312 143.617188 110.945312 143.515625 C 112.21875 143.40625 112.171875 142.867188 113.230469 142.15625 C 114.828125 141.085938 115.242188 137.054688 112.425781 137.996094 C 112.144531 138.089844 110.832031 138.625 110.933594 137.777344 C 111.023438 137.03125 111.398438 135.863281 112.085938 135.460938 C 112.105469 136.253906 111.464844 136.949219 112.613281 136.949219 C 113.625 136.558594 114.550781 135.960938 115.324219 135.199219 C 116.769531 135.164062 117.542969 134.703125 118.46875 133.621094 C 119.207031 132.078125 117.089844 132.8125 116.664062 133.175781 C 115.628906 134.046875 114.4375 136.4375 112.921875 136.335938 C 114.453125 134.179688 114.492188 132.039062 116.957031 130.519531 C 118.082031 129.828125 118.472656 128.972656 119.875 129.347656 C 120.976562 128.90625 120.929688 127.917969 121.710938 127.277344 C 122.828125 127.074219 123.976562 126.269531 123.847656 125.027344 C 123.808594 124.636719 123.449219 124.046875 123.515625 123.691406 C 123.621094 123.167969 124.078125 122.816406 124.203125 122.246094 C 124.207031 121.09375 123.132812 121.015625 122.269531 121.238281 C 121.242188 121.507812 120.632812 120.921875 119.523438 121.285156 C 119.882812 119.773438 121.234375 119.445312 122.410156 118.78125 C 123.800781 117.640625 122.769531 116.15625 123.023438 114.722656 C 122.265625 115.363281 120.945312 115.269531 120.574219 116.386719 C 121.417969 115.949219 122.433594 115.160156 122.847656 116.648438 C 121.773438 116.921875 121.503906 116.898438 120.398438 116.558594 C 119.910156 117.371094 119.839844 118.144531 120.277344 119.011719 C 120.144531 119.671875 119.046875 120.65625 118.648438 121.371094 C 118.496094 119.597656 118.730469 117.386719 119.199219 115.644531 C 119.515625 114.457031 119.949219 113.308594 120.273438 112.125 C 120.640625 110.792969 121.078125 111.761719 121.621094 110.785156 C 120.980469 110.835938 119.136719 109.921875 119.960938 109.039062 C 120.484375 108.203125 122.085938 109.726562 122.058594 110.433594 C 123.511719 109.519531 122.808594 106.921875 122.761719 105.535156 C 122.070312 105.78125 120.445312 107.320312 120.054688 107.929688 C 119.394531 108.957031 119.519531 109.761719 119.980469 110.871094 C 119.933594 111.242188 119.800781 111.578125 119.582031 111.878906 C 118.839844 112.394531 119.035156 113 118.648438 113.761719 C 117.210938 111.347656 117.125 107.183594 117.597656 104.484375 C 116.824219 104.539062 116.375 104.578125 116.125 103.523438 C 116.578125 102.292969 115.839844 101.761719 115.332031 100.730469 C 115.0625 100.179688 114.332031 100.113281 114.148438 99.496094 C 113.972656 98.910156 114.707031 98.378906 114.253906 97.839844 C 112.773438 96.585938 113.902344 96.601562 113.398438 95.035156 C 113.007812 95.3125 112.785156 95.898438 112.609375 96.433594 C 111.269531 95.5 112.210938 94.460938 111.824219 93.109375 C 112.1875 91.488281 111.269531 91.300781 110.800781 89.90625 C 110.453125 88.875 110.570312 87.308594 109.964844 86.417969 C 109.585938 85.859375 108.703125 85.699219 108.148438 85.410156 C 107.828125 86.996094 107.40625 89.652344 109.722656 89.929688 C 111.074219 91.070312 110.460938 92.570312 111.035156 94.074219 C 110.105469 94.242188 110.164062 91.4375 109.109375 90.925781 C 109.210938 93.003906 107.402344 89.675781 107.164062 89.160156 C 106.324219 87.351562 106.3125 88.75 105.261719 89.085938 C 106.367188 85.554688 104.621094 83.226562 102.082031 81.027344 C 100.582031 79.726562 99.125 80.121094 97.472656 80.140625 C 96.398438 79.667969 94.957031 79.996094 94.933594 81.300781 C 94.164062 80.757812 93.382812 80.234375 92.609375 79.699219 C 92.277344 79.269531 92.332031 78.695312 92.019531 78.238281 C 90.972656 77.082031 89.238281 77.226562 87.847656 77.445312 M 81.722656 79.460938 C 82.042969 79.253906 84.085938 75.578125 84.757812 77.539062 C 84.886719 77.914062 84.597656 78.128906 84.398438 78.433594 C 84.019531 79.011719 84.550781 79.535156 84.175781 80.058594 C 83.90625 80.4375 83.230469 80.472656 82.890625 80.636719 C 82.648438 80.808594 82.699219 81.210938 82.519531 81.433594 C 82.011719 82.0625 80.605469 81.808594 79.910156 82.144531 C 79.140625 82.515625 78.191406 82.628906 77.699219 81.910156 C 77.265625 80.214844 78.566406 80.53125 78.347656 78.933594 C 78.960938 78.15625 79.511719 78.382812 80.25 77.691406 C 80.601562 77.480469 80.613281 76.523438 81.214844 77.179688 C 82.253906 78.316406 81.9375 77.742188 81.722656 79.460938 M 61.597656 90.835938 C 61.171875 88.8125 64.144531 86.390625 64.574219 84.359375 C 62.953125 83.660156 62.550781 86.828125 61.859375 87.246094 C 61.824219 86.285156 62.167969 85.152344 60.984375 85.058594 C 60.722656 86.949219 60.550781 88.847656 60.363281 90.746094 C 60.246094 91.933594 59.660156 91.804688 59.5 92.757812 C 58.242188 91.453125 55.929688 87.460938 54.769531 91.054688 C 54.558594 91.703125 53.296875 91.714844 52.902344 92.324219 C 52.109375 93.546875 52.78125 93.550781 51.324219 94.535156 C 50.914062 95.230469 51.414062 95.804688 51.359375 96.523438 C 50.574219 98.136719 51.660156 99.222656 52.285156 100.722656 C 52.945312 102.304688 51.84375 104.585938 51.5625 106.183594 C 51.210938 108.199219 50.9375 110.234375 50.75 112.273438 C 50.617188 111.875 50.503906 111.238281 50.175781 110.871094 C 49.742188 110.644531 49.246094 110.335938 49.234375 109.78125 C 49.222656 109.246094 49.769531 109.179688 50.082031 108.832031 C 50.757812 108.085938 50.460938 107.25 50.214844 106.378906 C 50.003906 105.640625 49.578125 104.128906 48.859375 103.738281 C 48.484375 103.53125 47.78125 105.175781 47.636719 105.480469 C 46.457031 107.945312 48.503906 109.070312 49.175781 111.222656 C 48.679688 111.117188 48.34375 110.871094 47.863281 110.871094 C 48.636719 111.964844 50.015625 111.65625 50.390625 113.324219 C 50.675781 114.589844 51.242188 115.5 51.273438 116.910156 C 50.460938 116.027344 49.464844 115.230469 48.527344 114.527344 C 47.910156 114.0625 46.933594 114.109375 46.527344 114.808594 C 46.414062 115.003906 46.445312 115.296875 46.375 115.507812 C 46.714844 116.636719 46.269531 116.988281 45.875 118.046875 C 45.871094 118.566406 45.933594 118.671875 46.277344 119.160156 C 46.898438 120.039062 46.402344 119.9375 46.496094 120.847656 C 46.578125 121.683594 47.574219 121.832031 47.996094 122.425781 C 48.445312 123.0625 48.203125 123.347656 49 123.773438 C 50.386719 123.542969 51.617188 125.339844 52.386719 126.261719 C 53.605469 127.71875 54.085938 129.675781 54.6875 131.433594 C 53.285156 131.113281 55.160156 132.578125 55.300781 132.746094 C 53.574219 133.09375 52.238281 131.148438 52.394531 129.683594 C 51.957031 127.445312 50.601562 127.714844 49.238281 126.621094 C 48.480469 126.851562 48.664062 129.363281 49.078125 130.125 C 49.539062 130.964844 50.421875 131.371094 51.359375 131.199219 C 52.257812 131.550781 53.164062 132.289062 53.960938 132.84375 C 54.90625 133.507812 58.140625 135.894531 55.21875 136.191406 C 54.171875 136.296875 53.941406 136.410156 53.382812 137.242188 C 52.808594 138.097656 54.050781 138.703125 54.273438 139.351562 C 54.601562 140.316406 54.433594 141.023438 55.472656 141.617188 C 56.5625 141.933594 56.9375 141.910156 57.984375 142.453125 C 58.929688 142.945312 59.386719 142.050781 60.199219 142.265625 C 61.148438 142.8125 61.367188 143.511719 62.5625 143.246094 C 61.734375 142.503906 60.441406 141.589844 59.285156 142.121094 C 58.203125 142.617188 57.644531 141.363281 56.617188 141.238281 C 55.390625 141.09375 55.359375 140.574219 55.03125 139.445312 C 54.828125 138.753906 53.59375 137.910156 53.988281 137.226562 C 54.445312 136.433594 54.828125 136.847656 55.734375 136.714844 C 56.917969 136.386719 56.824219 135.644531 57.769531 137.121094 C 58.601562 137.535156 58.539062 137.121094 59.5 137.035156 C 58.710938 136.644531 58.457031 136.078125 58.359375 135.109375 C 58.175781 135.25 58.085938 135.457031 58.097656 135.722656 C 57.195312 135.285156 56.398438 134.558594 56 133.621094 C 56.574219 134.105469 56.953125 133.445312 57.046875 133.183594 C 57.160156 133.878906 57.089844 134.519531 57.484375 134.847656 C 57.484375 133.367188 57.496094 133.359375 57.089844 132.441406 C 56.546875 131.640625 55.746094 130.847656 55.339844 130.035156 C 55.066406 129.488281 55.75 129.320312 55.15625 128.722656 C 54.730469 128.296875 54.160156 128.476562 53.894531 127.761719 C 53.757812 127.230469 54.453125 126.867188 54.390625 126.359375 C 53.453125 124.734375 54.191406 125 54.738281 123.605469 C 54.984375 122.964844 54.339844 122.441406 54.890625 121.957031 C 55.851562 121.113281 56.644531 123.011719 57.3125 123.425781 C 59.292969 123.121094 58.539062 124.234375 58.882812 125.308594 C 59.078125 125.925781 59.578125 126.109375 59.707031 126.710938 C 59.746094 126.886719 59.355469 127.136719 59.367188 127.324219 C 59.429688 127.539062 59.878906 128.539062 59.78125 128.722656 C 59.648438 128.980469 59.257812 129.210938 59.054688 129.425781 C 58.882812 129.78125 59.226562 130.128906 59.15625 130.515625 C 59.128906 130.683594 58.984375 131.125 58.710938 131.039062 C 57.976562 130.808594 58.464844 128.601562 58.625 128.109375 C 58.441406 128.257812 58.238281 128.449219 58.097656 128.636719 C 57.664062 127.566406 57.851562 126.722656 58.273438 125.660156 C 57.863281 125.613281 57.503906 126.050781 57.3125 126.359375 C 57.039062 125.53125 57.324219 125.15625 57.398438 124.347656 C 57.15625 124.367188 57.085938 124.535156 56.960938 124.699219 C 56.660156 124.28125 56.457031 123.140625 55.824219 123.296875 C 55.992188 123.757812 56.140625 124.222656 56.261719 124.699219 C 55.960938 124.523438 55.640625 124.40625 55.296875 124.347656 C 55.808594 125.207031 56.609375 125.707031 56.875 126.710938 C 56.429688 126.523438 55.316406 125.730469 54.949219 126.273438 C 56.101562 126.601562 57.042969 127.484375 57.398438 128.636719 C 56.847656 128.488281 56.613281 128.292969 56.085938 128.285156 C 56.847656 129.132812 57.628906 129.265625 57.894531 130.476562 C 58.082031 131.332031 58.140625 132.429688 58.625 133.097656 C 58.972656 131.246094 61.015625 129.703125 60.480469 127.761719 C 60.609375 126.816406 61.125 126.824219 60.550781 125.949219 C 60.003906 125.117188 59.769531 123.800781 59.136719 123.144531 C 58.632812 122.625 58.171875 122.75 57.574219 122.441406 C 57.117188 121.871094 56.480469 121.453125 55.765625 121.289062 C 54.433594 120.984375 53.371094 122.285156 53.566406 119.800781 C 53.621094 119.691406 53.65625 119.617188 53.742188 119.539062 C 54.835938 119.511719 55.425781 119.191406 55.917969 118.203125 C 56.53125 116.980469 56.125 115.726562 56.085938 114.460938 C 55.523438 115.390625 54.117188 115.371094 53.222656 116.054688 C 52.285156 115.792969 53.097656 113.628906 53.417969 113.058594 C 53.398438 112.300781 53.441406 111.308594 53.949219 110.695312 C 54.640625 109.867188 55.582031 110.300781 56.453125 109.882812 C 57.089844 109.578125 57.203125 109.390625 57.28125 108.773438 C 57.820312 108.246094 58.484375 108.136719 58.695312 107.296875 C 58.878906 106.585938 59.488281 106.277344 59.621094 105.621094 C 59.75 104.957031 59.550781 104.292969 59.628906 103.613281 C 59.730469 102.753906 59.578125 102.449219 58.796875 101.953125 C 58.332031 101.792969 56.917969 101.402344 56.480469 101.726562 C 56 103.375 55.941406 102.949219 54.949219 103.621094 C 54.347656 104.027344 54.21875 103.761719 54 104.625 C 53.855469 105.207031 53.90625 105.589844 53.285156 105.707031 C 54.097656 103.675781 55.335938 101.847656 56.261719 99.847656 C 58.570312 101.925781 60.3125 98.816406 60.984375 96.957031 C 59.6875 96.683594 58.570312 97.121094 57.359375 97.425781 C 57.449219 96.539062 58.824219 95.929688 59.621094 95.597656 C 60.78125 95.113281 60.011719 95.148438 60.601562 94.457031 C 60.949219 94.046875 61.703125 94.800781 61.859375 94.902344 C 62.394531 95.039062 62.589844 95.039062 63.179688 94.882812 C 64.183594 94.621094 64.410156 95.160156 65.398438 95.050781 C 66.261719 94.953125 66.558594 94.539062 67.445312 94.589844 C 68.316406 94.640625 68.820312 94.304688 69.417969 93.675781 C 69.929688 93.140625 71.675781 92.273438 71.5 91.351562 C 71.214844 89.878906 68.644531 89.703125 67.375 89.808594 C 66.292969 90.386719 65.855469 90.625 64.96875 89.738281 C 64.789062 89.5625 64.78125 89.398438 64.921875 89.1875 C 65.554688 88.226562 67.800781 87.429688 68.820312 86.917969 C 70.84375 85.898438 72.027344 85.191406 73.730469 86.984375 C 74.441406 87.734375 74.980469 87.90625 76.035156 87.953125 C 76.414062 88.261719 76.773438 88.667969 77.261719 88.769531 C 77.828125 88.882812 78.457031 88.515625 78.921875 88.214844 C 79.390625 88.355469 80.160156 88.5 80.628906 88.296875 C 81.167969 88.0625 82.699219 87.1875 83.09375 86.789062 C 83.402344 86.480469 83.382812 86.058594 83.226562 85.671875 C 82.839844 84.707031 81.742188 84.964844 81.261719 83.921875 C 80.410156 83.445312 79.972656 84.007812 79.097656 83.898438 C 77.761719 83.199219 77.683594 83.773438 76.34375 83.789062 C 75.917969 83.792969 75.398438 83.628906 75.421875 83.140625 C 75.464844 82.21875 77.328125 83.15625 77.707031 83.007812 C 80.304688 81.988281 82.835938 82.9375 84.78125 80.332031 C 85.257812 79.042969 86.199219 76.480469 83.753906 76.839844 C 82.871094 76.96875 82.632812 77.144531 81.78125 76.851562 C 81.125 76.625 80.832031 76.695312 80.234375 76.984375 C 79.824219 77.132812 79.339844 77.765625 78.8125 77.980469 C 77.414062 78.550781 78.132812 79.429688 77.054688 80.355469 C 76.953125 80.554688 76.941406 81.375 76.707031 81.4375 C 75.253906 81.84375 75.558594 80.082031 75.445312 79.042969 C 75.246094 77.273438 73.5625 77.21875 72.371094 78.421875 C 71.699219 79.101562 70.914062 78.3125 70.292969 78.953125 C 69.878906 79.378906 69.816406 80.019531 69.328125 80.34375 C 68.585938 80.835938 67.679688 80.910156 67.546875 81.996094 C 67.6875 82.726562 68.304688 83.28125 67.640625 83.886719 C 67.121094 84.359375 66.644531 84.308594 66.621094 85.101562 C 66.546875 87.355469 62.675781 88.855469 61.597656 90.835938 "/>
</svg>
