<?xml version="1.0" encoding="UTF-8"?>
<svg xmlns="http://www.w3.org/2000/svg" xmlns:xlink="http://www.w3.org/1999/xlink" width="169.074219" height="244.640625" viewBox="0 0 169.074219 244.640625">
<path fill-rule="nonzero" fill="rgb(100%, 100%, 100%)" fill-opacity="1" stroke-width="2.5" stroke-linecap="butt" stroke-linejoin="miter" stroke="rgb(0%, 0%, 0%)" stroke-opacity="1" stroke-miterlimit="4" d="M 0 -0.000468254 C 0 3.780782 3.089844 6.870625 6.871094 6.870625 L 159.714844 6.870625 C 163.484375 6.870625 166.574219 3.780782 166.574219 -0.000468254 L 166.574219 -228.398906 C 166.574219 -232.180156 163.484375 -235.27 159.714844 -235.27 L 6.871094 -235.27 C 3.089844 -235.27 0 -232.180156 0 -228.398906 Z M 0 -0.000468254 " transform="matrix(1, 0, 0, 1, 1.25, 236.52)"/>
<path fill-rule="nonzero" fill="rgb(90.196078%, 9.411765%, 3.921569%)" fill-opacity="1" d="M 7.339844 5.21875 C 8.382812 4.703125 9.390625 4.308594 10.367188 4.046875 C 11.347656 3.78125 12.304688 3.648438 13.242188 3.648438 C 15.375 3.648438 17.011719 4.367188 18.15625 5.796875 C 19.292969 7.230469 19.867188 9.277344 19.867188 11.941406 C 19.867188 13.9375 19.535156 15.558594 18.878906 16.800781 C 18.226562 18.046875 17.265625 18.882812 16.003906 19.3125 C 17.542969 19.765625 18.691406 20.75 19.453125 22.269531 C 20.210938 23.78125 20.589844 25.835938 20.589844 28.449219 C 20.589844 31.546875 19.933594 33.917969 18.621094 35.570312 C 17.316406 37.222656 15.421875 38.046875 12.941406 38.046875 C 12.011719 38.046875 11.050781 37.898438 10.058594 37.601562 C 9.0625 37.304688 8.023438 36.859375 6.945312 36.261719 L 6.945312 28.992188 L 8.382812 28.992188 C 8.46875 31.101562 8.816406 32.703125 9.429688 33.800781 C 10.046875 34.902344 10.902344 35.453125 11.996094 35.453125 C 13.199219 35.453125 14.125 34.832031 14.777344 33.585938 C 15.433594 32.332031 15.765625 30.554688 15.765625 28.25 C 15.765625 25.863281 15.421875 24.015625 14.730469 22.714844 C 14.046875 21.40625 13.082031 20.75 11.832031 20.75 L 11.046875 20.75 L 11.046875 18.089844 L 11.664062 18.089844 C 12.828125 18.089844 13.699219 17.589844 14.28125 16.585938 C 14.863281 15.574219 15.15625 14.070312 15.15625 12.074219 C 15.15625 10.191406 14.882812 8.753906 14.335938 7.761719 C 13.789062 6.761719 13 6.257812 11.972656 6.257812 C 11.035156 6.257812 10.296875 6.738281 9.75 7.695312 C 9.207031 8.644531 8.878906 10.027344 8.769531 11.84375 L 7.339844 11.84375 Z M 5.25 -5.289062 "/>
<path fill-rule="nonzero" fill="rgb(90.196078%, 9.411765%, 3.921569%)" fill-opacity="1" d="M 162.734375 238.425781 C 161.695312 238.941406 160.6875 239.332031 159.707031 239.597656 C 158.726562 239.863281 157.769531 239.996094 156.832031 239.996094 C 154.699219 239.996094 153.0625 239.277344 151.921875 237.847656 C 150.78125 236.414062 150.207031 234.363281 150.207031 231.699219 C 150.207031 229.707031 150.539062 228.085938 151.195312 226.84375 C 151.851562 225.59375 152.808594 224.761719 154.074219 224.332031 C 152.535156 223.878906 151.382812 222.894531 150.625 221.375 C 149.863281 219.863281 149.484375 217.804688 149.484375 215.195312 C 149.484375 212.097656 150.144531 209.726562 151.453125 208.074219 C 152.757812 206.421875 154.652344 205.59375 157.132812 205.59375 C 158.0625 205.59375 159.023438 205.746094 160.019531 206.042969 C 161.011719 206.339844 162.050781 206.785156 163.132812 207.378906 L 163.132812 214.648438 L 161.695312 214.648438 C 161.605469 212.542969 161.257812 210.941406 160.644531 209.84375 C 160.027344 208.738281 159.171875 208.191406 158.078125 208.191406 C 156.878906 208.191406 155.953125 208.808594 155.296875 210.054688 C 154.640625 211.3125 154.3125 213.089844 154.3125 215.394531 C 154.3125 217.78125 154.65625 219.628906 155.34375 220.929688 C 156.027344 222.238281 156.992188 222.894531 158.246094 222.894531 L 159.03125 222.894531 L 159.03125 225.554688 L 158.414062 225.554688 C 157.246094 225.554688 156.375 226.054688 155.792969 227.058594 C 155.210938 228.070312 154.917969 229.574219 154.917969 231.566406 C 154.917969 233.453125 155.191406 234.890625 155.738281 235.878906 C 156.285156 236.878906 157.074219 237.382812 158.105469 237.382812 C 159.039062 237.382812 159.78125 236.90625 160.328125 235.945312 C 160.867188 234.996094 161.195312 233.617188 161.304688 231.800781 L 162.734375 231.800781 Z M 164.824219 248.933594 "/>
<path fill-rule="nonzero" fill="rgb(90.196078%, 9.411765%, 3.921569%)" fill-opacity="1" d="M 14.898438 51.402344 C 17.460938 51.402344 20.019531 51.402344 22.578125 51.402344 C 21.707031 51.363281 20.960938 50.796875 20.257812 50.332031 C 18.679688 49.140625 17.199219 47.773438 16.03125 46.175781 C 15.488281 45.371094 14.914062 44.46875 14.898438 43.464844 M 22.578125 51.402344 C 21.46875 51.4375 20.523438 52.144531 19.675781 52.796875 C 18.179688 54.050781 16.886719 55.542969 15.796875 57.160156 C 15.394531 57.828125 14.921875 58.539062 14.898438 59.34375 C 14.898438 56.695312 14.898438 54.050781 14.898438 51.402344 M 14.898438 59.34375 C 14.863281 58.160156 14.140625 57.136719 13.460938 56.222656 C 12.25 54.714844 10.8125 53.378906 9.234375 52.261719 C 8.621094 51.878906 7.96875 51.421875 7.21875 51.402344 C 9.78125 51.402344 12.339844 51.402344 14.898438 51.402344 M 7.21875 51.402344 C 8.328125 51.367188 9.277344 50.660156 10.125 50.011719 C 11.617188 48.753906 12.914062 47.261719 14.003906 45.644531 C 14.40625 44.976562 14.878906 44.269531 14.898438 43.464844 C 14.898438 46.109375 14.898438 48.757812 14.898438 51.402344 "/>
<path fill-rule="nonzero" fill="rgb(90.196078%, 9.411765%, 3.921569%)" fill-opacity="1" d="M 155.175781 192.238281 C 152.613281 192.238281 150.054688 192.238281 147.496094 192.238281 C 148.371094 192.277344 149.113281 192.84375 149.816406 193.3125 C 151.394531 194.503906 152.875 195.871094 154.042969 197.46875 C 154.589844 198.273438 155.160156 199.175781 155.175781 200.179688 M 147.496094 192.238281 C 148.605469 192.203125 149.554688 191.5 150.398438 190.847656 C 151.894531 189.59375 153.1875 188.097656 154.28125 186.484375 C 154.679688 185.8125 155.152344 185.105469 155.175781 184.300781 C 155.175781 186.945312 155.175781 189.59375 155.175781 192.238281 M 155.175781 184.300781 C 155.214844 185.480469 155.933594 186.507812 156.613281 187.421875 C 157.824219 188.929688 159.261719 190.265625 160.839844 191.382812 C 161.453125 191.765625 162.105469 192.222656 162.855469 192.238281 C 160.296875 192.238281 157.734375 192.238281 155.175781 192.238281 M 162.855469 192.238281 C 161.746094 192.273438 160.796875 192.980469 159.949219 193.632812 C 158.457031 194.886719 157.160156 196.382812 156.070312 197.996094 C 155.667969 198.664062 155.199219 199.375 155.175781 200.179688 C 155.175781 197.53125 155.175781 194.886719 155.175781 192.238281 "/>
<path fill-rule="nonzero" fill="rgb(90.196078%, 9.411765%, 3.921569%)" fill-opacity="1" d="M 85.035156 201.484375 C 78.894531 201.484375 72.75 201.484375 66.605469 201.484375 C 68.703125 201.578125 70.492188 202.933594 72.175781 204.058594 C 75.96875 206.917969 79.515625 210.195312 82.320312 214.03125 C 83.628906 215.960938 85.003906 218.128906 85.035156 220.539062 M 66.605469 201.484375 C 69.269531 201.398438 71.542969 199.703125 73.574219 198.140625 C 77.164062 195.128906 80.269531 191.542969 82.890625 187.667969 C 83.851562 186.058594 84.984375 184.359375 85.035156 182.425781 C 85.035156 188.78125 85.035156 195.128906 85.035156 201.484375 M 85.035156 182.425781 C 85.128906 185.265625 86.855469 187.722656 88.488281 189.914062 C 91.398438 193.539062 94.84375 196.746094 98.636719 199.425781 C 100.109375 200.34375 101.671875 201.4375 103.46875 201.484375 C 97.324219 201.484375 91.179688 201.484375 85.035156 201.484375 M 103.46875 201.484375 C 100.804688 201.566406 98.53125 203.261719 96.5 204.824219 C 92.910156 207.839844 89.804688 211.421875 87.183594 215.300781 C 86.222656 216.90625 85.089844 218.605469 85.035156 220.539062 C 85.035156 214.1875 85.035156 207.835938 85.035156 201.484375 "/>
<path fill-rule="nonzero" fill="rgb(90.196078%, 9.411765%, 3.921569%)" fill-opacity="1" d="M 85.035156 114.953125 C 91.179688 114.953125 97.324219 114.953125 103.46875 114.953125 C 101.371094 114.859375 99.582031 113.5 97.894531 112.375 C 94.105469 109.519531 90.558594 106.238281 87.753906 102.40625 C 86.445312 100.476562 85.070312 98.304688 85.035156 95.894531 M 103.46875 114.953125 C 100.804688 115.035156 98.53125 116.730469 96.5 118.292969 C 92.910156 121.308594 89.804688 124.890625 87.183594 128.769531 C 86.222656 130.375 85.089844 132.074219 85.035156 134.007812 C 85.035156 127.65625 85.035156 121.304688 85.035156 114.953125 M 85.035156 134.007812 C 84.945312 131.171875 83.21875 128.714844 81.585938 126.519531 C 78.675781 122.894531 75.230469 119.6875 71.4375 117.007812 C 69.964844 116.089844 68.398438 114.996094 66.605469 114.953125 C 72.75 114.953125 78.894531 114.953125 85.035156 114.953125 M 66.605469 114.953125 C 69.269531 114.867188 71.542969 113.171875 73.574219 111.609375 C 77.164062 108.597656 80.269531 105.011719 82.890625 101.136719 C 83.851562 99.527344 84.984375 97.828125 85.035156 95.894531 C 85.035156 102.25 85.035156 108.597656 85.035156 114.953125 "/>
<path fill-rule="nonzero" fill="rgb(90.196078%, 9.411765%, 3.921569%)" fill-opacity="1" d="M 85.035156 38.011719 C 91.179688 38.011719 97.324219 38.011719 103.46875 38.011719 C 101.371094 37.917969 99.582031 36.558594 97.894531 35.4375 C 94.105469 32.578125 90.558594 29.296875 87.753906 25.464844 C 86.445312 23.535156 85.070312 21.363281 85.035156 18.953125 M 103.46875 38.011719 C 100.804688 38.09375 98.53125 39.789062 96.5 41.355469 C 92.910156 44.367188 89.804688 47.949219 87.183594 51.828125 C 86.222656 53.433594 85.089844 55.132812 85.035156 57.066406 C 85.035156 50.714844 85.035156 44.363281 85.035156 38.011719 M 85.035156 57.066406 C 84.945312 54.230469 83.21875 51.773438 81.585938 49.578125 C 78.675781 45.953125 75.230469 42.75 71.4375 40.066406 C 69.964844 39.148438 68.398438 38.054688 66.605469 38.011719 C 72.75 38.011719 78.894531 38.011719 85.035156 38.011719 M 66.605469 38.011719 C 69.269531 37.925781 71.542969 36.230469 73.574219 34.667969 C 77.164062 31.65625 80.269531 28.070312 82.890625 24.195312 C 83.851562 22.589844 84.984375 20.886719 85.035156 18.953125 C 85.035156 25.308594 85.035156 31.65625 85.035156 38.011719 "/>
</svg>
