<?xml version="1.0" encoding="UTF-8"?>
<svg xmlns="http://www.w3.org/2000/svg" xmlns:xlink="http://www.w3.org/1999/xlink" width="169.074219" height="244.640625" viewBox="0 0 169.074219 244.640625">
<path fill-rule="nonzero" fill="rgb(100%, 100%, 100%)" fill-opacity="1" stroke-width="2.5" stroke-linecap="butt" stroke-linejoin="miter" stroke="rgb(0%, 0%, 0%)" stroke-opacity="1" stroke-miterlimit="4" d="M 0 -0.000473022 C 0 3.780777 3.089844 6.870621 6.871094 6.870621 L 159.714844 6.870621 C 163.484375 6.870621 166.574219 3.780777 166.574219 -0.000473022 L 166.574219 -228.398911 C 166.574219 -232.180161 163.484375 -235.270004 159.714844 -235.270004 L 6.871094 -235.270004 C 3.089844 -235.270004 0 -232.180161 0 -228.398911 Z M 0 -0.000473022 " transform="matrix(1, 0, 0, 1, 1.25, 236.520004)"/>
<path fill-rule="nonzero" fill="rgb(90.196078%, 9.411765%, 3.921569%)" fill-opacity="1" d="M 13.523438 6.257812 C 12.710938 6.257812 12.132812 6.910156 11.785156 8.207031 C 11.445312 9.496094 11.273438 11.738281 11.273438 14.933594 C 11.273438 18.128906 11.445312 20.375 11.785156 21.671875 C 12.132812 22.972656 12.710938 23.621094 13.523438 23.621094 C 14.335938 23.621094 14.914062 22.972656 15.261719 21.671875 C 15.613281 20.375 15.789062 18.128906 15.789062 14.933594 C 15.789062 11.738281 15.613281 9.496094 15.261719 8.207031 C 14.914062 6.910156 14.335938 6.257812 13.523438 6.257812 Z M 16.171875 23.902344 C 15.644531 24.6875 15.066406 25.273438 14.433594 25.671875 C 13.796875 26.058594 13.105469 26.25 12.359375 26.25 C 10.558594 26.25 9.140625 25.265625 8.109375 23.292969 C 7.078125 21.320312 6.5625 18.597656 6.5625 15.113281 C 6.5625 11.445312 7.140625 8.621094 8.292969 6.636719 C 9.449219 4.648438 11.101562 3.648438 13.242188 3.648438 C 15.660156 3.648438 17.488281 5.019531 18.738281 7.761719 C 19.988281 10.503906 20.617188 14.515625 20.617188 19.789062 C 20.617188 25.816406 19.921875 30.363281 18.535156 33.4375 C 17.152344 36.511719 15.101562 38.046875 12.386719 38.046875 C 11.671875 38.046875 10.910156 37.933594 10.09375 37.714844 C 9.28125 37.492188 8.410156 37.164062 7.480469 36.707031 L 7.480469 30.859375 L 8.910156 30.859375 C 9.109375 32.371094 9.484375 33.515625 10.03125 34.296875 C 10.582031 35.066406 11.296875 35.453125 12.175781 35.453125 C 13.5625 35.453125 14.570312 34.550781 15.199219 32.742188 C 15.835938 30.925781 16.15625 27.980469 16.171875 23.902344 Z M 5.25 -5.289062 "/>
<path fill-rule="nonzero" fill="rgb(90.196078%, 9.411765%, 3.921569%)" fill-opacity="1" d="M 156.546875 237.382812 C 157.359375 237.382812 157.9375 236.730469 158.285156 235.433594 C 158.625 234.144531 158.796875 231.902344 158.796875 228.710938 C 158.796875 225.511719 158.625 223.265625 158.285156 221.96875 C 157.9375 220.667969 157.359375 220.019531 156.546875 220.019531 C 155.734375 220.019531 155.15625 220.667969 154.808594 221.96875 C 154.457031 223.265625 154.277344 225.511719 154.277344 228.710938 C 154.277344 231.902344 154.457031 234.144531 154.808594 235.433594 C 155.15625 236.730469 155.734375 237.382812 156.546875 237.382812 Z M 153.898438 219.738281 C 154.425781 218.953125 155.003906 218.367188 155.636719 217.96875 C 156.273438 217.582031 156.964844 217.390625 157.710938 217.390625 C 159.511719 217.390625 160.929688 218.375 161.960938 220.351562 C 162.992188 222.320312 163.503906 225.046875 163.503906 228.527344 C 163.503906 232.195312 162.929688 235.019531 161.777344 237.003906 C 160.621094 238.996094 158.96875 239.996094 156.828125 239.996094 C 154.410156 239.996094 152.582031 238.625 151.332031 235.878906 C 150.082031 233.136719 149.453125 229.128906 149.453125 223.851562 C 149.453125 217.824219 150.148438 213.277344 151.535156 210.207031 C 152.917969 207.132812 154.96875 205.59375 157.683594 205.59375 C 158.394531 205.59375 159.160156 205.707031 159.976562 205.925781 C 160.789062 206.148438 161.660156 206.480469 162.589844 206.933594 L 162.589844 212.78125 L 161.160156 212.78125 C 160.960938 211.269531 160.585938 210.125 160.039062 209.347656 C 159.488281 208.574219 158.773438 208.191406 157.894531 208.191406 C 156.507812 208.191406 155.5 209.089844 154.871094 210.898438 C 154.234375 212.714844 153.914062 215.660156 153.898438 219.738281 Z M 164.820312 248.933594 "/>
<path fill-rule="nonzero" fill="rgb(90.196078%, 9.411765%, 3.921569%)" fill-opacity="1" d="M 22.570312 47.472656 C 22.558594 52.183594 16.660156 55.613281 14.929688 59.34375 C 13.179688 55.621094 7.269531 52.222656 7.230469 47.511719 C 7.21875 45.292969 8.941406 43.480469 11.050781 43.480469 C 13.171875 43.480469 14.898438 45.273438 14.898438 47.492188 C 14.898438 45.261719 16.609375 43.460938 18.71875 43.460938 C 20.839844 43.453125 22.558594 45.253906 22.570312 47.472656 Z M 22.570312 47.472656 "/>
<path fill-rule="nonzero" fill="rgb(90.196078%, 9.411765%, 3.921569%)" fill-opacity="1" d="M 147.5 196.171875 C 147.511719 191.460938 153.410156 188.03125 155.140625 184.300781 C 156.890625 188.019531 162.800781 191.421875 162.839844 196.128906 C 162.851562 198.351562 161.128906 200.160156 159.019531 200.160156 C 156.898438 200.160156 155.171875 198.371094 155.171875 196.148438 C 155.171875 198.378906 153.460938 200.179688 151.351562 200.179688 C 149.230469 200.191406 147.511719 198.390625 147.5 196.171875 Z M 147.5 196.171875 "/>
<path fill-rule="nonzero" fill="rgb(90.196078%, 9.411765%, 3.921569%)" fill-opacity="1" d="M 63.515625 28.578125 C 63.492188 39.882812 49.332031 48.113281 45.179688 57.066406 C 40.980469 48.136719 26.796875 39.976562 26.703125 28.671875 C 26.675781 23.347656 30.804688 19 35.871094 19 C 40.957031 19 45.109375 23.296875 45.109375 28.625 C 45.109375 23.273438 49.214844 18.953125 54.277344 18.953125 C 59.367188 18.929688 63.492188 23.25 63.515625 28.578125 Z M 63.515625 28.578125 "/>
<path fill-rule="nonzero" fill="rgb(90.196078%, 9.411765%, 3.921569%)" fill-opacity="1" d="M 63.515625 82.734375 C 63.492188 94.039062 49.332031 102.269531 45.179688 111.222656 C 40.980469 102.292969 26.796875 94.132812 26.703125 82.828125 C 26.675781 77.5 30.804688 73.15625 35.871094 73.15625 C 40.957031 73.15625 45.109375 77.453125 45.109375 82.78125 C 45.109375 77.429688 49.214844 73.109375 54.277344 73.109375 C 59.367188 73.085938 63.492188 77.40625 63.515625 82.734375 Z M 63.515625 82.734375 "/>
<path fill-rule="nonzero" fill="rgb(90.196078%, 9.411765%, 3.921569%)" fill-opacity="1" d="M 26.703125 156.757812 C 26.726562 145.457031 40.886719 137.222656 45.039062 128.269531 C 49.238281 137.199219 63.421875 145.359375 63.515625 156.664062 C 63.542969 161.992188 59.414062 166.335938 54.347656 166.335938 C 49.261719 166.335938 45.109375 162.039062 45.109375 156.710938 C 45.109375 162.0625 41.003906 166.382812 35.941406 166.382812 C 30.851562 166.40625 26.726562 162.085938 26.703125 156.757812 Z M 26.703125 156.757812 "/>
<path fill-rule="nonzero" fill="rgb(90.196078%, 9.411765%, 3.921569%)" fill-opacity="1" d="M 26.703125 210.914062 C 26.726562 199.613281 40.886719 191.378906 45.039062 182.425781 C 49.238281 191.355469 63.421875 199.515625 63.515625 210.820312 C 63.542969 216.148438 59.414062 220.492188 54.347656 220.492188 C 49.261719 220.492188 45.109375 216.195312 45.109375 210.867188 C 45.109375 216.21875 41.003906 220.539062 35.941406 220.539062 C 30.851562 220.5625 26.726562 216.242188 26.703125 210.914062 Z M 26.703125 210.914062 "/>
<path fill-rule="nonzero" fill="rgb(90.196078%, 9.411765%, 3.921569%)" fill-opacity="1" d="M 143.375 28.578125 C 143.351562 39.882812 129.191406 48.113281 125.039062 57.066406 C 120.839844 48.136719 106.65625 39.976562 106.558594 28.671875 C 106.535156 23.347656 110.664062 19 115.726562 19 C 120.816406 19 124.964844 23.296875 124.964844 28.625 C 124.964844 23.273438 129.070312 18.953125 134.132812 18.953125 C 139.222656 18.929688 143.351562 23.25 143.375 28.578125 Z M 143.375 28.578125 "/>
<path fill-rule="nonzero" fill="rgb(90.196078%, 9.411765%, 3.921569%)" fill-opacity="1" d="M 143.375 82.734375 C 143.351562 94.039062 129.191406 102.269531 125.039062 111.222656 C 120.839844 102.292969 106.65625 94.132812 106.558594 82.828125 C 106.535156 77.5 110.664062 73.15625 115.726562 73.15625 C 120.816406 73.15625 124.964844 77.453125 124.964844 82.78125 C 124.964844 77.429688 129.070312 73.109375 134.132812 73.109375 C 139.222656 73.085938 143.351562 77.40625 143.375 82.734375 Z M 143.375 82.734375 "/>
<path fill-rule="nonzero" fill="rgb(90.196078%, 9.411765%, 3.921569%)" fill-opacity="1" d="M 106.558594 156.757812 C 106.582031 145.457031 120.742188 137.222656 124.894531 128.269531 C 129.09375 137.199219 143.277344 145.359375 143.375 156.664062 C 143.398438 161.992188 139.269531 166.335938 134.207031 166.335938 C 129.117188 166.335938 124.96875 162.039062 124.96875 156.710938 C 124.96875 162.0625 120.863281 166.382812 115.800781 166.382812 C 110.710938 166.40625 106.582031 162.085938 106.558594 156.757812 Z M 106.558594 156.757812 "/>
<path fill-rule="nonzero" fill="rgb(90.196078%, 9.411765%, 3.921569%)" fill-opacity="1" d="M 106.558594 210.914062 C 106.582031 199.613281 120.742188 191.378906 124.894531 182.425781 C 129.09375 191.355469 143.277344 199.515625 143.375 210.820312 C 143.398438 216.148438 139.269531 220.492188 134.207031 220.492188 C 129.117188 220.492188 124.96875 216.195312 124.96875 210.867188 C 124.96875 216.21875 120.863281 220.539062 115.800781 220.539062 C 110.710938 220.5625 106.582031 216.242188 106.558594 210.914062 Z M 106.558594 210.914062 "/>
<path fill-rule="nonzero" fill="rgb(90.196078%, 9.411765%, 3.921569%)" fill-opacity="1" d="M 103.445312 55.65625 C 103.421875 66.960938 89.261719 75.191406 85.109375 84.144531 C 80.910156 75.21875 66.726562 67.058594 66.628906 55.753906 C 66.605469 50.425781 70.734375 46.082031 75.796875 46.082031 C 80.886719 46.082031 85.039062 50.378906 85.039062 55.703125 C 85.039062 50.351562 89.140625 46.03125 94.207031 46.03125 C 99.292969 46.007812 103.421875 50.328125 103.445312 55.65625 Z M 103.445312 55.65625 "/>
</svg>
