<?xml version="1.0" encoding="UTF-8"?>
<svg xmlns="http://www.w3.org/2000/svg" xmlns:xlink="http://www.w3.org/1999/xlink" width="169.074219" height="244.640625" viewBox="0 0 169.074219 244.640625">
<path fill-rule="nonzero" fill="rgb(100%, 100%, 100%)" fill-opacity="1" stroke-width="2.5" stroke-linecap="butt" stroke-linejoin="miter" stroke="rgb(0%, 0%, 0%)" stroke-opacity="1" stroke-miterlimit="4" d="M 0 -0.000473022 C 0 3.780777 3.089844 6.870621 6.871094 6.870621 L 159.714844 6.870621 C 163.484375 6.870621 166.574219 3.780777 166.574219 -0.000473022 L 166.574219 -228.398911 C 166.574219 -232.180161 163.484375 -235.270004 159.714844 -235.270004 L 6.871094 -235.270004 C 3.089844 -235.270004 0 -232.180161 0 -228.398911 Z M 0 -0.000473022 " transform="matrix(1, 0, 0, 1, 1.25, 236.520004)"/>
<path fill-rule="nonzero" fill="rgb(90.196078%, 9.411765%, 3.921569%)" fill-opacity="1" d="M 7.15625 37.402344 L 7.15625 34.707031 L 9.050781 34.707031 L 9.050781 7.894531 L 6.945312 11.976562 L 6.945312 8.671875 L 9.484375 3.648438 L 11.617188 3.648438 L 11.617188 34.707031 L 13.519531 34.707031 L 13.519531 37.402344 Z M 19.730469 35.453125 C 20.269531 35.453125 20.644531 34.652344 20.84375 33.039062 C 21.046875 31.421875 21.148438 27.363281 21.148438 20.863281 C 21.148438 14.410156 21.046875 10.363281 20.84375 8.71875 C 20.644531 7.078125 20.269531 6.257812 19.730469 6.257812 C 19.1875 6.257812 18.820312 7.066406 18.617188 8.6875 C 18.414062 10.296875 18.316406 14.355469 18.316406 20.863281 C 18.316406 27.363281 18.414062 31.421875 18.617188 33.039062 C 18.820312 34.652344 19.1875 35.453125 19.730469 35.453125 Z M 19.730469 38.046875 C 18.378906 38.046875 17.34375 36.570312 16.625 33.617188 C 15.910156 30.667969 15.550781 26.414062 15.550781 20.863281 C 15.550781 15.3125 15.910156 11.058594 16.625 8.09375 C 17.34375 5.128906 18.378906 3.648438 19.730469 3.648438 C 21.078125 3.648438 22.109375 5.128906 22.824219 8.09375 C 23.542969 11.058594 23.902344 15.3125 23.902344 20.863281 C 23.902344 26.414062 23.542969 30.667969 22.824219 33.617188 C 22.109375 36.570312 21.078125 38.046875 19.730469 38.046875 Z M 5.25 -5.289062 "/>
<path fill-rule="nonzero" fill="rgb(90.196078%, 9.411765%, 3.921569%)" fill-opacity="1" d="M 162.925781 206.238281 L 162.925781 208.933594 L 161.03125 208.933594 L 161.03125 235.75 L 163.136719 231.667969 L 163.136719 234.972656 L 160.597656 239.996094 L 158.464844 239.996094 L 158.464844 208.933594 L 156.558594 208.933594 L 156.558594 206.238281 Z M 150.347656 208.191406 C 149.808594 208.191406 149.4375 208.992188 149.234375 210.601562 C 149.035156 212.222656 148.933594 216.277344 148.933594 222.777344 C 148.933594 229.230469 149.035156 233.277344 149.234375 234.921875 C 149.4375 236.5625 149.808594 237.382812 150.347656 237.382812 C 150.890625 237.382812 151.261719 236.574219 151.464844 234.957031 C 151.664062 233.34375 151.765625 229.289062 151.765625 222.777344 C 151.765625 216.277344 151.664062 212.222656 151.464844 210.601562 C 151.261719 208.992188 150.890625 208.191406 150.347656 208.191406 Z M 150.347656 205.59375 C 151.699219 205.59375 152.734375 207.070312 153.453125 210.023438 C 154.167969 212.972656 154.527344 217.226562 154.527344 222.777344 C 154.527344 228.328125 154.167969 232.585938 153.453125 235.550781 C 152.734375 238.511719 151.699219 239.996094 150.347656 239.996094 C 149.003906 239.996094 147.96875 238.511719 147.253906 235.550781 C 146.535156 232.585938 146.175781 228.328125 146.175781 222.777344 C 146.175781 217.226562 146.535156 212.972656 147.253906 210.023438 C 147.96875 207.070312 149.003906 205.59375 150.347656 205.59375 Z M 164.828125 248.933594 "/>
<path fill-rule="nonzero" fill="rgb(90.196078%, 9.411765%, 3.921569%)" fill-opacity="1" d="M 22.578125 47.472656 C 22.570312 52.183594 16.667969 55.613281 14.941406 59.34375 C 13.191406 55.621094 7.28125 52.222656 7.238281 47.511719 C 7.230469 45.292969 8.949219 43.480469 11.058594 43.480469 C 13.179688 43.480469 14.910156 45.273438 14.910156 47.492188 C 14.910156 45.261719 16.621094 43.460938 18.730469 43.460938 C 20.851562 43.453125 22.570312 45.253906 22.578125 47.472656 Z M 22.578125 47.472656 "/>
<path fill-rule="nonzero" fill="rgb(90.196078%, 9.411765%, 3.921569%)" fill-opacity="1" d="M 147.511719 196.171875 C 147.519531 191.460938 153.421875 188.03125 155.148438 184.300781 C 156.898438 188.019531 162.808594 191.421875 162.851562 196.128906 C 162.859375 198.351562 161.140625 200.160156 159.03125 200.160156 C 156.910156 200.160156 155.179688 198.371094 155.179688 196.148438 C 155.179688 198.378906 153.46875 200.179688 151.359375 200.179688 C 149.238281 200.191406 147.519531 198.390625 147.511719 196.171875 Z M 147.511719 196.171875 "/>
<path fill-rule="nonzero" fill="rgb(90.196078%, 9.411765%, 3.921569%)" fill-opacity="1" d="M 63.523438 28.578125 C 63.5 39.882812 49.339844 48.113281 45.1875 57.066406 C 40.984375 48.136719 26.800781 39.976562 26.707031 28.671875 C 26.683594 23.347656 30.808594 19 35.875 19 C 40.960938 19 45.113281 23.296875 45.113281 28.625 C 45.113281 23.273438 49.21875 18.953125 54.28125 18.953125 C 59.371094 18.929688 63.5 23.25 63.523438 28.578125 Z M 63.523438 28.578125 "/>
<path fill-rule="nonzero" fill="rgb(90.196078%, 9.411765%, 3.921569%)" fill-opacity="1" d="M 63.523438 82.734375 C 63.5 94.039062 49.339844 102.269531 45.1875 111.222656 C 40.984375 102.292969 26.800781 94.132812 26.707031 82.828125 C 26.683594 77.5 30.808594 73.15625 35.875 73.15625 C 40.960938 73.15625 45.113281 77.453125 45.113281 82.78125 C 45.113281 77.429688 49.21875 73.109375 54.28125 73.109375 C 59.371094 73.085938 63.5 77.40625 63.523438 82.734375 Z M 63.523438 82.734375 "/>
<path fill-rule="nonzero" fill="rgb(90.196078%, 9.411765%, 3.921569%)" fill-opacity="1" d="M 26.707031 156.757812 C 26.730469 145.457031 40.890625 137.222656 45.042969 128.269531 C 49.242188 137.199219 63.425781 145.359375 63.523438 156.664062 C 63.546875 161.992188 59.417969 166.335938 54.355469 166.335938 C 49.265625 166.335938 45.113281 162.039062 45.113281 156.710938 C 45.113281 162.0625 41.011719 166.382812 35.945312 166.382812 C 30.859375 166.40625 26.730469 162.085938 26.707031 156.757812 Z M 26.707031 156.757812 "/>
<path fill-rule="nonzero" fill="rgb(90.196078%, 9.411765%, 3.921569%)" fill-opacity="1" d="M 26.707031 210.914062 C 26.730469 199.613281 40.890625 191.378906 45.042969 182.425781 C 49.242188 191.355469 63.425781 199.515625 63.523438 210.820312 C 63.546875 216.148438 59.417969 220.492188 54.355469 220.492188 C 49.265625 220.492188 45.113281 216.195312 45.113281 210.867188 C 45.113281 216.21875 41.011719 220.539062 35.945312 220.539062 C 30.859375 220.5625 26.730469 216.242188 26.707031 210.914062 Z M 26.707031 210.914062 "/>
<path fill-rule="nonzero" fill="rgb(90.196078%, 9.411765%, 3.921569%)" fill-opacity="1" d="M 143.378906 28.578125 C 143.355469 39.882812 129.195312 48.113281 125.042969 57.066406 C 120.84375 48.136719 106.660156 39.976562 106.5625 28.671875 C 106.539062 23.347656 110.667969 19 115.730469 19 C 120.820312 19 124.972656 23.296875 124.972656 28.625 C 124.972656 23.273438 129.074219 18.953125 134.140625 18.953125 C 139.226562 18.929688 143.355469 23.25 143.378906 28.578125 Z M 143.378906 28.578125 "/>
<path fill-rule="nonzero" fill="rgb(90.196078%, 9.411765%, 3.921569%)" fill-opacity="1" d="M 143.378906 82.734375 C 143.355469 94.039062 129.195312 102.269531 125.042969 111.222656 C 120.84375 102.292969 106.660156 94.132812 106.5625 82.828125 C 106.539062 77.5 110.667969 73.15625 115.730469 73.15625 C 120.820312 73.15625 124.972656 77.453125 124.972656 82.78125 C 124.972656 77.429688 129.074219 73.109375 134.140625 73.109375 C 139.226562 73.085938 143.355469 77.40625 143.378906 82.734375 Z M 143.378906 82.734375 "/>
<path fill-rule="nonzero" fill="rgb(90.196078%, 9.411765%, 3.921569%)" fill-opacity="1" d="M 106.5625 156.757812 C 106.589844 145.457031 120.75 137.222656 124.898438 128.269531 C 129.101562 137.199219 143.285156 145.359375 143.378906 156.664062 C 143.402344 161.992188 139.277344 166.335938 134.210938 166.335938 C 129.125 166.335938 124.972656 162.039062 124.972656 156.710938 C 124.972656 162.0625 120.867188 166.382812 115.804688 166.382812 C 110.714844 166.40625 106.589844 162.085938 106.5625 156.757812 Z M 106.5625 156.757812 "/>
<path fill-rule="nonzero" fill="rgb(90.196078%, 9.411765%, 3.921569%)" fill-opacity="1" d="M 106.5625 210.914062 C 106.589844 199.613281 120.75 191.378906 124.898438 182.425781 C 129.101562 191.355469 143.285156 199.515625 143.378906 210.820312 C 143.402344 216.148438 139.277344 220.492188 134.210938 220.492188 C 129.125 220.492188 124.972656 216.195312 124.972656 210.867188 C 124.972656 216.21875 120.867188 220.539062 115.804688 220.539062 C 110.714844 220.5625 106.589844 216.242188 106.5625 210.914062 Z M 106.5625 210.914062 "/>
<path fill-rule="nonzero" fill="rgb(90.196078%, 9.411765%, 3.921569%)" fill-opacity="1" d="M 103.453125 55.65625 C 103.425781 66.960938 89.265625 75.191406 85.113281 84.144531 C 80.914062 75.21875 66.730469 67.058594 66.636719 55.753906 C 66.609375 50.425781 70.738281 46.082031 75.804688 46.082031 C 80.890625 46.082031 85.042969 50.378906 85.042969 55.703125 C 85.042969 50.351562 89.148438 46.03125 94.210938 46.03125 C 99.300781 46.007812 103.425781 50.328125 103.453125 55.65625 Z M 103.453125 55.65625 "/>
<path fill-rule="nonzero" fill="rgb(90.196078%, 9.411765%, 3.921569%)" fill-opacity="1" d="M 66.636719 183.835938 C 66.660156 172.53125 80.820312 164.300781 84.972656 155.347656 C 89.171875 164.277344 103.355469 172.4375 103.453125 183.738281 C 103.476562 189.066406 99.347656 193.414062 94.285156 193.414062 C 89.195312 193.414062 85.042969 189.117188 85.042969 183.789062 C 85.042969 189.140625 80.9375 193.460938 75.875 193.460938 C 70.789062 193.484375 66.660156 189.164062 66.636719 183.835938 Z M 66.636719 183.835938 "/>
</svg>
