<?xml version="1.0" encoding="UTF-8"?>
<svg xmlns="http://www.w3.org/2000/svg" xmlns:xlink="http://www.w3.org/1999/xlink" width="169.074219" height="244.640625" viewBox="0 0 169.074219 244.640625">
<path fill-rule="nonzero" fill="rgb(100%, 100%, 100%)" fill-opacity="1" stroke-width="2.5" stroke-linecap="butt" stroke-linejoin="miter" stroke="rgb(0%, 0%, 0%)" stroke-opacity="1" stroke-miterlimit="4" d="M 0 -0.000473022 C 0 3.780777 3.089844 6.870621 6.871094 6.870621 L 159.714844 6.870621 C 163.484375 6.870621 166.574219 3.780777 166.574219 -0.000473022 L 166.574219 -228.398911 C 166.574219 -232.180161 163.484375 -235.270004 159.714844 -235.270004 L 6.871094 -235.270004 C 3.089844 -235.270004 0 -232.180161 0 -228.398911 Z M 0 -0.000473022 " transform="matrix(1, 0, 0, 1, 1.25, 236.520004)"/>
<path fill-rule="nonzero" fill="rgb(90.196078%, 9.411765%, 3.921569%)" fill-opacity="1" d="M 20.121094 9.894531 L 12.828125 37.402344 L 10.417969 37.402344 L 17.527344 10.539062 L 8.796875 10.539062 L 8.796875 15.015625 L 7.171875 15.015625 L 7.171875 4.257812 L 20.121094 4.257812 Z M 5.25 -5.289062 "/>
<path fill-rule="nonzero" fill="rgb(90.196078%, 9.411765%, 3.921569%)" fill-opacity="1" d="M 149.949219 233.75 L 157.242188 206.238281 L 159.652344 206.238281 L 152.542969 233.105469 L 161.273438 233.105469 L 161.273438 228.628906 L 162.898438 228.628906 L 162.898438 239.382812 L 149.949219 239.382812 Z M 164.820312 248.933594 "/>
<path fill-rule="nonzero" fill="rgb(90.196078%, 9.411765%, 3.921569%)" fill-opacity="1" d="M 22.570312 47.472656 C 22.558594 52.183594 16.660156 55.613281 14.929688 59.34375 C 13.179688 55.621094 7.269531 52.222656 7.230469 47.511719 C 7.21875 45.292969 8.941406 43.480469 11.050781 43.480469 C 13.171875 43.480469 14.898438 45.273438 14.898438 47.492188 C 14.898438 45.261719 16.609375 43.460938 18.71875 43.460938 C 20.839844 43.453125 22.558594 45.253906 22.570312 47.472656 Z M 22.570312 47.472656 "/>
<path fill-rule="nonzero" fill="rgb(90.196078%, 9.411765%, 3.921569%)" fill-opacity="1" d="M 147.5 196.171875 C 147.511719 191.460938 153.410156 188.03125 155.140625 184.300781 C 156.890625 188.019531 162.800781 191.421875 162.839844 196.128906 C 162.851562 198.351562 161.128906 200.160156 159.019531 200.160156 C 156.898438 200.160156 155.171875 198.371094 155.171875 196.148438 C 155.171875 198.378906 153.460938 200.179688 151.351562 200.179688 C 149.230469 200.191406 147.511719 198.390625 147.5 196.171875 Z M 147.5 196.171875 "/>
<path fill-rule="nonzero" fill="rgb(90.196078%, 9.411765%, 3.921569%)" fill-opacity="1" d="M 63.515625 28.578125 C 63.492188 39.882812 49.332031 48.113281 45.179688 57.066406 C 40.980469 48.136719 26.796875 39.976562 26.699219 28.671875 C 26.675781 23.347656 30.804688 19 35.867188 19 C 40.957031 19 45.109375 23.296875 45.109375 28.625 C 45.109375 23.273438 49.210938 18.953125 54.277344 18.953125 C 59.363281 18.929688 63.492188 23.25 63.515625 28.578125 Z M 63.515625 28.578125 "/>
<path fill-rule="nonzero" fill="rgb(90.196078%, 9.411765%, 3.921569%)" fill-opacity="1" d="M 63.515625 105.519531 C 63.492188 116.824219 49.332031 125.054688 45.179688 134.007812 C 40.980469 125.078125 26.796875 116.917969 26.699219 105.617188 C 26.675781 100.289062 30.804688 95.945312 35.867188 95.945312 C 40.957031 95.945312 45.109375 100.238281 45.109375 105.566406 C 45.109375 100.214844 49.210938 95.894531 54.277344 95.894531 C 59.363281 95.871094 63.492188 100.191406 63.515625 105.519531 Z M 63.515625 105.519531 "/>
<path fill-rule="nonzero" fill="rgb(90.196078%, 9.411765%, 3.921569%)" fill-opacity="1" d="M 26.699219 210.914062 C 26.726562 199.613281 40.886719 191.378906 45.035156 182.425781 C 49.238281 191.355469 63.421875 199.515625 63.515625 210.820312 C 63.539062 216.148438 59.414062 220.492188 54.347656 220.492188 C 49.261719 220.492188 45.109375 216.195312 45.109375 210.867188 C 45.109375 216.21875 41.003906 220.539062 35.941406 220.539062 C 30.851562 220.5625 26.726562 216.242188 26.699219 210.914062 Z M 26.699219 210.914062 "/>
<path fill-rule="nonzero" fill="rgb(90.196078%, 9.411765%, 3.921569%)" fill-opacity="1" d="M 143.375 28.578125 C 143.351562 39.882812 129.191406 48.113281 125.039062 57.066406 C 120.839844 48.136719 106.65625 39.976562 106.558594 28.671875 C 106.535156 23.347656 110.664062 19 115.726562 19 C 120.8125 19 124.964844 23.296875 124.964844 28.625 C 124.964844 23.273438 129.070312 18.953125 134.132812 18.953125 C 139.222656 18.929688 143.351562 23.25 143.375 28.578125 Z M 143.375 28.578125 "/>
<path fill-rule="nonzero" fill="rgb(90.196078%, 9.411765%, 3.921569%)" fill-opacity="1" d="M 143.375 105.519531 C 143.351562 116.824219 129.191406 125.054688 125.039062 134.007812 C 120.839844 125.078125 106.65625 116.917969 106.558594 105.617188 C 106.535156 100.289062 110.664062 95.945312 115.726562 95.945312 C 120.8125 95.945312 124.964844 100.238281 124.964844 105.566406 C 124.964844 100.214844 129.070312 95.894531 134.132812 95.894531 C 139.222656 95.871094 143.351562 100.191406 143.375 105.519531 Z M 143.375 105.519531 "/>
<path fill-rule="nonzero" fill="rgb(90.196078%, 9.411765%, 3.921569%)" fill-opacity="1" d="M 106.558594 210.914062 C 106.582031 199.613281 120.742188 191.378906 124.894531 182.425781 C 129.09375 191.355469 143.277344 199.515625 143.375 210.820312 C 143.398438 216.148438 139.269531 220.492188 134.207031 220.492188 C 129.117188 220.492188 124.964844 216.195312 124.964844 210.867188 C 124.964844 216.21875 120.863281 220.539062 115.796875 220.539062 C 110.710938 220.5625 106.582031 216.242188 106.558594 210.914062 Z M 106.558594 210.914062 "/>
<path fill-rule="nonzero" fill="rgb(90.196078%, 9.411765%, 3.921569%)" fill-opacity="1" d="M 103.445312 82.734375 C 103.421875 94.039062 89.261719 102.269531 85.109375 111.222656 C 80.910156 102.292969 66.726562 94.132812 66.628906 82.828125 C 66.605469 77.5 70.734375 73.15625 75.796875 73.15625 C 80.886719 73.15625 85.039062 77.453125 85.039062 82.78125 C 85.039062 77.429688 89.140625 73.109375 94.207031 73.109375 C 99.292969 73.085938 103.421875 77.40625 103.445312 82.734375 Z M 103.445312 82.734375 "/>
</svg>
