<?xml version="1.0" encoding="UTF-8"?>
<svg xmlns="http://www.w3.org/2000/svg" xmlns:xlink="http://www.w3.org/1999/xlink" width="169.074219" height="244.640625" viewBox="0 0 169.074219 244.640625">
<path fill-rule="nonzero" fill="rgb(100%, 100%, 100%)" fill-opacity="1" stroke-width="2.5" stroke-linecap="butt" stroke-linejoin="miter" stroke="rgb(0%, 0%, 0%)" stroke-opacity="1" stroke-miterlimit="4" d="M 0 -0.000457764 C 0 3.780792 3.089844 6.870636 6.871094 6.870636 L 159.714844 6.870636 C 163.484375 6.870636 166.574219 3.780792 166.574219 -0.000457764 L 166.574219 -228.398895 C 166.574219 -232.180145 163.484375 -235.269989 159.714844 -235.269989 L 6.871094 -235.269989 C 3.089844 -235.269989 0 -232.180145 0 -228.398895 Z M 0 -0.000457764 " transform="matrix(1, 0, 0, 1, 1.25, 236.519989)"/>
<path fill-rule="nonzero" fill="rgb(0%, 0%, 0%)" fill-opacity="1" d="M 5.054688 37.402344 L 5.054688 34.710938 L 6.503906 34.710938 L 13.171875 4.261719 L 16.003906 4.261719 L 22.671875 34.710938 L 24.355469 34.710938 L 24.355469 37.402344 L 16.074219 37.402344 L 16.074219 34.710938 L 17.800781 34.710938 L 16.347656 27.953125 L 9.695312 27.953125 L 8.214844 34.710938 L 10.320312 34.710938 L 10.320312 37.402344 Z M 10.277344 25.257812 L 15.765625 25.257812 L 13.039062 12.585938 Z M 5.25 -5.289062 "/>
<path fill-rule="nonzero" fill="rgb(0%, 0%, 0%)" fill-opacity="1" d="M 165.019531 206.238281 L 165.019531 208.933594 L 163.574219 208.933594 L 156.902344 239.382812 L 154.074219 239.382812 L 147.402344 208.933594 L 145.71875 208.933594 L 145.71875 206.238281 L 154 206.238281 L 154 208.933594 L 152.273438 208.933594 L 153.726562 215.691406 L 160.378906 215.691406 L 161.859375 208.933594 L 159.753906 208.933594 L 159.753906 206.238281 Z M 159.796875 218.382812 L 154.3125 218.382812 L 157.035156 231.054688 Z M 164.824219 248.933594 "/>
<path fill-rule="nonzero" fill="rgb(0%, 0%, 0%)" fill-opacity="1" d="M 10.980469 59.332031 C 12.648438 59.332031 13.53125 57.554688 13.988281 55.773438 C 14.449219 53.992188 14.488281 52.214844 14.488281 52.214844 L 15.339844 52.203125 C 15.339844 52.203125 15.5 59.332031 18.839844 59.332031 Z M 10.980469 59.332031 "/>
<path fill-rule="nonzero" fill="rgb(0%, 0%, 0%)" fill-opacity="1" d="M 8.148438 52.203125 C 8.160156 48.734375 13.371094 46.214844 14.898438 43.472656 C 16.429688 46.222656 21.640625 48.742188 21.648438 52.203125 C 21.648438 53.84375 20.140625 55.171875 18.269531 55.171875 C 16.410156 55.171875 14.898438 53.84375 14.898438 52.203125 C 14.898438 53.84375 13.390625 55.171875 11.519531 55.171875 C 9.648438 55.171875 8.148438 53.84375 8.148438 52.203125 Z M 8.148438 52.203125 "/>
<path fill-rule="nonzero" fill="rgb(0%, 0%, 0%)" fill-opacity="1" d="M 159.09375 184.308594 C 157.425781 184.308594 156.546875 186.089844 156.085938 187.871094 C 155.625 189.648438 155.585938 191.429688 155.585938 191.429688 L 154.734375 191.441406 C 154.734375 191.441406 154.574219 184.308594 151.234375 184.308594 Z M 159.09375 184.308594 "/>
<path fill-rule="nonzero" fill="rgb(0%, 0%, 0%)" fill-opacity="1" d="M 161.925781 191.441406 C 161.914062 194.910156 156.703125 197.429688 155.175781 200.171875 C 153.644531 197.421875 148.433594 194.898438 148.425781 191.441406 C 148.425781 189.800781 149.933594 188.46875 151.804688 188.46875 C 153.664062 188.46875 155.175781 189.800781 155.175781 191.441406 C 155.175781 189.800781 156.683594 188.46875 158.554688 188.46875 C 160.425781 188.46875 161.925781 189.800781 161.925781 191.441406 Z M 161.925781 191.441406 "/>
<path fill-rule="nonzero" fill="rgb(0%, 0%, 0%)" fill-opacity="1" d="M 75.628906 133.984375 C 79.636719 133.984375 81.75 129.710938 82.855469 125.4375 C 83.957031 121.167969 84.054688 116.894531 84.054688 116.894531 L 86.09375 116.871094 C 86.09375 116.871094 86.476562 133.984375 94.492188 133.984375 Z M 75.628906 133.984375 "/>
<path fill-rule="nonzero" fill="rgb(0%, 0%, 0%)" fill-opacity="1" d="M 68.835938 116.871094 C 68.863281 108.542969 81.367188 102.496094 85.039062 95.917969 C 88.710938 102.519531 101.214844 108.566406 101.238281 116.871094 C 101.238281 120.808594 97.613281 124 93.125 124 C 88.660156 124 85.039062 120.808594 85.039062 116.871094 C 85.039062 120.808594 81.414062 124 76.925781 124 C 72.4375 124 68.835938 120.808594 68.835938 116.871094 Z M 68.835938 116.871094 "/>
</svg>
