<?xml version="1.0" encoding="UTF-8"?>
<svg xmlns="http://www.w3.org/2000/svg" xmlns:xlink="http://www.w3.org/1999/xlink" width="169.074219" height="244.640625" viewBox="0 0 169.074219 244.640625">
<path fill-rule="nonzero" fill="rgb(100%, 100%, 100%)" fill-opacity="1" stroke-width="2.5" stroke-linecap="butt" stroke-linejoin="miter" stroke="rgb(0%, 0%, 0%)" stroke-opacity="1" stroke-miterlimit="4" d="M 0 -0.000457764 C 0 3.780792 3.089844 6.870636 6.871094 6.870636 L 159.714844 6.870636 C 163.484375 6.870636 166.574219 3.780792 166.574219 -0.000457764 L 166.574219 -228.398895 C 166.574219 -232.180145 163.484375 -235.269989 159.714844 -235.269989 L 6.871094 -235.269989 C 3.089844 -235.269989 0 -232.180145 0 -228.398895 Z M 0 -0.000457764 " transform="matrix(1, 0, 0, 1, 1.25, 236.519989)"/>
<path fill-rule="nonzero" fill="rgb(0%, 0%, 0%)" fill-opacity="1" d="M 20.738281 37.402344 L 11 37.402344 L 11 34.710938 L 13.628906 34.710938 L 13.628906 28.679688 L 6.246094 28.679688 L 6.246094 26.117188 L 13.65625 3.648438 L 18.109375 3.648438 L 18.109375 25.820312 L 21.144531 25.820312 L 21.144531 28.679688 L 18.109375 28.679688 L 18.109375 34.710938 L 20.738281 34.710938 Z M 13.628906 25.820312 L 13.628906 9.710938 L 8.355469 25.820312 Z M 5.25 -5.289062 "/>
<path fill-rule="nonzero" fill="rgb(0%, 0%, 0%)" fill-opacity="1" d="M 149.335938 206.238281 L 159.074219 206.238281 L 159.074219 208.933594 L 156.445312 208.933594 L 156.445312 214.964844 L 163.828125 214.964844 L 163.828125 217.523438 L 156.417969 239.996094 L 151.964844 239.996094 L 151.964844 217.820312 L 148.929688 217.820312 L 148.929688 214.964844 L 151.964844 214.964844 L 151.964844 208.933594 L 149.335938 208.933594 Z M 156.445312 217.820312 L 156.445312 233.929688 L 161.71875 217.820312 Z M 164.824219 248.933594 "/>
<path fill-rule="nonzero" fill="rgb(0%, 0%, 0%)" fill-opacity="1" d="M 10.980469 59.332031 C 12.648438 59.332031 13.53125 57.554688 13.988281 55.773438 C 14.449219 53.992188 14.488281 52.214844 14.488281 52.214844 L 15.339844 52.203125 C 15.339844 52.203125 15.5 59.332031 18.839844 59.332031 Z M 10.980469 59.332031 "/>
<path fill-rule="nonzero" fill="rgb(0%, 0%, 0%)" fill-opacity="1" d="M 8.148438 52.203125 C 8.160156 48.734375 13.371094 46.214844 14.898438 43.472656 C 16.429688 46.222656 21.640625 48.742188 21.648438 52.203125 C 21.648438 53.84375 20.140625 55.171875 18.269531 55.171875 C 16.410156 55.171875 14.898438 53.84375 14.898438 52.203125 C 14.898438 53.84375 13.390625 55.171875 11.519531 55.171875 C 9.648438 55.171875 8.148438 53.84375 8.148438 52.203125 Z M 8.148438 52.203125 "/>
<path fill-rule="nonzero" fill="rgb(0%, 0%, 0%)" fill-opacity="1" d="M 159.09375 184.308594 C 157.425781 184.308594 156.546875 186.089844 156.085938 187.871094 C 155.625 189.648438 155.585938 191.429688 155.585938 191.429688 L 154.734375 191.441406 C 154.734375 191.441406 154.574219 184.308594 151.234375 184.308594 Z M 159.09375 184.308594 "/>
<path fill-rule="nonzero" fill="rgb(0%, 0%, 0%)" fill-opacity="1" d="M 161.925781 191.441406 C 161.914062 194.910156 156.703125 197.429688 155.175781 200.171875 C 153.644531 197.421875 148.433594 194.898438 148.425781 191.441406 C 148.425781 189.800781 149.933594 188.46875 151.804688 188.46875 C 153.664062 188.46875 155.175781 189.800781 155.175781 191.441406 C 155.175781 189.800781 156.683594 188.46875 158.554688 188.46875 C 160.425781 188.46875 161.925781 189.800781 161.925781 191.441406 Z M 161.925781 191.441406 "/>
<path fill-rule="nonzero" fill="rgb(0%, 0%, 0%)" fill-opacity="1" d="M 35.699219 57.042969 C 39.707031 57.042969 41.820312 52.769531 42.925781 48.496094 C 44.027344 44.226562 44.125 39.953125 44.125 39.953125 L 46.164062 39.929688 C 46.164062 39.929688 46.546875 57.042969 54.5625 57.042969 Z M 35.699219 57.042969 "/>
<path fill-rule="nonzero" fill="rgb(0%, 0%, 0%)" fill-opacity="1" d="M 28.90625 39.929688 C 28.933594 31.601562 41.4375 25.554688 45.109375 18.976562 C 48.78125 25.578125 61.285156 31.625 61.308594 39.929688 C 61.308594 43.867188 57.683594 47.058594 53.195312 47.058594 C 48.730469 47.058594 45.109375 43.867188 45.109375 39.929688 C 45.109375 43.867188 41.484375 47.058594 36.996094 47.058594 C 32.507812 47.058594 28.90625 43.867188 28.90625 39.929688 Z M 28.90625 39.929688 "/>
<path fill-rule="nonzero" fill="rgb(0%, 0%, 0%)" fill-opacity="1" d="M 54.515625 182.453125 C 50.507812 182.453125 48.394531 186.722656 47.292969 190.996094 C 46.1875 195.265625 46.09375 199.539062 46.09375 199.539062 L 44.050781 199.5625 C 44.050781 199.5625 43.667969 182.453125 35.652344 182.453125 Z M 54.515625 182.453125 "/>
<path fill-rule="nonzero" fill="rgb(0%, 0%, 0%)" fill-opacity="1" d="M 61.308594 199.5625 C 61.285156 207.890625 48.78125 213.9375 45.109375 220.515625 C 41.4375 213.914062 28.933594 207.867188 28.910156 199.5625 C 28.910156 195.628906 32.53125 192.433594 37.019531 192.433594 C 41.484375 192.433594 45.109375 195.628906 45.109375 199.5625 C 45.109375 195.628906 48.730469 192.433594 53.21875 192.433594 C 57.707031 192.433594 61.308594 195.628906 61.308594 199.5625 Z M 61.308594 199.5625 "/>
<path fill-rule="nonzero" fill="rgb(0%, 0%, 0%)" fill-opacity="1" d="M 115.558594 57.042969 C 119.566406 57.042969 121.679688 52.769531 122.78125 48.496094 C 123.886719 44.226562 123.980469 39.953125 123.980469 39.953125 L 126.023438 39.929688 C 126.023438 39.929688 126.40625 57.042969 134.421875 57.042969 Z M 115.558594 57.042969 "/>
<path fill-rule="nonzero" fill="rgb(0%, 0%, 0%)" fill-opacity="1" d="M 108.765625 39.929688 C 108.789062 31.601562 121.292969 25.554688 124.964844 18.976562 C 128.636719 25.578125 141.140625 31.625 141.164062 39.929688 C 141.164062 43.867188 137.542969 47.058594 133.054688 47.058594 C 128.589844 47.058594 124.964844 43.867188 124.964844 39.929688 C 124.964844 43.867188 121.339844 47.058594 116.855469 47.058594 C 112.367188 47.058594 108.765625 43.867188 108.765625 39.929688 Z M 108.765625 39.929688 "/>
<path fill-rule="nonzero" fill="rgb(0%, 0%, 0%)" fill-opacity="1" d="M 134.375 182.453125 C 130.367188 182.453125 128.253906 186.722656 127.148438 190.996094 C 126.046875 195.265625 125.949219 199.539062 125.949219 199.539062 L 123.910156 199.5625 C 123.910156 199.5625 123.527344 182.453125 115.511719 182.453125 Z M 134.375 182.453125 "/>
<path fill-rule="nonzero" fill="rgb(0%, 0%, 0%)" fill-opacity="1" d="M 141.164062 199.5625 C 141.140625 207.890625 128.636719 213.9375 124.964844 220.515625 C 121.292969 213.914062 108.789062 207.867188 108.765625 199.5625 C 108.765625 195.628906 112.390625 192.433594 116.878906 192.433594 C 121.34375 192.433594 124.964844 195.628906 124.964844 199.5625 C 124.964844 195.628906 128.589844 192.433594 133.078125 192.433594 C 137.566406 192.433594 141.164062 195.628906 141.164062 199.5625 Z M 141.164062 199.5625 "/>
</svg>
