<?xml version="1.0" encoding="UTF-8"?>
<svg xmlns="http://www.w3.org/2000/svg" xmlns:xlink="http://www.w3.org/1999/xlink" width="169.074219" height="244.640625" viewBox="0 0 169.074219 244.640625">
<path fill-rule="nonzero" fill="rgb(100%, 100%, 100%)" fill-opacity="1" stroke-width="2.5" stroke-linecap="butt" stroke-linejoin="miter" stroke="rgb(0%, 0%, 0%)" stroke-opacity="1" stroke-miterlimit="4" d="M 0 -0.000457764 C 0 3.780792 3.089844 6.870636 6.871094 6.870636 L 159.714844 6.870636 C 163.484375 6.870636 166.574219 3.780792 166.574219 -0.000457764 L 166.574219 -228.398895 C 166.574219 -232.180145 163.484375 -235.269989 159.714844 -235.269989 L 6.871094 -235.269989 C 3.089844 -235.269989 0 -232.180145 0 -228.398895 Z M 0 -0.000457764 " transform="matrix(1, 0, 0, 1, 1.25, 236.519989)"/>
<path fill-rule="nonzero" fill="rgb(0%, 0%, 0%)" fill-opacity="1" d="M 13.523438 6.257812 C 12.710938 6.257812 12.132812 6.910156 11.785156 8.207031 C 11.445312 9.496094 11.273438 11.738281 11.273438 14.933594 C 11.273438 18.128906 11.445312 20.378906 11.785156 21.675781 C 12.132812 22.976562 12.710938 23.625 13.523438 23.625 C 14.335938 23.625 14.914062 22.976562 15.261719 21.675781 C 15.613281 20.378906 15.789062 18.128906 15.789062 14.933594 C 15.789062 11.738281 15.613281 9.496094 15.261719 8.207031 C 14.914062 6.910156 14.335938 6.257812 13.523438 6.257812 Z M 16.171875 23.90625 C 15.644531 24.6875 15.066406 25.277344 14.433594 25.671875 C 13.796875 26.0625 13.105469 26.25 12.359375 26.25 C 10.558594 26.25 9.140625 25.265625 8.109375 23.292969 C 7.078125 21.324219 6.5625 18.597656 6.5625 15.113281 C 6.5625 11.445312 7.140625 8.621094 8.292969 6.640625 C 9.449219 4.648438 11.101562 3.648438 13.242188 3.648438 C 15.660156 3.648438 17.488281 5.019531 18.738281 7.761719 C 19.988281 10.503906 20.617188 14.515625 20.617188 19.789062 C 20.617188 25.816406 19.921875 30.363281 18.535156 33.4375 C 17.152344 36.511719 15.101562 38.046875 12.386719 38.046875 C 11.671875 38.046875 10.910156 37.9375 10.09375 37.71875 C 9.28125 37.492188 8.410156 37.164062 7.480469 36.710938 L 7.480469 30.859375 L 8.910156 30.859375 C 9.109375 32.371094 9.484375 33.515625 10.03125 34.296875 C 10.582031 35.070312 11.296875 35.453125 12.175781 35.453125 C 13.5625 35.453125 14.570312 34.554688 15.199219 32.742188 C 15.835938 30.925781 16.15625 27.980469 16.171875 23.90625 Z M 5.25 -5.289062 "/>
<path fill-rule="nonzero" fill="rgb(0%, 0%, 0%)" fill-opacity="1" d="M 156.546875 237.382812 C 157.359375 237.382812 157.9375 236.730469 158.285156 235.433594 C 158.625 234.144531 158.796875 231.902344 158.796875 228.710938 C 158.796875 225.511719 158.625 223.265625 158.285156 221.96875 C 157.9375 220.667969 157.359375 220.019531 156.546875 220.019531 C 155.734375 220.019531 155.15625 220.667969 154.808594 221.96875 C 154.457031 223.265625 154.277344 225.511719 154.277344 228.710938 C 154.277344 231.902344 154.457031 234.144531 154.808594 235.433594 C 155.15625 236.730469 155.734375 237.382812 156.546875 237.382812 Z M 153.898438 219.738281 C 154.425781 218.953125 155.003906 218.367188 155.636719 217.96875 C 156.273438 217.582031 156.964844 217.390625 157.710938 217.390625 C 159.511719 217.390625 160.929688 218.375 161.960938 220.351562 C 162.992188 222.320312 163.503906 225.046875 163.503906 228.527344 C 163.503906 232.195312 162.929688 235.019531 161.777344 237.003906 C 160.621094 238.996094 158.96875 239.996094 156.828125 239.996094 C 154.410156 239.996094 152.582031 238.625 151.332031 235.878906 C 150.082031 233.136719 149.453125 229.128906 149.453125 223.851562 C 149.453125 217.824219 150.148438 213.277344 151.535156 210.207031 C 152.917969 207.132812 154.96875 205.59375 157.683594 205.59375 C 158.394531 205.59375 159.160156 205.707031 159.976562 205.925781 C 160.789062 206.148438 161.660156 206.480469 162.589844 206.933594 L 162.589844 212.78125 L 161.160156 212.78125 C 160.960938 211.269531 160.585938 210.125 160.039062 209.347656 C 159.488281 208.574219 158.773438 208.191406 157.894531 208.191406 C 156.507812 208.191406 155.5 209.089844 154.871094 210.898438 C 154.234375 212.714844 153.914062 215.660156 153.898438 219.738281 Z M 164.820312 248.933594 "/>
<path fill-rule="nonzero" fill="rgb(0%, 0%, 0%)" fill-opacity="1" d="M 10.980469 59.332031 C 12.648438 59.332031 13.53125 57.554688 13.988281 55.773438 C 14.449219 53.992188 14.488281 52.214844 14.488281 52.214844 L 15.339844 52.203125 C 15.339844 52.203125 15.5 59.332031 18.839844 59.332031 Z M 10.980469 59.332031 "/>
<path fill-rule="nonzero" fill="rgb(0%, 0%, 0%)" fill-opacity="1" d="M 8.148438 52.203125 C 8.160156 48.734375 13.371094 46.214844 14.898438 43.472656 C 16.429688 46.222656 21.640625 48.742188 21.648438 52.203125 C 21.648438 53.84375 20.140625 55.171875 18.269531 55.171875 C 16.410156 55.171875 14.898438 53.84375 14.898438 52.203125 C 14.898438 53.84375 13.390625 55.171875 11.519531 55.171875 C 9.648438 55.171875 8.148438 53.84375 8.148438 52.203125 Z M 8.148438 52.203125 "/>
<path fill-rule="nonzero" fill="rgb(0%, 0%, 0%)" fill-opacity="1" d="M 159.089844 184.308594 C 157.421875 184.308594 156.539062 186.089844 156.078125 187.871094 C 155.621094 189.648438 155.578125 191.429688 155.578125 191.429688 L 154.730469 191.441406 C 154.730469 191.441406 154.570312 184.308594 151.230469 184.308594 Z M 159.089844 184.308594 "/>
<path fill-rule="nonzero" fill="rgb(0%, 0%, 0%)" fill-opacity="1" d="M 161.921875 191.441406 C 161.910156 194.910156 156.699219 197.429688 155.171875 200.171875 C 153.640625 197.421875 148.429688 194.898438 148.421875 191.441406 C 148.421875 189.800781 149.929688 188.46875 151.800781 188.46875 C 153.660156 188.46875 155.171875 189.800781 155.171875 191.441406 C 155.171875 189.800781 156.679688 188.46875 158.550781 188.46875 C 160.421875 188.46875 161.921875 189.800781 161.921875 191.441406 Z M 161.921875 191.441406 "/>
<path fill-rule="nonzero" fill="rgb(0%, 0%, 0%)" fill-opacity="1" d="M 35.703125 57.042969 C 39.710938 57.042969 41.820312 52.769531 42.925781 48.496094 C 44.027344 44.226562 44.125 39.953125 44.125 39.953125 L 46.164062 39.929688 C 46.164062 39.929688 46.550781 57.042969 54.566406 57.042969 Z M 35.703125 57.042969 "/>
<path fill-rule="nonzero" fill="rgb(0%, 0%, 0%)" fill-opacity="1" d="M 28.910156 39.929688 C 28.933594 31.601562 41.4375 25.554688 45.109375 18.976562 C 48.78125 25.578125 61.285156 31.625 61.308594 39.929688 C 61.308594 43.867188 57.683594 47.058594 53.199219 47.058594 C 48.734375 47.058594 45.109375 43.867188 45.109375 39.929688 C 45.109375 43.867188 41.484375 47.058594 36.996094 47.058594 C 32.507812 47.058594 28.910156 43.867188 28.910156 39.929688 Z M 28.910156 39.929688 "/>
<path fill-rule="nonzero" fill="rgb(0%, 0%, 0%)" fill-opacity="1" d="M 35.703125 111.199219 C 39.710938 111.199219 41.820312 106.925781 42.925781 102.652344 C 44.027344 98.382812 44.125 94.109375 44.125 94.109375 L 46.164062 94.085938 C 46.164062 94.085938 46.550781 111.199219 54.566406 111.199219 Z M 35.703125 111.199219 "/>
<path fill-rule="nonzero" fill="rgb(0%, 0%, 0%)" fill-opacity="1" d="M 28.910156 94.085938 C 28.933594 85.757812 41.4375 79.710938 45.109375 73.132812 C 48.78125 79.734375 61.285156 85.78125 61.308594 94.085938 C 61.308594 98.023438 57.683594 101.214844 53.199219 101.214844 C 48.734375 101.214844 45.109375 98.023438 45.109375 94.085938 C 45.109375 98.023438 41.484375 101.214844 36.996094 101.214844 C 32.507812 101.214844 28.910156 98.023438 28.910156 94.085938 Z M 28.910156 94.085938 "/>
<path fill-rule="nonzero" fill="rgb(0%, 0%, 0%)" fill-opacity="1" d="M 54.515625 128.296875 C 50.507812 128.296875 48.398438 132.566406 47.292969 136.839844 C 46.1875 141.109375 46.09375 145.382812 46.09375 145.382812 L 44.054688 145.40625 C 44.054688 145.40625 43.667969 128.296875 35.652344 128.296875 Z M 54.515625 128.296875 "/>
<path fill-rule="nonzero" fill="rgb(0%, 0%, 0%)" fill-opacity="1" d="M 61.308594 145.40625 C 61.285156 153.734375 48.78125 159.785156 45.109375 166.359375 C 41.4375 159.757812 28.933594 153.710938 28.910156 145.40625 C 28.910156 141.472656 32.535156 138.277344 37.019531 138.277344 C 41.484375 138.277344 45.109375 141.472656 45.109375 145.40625 C 45.109375 141.472656 48.734375 138.277344 53.222656 138.277344 C 57.710938 138.277344 61.308594 141.472656 61.308594 145.40625 Z M 61.308594 145.40625 "/>
<path fill-rule="nonzero" fill="rgb(0%, 0%, 0%)" fill-opacity="1" d="M 54.515625 182.453125 C 50.507812 182.453125 48.398438 186.722656 47.292969 190.996094 C 46.1875 195.265625 46.09375 199.539062 46.09375 199.539062 L 44.054688 199.5625 C 44.054688 199.5625 43.667969 182.453125 35.652344 182.453125 Z M 54.515625 182.453125 "/>
<path fill-rule="nonzero" fill="rgb(0%, 0%, 0%)" fill-opacity="1" d="M 61.308594 199.5625 C 61.285156 207.890625 48.78125 213.9375 45.109375 220.515625 C 41.4375 213.914062 28.933594 207.867188 28.910156 199.5625 C 28.910156 195.628906 32.535156 192.433594 37.019531 192.433594 C 41.484375 192.433594 45.109375 195.628906 45.109375 199.5625 C 45.109375 195.628906 48.734375 192.433594 53.222656 192.433594 C 57.710938 192.433594 61.308594 195.628906 61.308594 199.5625 Z M 61.308594 199.5625 "/>
<path fill-rule="nonzero" fill="rgb(0%, 0%, 0%)" fill-opacity="1" d="M 115.558594 57.042969 C 119.566406 57.042969 121.679688 52.769531 122.78125 48.496094 C 123.886719 44.226562 123.984375 39.953125 123.984375 39.953125 L 126.023438 39.929688 C 126.023438 39.929688 126.40625 57.042969 134.421875 57.042969 Z M 115.558594 57.042969 "/>
<path fill-rule="nonzero" fill="rgb(0%, 0%, 0%)" fill-opacity="1" d="M 108.765625 39.929688 C 108.789062 31.601562 121.292969 25.554688 124.964844 18.976562 C 128.636719 25.578125 141.144531 31.625 141.167969 39.929688 C 141.167969 43.867188 137.542969 47.058594 133.054688 47.058594 C 128.589844 47.058594 124.964844 43.867188 124.964844 39.929688 C 124.964844 43.867188 121.34375 47.058594 116.855469 47.058594 C 112.367188 47.058594 108.765625 43.867188 108.765625 39.929688 Z M 108.765625 39.929688 "/>
<path fill-rule="nonzero" fill="rgb(0%, 0%, 0%)" fill-opacity="1" d="M 115.558594 111.199219 C 119.566406 111.199219 121.679688 106.925781 122.78125 102.652344 C 123.886719 98.382812 123.984375 94.109375 123.984375 94.109375 L 126.023438 94.085938 C 126.023438 94.085938 126.40625 111.199219 134.421875 111.199219 Z M 115.558594 111.199219 "/>
<path fill-rule="nonzero" fill="rgb(0%, 0%, 0%)" fill-opacity="1" d="M 108.765625 94.085938 C 108.789062 85.757812 121.292969 79.710938 124.964844 73.132812 C 128.636719 79.734375 141.144531 85.78125 141.167969 94.085938 C 141.167969 98.023438 137.542969 101.214844 133.054688 101.214844 C 128.589844 101.214844 124.964844 98.023438 124.964844 94.085938 C 124.964844 98.023438 121.34375 101.214844 116.855469 101.214844 C 112.367188 101.214844 108.765625 98.023438 108.765625 94.085938 Z M 108.765625 94.085938 "/>
<path fill-rule="nonzero" fill="rgb(0%, 0%, 0%)" fill-opacity="1" d="M 134.375 128.296875 C 130.367188 128.296875 128.253906 132.566406 127.152344 136.839844 C 126.046875 141.109375 125.949219 145.382812 125.949219 145.382812 L 123.910156 145.40625 C 123.910156 145.40625 123.527344 128.296875 115.511719 128.296875 Z M 134.375 128.296875 "/>
<path fill-rule="nonzero" fill="rgb(0%, 0%, 0%)" fill-opacity="1" d="M 141.167969 145.40625 C 141.144531 153.734375 128.640625 159.785156 124.96875 166.359375 C 121.296875 159.757812 108.789062 153.710938 108.765625 145.40625 C 108.765625 141.472656 112.390625 138.277344 116.878906 138.277344 C 121.34375 138.277344 124.96875 141.472656 124.96875 145.40625 C 124.96875 141.472656 128.589844 138.277344 133.078125 138.277344 C 137.566406 138.277344 141.167969 141.472656 141.167969 145.40625 Z M 141.167969 145.40625 "/>
<path fill-rule="nonzero" fill="rgb(0%, 0%, 0%)" fill-opacity="1" d="M 134.375 182.453125 C 130.367188 182.453125 128.253906 186.722656 127.152344 190.996094 C 126.046875 195.265625 125.949219 199.539062 125.949219 199.539062 L 123.910156 199.5625 C 123.910156 199.5625 123.527344 182.453125 115.511719 182.453125 Z M 134.375 182.453125 "/>
<path fill-rule="nonzero" fill="rgb(0%, 0%, 0%)" fill-opacity="1" d="M 141.167969 199.5625 C 141.144531 207.890625 128.640625 213.9375 124.96875 220.515625 C 121.296875 213.914062 108.789062 207.867188 108.765625 199.5625 C 108.765625 195.628906 112.390625 192.433594 116.878906 192.433594 C 121.34375 192.433594 124.96875 195.628906 124.96875 199.5625 C 124.96875 195.628906 128.589844 192.433594 133.078125 192.433594 C 137.566406 192.433594 141.167969 195.628906 141.167969 199.5625 Z M 141.167969 199.5625 "/>
<path fill-rule="nonzero" fill="rgb(0%, 0%, 0%)" fill-opacity="1" d="M 75.628906 84.121094 C 79.636719 84.121094 81.75 79.847656 82.855469 75.578125 C 83.957031 71.304688 84.054688 67.03125 84.054688 67.03125 L 86.09375 67.007812 C 86.09375 67.007812 86.476562 84.121094 94.492188 84.121094 Z M 75.628906 84.121094 "/>
<path fill-rule="nonzero" fill="rgb(0%, 0%, 0%)" fill-opacity="1" d="M 68.835938 67.007812 C 68.863281 58.679688 81.367188 52.632812 85.039062 46.058594 C 88.710938 52.65625 101.214844 58.703125 101.238281 67.007812 C 101.238281 70.945312 97.613281 74.136719 93.125 74.136719 C 88.660156 74.136719 85.039062 70.945312 85.039062 67.007812 C 85.039062 70.945312 81.414062 74.136719 76.925781 74.136719 C 72.4375 74.136719 68.835938 70.945312 68.835938 67.007812 Z M 68.835938 67.007812 "/>
</svg>
